<svg xmlns="http://www.w3.org/2000/svg" width="545" height="650" viewBox="0 0 545 650">
  <g id="Grupo_8318" data-name="Grupo 8318" transform="translate(-110 -732)">
    <path id="Trazado_12811" data-name="Trazado 12811" d="M0,0H545V650H0Z" transform="translate(110 732)" fill="#fff"/>
    <g id="Trazado_12812" data-name="Trazado 12812" transform="translate(177 808)" fill="none">
      <path d="M0,0H189V519H0Z" stroke="none"/>
      <path d="M 2 2 L 2 517 L 187 517 L 187 2 L 2 2 M 0 0 L 189 0 L 189 519 L 0 519 L 0 0 Z" stroke="none" fill="#00a99a"/>
    </g>
    <g id="Trazado_12813" data-name="Trazado 12813" transform="translate(177 808)" fill="none">
      <path d="M0,0H189V134H0Z" stroke="none"/>
      <path d="M 2 2 L 2 132 L 187 132 L 187 2 L 2 2 M 0 0 L 189 0 L 189 134 L 0 134 L 0 0 Z" stroke="none" fill="#00a99a"/>
    </g>
    <path id="Trazado_12814" data-name="Trazado 12814" d="M5,0a5.268,5.268,0,0,1,5,5.5A5.268,5.268,0,0,1,5,11,5.268,5.268,0,0,1,0,5.5,5.268,5.268,0,0,1,5,0Z" transform="translate(174 804)" fill="#00a99a"/>
    <path id="Trazado_12815" data-name="Trazado 12815" d="M5,0a5.268,5.268,0,0,1,5,5.5A5.268,5.268,0,0,1,5,11,5.268,5.268,0,0,1,0,5.5,5.268,5.268,0,0,1,5,0Z" transform="translate(174 936)" fill="#00a99a"/>
    <path id="Trazado_12823" data-name="Trazado 12823" d="M5.5,0A5.5,5.5,0,1,1,0,5.5,5.5,5.5,0,0,1,5.5,0Z" transform="translate(360 936)" fill="#00a99a"/>
    <path id="Trazado_12824" data-name="Trazado 12824" d="M5.5,0A5.5,5.5,0,1,1,0,5.5,5.5,5.5,0,0,1,5.5,0Z" transform="translate(360 1320)" fill="#00a99a"/>
    <path id="Trazado_12816" data-name="Trazado 12816" d="M5,0a5.268,5.268,0,0,1,5,5.5A5.268,5.268,0,0,1,5,11,5.268,5.268,0,0,1,0,5.5,5.268,5.268,0,0,1,5,0Z" transform="translate(174 1320)" fill="#00a99a"/>
    <path id="Trazado_12817" data-name="Trazado 12817" d="M5,0a5.268,5.268,0,0,1,5,5.5A5.268,5.268,0,0,1,5,11,5.268,5.268,0,0,1,0,5.5,5.268,5.268,0,0,1,5,0Z" transform="translate(241 804)" fill="#00a99a"/>
    <path id="Trazado_12818" data-name="Trazado 12818" d="M5.5,0A5.5,5.5,0,1,1,0,5.5,5.5,5.5,0,0,1,5.5,0Z" transform="translate(267 804)" fill="#00a99a"/>
    <path id="Trazado_12819" data-name="Trazado 12819" d="M5.5,0A5.5,5.5,0,1,1,0,5.5,5.5,5.5,0,0,1,5.5,0Z" transform="translate(253 797)" fill="#00a99a"/>
    <path id="Trazado_11907" data-name="Trazado 11907" d="M120.905,283.414l23.071,50.766V281.1" transform="translate(128.361 535.622)" fill="none" stroke="#00a99a" stroke-width="1" stroke-dasharray="3"/>
    <path id="Trazado_11908" data-name="Trazado 11908" d="M134.089,277.413l87.369-.533-.089,128.089" transform="translate(143.623 531.773)" fill="none" stroke="#ed3a3a" stroke-width="2"/>
    <path id="Trazado_11909" data-name="Trazado 11909" d="M130.5,281.39l58.661-10.154s35.549,13.239,34.613,139.424" transform="translate(140.956 528.107)" fill="none" stroke="#00a99a" stroke-width="1"/>
    <path id="Trazado_12822" data-name="Trazado 12822" d="M5.5,0A5.268,5.268,0,0,1,11,5a5.268,5.268,0,0,1-5.5,5A5.268,5.268,0,0,1,0,5,5.268,5.268,0,0,1,5.5,0Z" transform="translate(323 794)" fill="#00a99a"/>
    <path id="Trazado_11913" data-name="Trazado 11913" d="M0,0H545V5.332H0Z" transform="translate(110 1376.668)" fill="#fed97b"/>
    <g id="Grupo_8206" data-name="Grupo 8206" transform="translate(-106)">
      <path id="Trazado_11910" data-name="Trazado 11910" d="M464.68,1091.354V577.794h67.948l93.115-17.941s26.826,90.719,21.078,163.637,0,367.863,0,367.863Z" transform="translate(43 234.146)" fill="none" stroke="#00a99a" stroke-width="2"/>
      <path id="Trazado_11915" data-name="Trazado 11915" d="M5,0a5.268,5.268,0,0,1,5,5.5A5.268,5.268,0,0,1,5,11,5.268,5.268,0,0,1,0,5.5,5.268,5.268,0,0,1,5,0Z" transform="translate(503 807)" fill="#ed3a3a"/>
      <ellipse id="Elipse_517" data-name="Elipse 517" cx="5" cy="5.5" rx="5" ry="5.5" transform="translate(503 1320)" fill="#ed3a3a"/>
      <path id="Trazado_11914" data-name="Trazado 11914" d="M5,0a5.268,5.268,0,0,1,5,5.5A5.268,5.268,0,0,1,5,11,5.268,5.268,0,0,1,0,5.5,5.268,5.268,0,0,1,5,0Z" transform="translate(503 939)" fill="#ed3a3a"/>
      <ellipse id="Elipse_519" data-name="Elipse 519" cx="5" cy="5.5" rx="5" ry="5.5" transform="translate(686 939)" fill="#ed3a3a"/>
      <ellipse id="Elipse_520" data-name="Elipse 520" cx="5" cy="5.5" rx="5" ry="5.5" transform="translate(662 788)" fill="#ed3a3a"/>
      <ellipse id="Elipse_521" data-name="Elipse 521" cx="5" cy="5.5" rx="5" ry="5.5" transform="translate(548 801)" fill="#ed3a3a"/>
      <circle id="Elipse_522" data-name="Elipse 522" cx="5.5" cy="5.5" r="5.5" transform="translate(574 801)" fill="#ed3a3a"/>
      <circle id="Elipse_523" data-name="Elipse 523" cx="5.5" cy="5.5" r="5.5" transform="translate(560 794)" fill="#ed3a3a"/>
      <path id="Trazado_11911" data-name="Trazado 11911" d="M120.905,284.8l23.071,81.128V281.1" transform="translate(435.361 532.622)" fill="none" stroke="#00a99a" stroke-width="1" stroke-dasharray="3"/>
      <path id="Trazado_11912" data-name="Trazado 11912" d="M141,771.5V467.836l-25.853,25.853" transform="translate(407 428)" fill="none" stroke="#00a99a" stroke-width="2"/>
      <text id="FALDA_BÁSICA" data-name="FALDA BÁSICA" transform="translate(558 1029)" fill="#ed3a3a" font-size="16" font-family="Montserrat-Regular, Montserrat"><tspan x="0" y="0">FALDA BÁSICA</tspan></text>
      <text id="TALLA_8" data-name="TALLA 8" transform="translate(558 1051)" fill="#ed3a3a" font-size="16" font-family="Montserrat-Regular, Montserrat"><tspan x="0" y="0">TALLA 8</tspan></text>
      <text id="POSTERIOR" transform="translate(558 1073)" fill="#ed3a3a" font-size="16" font-family="Montserrat-Regular, Montserrat"><tspan x="0" y="0">POSTERIOR</tspan></text>
      <text id="REFERENCIA" transform="translate(558 1095)" fill="#ed3a3a" font-size="16" font-family="Montserrat-Regular, Montserrat"><tspan x="0" y="0">REFERENCIA</tspan></text>
      <text id="CORTAR_X2_" data-name="CORTAR (X2)" transform="translate(558 1117)" fill="#ed3a3a" font-size="16" font-family="Montserrat-Regular, Montserrat"><tspan x="0" y="0">CORTAR (X2)</tspan></text>
      <text id="PIEZA_2_3" data-name="PIEZA 2/3" transform="translate(558 1139)" fill="#ed3a3a" font-size="16" font-family="Montserrat-Regular, Montserrat"><tspan x="0" y="0">PIEZA 2/3</tspan></text>
      <text id="Patrón_No_1_Nombre_del_patronista" data-name="Patrón No 1
Nombre del patronista" transform="translate(516 1280)" fill="#00a99a" font-size="14" font-family="Montserrat-Bold, Montserrat" font-weight="700"><tspan x="0" y="0">Patrón No 1</tspan><tspan x="0" y="20">Nombre del patronista</tspan></text>
      <g id="Elipse_524" data-name="Elipse 524" transform="translate(515 1034)" fill="#fff" stroke="#00a99a" stroke-width="2">
        <circle cx="5.5" cy="5.5" r="5.5" stroke="none"/>
        <circle cx="5.5" cy="5.5" r="4.5" fill="none"/>
      </g>
      <g id="Elipse_525" data-name="Elipse 525" transform="translate(515 1018)" fill="#fff" stroke="#00a99a" stroke-width="2">
        <circle cx="5.5" cy="5.5" r="5.5" stroke="none"/>
        <circle cx="5.5" cy="5.5" r="4.5" fill="none"/>
      </g>
      <g id="Elipse_526" data-name="Elipse 526" transform="translate(526 1026)" fill="#fff" stroke="#00a99a" stroke-width="2">
        <circle cx="5.5" cy="5.5" r="5.5" stroke="none"/>
        <circle cx="5.5" cy="5.5" r="4.5" fill="none"/>
      </g>
      <ellipse id="Elipse_527" data-name="Elipse 527" cx="5" cy="5.5" rx="5" ry="5.5" transform="translate(686 1320)" fill="#ed3a3a"/>
    </g>
    <path id="Trazado_12820" data-name="Trazado 12820" d="M0,0H49V12H0Z" transform="translate(262 1005)" fill="#ed3a3a"/>
    <path id="Trazado_12821" data-name="Trazado 12821" d="M14.5,0,29,25H0Z" transform="translate(334 996) rotate(90)" fill="#ed3a3a"/>
  </g>
</svg>
