<svg xmlns="http://www.w3.org/2000/svg" width="543" height="497" viewBox="0 0 543 497">
  <g id="Grupo_8319" data-name="Grupo 8319" transform="translate(-112 -1430)">
    <g id="Grupo_8221" data-name="Grupo 8221" transform="translate(0 12)">
      <rect id="Rectángulo_2182" data-name="Rectángulo 2182" width="543" height="497" transform="translate(112 1418)" fill="#fff"/>
      <path id="Trazado_11913" data-name="Trazado 11913" d="M0,0H542.859V5.332H0Z" transform="translate(112.141 1909.668)" fill="#fed97b"/>
    </g>
    <g id="Grupo_8217" data-name="Grupo 8217" transform="translate(9 32)">
      <path id="Trazado_11917" data-name="Trazado 11917" d="M1335.067,509.679V253.1s1.91-52.5,24.946-92.162c22.767.688,55.508,7.044,102.126,6.243,56.377,1.662,112.652-6.243,112.652-6.243s26.088,34.285,23.293,92.162,0,256.575,0,256.575Z" transform="translate(-1103.184 1307.697)" fill="#99ccfd" stroke="#00a99a" stroke-width="2"/>
      <path id="Trazado_11918" data-name="Trazado 11918" d="M1335.067,554.255V264.884s2.154-59.207,28.135-103.943c25.677.776,62.6,7.944,115.18,7.041,63.583,1.875,127.051-7.041,127.051-7.041s29.423,38.668,26.271,103.943,0,289.371,0,289.371Z" transform="translate(-1120.007 1285.409)" fill="none" stroke="#00a99a" stroke-width="2"/>
      <ellipse id="Elipse_528" data-name="Elipse 528" cx="5.5" cy="4.5" rx="5.5" ry="4.5" transform="translate(226 1546)" fill="#ed3a3a"/>
      <ellipse id="Elipse_529" data-name="Elipse 529" cx="4.5" cy="5" rx="4.5" ry="5" transform="translate(253 1464)" fill="#ed3a3a"/>
      <ellipse id="Elipse_530" data-name="Elipse 530" cx="5.5" cy="4.5" rx="5.5" ry="4.5" transform="translate(226 1813)" fill="#ed3a3a"/>
      <ellipse id="Elipse_531" data-name="Elipse 531" cx="5" cy="4.5" rx="5" ry="4.5" transform="translate(490 1813)" fill="#ed3a3a"/>
      <ellipse id="Elipse_532" data-name="Elipse 532" cx="5" cy="4.5" rx="5" ry="4.5" transform="translate(490 1546)" fill="#ed3a3a"/>
      <ellipse id="Elipse_533" data-name="Elipse 533" cx="5.5" cy="5" rx="5.5" ry="5" transform="translate(465 1464)" fill="#ed3a3a"/>
      <ellipse id="Elipse_536" data-name="Elipse 536" cx="5.5" cy="5" rx="5.5" ry="5" transform="translate(306 1469)" fill="#ed3a3a"/>
      <circle id="Elipse_537" data-name="Elipse 537" cx="5" cy="5" r="5" transform="translate(351 1469)" fill="#ed3a3a"/>
      <ellipse id="Elipse_540" data-name="Elipse 540" cx="4.5" cy="5" rx="4.5" ry="5" transform="translate(414 1469)" fill="#ed3a3a"/>
      <path id="Trazado_11919" data-name="Trazado 11919" d="M1099,163l8.91,75.146,22.664-72.7" transform="translate(-803.882 1308.982)" fill="none" stroke="#000" stroke-width="1" stroke-dasharray="3"/>
      <path id="Trazado_11920" data-name="Trazado 11920" d="M1166,164l19.56,76.262,7.6-76.262" transform="translate(-762.062 1309.606)" fill="none" stroke="#000" stroke-width="1" stroke-dasharray="3"/>
      <circle id="Elipse_534" data-name="Elipse 534" cx="5" cy="5" r="5" transform="translate(290 1467)" fill="#ed3a3a"/>
      <circle id="Elipse_535" data-name="Elipse 535" cx="5" cy="5" r="5" transform="translate(321 1469)" fill="#ed3a3a"/>
      <circle id="Elipse_538" data-name="Elipse 538" cx="5" cy="5" r="5" transform="translate(399 1469)" fill="#ed3a3a"/>
      <circle id="Elipse_539" data-name="Elipse 539" cx="5" cy="5" r="5" transform="translate(425 1469)" fill="#ed3a3a"/>
      <path id="Trazado_11921" data-name="Trazado 11921" d="M1149.422,442.628V203.857L1119.7,233.579" transform="translate(-800.164 1334.484)" fill="none" stroke="#000" stroke-width="2"/>
      <text id="FALDA_BÁSICA" data-name="FALDA BÁSICA" transform="translate(359 1607)" fill="#3b1f10" font-size="16" font-family="Montserrat-Bold, Montserrat" font-weight="700"><tspan x="0" y="0">FALDA BÁSICA</tspan></text>
      <text id="TALLA_8" data-name="TALLA 8" transform="translate(359 1629)" fill="#3b1f10" font-size="16" font-family="Montserrat-Bold, Montserrat" font-weight="700"><tspan x="0" y="0">TALLA 8</tspan></text>
      <text id="FRENTE" transform="translate(359 1652)" fill="#3b1f10" font-size="16" font-family="Montserrat-Bold, Montserrat" font-weight="700"><tspan x="0" y="0">FRENTE</tspan></text>
      <text id="REFERENCIA" transform="translate(359 1674)" fill="#3b1f10" font-size="16" font-family="Montserrat-Bold, Montserrat" font-weight="700"><tspan x="0" y="0">REFERENCIA</tspan></text>
      <text id="PIEZA_1_3" data-name="PIEZA 1/3" transform="translate(359 1697)" fill="#3b1f10" font-size="16" font-family="Montserrat-Bold, Montserrat" font-weight="700"><tspan x="0" y="0">PIEZA 1/3</tspan></text>
      <ellipse id="Elipse_541" data-name="Elipse 541" cx="5" cy="4.5" rx="5" ry="4.5" transform="translate(210 1835)" fill="#00a99a"/>
      <ellipse id="Elipse_542" data-name="Elipse 542" cx="5" cy="4.5" rx="5" ry="4.5" transform="translate(210 1546)" fill="#00a99a"/>
      <ellipse id="Elipse_543" data-name="Elipse 543" cx="5" cy="4.5" rx="5" ry="4.5" transform="translate(239 1442)" fill="#00a99a"/>
      <ellipse id="Elipse_544" data-name="Elipse 544" cx="5" cy="4.5" rx="5" ry="4.5" transform="translate(290 1447)" fill="#00a99a"/>
      <ellipse id="Elipse_545" data-name="Elipse 545" cx="5" cy="4.5" rx="5" ry="4.5" transform="translate(321 1447)" fill="#00a99a"/>
      <ellipse id="Elipse_546" data-name="Elipse 546" cx="5.5" cy="4.5" rx="5.5" ry="4.5" transform="translate(305 1447)" fill="#00a99a"/>
      <ellipse id="Elipse_547" data-name="Elipse 547" cx="5" cy="4.5" rx="5" ry="4.5" transform="translate(354 1448)" fill="#00a99a"/>
      <ellipse id="Elipse_548" data-name="Elipse 548" cx="5" cy="4.5" rx="5" ry="4.5" transform="translate(397 1449)" fill="#00a99a"/>
      <circle id="Elipse_549" data-name="Elipse 549" cx="5" cy="5" r="5" transform="translate(412 1448)" fill="#00a99a"/>
      <ellipse id="Elipse_550" data-name="Elipse 550" cx="5.5" cy="5" rx="5.5" ry="5" transform="translate(426 1447)" fill="#00a99a"/>
      <circle id="Elipse_551" data-name="Elipse 551" cx="5" cy="5" r="5" transform="translate(480 1441)" fill="#00a99a"/>
      <ellipse id="Elipse_552" data-name="Elipse 552" cx="5.5" cy="5" rx="5.5" ry="5" transform="translate(506 1543)" fill="#00a99a"/>
      <ellipse id="Elipse_553" data-name="Elipse 553" cx="5.5" cy="5" rx="5.5" ry="5" transform="translate(506 1835)" fill="#00a99a"/>
      <circle id="Elipse_554" data-name="Elipse 554" cx="5" cy="5" r="5" transform="translate(354 1835)" fill="#00a99a"/>
    </g>
  </g>
</svg>
