<svg xmlns="http://www.w3.org/2000/svg" width="661.028" height="225.134" viewBox="0 0 661.028 225.134">
  <g id="Grupo_8335" data-name="Grupo 8335" transform="translate(-117.5 -738.866)">
    <g id="Grupo_8321" data-name="Grupo 8321">
      <path id="Trazado_11929" data-name="Trazado 11929" d="M2178.289-589.594v81.785" transform="translate(-2005.789 1329)" fill="none" stroke="#00a99a" stroke-width="3"/>
      <path id="Trazado_11930" data-name="Trazado 11930" d="M2126.98-507.809h108.148" transform="translate(-2009.48 1329)" fill="none" stroke="#00a99a" stroke-width="3"/>
      <g id="Grupo_8224" data-name="Grupo 8224" transform="translate(0 33)">
        <path id="Trazado_11931" data-name="Trazado 11931" d="M2253.818-557.044h47.2" transform="translate(-2009 1305)" fill="none" stroke="#ed3a3a" stroke-width="2"/>
        <path id="Polígono_3" data-name="Polígono 3" d="M10,0,20,17H0Z" transform="translate(306.5 737.5) rotate(90)" fill="#ed3a3a"/>
      </g>
      <path id="Trazado_12870" data-name="Trazado 12870" d="M4.1,6.776H.072V4.4h10.98V6.776H7.02V17H4.1Zm8.1.54h2.808V17H12.2Zm1.4-1.35a1.781,1.781,0,0,1-1.26-.45A1.459,1.459,0,0,1,11.862,4.4a1.459,1.459,0,0,1,.486-1.116,1.781,1.781,0,0,1,1.26-.45,1.826,1.826,0,0,1,1.26.432,1.385,1.385,0,0,1,.486,1.08,1.528,1.528,0,0,1-.486,1.161A1.76,1.76,0,0,1,13.608,5.966Zm9.738,1.206a4.935,4.935,0,0,1,2.457.621A4.459,4.459,0,0,1,27.54,9.539a5.271,5.271,0,0,1,.63,2.619,5.271,5.271,0,0,1-.63,2.619A4.459,4.459,0,0,1,25.8,16.523a4.935,4.935,0,0,1-2.457.621,3.74,3.74,0,0,1-2.916-1.17v4.518H17.622V7.316H20.3V8.432A3.724,3.724,0,0,1,23.346,7.172ZM22.86,14.84a2.339,2.339,0,0,0,1.773-.729,2.717,2.717,0,0,0,.693-1.953,2.717,2.717,0,0,0-.693-1.953,2.521,2.521,0,0,0-3.546,0,2.717,2.717,0,0,0-.693,1.953,2.717,2.717,0,0,0,.693,1.953A2.339,2.339,0,0,0,22.86,14.84Zm11.79,2.3a5.807,5.807,0,0,1-2.745-.639,4.75,4.75,0,0,1-1.9-1.773,4.885,4.885,0,0,1-.684-2.574,4.885,4.885,0,0,1,.684-2.574,4.75,4.75,0,0,1,1.9-1.773,6.2,6.2,0,0,1,5.481,0,4.765,4.765,0,0,1,1.89,1.773,4.885,4.885,0,0,1,.684,2.574,4.885,4.885,0,0,1-.684,2.574,4.765,4.765,0,0,1-1.89,1.773A5.753,5.753,0,0,1,34.65,17.144Zm0-2.3a2.339,2.339,0,0,0,1.773-.729,2.717,2.717,0,0,0,.693-1.953,2.717,2.717,0,0,0-.693-1.953,2.339,2.339,0,0,0-1.773-.729,2.368,2.368,0,0,0-1.782.729,2.7,2.7,0,0,0-.7,1.953,2.7,2.7,0,0,0,.7,1.953A2.368,2.368,0,0,0,34.65,14.84ZM49.734,6.776H45.7V4.4h10.98V6.776H52.65V17H49.734Z" transform="translate(325 769)" fill="#00223d"/>
    </g>
    <g id="Grupo_8323" data-name="Grupo 8323">
      <g id="Grupo_8223" data-name="Grupo 8223" transform="translate(81 33)">
        <path id="Trazado_11934" data-name="Trazado 11934" d="M2253.818-557.044h47.2" transform="translate(-1721 1305)" fill="none" stroke="#ed3a3a" stroke-width="2"/>
        <path id="Polígono_4" data-name="Polígono 4" d="M10,0,20,17H0Z" transform="translate(594.5 737.5) rotate(90)" fill="#ed3a3a"/>
      </g>
      <path id="Trazado_12872" data-name="Trazado 12872" d="M11.25,14.66V17H1.494V4.4h9.522V6.74H4.392V9.476h5.85v2.268H4.392V14.66Zm8.01-7.488a3.985,3.985,0,0,1,2.907,1.08,4.283,4.283,0,0,1,1.107,3.2V17H20.466V11.888a2.524,2.524,0,0,0-.5-1.719A1.848,1.848,0,0,0,18.5,9.6a2.235,2.235,0,0,0-1.692.657,2.72,2.72,0,0,0-.63,1.953V17H13.374V7.316h2.682V8.45a3.724,3.724,0,0,1,1.386-.945A4.829,4.829,0,0,1,19.26,7.172Zm17.37,0a4.935,4.935,0,0,1,2.457.621,4.459,4.459,0,0,1,1.737,1.746,5.271,5.271,0,0,1,.63,2.619,5.271,5.271,0,0,1-.63,2.619,4.459,4.459,0,0,1-1.737,1.746,4.935,4.935,0,0,1-2.457.621,3.74,3.74,0,0,1-2.916-1.17v4.518H30.906V7.316h2.682V8.432A3.724,3.724,0,0,1,36.63,7.172Zm-.486,7.668a2.339,2.339,0,0,0,1.773-.729,2.717,2.717,0,0,0,.693-1.953,2.717,2.717,0,0,0-.693-1.953,2.521,2.521,0,0,0-3.546,0,2.717,2.717,0,0,0-.693,1.953,2.717,2.717,0,0,0,.693,1.953A2.339,2.339,0,0,0,36.144,14.84ZM53.082,7.316V17H50.418V15.848a3.724,3.724,0,0,1-1.332.963,4.19,4.19,0,0,1-1.674.333,4.124,4.124,0,0,1-3.024-1.1,4.377,4.377,0,0,1-1.116-3.258V7.316H46.08v5.058q0,2.34,1.962,2.34a2.109,2.109,0,0,0,1.62-.657,2.772,2.772,0,0,0,.612-1.953V7.316Zm8.5-.144a3.985,3.985,0,0,1,2.907,1.08,4.283,4.283,0,0,1,1.107,3.2V17H62.784V11.888a2.524,2.524,0,0,0-.5-1.719A1.848,1.848,0,0,0,60.822,9.6a2.235,2.235,0,0,0-1.692.657,2.72,2.72,0,0,0-.63,1.953V17H55.692V7.316h2.682V8.45a3.724,3.724,0,0,1,1.386-.945A4.829,4.829,0,0,1,61.578,7.172Zm12.8,9.36a2.886,2.886,0,0,1-1.017.459,5.142,5.142,0,0,1-1.269.153,3.77,3.77,0,0,1-2.673-.882,3.375,3.375,0,0,1-.945-2.592V9.692H66.978V7.532h1.494V5.174H71.28V7.532h2.412v2.16H71.28v3.942a1.322,1.322,0,0,0,.315.945,1.167,1.167,0,0,0,.891.333,1.8,1.8,0,0,0,1.134-.36Zm5.49-9.36a5.04,5.04,0,0,1,3.456,1.071,4.1,4.1,0,0,1,1.206,3.231V17H81.9V15.794a3.129,3.129,0,0,1-2.952,1.35,4.582,4.582,0,0,1-1.935-.378,2.885,2.885,0,0,1-1.251-1.044,2.717,2.717,0,0,1-.432-1.512,2.523,2.523,0,0,1,1.017-2.124,5.183,5.183,0,0,1,3.141-.774H81.72A1.79,1.79,0,0,0,81.162,9.9,2.458,2.458,0,0,0,79.488,9.4a4.888,4.888,0,0,0-1.521.243A4.024,4.024,0,0,0,76.7,10.3L75.69,8.342a6.082,6.082,0,0,1,1.9-.864A8.507,8.507,0,0,1,79.866,7.172Zm-.216,8.082a2.445,2.445,0,0,0,1.278-.333,1.822,1.822,0,0,0,.792-.981v-.99H79.794q-1.728,0-1.728,1.134a1.01,1.01,0,0,0,.423.855A1.905,1.905,0,0,0,79.65,15.254Z" transform="translate(694 769)" fill="#00223d"/>
      <path id="Trazado_11935" data-name="Trazado 11935" d="M2432.27-589.594l31.551,81.785,31.06-81.785" transform="translate(-1912.868 1329)" fill="none" stroke="#00a99a" stroke-width="3"/>
    </g>
    <g id="Grupo_8322" data-name="Grupo 8322">
      <path id="Trazado_11936" data-name="Trazado 11936" d="M2565.417-589.594v86.132" transform="translate(-2393 1467)" fill="none" stroke="#00a99a" stroke-width="3"/>
      <g id="Grupo_8225" data-name="Grupo 8225" transform="translate(-288 171)">
        <path id="Trazado_11934-2" data-name="Trazado 11934" d="M2253.818-557.044h47.2" transform="translate(-1721 1305)" fill="none" stroke="#ed3a3a" stroke-width="2"/>
        <path id="Polígono_4-2" data-name="Polígono 4" d="M10,0,20,17H0Z" transform="translate(594.5 737.5) rotate(90)" fill="#ed3a3a"/>
      </g>
      <path id="Trazado_12871" data-name="Trazado 12871" d="M5.634,17.216a10.309,10.309,0,0,1-2.889-.4A6.776,6.776,0,0,1,.5,15.758l.99-2.2a6.718,6.718,0,0,0,1.926.954,7.234,7.234,0,0,0,2.232.36,3.566,3.566,0,0,0,1.836-.369,1.115,1.115,0,0,0,.594-.981.938.938,0,0,0-.351-.747,2.661,2.661,0,0,0-.9-.477q-.549-.18-1.485-.4a20.528,20.528,0,0,1-2.358-.684,3.831,3.831,0,0,1-1.575-1.1A2.965,2.965,0,0,1,.756,8.108,3.507,3.507,0,0,1,1.35,6.119,4,4,0,0,1,3.141,4.706a7.308,7.308,0,0,1,2.925-.522,9.685,9.685,0,0,1,2.358.288A6.966,6.966,0,0,1,10.44,5.3l-.9,2.214a7.026,7.026,0,0,0-3.492-.99,3.274,3.274,0,0,0-1.809.4,1.209,1.209,0,0,0-.585,1.044,1.021,1.021,0,0,0,.675.963,10.6,10.6,0,0,0,2.061.621,20.528,20.528,0,0,1,2.358.684,3.9,3.9,0,0,1,1.575,1.08,2.9,2.9,0,0,1,.657,2,3.441,3.441,0,0,1-.6,1.971,4.051,4.051,0,0,1-1.809,1.413A7.375,7.375,0,0,1,5.634,17.216Zm7.146-9.9h2.808V17H12.78Zm1.4-1.35a1.781,1.781,0,0,1-1.26-.45A1.459,1.459,0,0,1,12.438,4.4a1.459,1.459,0,0,1,.486-1.116,1.781,1.781,0,0,1,1.26-.45,1.826,1.826,0,0,1,1.26.432,1.385,1.385,0,0,1,.486,1.08,1.528,1.528,0,0,1-.486,1.161A1.76,1.76,0,0,1,14.184,5.966ZM30.6,7.172a3.9,3.9,0,0,1,2.889,1.071,4.364,4.364,0,0,1,1.071,3.213V17H31.752V11.888a2.624,2.624,0,0,0-.477-1.719A1.677,1.677,0,0,0,29.916,9.6a2,2,0,0,0-1.566.639,2.754,2.754,0,0,0-.576,1.9V17H24.966V11.888q0-2.286-1.836-2.286a1.981,1.981,0,0,0-1.548.639,2.754,2.754,0,0,0-.576,1.9V17H18.2V7.316H20.88V8.432A3.544,3.544,0,0,1,22.2,7.5a4.453,4.453,0,0,1,1.719-.324,4.163,4.163,0,0,1,1.854.4,3.283,3.283,0,0,1,1.332,1.179,3.972,3.972,0,0,1,1.5-1.17A4.742,4.742,0,0,1,30.6,7.172Zm12.2,0a4.935,4.935,0,0,1,2.457.621A4.459,4.459,0,0,1,47,9.539a5.271,5.271,0,0,1,.63,2.619A5.271,5.271,0,0,1,47,14.777a4.459,4.459,0,0,1-1.737,1.746,4.935,4.935,0,0,1-2.457.621,3.74,3.74,0,0,1-2.916-1.17v4.518H37.08V7.316h2.682V8.432A3.724,3.724,0,0,1,42.8,7.172Zm-.486,7.668a2.339,2.339,0,0,0,1.773-.729,2.717,2.717,0,0,0,.693-1.953,2.717,2.717,0,0,0-.693-1.953,2.521,2.521,0,0,0-3.546,0,2.717,2.717,0,0,0-.693,1.953,2.717,2.717,0,0,0,.693,1.953A2.339,2.339,0,0,0,42.318,14.84ZM49.5,3.644h2.808V17H49.5Zm14.9,8.55q0,.054-.054.756H57.024a2.282,2.282,0,0,0,.936,1.422,3.1,3.1,0,0,0,1.836.522,3.718,3.718,0,0,0,1.341-.225,3.248,3.248,0,0,0,1.089-.711l1.494,1.62a5.021,5.021,0,0,1-4,1.566,6.321,6.321,0,0,1-2.9-.639,4.684,4.684,0,0,1-1.944-1.773,4.885,4.885,0,0,1-.684-2.574,4.949,4.949,0,0,1,.675-2.565,4.729,4.729,0,0,1,1.854-1.782,5.74,5.74,0,0,1,5.211-.027,4.467,4.467,0,0,1,1.809,1.755A5.233,5.233,0,0,1,64.4,12.194ZM59.382,9.3a2.418,2.418,0,0,0-1.6.54,2.3,2.3,0,0,0-.792,1.476h4.77a2.322,2.322,0,0,0-.792-1.467A2.367,2.367,0,0,0,59.382,9.3Z" transform="translate(325 907)" fill="#00223d"/>
    </g>
    <g id="Grupo_8324" data-name="Grupo 8324">
      <g id="Grupo_8227" data-name="Grupo 8227" transform="translate(58 -40)">
        <g id="Trazado_11937" data-name="Trazado 11937" transform="translate(461 917)" fill="none">
          <path d="M0,0H63.012V67c0,11.046-12.266,20-27.4,20H27.4C12.266,87,0,78.046,0,67Z" stroke="none"/>
          <path d="M 3.000003814697266 3 L 3.000003814697266 67 C 3.000003814697266 71.35924530029297 5.412502288818359 75.52117156982422 9.793087005615234 78.71910095214844 C 12.04048919677734 80.35975646972656 14.67303085327148 81.65264129638672 17.61757278442383 82.56182861328125 C 20.70817184448242 83.51612854003906 23.99824523925781 84 27.39640045166016 84 L 35.61531829833984 84 C 39.01347351074219 84 42.30354309082031 83.51612854003906 45.39414596557617 82.56182861328125 C 48.33868789672852 81.65264129638672 50.97122955322266 80.35975646972656 53.21863174438477 78.71910095214844 C 57.59921646118164 75.52117156982422 60.01171493530273 71.35924530029297 60.01171493530273 67 L 60.01171493530273 3 L 3.000003814697266 3 M 3.814697265625e-06 0 L 63.01171493530273 0 L 63.01171493530273 67 C 63.01171493530273 78.04568481445312 50.74592971801758 87 35.61531829833984 87 L 27.39640045166016 87 C 12.26578903198242 87 3.814697265625e-06 78.04568481445312 3.814697265625e-06 67 L 3.814697265625e-06 0 Z" stroke="none" fill="#00a99a"/>
        </g>
        <rect id="Rectángulo_2185" data-name="Rectángulo 2185" width="57" height="57" transform="translate(464 915)" fill="#f3f7fa"/>
      </g>
      <g id="Grupo_8226" data-name="Grupo 8226" transform="translate(369 170)">
        <path id="Trazado_11931-2" data-name="Trazado 11931" d="M2253.818-557.044h47.2" transform="translate(-2009 1305)" fill="none" stroke="#ed3a3a" stroke-width="2"/>
        <path id="Polígono_3-2" data-name="Polígono 3" d="M10,0,20,17H0Z" transform="translate(306.5 737.5) rotate(90)" fill="#ed3a3a"/>
      </g>
      <path id="Trazado_12873" data-name="Trazado 12873" d="M11.25,14.66V17H1.494V4.4h9.522V6.74H4.392V9.476h5.85v2.268H4.392V14.66Zm8.01-7.488a3.985,3.985,0,0,1,2.907,1.08,4.283,4.283,0,0,1,1.107,3.2V17H20.466V11.888a2.524,2.524,0,0,0-.5-1.719A1.848,1.848,0,0,0,18.5,9.6a2.235,2.235,0,0,0-1.692.657,2.72,2.72,0,0,0-.63,1.953V17H13.374V7.316h2.682V8.45a3.724,3.724,0,0,1,1.386-.945A4.829,4.829,0,0,1,19.26,7.172Zm21.4.144V17H38V15.848a3.724,3.724,0,0,1-1.332.963,4.19,4.19,0,0,1-1.674.333,4.124,4.124,0,0,1-3.024-1.1,4.377,4.377,0,0,1-1.116-3.258V7.316H33.66v5.058q0,2.34,1.962,2.34a2.109,2.109,0,0,0,1.62-.657,2.772,2.772,0,0,0,.612-1.953V7.316Z" transform="translate(694 906)" fill="#00223d"/>
    </g>
  </g>
</svg>
