<svg xmlns="http://www.w3.org/2000/svg" xmlns:xlink="http://www.w3.org/1999/xlink" width="456.781" height="453.359" viewBox="0 0 456.781 453.359">
  <defs>
    <radialGradient id="radial-gradient" cx="0.5" cy="0.501" r="0.619" gradientTransform="matrix(0.721, -0.017, 0.011, 0.927, -1.484, -0.392)" gradientUnits="objectBoundingBox">
      <stop offset="0" stop-color="#f26f4c"/>
      <stop offset="1" stop-color="#edbc99"/>
    </radialGradient>
  </defs>
  <g id="Grupo_8334" data-name="Grupo 8334" transform="translate(-338.156 -2881)">
    <g id="Grupo_8296" data-name="Grupo 8296">
      <g id="Grupo_8295" data-name="Grupo 8295" transform="translate(-2677.37 2587.786)">
        <path id="Trazado_12269" data-name="Trazado 12269" d="M3197.435,558.605c32.664-9.744,73.565-51.794,147.126-14.723s121.776,53.073,137.232,112.07c9.573,36.542-34.194,62.076,26.163,95.079s-32.134,101.146-54.923,119.517c-42.625,34.359-25.366,55.639-74.668,58.865s-164.345,24.5-189.211-86.3c-11.5-51.239,27.342-102.432-30.37-152.5C3101.83,641.215,3116.524,582.741,3197.435,558.605Z" transform="translate(-86.26 -186.571)" fill="#ffe082"/>
        <circle id="Elipse_614" data-name="Elipse 614" cx="30.489" cy="30.489" r="30.489" transform="translate(3411.329 444.897)" fill="#ffe082"/>
        <circle id="Elipse_615" data-name="Elipse 615" cx="16.633" cy="16.633" r="16.633" transform="translate(3015.525 547.433) rotate(-80.783)" fill="#ffe082"/>
        <circle id="Elipse_616" data-name="Elipse 616" cx="9.078" cy="9.078" r="9.078" transform="matrix(0.23, -0.973, 0.973, 0.23, 3388.032, 425.992)" fill="#f9f3ff"/>
        <g id="Grupo_8294" data-name="Grupo 8294" transform="translate(3041.479 293.214)">
          <path id="Trazado_12270" data-name="Trazado 12270" d="M3431.012,710.268h62.459c-2.291-2.755-4.387-5.415-6.068-7.918-8.7-12.947-4.969-31.013-4.969-31.013l-36.958-21.98s4.037,25.292-2.484,38.541C3440.2,693.561,3435.207,701.265,3431.012,710.268Z" transform="translate(-3370.424 -575.175)" fill="#edbc99"/>
          <path id="Trazado_12271" data-name="Trazado 12271" d="M3475.8,953.664c-3.416-34.024,13.976-62.027,13.354-74.673s-20.4-29.809-29.1-42.757a29.178,29.178,0,0,1-2.08-3.652c-23.85,1.266-40.986-14.119-40.986-14.119h0a26.265,26.265,0,0,1-1.345,3.317c-6.389,12.979-24.376,36.664-17.721,62.164,5.673,21.737,18.852,41.2,4.565,71.909a138.509,138.509,0,0,0-5.94,15.126c39.683,10.977,81.272,4.276,81.272,4.276h0C3477.27,968.891,3476.6,961.67,3475.8,953.664Z" transform="translate(-3343.074 -709.06)" fill="#edbb4a"/>
          <circle id="Elipse_617" data-name="Elipse 617" cx="6.598" cy="6.598" r="6.598" transform="translate(66.447 233.867) rotate(-45)" fill="#fff"/>
          <circle id="Elipse_618" data-name="Elipse 618" cx="5.942" cy="5.942" r="5.942" transform="translate(68.607 220.958) rotate(-76.717)" fill="#fff"/>
          <circle id="Elipse_619" data-name="Elipse 619" cx="5.942" cy="5.942" r="5.942" transform="translate(60.5 249.494) rotate(-45)" fill="#fff"/>
          <circle id="Elipse_620" data-name="Elipse 620" cx="5.177" cy="5.177" r="5.177" transform="matrix(0.23, -0.973, 0.973, 0.23, 57.289, 266.972)" fill="#fff"/>
          <circle id="Elipse_621" data-name="Elipse 621" cx="4.345" cy="4.345" r="4.345" transform="translate(53.843 280.256) rotate(-76.717)" fill="#fff"/>
          <circle id="Elipse_622" data-name="Elipse 622" cx="3.591" cy="3.591" r="3.591" transform="translate(53.915 285.174)" fill="#fff"/>
          <circle id="Elipse_623" data-name="Elipse 623" cx="5.942" cy="5.942" r="5.942" transform="translate(66.012 205.57) rotate(-76.717)" fill="#fff"/>
          <circle id="Elipse_624" data-name="Elipse 624" cx="5.385" cy="5.385" r="5.385" transform="matrix(0.23, -0.973, 0.973, 0.23, 62.146, 190.902)" fill="#fff"/>
          <circle id="Elipse_625" data-name="Elipse 625" cx="5.385" cy="5.385" r="5.385" transform="translate(59.043 167.793)" fill="#fff"/>
          <circle id="Elipse_626" data-name="Elipse 626" cx="5.385" cy="5.385" r="5.385" transform="translate(57.281 152.962)" fill="#fff"/>
          <circle id="Elipse_627" data-name="Elipse 627" cx="5.385" cy="5.385" r="5.385" transform="translate(59.693 148.169) rotate(-76.717)" fill="#fff"/>
          <circle id="Elipse_628" data-name="Elipse 628" cx="4.528" cy="4.528" r="4.528" transform="translate(65.806 136.345) rotate(-80.783)" fill="#fff"/>
          <circle id="Elipse_629" data-name="Elipse 629" cx="4.528" cy="4.528" r="4.528" transform="translate(72.641 116.579)" fill="#fff"/>
          <circle id="Elipse_630" data-name="Elipse 630" cx="4.261" cy="4.261" r="4.261" transform="translate(75.404 109.404) rotate(-45)" fill="#fff"/>
          <circle id="Elipse_631" data-name="Elipse 631" cx="3.71" cy="3.71" r="3.71" transform="translate(78.708 94.297)" fill="#fff"/>
          <circle id="Elipse_632" data-name="Elipse 632" cx="3.71" cy="3.71" r="3.71" transform="matrix(0.23, -0.973, 0.973, 0.23, 76.688, 89.714)" fill="#fff"/>
          <path id="Trazado_12272" data-name="Trazado 12272" d="M3832.941,1880.985c-5.881-3.62-27.191-23.935-21.2-38.239,4.809-11.487,22.634-56.438,33.122-75.81l-45.228-1.54c-4.125,5.34-10.872,17.269-11.228,38.473-.515,30.648-2.684,40.988-7.184,47.225s-12.48,10.656-13.571,17.914a23.5,23.5,0,0,0,.481,9.456,9.442,9.442,0,0,0,6.435,6.7l57.57,17.248a5.091,5.091,0,0,0,3.793-.348,11.117,11.117,0,0,0,5.71-6.711C3843.468,1889.247,3838.822,1884.6,3832.941,1880.985Z" transform="translate(-3636.729 -1458.755)" fill="#473d6d"/>
          <path id="Trazado_12273" data-name="Trazado 12273" d="M3832.941,2190.644c-4.526-2.786-18.191-15.462-21.516-27.676h0c-17.295,4.722-27.835-6.446-27.835-6.446h0a21.778,21.778,0,0,1-2.368,4.23c-4.5,6.236-12.48,10.656-13.571,17.914a23.5,23.5,0,0,0,.481,9.456,9.441,9.441,0,0,0,6.435,6.7l57.57,17.248a5.091,5.091,0,0,0,3.793-.348,11.118,11.118,0,0,0,5.71-6.711C3843.468,2198.906,3838.822,2194.263,3832.941,2190.644Z" transform="translate(-3636.729 -1768.414)" fill="#ba2d2d"/>
          <path id="Trazado_12274" data-name="Trazado 12274" d="M3768.814,2297.8c.124.769.279,1.494.452,2.172a9.441,9.441,0,0,0,6.435,6.7l57.569,17.248a5.091,5.091,0,0,0,3.793-.348,11.566,11.566,0,0,0,4.462-3.989Z" transform="translate(-3637.865 -1880.266)" fill="#f2e1c2"/>
          <path id="Trazado_12276" data-name="Trazado 12276" d="M3581.155,1677.418c-6.673-1.779-32.917-15.124-31.286-30.545s7.851-68.119,9.251-83.029c1.655-17.625-5.17-37.367-31.563-42.556s-55.4-6.84-61.185-14.847c-41.295,17.2-74.795,2.112-74.795,2.112.726-3.431-19.043,52.79,19.773,58.976,36.438,5.807,54.044,1,64.052,2.669s42.7-6.166,42.7-6.166-10.05,22.789-1.746,52.3,9.193,40.035,6.672,47.3-8.9,13.79-7.859,21.055a23.5,23.5,0,0,0,3.175,8.92,9.442,9.442,0,0,0,8.087,4.573h60.1a5.09,5.09,0,0,0,3.534-1.422,11.117,11.117,0,0,0,3.544-8.068C3593.61,1682.312,3587.828,1679.2,3581.155,1677.418Z" transform="translate(-3335.722 -1253.738)" fill="#605387"/>
          <path id="Trazado_12277" data-name="Trazado 12277" d="M4067.221,2250c-5.136-1.369-21.864-9.591-28.555-20.336h0c-15.212,9.487-28.515,1.814-28.515,1.814h0a21.777,21.777,0,0,1-1.054,4.731c-2.521,7.266-8.9,13.79-7.859,21.055a23.506,23.506,0,0,0,3.175,8.92,9.442,9.442,0,0,0,8.088,4.573h60.1a5.09,5.09,0,0,0,3.534-1.422,11.118,11.118,0,0,0,3.544-8.068C4079.676,2254.894,4073.893,2251.781,4067.221,2250Z" transform="translate(-3821.787 -1826.321)" fill="#cd3838"/>
          <path id="Trazado_12278" data-name="Trazado 12278" d="M4011.836,2395.639c.34.7.7,1.352,1.057,1.951a9.443,9.443,0,0,0,8.088,4.573h60.1a5.091,5.091,0,0,0,3.534-1.422,11.563,11.563,0,0,0,3.13-5.1Z" transform="translate(-3830.267 -1957.724)" fill="#fff0d2"/>
          <rect id="Rectángulo_2265" data-name="Rectángulo 2265" width="14.935" height="115.555" transform="translate(150.009 325.622)" fill="#edc769"/>
          <rect id="Rectángulo_2266" data-name="Rectángulo 2266" width="124.676" height="14.935" transform="translate(40.267 313.87)" fill="#edc769"/>
          <path id="Trazado_12279" data-name="Trazado 12279" d="M3557.6,360.8a39.564,39.564,0,0,1,5.966,5.335,34.12,34.12,0,0,1,8.367,14.77c3,12.356.165,24.206,6.945,30.894,4.2,4.141,6.611,5.2,8.521,5.633a1.912,1.912,0,0,1,1.412,2.4c-.72,2.453-1.813,6.566-7.275,8.15,0,0-3.077,28.916-11.432,31.747-9.283,3.145-46.511-4.323-59.34-17.34S3497.145,356.119,3557.6,360.8Z" transform="translate(-3428.019 -346.555)" fill="#edbc99"/>
          <path id="Trazado_12280" data-name="Trazado 12280" d="M3809.45,715.535a19.732,19.732,0,0,1-6.382-.649c-4.181-1.2-6.5-3.773-6.906-7.654a.744.744,0,1,0-1.48.153c.919,8.892,10.4,9.674,13.742,9.671.319,0,.578-.008.773-.016q.183-.755.353-1.5A.719.719,0,0,0,3809.45,715.535Z" transform="translate(-3658.342 -620.467)" fill="#c4765b"/>
          <path id="Trazado_12281" data-name="Trazado 12281" d="M4290.066,2335.372a11.118,11.118,0,0,0,3.544-8.068c0-6.376-5.783-9.49-12.455-11.269a42.636,42.636,0,0,1-7.164-2.963,42.415,42.415,0,0,0-2.252,20.46,22.571,22.571,0,0,0,.7,3.262h14.1A5.091,5.091,0,0,0,4290.066,2335.372Z" transform="translate(-4035.722 -1892.354)" fill="#fff0d2"/>
          <path id="Trazado_12282" data-name="Trazado 12282" d="M3614.322,1176.671s18.683,29.8,31.583,33.807,62.5,6.227,67.169,4.671,21.574-12.678,31.361-11.566,14.679,10.453,16.681,9.564-2.669-18.016-15.569-20.462-32.917,4.448-32.917,4.448-31.583-4.671-43.371-8.229-20.24-22.909-20.24-22.909Z" transform="translate(-3515.552 -984.203)" fill="#edbc99"/>
          <path id="Trazado_12283" data-name="Trazado 12283" d="M3555.865,1017.874s-27.135-57.827-3.114-65.093,45.224,48.041,45.224,48.041S3574.1,1017.578,3555.865,1017.874Z" transform="translate(-3458.949 -814.879)" fill="#e5a423"/>
          <rect id="Rectángulo_2267" data-name="Rectángulo 2267" width="14.935" height="313.517" transform="translate(27.668 127.66)" fill="#edc769"/>
          <rect id="Rectángulo_2268" data-name="Rectángulo 2268" width="227.851" height="14.935" transform="translate(194.169 232.017)" fill="#4e4429"/>
          <rect id="Rectángulo_2269" data-name="Rectángulo 2269" width="15.68" height="192.738" transform="translate(300.259 239.484)" fill="#4e4429"/>
          <path id="Trazado_12284" data-name="Trazado 12284" d="M4514.077,2325.778l-28.443-18.578h-15.68l-28.446,18.578c-1.846,1.205-.806,3.644,1.553,3.644h69.462C4514.882,2329.422,4515.922,2326.983,4514.077,2325.778Z" transform="translate(-4169.695 -1887.706)" fill="#4e4429"/>
          <path id="Trazado_12285" data-name="Trazado 12285" d="M3702.365,492.554a13.509,13.509,0,0,1,8.771-7.8c6.967-2.251,12.859-1.231,13.458-2.627s1.784-6.131-2.535-6.853-9.321,1.9-14.276,5.3S3699.975,491.331,3702.365,492.554Z" transform="translate(-3584.576 -437.258)" fill="#683021"/>
          <path id="Trazado_12286" data-name="Trazado 12286" d="M3193.368,391.647s-1.645-8.171-22.806-8.445c-18.688-.241-39.493,24.721-26.254,55.834s12.842,49.254,4.97,61.961c0,0,21.042-11.106,17.885-28.961,0,0,3.84,4.3-1.6,15.891,0,0,23.022-14.371,12.58-39.071s-2.916-46.9,9.422-48.872S3193.368,391.647,3193.368,391.647Z" transform="translate(-3140.129 -364.457)" fill="#683021"/>
          <path id="Trazado_12287" data-name="Trazado 12287" d="M3689.172,658.683l-7.556-1.057c-3.32-.632-7.3-5.449-6.508-9.591l.029-.152c.788-4.141,4.118-6.987,7.438-6.355l11.715,2.229c3.32.632,5.372,4.5,4.584,8.643l-.029.152C3698.057,656.693,3692.492,659.315,3689.172,658.683Z" transform="translate(-3563.597 -568.908)" opacity="0.72" fill="url(#radial-gradient)"/>
          <path id="Trazado_12288" data-name="Trazado 12288" d="M3451.281,299.414c-5.9-5.126-43.218-11.961-66.053,2.39s-28.033,37.905-18.951,61.918A45.5,45.5,0,0,0,3389.17,388.5a12.919,12.919,0,0,0,16.072-4.465l.278-.409c6.544-9.656-9.131-31.243,14.422-47.055s33.792-13.139,31.43-23.777C3451.372,312.8,3459.807,306.819,3451.281,299.414Z" transform="translate(-3315.824 -293.214)" fill="#683021"/>
          <path id="Trazado_12289" data-name="Trazado 12289" d="M3531,609.44s-3.355-3.538-9.025-1.353-6.162,9.518-3.763,13.764,7.785,8.817,14.256,3.716Z" transform="translate(-3438.387 -541.938)" fill="#edbc99"/>
          <path id="Trazado_12290" data-name="Trazado 12290" d="M3546.156,627.656s-3-2.22-5.362-1.9a4.174,4.174,0,0,0-3.726,4.617c.355,2.195,3.771,2.3,3.642,3.958s-.029,4.052,3.4,5.451S3546.156,627.656,3546.156,627.656Z" transform="translate(-3454.352 -556.463)" fill="#d7a07e" opacity="0.4" style="mix-blend-mode: multiply;isolation: isolate"/>
          <path id="Trazado_12291" data-name="Trazado 12291" d="M3346.379,412.317l-.138-.044c-2.379-.763-3.6-3.584-2.729-6.3l2.657-8.285c.871-2.717,3.506-4.3,5.884-3.538l.138.044c2.379.763,3.6,3.584,2.729,6.3l-2.657,8.285C3351.393,411.5,3348.758,413.079,3346.379,412.317Z" transform="translate(-3300.926 -372.973)" fill="#edbb4a"/>
          <path id="Trazado_12294" data-name="Trazado 12294" d="M3760.1,587.751s-5.065.114-8.471-2.316a10.239,10.239,0,0,1-4.073-5.688s3.561,4.731,6.946,5.517a29.413,29.413,0,0,0,5.67.815A1.691,1.691,0,0,1,3760.1,587.751Z" transform="translate(-3621.036 -520.065)" fill="#b58550"/>
          <path id="Trazado_12297" data-name="Trazado 12297" d="M3788.877,562.231c-.253.574.354,1.4,1.355,1.84s2.02.335,2.273-.24-.354-1.4-1.355-1.84S3789.13,561.656,3788.877,562.231Z" transform="translate(-3653.703 -505.792)" fill="#fff"/>
        </g>
      </g>
      <path id="Trazado_12298" data-name="Trazado 12298" d="M14,0H43A14,14,0,0,1,57,14V92H14c-7.732,0,11.494-3.219,11.494-10.951L0,14A14,14,0,0,1,14,0Z" transform="translate(601 3021)" fill="#b48181"/>
      <circle id="Elipse_633" data-name="Elipse 633" cx="17" cy="17" r="17" transform="translate(616 3031)" fill="#fff"/>
      <circle id="Elipse_634" data-name="Elipse 634" cx="8" cy="8" r="8" transform="translate(625 3040)" fill="#00a99a"/>
    </g>
  </g>
</svg>
