<svg xmlns="http://www.w3.org/2000/svg" width="736.33" height="483.744" viewBox="0 0 736.33 483.744">
  <g id="Grupo_8333" data-name="Grupo 8333" transform="translate(-147.232 -1278.945)">
    <g id="Grupo_8284" data-name="Grupo 8284">
      <path id="Trazado_10849" data-name="Trazado 10849" d="M182.42,386.067h-63.8c-34.339,0-62.433,31.234-62.433,69.413h0c0,38.176,28.094,69.411,62.433,69.411H658.1c55.6,0,101.1-50.579,101.1-112.4v0c0-61.817-45.492-112.4-101.1-112.4h0c-23.51,0-42.744-21.387-42.744-47.525h0c0-26.138,19.235-47.523,42.744-47.523h51.446c24.442,0,44.439-22.235,44.439-49.411h0c0-27.175-20-49.41-44.439-49.41H644.493c-9.515,0-17.3-8.657-17.3-19.237h0c0-10.58,7.785-19.236,17.3-19.236h11.467c6.569,0,11.942-5.974,11.942-13.275h0c0-7.3-5.375-13.277-11.942-13.277H580.713c-15.847,0-17.613,20.815-57.643,20.815H430.247c-8.57,0-15.581,7.795-15.581,17.323h0c0,9.527,7.011,17.323,15.581,17.323H445.21c12.417,0,22.578,11.3,22.578,25.1h0c0,13.8-10.162,25.1-22.578,25.1H400.175c-60.81,0-69.4,17.668-80.051,52.811S254.16,237.65,254.16,237.65H178.527c-18.712,0-34.023,17.02-34.023,37.825h0c0,20.8,15.311,37.827,34.023,37.827h3.894c18,0,32.724,16.371,32.724,36.381h0c0,20.012-14.726,36.384-32.724,36.384ZM689.471,67.754c-6.6,0-11.943-5.944-11.943-13.275S682.875,41.2,689.471,41.2s11.94,5.944,11.94,13.277S696.066,67.754,689.471,67.754Z" transform="translate(114.771 1237.743)" fill="#ffe082" fill-rule="evenodd"/>
      <g id="Grupo_8199" data-name="Grupo 8199" transform="translate(470.429 1405.17)">
        <path id="Trazado_11846" data-name="Trazado 11846" d="M485.233,195.256c1.576-3.07,11.094-6.586,11.094-6.586l.948.608a48.486,48.486,0,0,0-1.334,5.978c-.5,3.235-6.739,6.281-7.828,4.238S483.657,198.327,485.233,195.256Zm2.881,1.319c1.947.292.1,1.649,2.665,1.649s5.383-7.791,5.163-8.012C495.942,190.212,486.167,196.283,488.114,196.575Z" transform="translate(-463.198 -60.875)" fill="#5d5ba3"/>
        <path id="Trazado_11847" data-name="Trazado 11847" d="M447.153,323.956c1.592-8.133,2.9-9.146,2.505-18.736-.1-2.357-5.247-82.183-3.146-90.057,1.664-9.847,12.842-29.183,12.842-29.183l25.2-.064L487.3,211.8l-13.468,11.452c-.539,5.891-8.468,92.282-10.473,97.745-1.129,3.076,3.159,26.137,5.114,47.561-3.466.347-13.413,2.037-16.866,2.552C447.575,353.424,446.162,329.026,447.153,323.956Z" transform="translate(-423.539 -60.228)" fill="#4195c2"/>
        <g id="Grupo_8193" data-name="Grupo 8193" transform="translate(25.575 137.35)">
          <g id="Grupo_8190" data-name="Grupo 8190" transform="translate(8.549)">
            <path id="Trazado_11848" data-name="Trazado 11848" d="M482.388,204.287a.569.569,0,0,1-.5-.843c.682-1.239,1.115-2,1.115-2a.569.569,0,0,1,.987.567s-.431.751-1.1,1.978A.568.568,0,0,1,482.388,204.287Z" transform="translate(-481.819 -201.161)" fill="#3e3e6e"/>
          </g>
          <g id="Grupo_8191" data-name="Grupo 8191" transform="translate(0 5.971)">
            <path id="Trazado_11849" data-name="Trazado 11849" d="M489.132,366.489a.57.57,0,0,0,.511-.621c-.132-1.358-.28-2.876-.434-4.5a.569.569,0,0,0-1.133.108c.154,1.622.3,3.14.434,4.5a.568.568,0,0,0,.565.514Zm-.857-9a.57.57,0,0,0,.516-.62c-.135-1.475-.27-2.986-.4-4.5a.569.569,0,0,0-1.134.1c.132,1.514.268,3.026.4,4.5a.57.57,0,0,0,.566.517Zm-.789-9a.569.569,0,0,0,.522-.614c-.126-1.55-.244-3.063-.348-4.5a.569.569,0,0,0-1.136.082c.1,1.44.223,2.956.35,4.51a.569.569,0,0,0,.567.523Zm-.657-9.012a.569.569,0,0,0,.535-.6c-.108-1.908-.163-3.418-.166-4.487a.569.569,0,0,0-.569-.568h0a.57.57,0,0,0-.568.571c0,1.09.059,2.621.169,4.549a.568.568,0,0,0,.568.537Zm.688-9.51c.188-1.378.462-2.856.814-4.39a.569.569,0,0,0-1.11-.253c-.359,1.566-.639,3.076-.831,4.49a.568.568,0,0,0,.487.64.524.524,0,0,0,.077.006A.569.569,0,0,0,487.518,329.97Zm1.969-8.715c.644-2.128,1.221-3.675,1.439-4.241a.569.569,0,1,0-1.062-.409c-.223.578-.812,2.156-1.466,4.32a.567.567,0,0,0,.379.71.584.584,0,0,0,.165.024A.569.569,0,0,0,489.487,321.255Zm.818-8.415a.57.57,0,0,0,.544-.594l-.194-4.529a.569.569,0,0,0-1.137.049l.194,4.53a.571.571,0,0,0,.57.545Zm-.389-9.057a.569.569,0,0,0,.544-.593l-.194-4.524a.569.569,0,1,0-1.137.049l.194,4.524a.569.569,0,0,0,.568.545Zm-.387-9.048a.57.57,0,0,0,.545-.594l-.193-4.521a.569.569,0,1,0-1.137.049l.193,4.521a.569.569,0,0,0,.568.545Zm-.385-9.043a.57.57,0,0,0,.545-.594l-.191-4.521a.569.569,0,0,0-1.137.049l.191,4.521a.569.569,0,0,0,.568.545Zm-.383-9.042a.57.57,0,0,0,.545-.593l-.19-4.52a.569.569,0,0,0-1.137.047l.19,4.521a.569.569,0,0,0,.568.545Zm-.379-9.043a.57.57,0,0,0,.545-.592l-.189-4.521a.559.559,0,0,0-.592-.545.569.569,0,0,0-.545.592l.19,4.521a.568.568,0,0,0,.568.545Zm-.376-9.04a.57.57,0,0,0,.545-.593l-.186-4.521a.57.57,0,1,0-1.138.047l.187,4.521a.569.569,0,0,0,.568.546Zm-.37-9.044a.568.568,0,0,0,.545-.591L488,244.408a.569.569,0,0,0-1.137.046l.184,4.524a.569.569,0,0,0,.568.546Zm-.365-9.049a.57.57,0,0,0,.547-.591c-.064-1.612-.122-3.126-.177-4.527a.569.569,0,1,0-1.137.044c.054,1.4.113,2.915.176,4.526a.57.57,0,0,0,.569.548Zm-.347-9.056a.569.569,0,0,0,.548-.589c-.072-2-.123-3.548-.148-4.532a.568.568,0,0,0-.568-.554h-.011a.569.569,0,0,0-.558.583c.025.987.077,2.539.148,4.544a.571.571,0,0,0,.57.548Zm1.087-9.368c.385-1.172.931-2.57,1.621-4.156a.569.569,0,1,0-1.043-.454c-.705,1.619-1.264,3.05-1.659,4.256a.569.569,0,0,0,.363.717.556.556,0,0,0,.177.029A.57.57,0,0,0,488.01,222.049Zm3.511-8.231c.617-1.269,1.3-2.62,2.028-4.018a.569.569,0,0,0-1.009-.526c-.733,1.407-1.42,2.767-2.043,4.045a.57.57,0,0,0,1.024.5Z" transform="translate(-486.06 -208.968)" fill="#3e3e6e"/>
          </g>
          <g id="Grupo_8192" data-name="Grupo 8192" transform="translate(2.85 166.432)">
            <path id="Trazado_11850" data-name="Trazado 11850" d="M491.218,422.149a.569.569,0,0,1-.564-.51s-.086-.835-.23-2.265a.569.569,0,0,1,1.133-.113c.143,1.427.229,2.26.229,2.26a.57.57,0,0,1-.507.626Z" transform="translate(-490.42 -418.747)" fill="#3e3e6e"/>
          </g>
        </g>
        <g id="Grupo_8194" data-name="Grupo 8194" transform="translate(58.368 20.248)">
          <path id="Trazado_11851" data-name="Trazado 11851" d="M405.967,58.464c1.3,2.149,5.954,4.951,5.954,4.951,2.229,4.4,13.1,29.09,12.19,31.85-.129.395-1.153.723-2.815,1.01a28.063,28.063,0,0,0,5.387,8.295c4.962-1.17,8.732-2.653,9.108-4.933,1.11-6.7-13.671-30.026-17.578-35.52a8.489,8.489,0,0,1-1.532-3.246c-.939-2.623-4.815-6.09-8.25-7.594-1.281-.561-2.356.626-2.689.785-.558.265.033.56.024,1.218C405.756,56.069,405.26,57.293,405.967,58.464Z" transform="translate(-399.472 -49.257)" fill="#fd9292"/>
          <path id="Trazado_11852" data-name="Trazado 11852" d="M439.351,56.976s1.714,3.19,3.149,3.445a56.6,56.6,0,0,1,5.533,1.759l-1.869-2.946-1.374-1.292a7.781,7.781,0,0,1-2.193.165C441.825,57.97,439.584,55.66,439.351,56.976Z" transform="translate(-437.544 -50.067)" fill="#fd9292"/>
          <path id="Trazado_11853" data-name="Trazado 11853" d="M440.779,55.618s2.386-1.729,2.89-1.639a17.4,17.4,0,0,1,2.682,2.827c.679.818.8,1.335,1.516,1.119,1.725-.519-.363-2.976-1.905-4.322s-2.118-1.449-3.542-.959S439.267,55.351,440.779,55.618Z" transform="translate(-438.672 -49.08)" fill="#fd9292"/>
          <path id="Trazado_11854" data-name="Trazado 11854" d="M439.823,51.309A41.979,41.979,0,0,1,445.07,49.5c1.606-.308,5.811,4.7,4.563,5.191s-3.177-.829-4.551-2.8C445.082,51.893,437.717,52.78,439.823,51.309Z" transform="translate(-439.444 -48.4)" fill="#fd9292"/>
          <path id="Trazado_11855" data-name="Trazado 11855" d="M434.657,48.1a4.052,4.052,0,0,1,3.839,1.367c1.059,1.515,7.463,8.554,7.463,8.554a26.872,26.872,0,0,1-7.059-4.979,23.158,23.158,0,0,1-2.686-3.255s-4.807-.737-4.045-1.27A5.064,5.064,0,0,1,434.657,48.1Z" transform="translate(-429.916 -48.067)" fill="#fd9292"/>
        </g>
        <path id="Trazado_11856" data-name="Trazado 11856" d="M451.172,102.967c-2.455-.5-12.137-6.488-14.151-7.579-9.594-5.2-16.08-9.5-16.08-9.5S411.7,97.9,417.812,100.072c4.036,1.431,14.868,13.406,37.275,12.2C455.365,110.713,448.627,105.116,451.172,102.967Z" transform="translate(-368.165 -36.71)" fill="#f6861f"/>
        <path id="Trazado_11857" data-name="Trazado 11857" d="M474.375,85.562s-4.872-2.4-24.946.054c-1.017.124-2.915,23.355-2.915,23.355s9.909,43.374,7.837,53.1c0,0,12.034,8.689,29.225.6,0,0-3-33.29-1.329-40.105s4.872-12.967.606-20.146A180.645,180.645,0,0,1,474.375,85.562Z" transform="translate(-421.598 -36.387)" fill="#ffaf00"/>
        <path id="Trazado_11858" data-name="Trazado 11858" d="M518,85.551a8.1,8.1,0,0,0-6.93-.908c-3.583,1.2-14.1,34.355-19.4,40.995,2.81,2.526,9.282,2.93,11.629,5.931,2.531-4.038,3.414-7.067,5.259-11.815,3.8-9.775,5.158-9.905,7.864-11.719C521.1,104.9,518,85.551,518,85.551Z" transform="translate(-490.168 -36.322)" fill="#ffd09f"/>
        <g id="Grupo_8196" data-name="Grupo 8196" transform="translate(16.063)">
          <path id="Trazado_11859" data-name="Trazado 11859" d="M479.275,22.4s8.635-.814,11,7.277-1.394,17.482-.706,21.215,5.507,3.28,4.646,1.421c0,0,2.476,3.087-1.03,5.044s-5.549.327-5.549.327-.513,5.565-8.028,5.379-8.882-3.566-8.882-3.566S459.581,65.853,456,55.341c3.434.737,5.611-1.987,5.686-4.989.084-3.411-.428-5.754-.659-9.109-.324-4.73-.258-11.339,3.345-15.052,3.243-3.343,7.8-5.486,12.892-3.942A12.887,12.887,0,0,0,479.275,22.4Z" transform="translate(-455.005 -21.63)" fill="#540049"/>
          <path id="Trazado_11860" data-name="Trazado 11860" d="M456.954,22.581c3.529-.045,7.161,1.257,9.232,4.191,4.43,6.277,1.465,17.583.766,23.391-.363,3.027,2.953,4.531,4.61,3.52a.853.853,0,0,0,.333-1.189c.854,2.084-5.2,1.925-4.505-2.341,1.155-7.054,6.655-25.636-7.755-27.52A11.472,11.472,0,0,0,456.954,22.581Z" transform="translate(-432.684 -21.815)" fill="#91007e"/>
          <path id="Trazado_11861" data-name="Trazado 11861" d="M469.611,54.429a4.469,4.469,0,0,0,2.347-3.682c.347-5.722-2.244-14.475.907-21.635a11.135,11.135,0,0,1,2.17-3.221c.247-.151,5.512-6.21,13.191-3.675-7.69-1.937-12.375,4.127-12.614,4.234a10.485,10.485,0,0,0-1.879,3.034c-3,7.388.376,18.173-.6,22.215a5.18,5.18,0,0,1-5.178,4.376c3.8,8.71,13.92,2.686,13.986,2.694a4.06,4.06,0,0,0,2.179,2.371l.515.278a16.993,16.993,0,0,0,8.236,1.218,6.47,6.47,0,0,0,5.526-4.124,6.026,6.026,0,0,1-3.071,3.768c-3.843,1.839-11.324,1.261-13.819-2.163a14.133,14.133,0,0,1-8.549,1.69c-5.493-.89-6.714-6.833-6.995-7.364C466.67,54.527,468.156,55.129,469.611,54.429Z" transform="translate(-465.968 -21.596)" fill="#3f0037"/>
          <path id="Trazado_11862" data-name="Trazado 11862" d="M463.941,44.707s.921-2,2.125-1.291-.076,8.675-2.341,7.042C462.332,49.454,463.941,44.707,463.941,44.707Z" transform="translate(-431.943 -26.69)" fill="#dd5757"/>
          <path id="Trazado_11863" data-name="Trazado 11863" d="M477.523,64.943s1.11,10.394,2.465,13.162,3.329,14.752,1.337,14.7-11.032-9.56-11.538-13.332-3.024-19.356-3.024-19.356Z" transform="translate(-450.345 -30.653)" fill="#ff9292"/>
          <path id="Trazado_11864" data-name="Trazado 11864" d="M482.9,63.777c.075.037.252,2.191.261,2.275.272,2.316.372,2.176.266,2.481-.832,2.4-3.986,3.833-8.479-.389a22.468,22.468,0,0,1-1.641-1.717c-.561-3.509-1.013-6.307-1.013-6.307S482.812,63.736,482.9,63.777Z" transform="translate(-455.88 -30.653)" fill="#f15f5c"/>
          <path id="Trazado_11865" data-name="Trazado 11865" d="M478.886,23.614s6.82,3.09,7,8.237-.57,7.124-.1,10.464-1.18,12.193-6.45,14.307-12-6.659-13.119-10.553a30.976,30.976,0,0,1,.061-15.445C467.751,24.613,475.079,22.457,478.886,23.614Z" transform="translate(-452.958 -22)" fill="#f37575"/>
          <path id="Trazado_11866" data-name="Trazado 11866" d="M478.886,23.614s6.82,3.09,7,8.237-.57,7.124-.1,10.464-1.18,12.193-6.45,14.307-12-6.659-13.119-10.553a30.976,30.976,0,0,1,.061-15.445C467.751,24.613,475.079,22.457,478.886,23.614Z" transform="translate(-452.958 -22)" fill="#ff9292"/>
          <path id="Trazado_11867" data-name="Trazado 11867" d="M472.877,51.91c-.835-1.077-.973-3.269-.776-4.65.26,1.313.59,3.671,1.241,4.515l.137.177a3.115,3.115,0,0,1-2.134.879A4.7,4.7,0,0,0,472.877,51.91Z" transform="translate(-445.16 -27.63)" fill="#45003b"/>
          <path id="Trazado_11868" data-name="Trazado 11868" d="M474.722,64.287h0Z" transform="translate(-448.985 -31.633)" fill="#fff"/>
          <path id="Trazado_11869" data-name="Trazado 11869" d="M483.736,40.793a3.92,3.92,0,0,0-1.941-1.042c-1.316-.324-4.179,1.14-4.179,1.14a23.979,23.979,0,0,1,3.622-.627,5.712,5.712,0,0,1,2,.844Z" transform="translate(-460.212 -25.854)" fill="#5c004f"/>
          <path id="Trazado_11870" data-name="Trazado 11870" d="M465.613,40.771a3.223,3.223,0,0,1,1.517-.811c1.023-.265,3.228.771,3.228.771a19.074,19.074,0,0,0-2.8-.4A4.73,4.73,0,0,0,466,41Z" transform="translate(-437.652 -25.903)" fill="#5c004f"/>
          <path id="Trazado_11871" data-name="Trazado 11871" d="M482.679,45.031a3.638,3.638,0,0,0-2.821-1.252c-1.267.067-2.107.974-2.9,1.017,1.113.449,1.691-.789,4.329-.272A4.885,4.885,0,0,1,482.679,45.031Z" transform="translate(-458.654 -26.811)" fill="#2e0028"/>
          <path id="Trazado_11872" data-name="Trazado 11872" d="M465.371,45.093a3.255,3.255,0,0,1,2.611-.9c1.124.156,1.8,1.029,2.5,1.129-1.026.314-1.446-.834-3.837-.574A4.368,4.368,0,0,0,465.371,45.093Z" transform="translate(-437.595 -26.904)" fill="#2e0028"/>
          <path id="Trazado_11873" data-name="Trazado 11873" d="M489.639,30.251s-2.933,1.368-4.1,7.908-3.854,4.064-3.8,1.776C481.844,35.862,485.792,29.454,489.639,30.251Z" transform="translate(-469.27 -23.615)" fill="#552e5d"/>
          <g id="Grupo_8195" data-name="Grupo 8195" transform="translate(12.144 1.336)">
            <path id="Trazado_11874" data-name="Trazado 11874" d="M465.663,30.435c1.469-6.011,9.57-7.865,13.406-6.815,3.5.958,6.82,3.09,7,8.237.015.4.021,3.7.025,4.061-.791-4.927-2.035-7.781-7.477-7.914-8.244-.2-10.967,4.14-13.155,10.873C465.46,36.326,464.953,33.339,465.663,30.435Z" transform="translate(-465.285 -23.343)" fill="#39c08a"/>
            <path id="Trazado_11875" data-name="Trazado 11875" d="M485.917,37.183c-.288-3.793-1.151-6.928-4.814-8.033a13.548,13.548,0,0,0-5.979-.188c-6,1.081-8.459,5.246-9.838,11.18,1.46-3.476,3.108-7.3,6.487-9.048a14.935,14.935,0,0,1,7.265-1.381C484.138,30.01,484.948,33.32,485.917,37.183Z" transform="translate(-465.104 -24.607)" fill="#1d6045"/>
            <path id="Trazado_11876" data-name="Trazado 11876" d="M471.4,35.546a12.028,12.028,0,0,1,15.65-7.67.335.335,0,1,0,.227-.63A12.364,12.364,0,0,0,471.4,35.546Z" transform="translate(-471.378 -24.104)" fill="#1d6045"/>
            <path id="Trazado_11877" data-name="Trazado 11877" d="M479.027,29a10.385,10.385,0,0,1,7.629-4l.015,0a.335.335,0,0,0-.058-.667C485.722,24.414,481.213,25.385,479.027,29Z" transform="translate(-476.674 -23.576)" fill="#1d6045"/>
          </g>
          <path id="Trazado_11878" data-name="Trazado 11878" d="M492.65,44.432s-.688-2.639-2.087-1.306.363,7.473,1.979,7.513S492.65,44.432,492.65,44.432Z" transform="translate(-479.278 -26.569)" fill="#f37575"/>
          <path id="Trazado_11879" data-name="Trazado 11879" d="M492.02,45.693s-.162-.919-.76-.933-.2,4.3.575,4.191S492.02,45.693,492.02,45.693Z" transform="translate(-478.926 -27.042)" fill="#f15f5c"/>
          <path id="Trazado_11880" data-name="Trazado 11880" d="M478.487,49.571c-.179.755.746,1.621,2.066,1.934s2.535-.044,2.713-.8-.744-1.621-2.064-1.934S478.668,48.816,478.487,49.571Z" transform="translate(-460.413 -27.959)" fill="#ff8383"/>
          <path id="Trazado_11881" data-name="Trazado 11881" d="M467.257,49.089a3.513,3.513,0,0,1,1.3-.076,14.66,14.66,0,0,1-.093,2.378,3.776,3.776,0,0,1-.608.2c-1.209.29-2.322-.036-2.488-.727S466.049,49.378,467.257,49.089Z" transform="translate(-435.664 -28.035)" fill="#ff8383"/>
        </g>
        <path id="Trazado_11882" data-name="Trazado 11882" d="M478.693,57.353c-.474,0-5.184.456-6.243-1.518a5.859,5.859,0,0,0,5.573,4.051Z" transform="translate(-435.154 -29.646)" fill="#2e0028"/>
        <g id="Grupo_8198" data-name="Grupo 8198" transform="translate(50.085 103.054)">
          <path id="Trazado_11883" data-name="Trazado 11883" d="M444.312,156.334c-2.11-.427-11.226,13.539-11.226,13.539a13.629,13.629,0,0,1-.407,6.359l1.153.233a19.662,19.662,0,0,1,2.217-5.758C437.829,167.553,444.312,156.334,444.312,156.334Z" transform="translate(-420.437 -156.324)" fill="#006e82"/>
          <path id="Trazado_11884" data-name="Trazado 11884" d="M448.18,182.407a2.484,2.484,0,0,1,.616.312,3.2,3.2,0,1,1-4.17.991,3.283,3.283,0,0,1,2.39-1.44A2.673,2.673,0,0,1,448.18,182.407Zm-2.7,1.889a1.86,1.86,0,1,0,2.732-.725A2.015,2.015,0,0,0,445.476,184.3Z" transform="translate(-434.754 -162.421)" fill="#006e82"/>
          <path id="Trazado_11885" data-name="Trazado 11885" d="M447.044,165.517c.015,2.152-15.434,8.432-15.434,8.432a13.631,13.631,0,0,0-6.319-.815l-.008-1.176a19.685,19.685,0,0,0,6.076-1.077C434.794,169.737,447.044,165.517,447.044,165.517Z" transform="translate(-417.512 -158.486)" fill="#008296"/>
          <path id="Trazado_11886" data-name="Trazado 11886" d="M459.545,172.56a2.606,2.606,0,0,1,.19.667,2.76,2.76,0,0,1-.085,1.171,3.3,3.3,0,0,1-1.872,2.069,3.041,3.041,0,0,1-4.069-1.352,2.718,2.718,0,0,1,.028-2.2,3.083,3.083,0,0,1,.313-.553,3.405,3.405,0,0,1,1.428-1.153A3.039,3.039,0,0,1,459.545,172.56Zm-3.653-.4a1.859,1.859,0,1,0,2.709.821A2.012,2.012,0,0,0,455.891,172.156Z" transform="translate(-451.807 -159.755)" fill="#008296"/>
          <g id="Grupo_8197" data-name="Grupo 8197" transform="translate(0 11.192)">
            <path id="Trazado_11887" data-name="Trazado 11887" d="M461.619,170.956l-.748.88a8.108,8.108,0,0,0,1.985,1.112l.326-.529A7.625,7.625,0,0,1,461.619,170.956Z" transform="translate(-460.871 -170.956)" fill="#008296"/>
          </g>
          <circle id="Elipse_506" data-name="Elipse 506" cx="0.663" cy="0.663" r="0.663" transform="translate(13.817 12.991)" fill="#003c50"/>
        </g>
        <path id="Trazado_11888" data-name="Trazado 11888" d="M484.783,187.091a39.12,39.12,0,0,0,4.325-6.994c1.46-3.339,8.64,5.885,8.64,5.885l-.508,1.109a13.874,13.874,0,0,1-9.416,3.969C482.1,191.061,484.783,187.091,484.783,187.091Zm2.807,1.331c2.393.864,8.7-2.558,8.7-2.558-1.866-.7-5.279-3.619-5.279-3.619C488.6,181.72,485.2,187.558,487.59,188.422Z" transform="translate(-463.162 -58.688)" fill="#2a3090"/>
        <path id="Trazado_11889" data-name="Trazado 11889" d="M473.674,437c-4.622-1.04-7.919-4.245-8.235-8.016q-.1-1.191-.223-2.449c-.314-3.222-.893-10.856-1.39-19.5a92.4,92.4,0,0,0-13.415-.193c3.446,9.983,6.8,19.745,6.473,22.543a25.154,25.154,0,0,1-1.332,5.079l-.213,5.355c2.845,1.342,8.915.248,14.922,1.292s14.416-1.69,14.416-1.69S478.888,438.176,473.674,437Z" transform="translate(-424.281 -112.132)" fill="#f15f5c"/>
        <path id="Trazado_11890" data-name="Trazado 11890" d="M465.334,445.811c-1.611.467-11.045-1.6-14.718-2.443l-.2,5.077c2.845,1.342,8.915.248,14.922,1.292s14.416-1.69,14.416-1.69-5.789-1.248-11-2.422A6.832,6.832,0,0,0,465.334,445.811Z" transform="translate(-419.354 -120.754)" fill="#52003b"/>
        <path id="Trazado_11891" data-name="Trazado 11891" d="M493.407,219.751l-25.593,8.606s4.09,57.679-6.357,73.505c-11.026,16.7-15.449,67.421-15.449,67.421l16.265,4.332L475.95,320.3c.922-3.289,2.082-7.436,3.521-12.593C493.836,256.226,493.407,219.751,493.407,219.751Z" transform="translate(-429.643 -68.182)" fill="#3e3e6e"/>
        <path id="Trazado_11892" data-name="Trazado 11892" d="M495.009,418.275c-3.451-.374-6.916-.671-10.394-.913-.243,15.324.062,17.331-1.7,19.169,0,0-7.152,9.835-7.152,12.088s4.85,3.776,6.684,3.776c1.693,0,5.063-11.689,6.268-15.141C488.72,437.25,493.505,426.331,495.009,418.275Z" transform="translate(-454.008 -114.64)" fill="#f37575"/>
        <path id="Trazado_11893" data-name="Trazado 11893" d="M475.768,422.566a61.852,61.852,0,0,0,9.842-.867q.306-1.7.63-3.424c-3.451-.374-6.916-.671-10.394-.913C475.816,419.183,475.792,420.93,475.768,422.566Z" transform="translate(-445.238 -114.64)" fill="#f15f5c"/>
        <path id="Trazado_11894" data-name="Trazado 11894" d="M463.808,186.925c1.337,3.584,16.223,127.419,16.223,127.419H428.288l14.73-126.218Z" transform="translate(-402.713 -60.465)" fill="#b0b3e6"/>
        <path id="Trazado_11895" data-name="Trazado 11895" d="M448.481,193.762l.658-5.636,20.79-1.2a43.3,43.3,0,0,1,.777,4.423h0C461.51,195.828,453.7,195.245,448.481,193.762Z" transform="translate(-408.833 -60.465)" fill="#5d5ba3" opacity="0.46"/>
        <path id="Trazado_11896" data-name="Trazado 11896" d="M483.493,192.045l-6.815-4.183,7.177.485Z" transform="translate(-443.548 -60.685)" fill="#5d5ba3"/>
        <path id="Trazado_11897" data-name="Trazado 11897" d="M490.42,449.747c-1.639,1.792-3.315,5.186-3.315,6.486,0,2.252,4.85,3.776,6.684,3.776,1.114,0,2.614-3.368,3.886-7.9C492.79,451.943,491.357,451.876,490.42,449.747Z" transform="translate(-465.345 -122.254)" fill="#6f004f"/>
        <path id="Trazado_11898" data-name="Trazado 11898" d="M453.141,139.191a28.027,28.027,0,0,1,9.445,2.933c-1.095,1.283-1.672,2.19-1.519,2.576,1.071,2.7,25.213,14.737,29.738,16.7,0,0,5.373-.822,7.744,0a8.513,8.513,0,0,1,1.847.874v-.012s10.994,5.917,10,6.906-7.907-5.485-8.865-4.527c-.02.045-.034.084-.054.127-.1,1.168,9.8,5.318,8.516,6.6-1.022,1.022-6.821-2.881-9.243-4.059-.035.159-.074.327-.119.509-.026.1-.06.182-.091.271,2.021,1.45,6.848,3.178,5.946,4.081-.821.821-4.781-1.557-6.715-2.8-.024.031-.047.061-.07.092,1.484,1.209,4.006,3.368,3.057,3.368-.671,0-2.6-1.113-4.322-2.2-2.437-.3-9.209-2.784-9.668-4.225a8.495,8.495,0,0,0-3.254-1.516c-6.517-1.726-32.794-10.208-36.226-16.071C448.123,146.813,450.074,143.262,453.141,139.191Z" transform="translate(-448.949 -49.243)" fill="#ff9292"/>
        <path id="Trazado_11899" data-name="Trazado 11899" d="M483.075,188.26a1.334,1.334,0,1,0,1.334-1.335A1.334,1.334,0,0,0,483.075,188.26Z" transform="translate(-450.332 -60.465)" fill="#5d5ba3"/>
        <path id="Trazado_11900" data-name="Trazado 11900" d="M471.3,226.409c-.406.126-.631.2-.631.2s.085-.07.251-.2Z" transform="translate(-426.4 -69.748)" fill="#c44246"/>
        <path id="Trazado_11901" data-name="Trazado 11901" d="M465.788,226.409c-.292.109-.476.176-.525.194.043-.021.184-.088.412-.194Z" transform="translate(-416.75 -69.748)" fill="#c44246"/>
      </g>
      <g id="Grupo_8283" data-name="Grupo 8283" transform="translate(296.083 1333.344)">
        <g id="Grupo_8280" data-name="Grupo 8280" transform="translate(62.927 47.656)">
          <g id="Grupo_8249" data-name="Grupo 8249" transform="translate(9.409 141.935)">
            <g id="Grupo_8248" data-name="Grupo 8248" transform="translate(0 0)">
              <path id="Trazado_12042" data-name="Trazado 12042" d="M64.606,125.519c.282.745,2.484,6.547,4.664,11.8l1.666.588-5.161-15.453c-.678-2.225-2.015-3.685-4.042-3.807a4.2,4.2,0,0,0-4.391,3.964,4.075,4.075,0,0,0,7.263,2.909ZM58.3,122.945a3.172,3.172,0,0,1,3.225-3.154,3.053,3.053,0,0,1,2.874,3.366,2.977,2.977,0,0,1-3.295,2.837A3.047,3.047,0,0,1,58.3,122.945Z" transform="translate(-57.333 -115.674)" fill="#728b8e"/>
              <path id="Trazado_12043" data-name="Trazado 12043" d="M62.06,147.369c1.17-.057,2.484-20.942,2.578-22.457a4.01,4.01,0,0,0,3.723.439,4.2,4.2,0,0,0,2.309-5.436,4.12,4.12,0,0,0-5.32-2.456c-1.884.735-2.725,2.539-2.717,4.875Zm3.825-28.879A3.111,3.111,0,0,1,68.1,124.3a2.919,2.919,0,0,1-3.952-1.713A3.106,3.106,0,0,1,65.885,118.49Z" transform="translate(-52.41 -117.186)" fill="#a6bbbf"/>
              <path id="Trazado_12044" data-name="Trazado 12044" d="M62.416,125.366a.477.477,0,0,0,.614.278.483.483,0,0,0,.269-.625.473.473,0,0,0-.612-.278A.486.486,0,0,0,62.416,125.366Z" transform="translate(-52.072 -109.352)" fill="#d6eaed"/>
              <path id="Trazado_12045" data-name="Trazado 12045" d="M63.425,120.825a.185.185,0,0,1,.082-.012.2.2,0,0,1,.184.216l-.51,7.19a.2.2,0,0,1-.21.184.2.2,0,0,1-.184-.214L63.3,121A.2.2,0,0,1,63.425,120.825Z" transform="translate(-51.654 -113.411)" fill="#fff" opacity="0.35"/>
              <path id="Trazado_12046" data-name="Trazado 12046" d="M63.059,125.647a.208.208,0,0,1,.071-.008.175.175,0,0,1,.153.19l-.572,6.142a.169.169,0,0,1-.186.153.173.173,0,0,1-.153-.188l.572-6.142A.173.173,0,0,1,63.059,125.647Z" transform="translate(-52.085 -108.384)" fill="#fff" opacity="0.35"/>
            </g>
          </g>
          <g id="Grupo_8250" data-name="Grupo 8250" transform="translate(23.333 143.833)">
            <rect id="Rectángulo_2211" data-name="Rectángulo 2211" width="3.319" height="17.887" transform="translate(0.319 3.371) rotate(-5.103)" fill="#ffbc40"/>
            <rect id="Rectángulo_2212" data-name="Rectángulo 2212" width="1.028" height="17.887" transform="translate(2.601 3.167) rotate(-5.104)" opacity="0.2"/>
            <rect id="Rectángulo_2213" data-name="Rectángulo 2213" width="1.028" height="17.887" transform="translate(0.319 3.371) rotate(-5.104)" opacity="0.1"/>
            <path id="Trazado_12047" data-name="Trazado 12047" d="M68.386,128.669,67.258,133.2a.165.165,0,0,1-.31.027L65.1,128.937a.215.215,0,0,1-.012-.049c-.01-.12-.022-.606.4-.643a.513.513,0,0,1,.472.241.165.165,0,0,0,.28-.018.526.526,0,0,1,.412-.3.666.666,0,0,1,.543.269.163.163,0,0,0,.272-.035.476.476,0,0,1,.367-.312c.308-.027.49.337.547.474A.159.159,0,0,1,68.386,128.669Z" transform="translate(-63.183 -107.727)" fill="#c69c6d"/>
            <path id="Trazado_12048" data-name="Trazado 12048" d="M66.579,132.117a5.324,5.324,0,0,1-.1.672c-.049-.125-.1-.249-.137-.376-.151-.521-.757-3.895-.761-3.895a.165.165,0,0,0,.143-.09.526.526,0,0,1,.412-.3.675.675,0,0,1,.543.269.158.158,0,0,0,.163.059C66.822,129.067,66.616,131.494,66.579,132.117Z" transform="translate(-62.672 -107.688)" fill="#fff" opacity="0.21"/>
            <path id="Trazado_12049" data-name="Trazado 12049" d="M67,129.879l-.374,1.5a.165.165,0,0,1-.31.027l-.629-1.462A3.488,3.488,0,0,1,67,129.879Z" transform="translate(-62.554 -105.906)" fill="#333"/>
            <path id="Rectángulo_2214" data-name="Rectángulo 2214" d="M.439,0h2.45a.439.439,0,0,1,.439.439V3.074a0,0,0,0,1,0,0H0a0,0,0,0,1,0,0V.439A.439.439,0,0,1,.439,0Z" transform="translate(0.026 0.296) rotate(-5.098)" fill="#ff7bac"/>
            <path id="Trazado_12050" data-name="Trazado 12050" d="M67.868,119.856l-3.554.318a.1.1,0,0,1-.1-.086l-.014-.163a.1.1,0,0,1,.086-.1l3.554-.318a.1.1,0,0,1,.1.088l.014.161A.1.1,0,0,1,67.868,119.856Z" transform="translate(-64.111 -116.67)" fill="#b3b3b3"/>
            <path id="Trazado_12051" data-name="Trazado 12051" d="M67.86,119.682,64.306,120a.1.1,0,0,1-.1-.086l-.014-.163a.1.1,0,0,1,.086-.1l3.554-.316a.093.093,0,0,1,.1.086l.014.161A.093.093,0,0,1,67.86,119.682Z" transform="translate(-64.116 -116.849)" fill="gray"/>
            <path id="Trazado_12052" data-name="Trazado 12052" d="M67.827,119.513l-3.554.318a.1.1,0,0,1-.1-.088l-.016-.161a.1.1,0,0,1,.088-.1l3.552-.318a.1.1,0,0,1,.1.088l.014.161A.1.1,0,0,1,67.827,119.513Z" transform="translate(-64.154 -117.027)" fill="#b3b3b3"/>
          </g>
          <g id="Grupo_8251" data-name="Grupo 8251" transform="translate(19.39 136.201)">
            <path id="Trazado_12053" data-name="Trazado 12053" d="M76.767,121.89,62.222,143.734s1.294.617,2.656-.925,13.65-18.731,13.65-18.731l-1.439-2.058Z" transform="translate(-62.222 -106.555)" fill="#72899b"/>
            <path id="Trazado_12054" data-name="Trazado 12054" d="M71.622,121.826,67.7,147.774s-1.374-.414-1.345-2.47,2.495-23.045,2.495-23.045l2.448-.555Z" transform="translate(-57.922 -106.748)" fill="#8ba2b7"/>
            <path id="Trazado_12055" data-name="Trazado 12055" d="M67.26,119.349c-3.272,4.564.929,6.928,1.455,8.051s.067,3.94.067,3.94l3.25-1.4s2.842-12.385,3-13.61S72.989,111.363,67.26,119.349Zm5.771.98a14.46,14.46,0,0,0-.859,3.36,2.964,2.964,0,0,1-.788,2.066,1.646,1.646,0,0,1-1.355.251,2.593,2.593,0,0,1-1.684-1.451,4.649,4.649,0,0,1-.365-2.25c.129-2.372,1.941-5.418,4.466-6.169.018-.006.076.016.094.012C74.375,115.664,73.6,118.865,73.031,120.329Z" transform="translate(-58.262 -114.378)" fill="#223e99"/>
            <path id="Trazado_12056" data-name="Trazado 12056" d="M80.993,117.7c-2.815-3.964-8.376-.074-8.3,4.3a4.831,4.831,0,0,1-.888,2.772L69.1,128.537l1.541,3.111s4-5.92,5.814-6.046S83.945,121.857,80.993,117.7Zm-2.97,5.991a2.929,2.929,0,0,1-3.685-1.474c-1.184-2.7,2.286-6.061,4.948-4.865a2.735,2.735,0,0,1,1.6,2.223,4.14,4.14,0,0,1-1.213,3.04A4.065,4.065,0,0,1,78.023,123.693Z" transform="translate(-55.062 -112.632)" fill="#223e99"/>
            <path id="Trazado_12057" data-name="Trazado 12057" d="M68.915,125.29a.669.669,0,1,0-.749.578A.668.668,0,0,0,68.915,125.29Z" transform="translate(-56.64 -103.798)" fill="#72899b"/>
          </g>
          <g id="Grupo_8262" data-name="Grupo 8262" transform="translate(267.322 41.034)">
            <rect id="Rectángulo_2222" data-name="Rectángulo 2222" width="10.589" height="174.372" transform="translate(50.006 134.544)" fill="#a67c52"/>
            <g id="Grupo_8261" data-name="Grupo 8261" transform="translate(14.064)">
              <path id="Trazado_12119" data-name="Trazado 12119" d="M272.891,224.242c1.709-40.429-11.973-50.276-17.045-67.156-1.143-3.8,2.331-28.779,2.331-28.779,8.925.061,10.846-8.241,11.191-13.283a7.106,7.106,0,0,0-2.182-5.638c-10.2-9.639-13.048-26.182-13.048-26.182a64.234,64.234,0,0,0-14.581-2.039,2.485,2.485,0,0,1-2.4-2.474l.024-7.173a3.747,3.747,0,0,0-3.746-3.758h-9.255a3.746,3.746,0,0,0-3.746,3.785l.084,8.08a2.469,2.469,0,0,1-2.241,2.482c-4.179.4-8.237.849-11.617,1.255a8.991,8.991,0,0,0-7.861,9.862l1.668,16.316s14.091,40.423,14.236,45.269c.1,3.321-15.6,23.284-20.215,31.035-8.825,14.8,0,39,0,39h.094c.98,3.168,17.253,8.988,38.29,8.988,21.665,0,40.072-5.971,40.072-9.272a1.02,1.02,0,0,0-.106-.321Z" transform="translate(-190.567 -67.758)" fill="#5b5b5b"/>
              <path id="Trazado_12120" data-name="Trazado 12120" d="M228.141,93.631s-10.889,9.625-23.853,1.749C204.288,95.38,218.255,112.93,228.141,93.631Z" transform="translate(-176.278 -40.815)" fill="#020202" opacity="0.15"/>
            </g>
            <rect id="Rectángulo_2223" data-name="Rectángulo 2223" width="97.893" height="7.766" rx="1.375" transform="translate(6.354 303.74)" fill="#8c6239"/>
            <rect id="Rectángulo_2224" data-name="Rectángulo 2224" width="110.601" height="7.53" rx="1.333" transform="translate(0 309.152)" fill="#c69c6d"/>
          </g>
          <g id="Grupo_8271" data-name="Grupo 8271" transform="translate(0 181.697)">
            <g id="Grupo_8264" data-name="Grupo 8264" transform="translate(105.848 11.131)">
              <g id="Grupo_8263" data-name="Grupo 8263">
                <rect id="Rectángulo_2225" data-name="Rectángulo 2225" width="20.644" height="168.183" fill="#845004"/>
                <rect id="Rectángulo_2226" data-name="Rectángulo 2226" width="9.31" height="168.183" transform="translate(11.334)" fill="#fcfcfc" opacity="0.25"/>
              </g>
              <rect id="Rectángulo_2227" data-name="Rectángulo 2227" width="20.644" height="10.828" transform="translate(0 1.518)" opacity="0.18"/>
            </g>
            <g id="Grupo_8266" data-name="Grupo 8266" transform="translate(5.06 11.131)">
              <g id="Grupo_8265" data-name="Grupo 8265">
                <rect id="Rectángulo_2228" data-name="Rectángulo 2228" width="20.643" height="168.183" fill="#845004"/>
                <rect id="Rectángulo_2229" data-name="Rectángulo 2229" width="9.31" height="168.183" transform="translate(11.334)" fill="#fcfcfc" opacity="0.25"/>
              </g>
              <rect id="Rectángulo_2230" data-name="Rectángulo 2230" width="20.643" height="10.828" transform="translate(0 1.518)" opacity="0.18"/>
            </g>
            <g id="Grupo_8268" data-name="Grupo 8268" transform="translate(326.854 11.131)">
              <g id="Grupo_8267" data-name="Grupo 8267" transform="translate(0)">
                <rect id="Rectángulo_2231" data-name="Rectángulo 2231" width="20.644" height="168.183" fill="#724305"/>
                <rect id="Rectángulo_2232" data-name="Rectángulo 2232" width="9.31" height="168.183" transform="translate(11.334)" fill="#fcfcfc" opacity="0.25"/>
              </g>
              <rect id="Rectángulo_2233" data-name="Rectángulo 2233" width="20.644" height="10.828" transform="translate(0 1.518)" opacity="0.18"/>
            </g>
            <g id="Grupo_8270" data-name="Grupo 8270" transform="translate(226.066 11.131)">
              <g id="Grupo_8269" data-name="Grupo 8269">
                <rect id="Rectángulo_2234" data-name="Rectángulo 2234" width="20.643" height="168.183" fill="#724305"/>
                <rect id="Rectángulo_2235" data-name="Rectángulo 2235" width="9.31" height="168.183" transform="translate(11.334)" fill="#fcfcfc" opacity="0.25"/>
              </g>
              <rect id="Rectángulo_2236" data-name="Rectángulo 2236" width="20.643" height="10.828" transform="translate(0 1.518)" opacity="0.18"/>
            </g>
            <rect id="Rectángulo_2237" data-name="Rectángulo 2237" width="353.367" height="16.596" fill="#9b6104"/>
            <rect id="Rectángulo_2238" data-name="Rectángulo 2238" width="131.564" height="16.596" fill="#fcfcfc" opacity="0.09"/>
          </g>
          <path id="Trazado_12121" data-name="Trazado 12121" d="M182.994,138.335s5.177-.47,5.177,12.238V276.234s16.472,6.118,28.238,1.882,24.474-1.882,36.71,1.411,25.415,10.825,42.358,5.177,9.413-9.882,18.825-8.47c0,0-4.705-91.777-4.705-111.543s-4.236-26.356-8-27.3-222.613-1.882-222.613-1.882-3.764.47-4.471,2.354Z" transform="translate(-30.035 43.832)" fill="#b9c60e"/>
          <g id="Grupo_8272" data-name="Grupo 8272" transform="translate(181.63 231.382)">
            <path id="Trazado_12122" data-name="Trazado 12122" d="M194.788,220.524a18.067,18.067,0,0,1-2.015-4.43L183.85,189.81l.6,34.06c.02,1.143.014,2.3-.049,3.452C192.219,224.323,193.424,221.831,194.788,220.524Z" transform="translate(-97.805 -131.007)" fill="#050505" opacity="0.09"/>
            <path id="Trazado_12123" data-name="Trazado 12123" d="M196.768,257.419c-11.723-13.7-14.851-33.837-17.045-52.273A41.022,41.022,0,0,0,172.4,218.09q-6.216-28.29-10.166-57.017c-5.742-.886-8.351,6.881-8.706,12.679q-1.445,23.516-2.889,47.031c-.608,9.919-1.351,20.281-6.514,28.773a24.232,24.232,0,0,1-2.431,3.3,24.553,24.553,0,0,0,4.862-1.166c11.764-4.236,24.472-1.882,36.71,1.413C187.609,254.267,192.069,255.961,196.768,257.419Z" transform="translate(-141.699 -161.004)" fill="#050505" opacity="0.09"/>
          </g>
          <path id="Trazado_12124" data-name="Trazado 12124" d="M211.406,74.992s9.409,28.187,24.233,37.012l1.059,64.243-24-.353s-5.3-23.651-6.355-29.651-9.176-30.357-9.176-30.357,13.412-25.062,10.235-41.3Z" transform="translate(97.692 -19.611)" fill="#ffdf99"/>
          <path id="Trazado_12125" data-name="Trazado 12125" d="M213.029,173.188l-.055-.292c-.084-.453-8.537-45.606-15.137-57.07l-.086-.149.063-.159c.129-.32,12.828-32.117,11.276-40.039l.69-.155c.076.306,7.722,30.614,22.739,37l.208.088.006.227,1.954,60.369Zm-14.5-57.566c6.438,11.425,14.285,52.62,15.079,56.854l20.346-.169-1.923-59.424c-12.616-5.561-19.879-26.778-22.161-34.552C209.092,88.934,199.514,113.169,198.534,115.622Z" transform="translate(98.302 -18.845)" fill="#020202" opacity="0.3"/>
          <path id="Trazado_12126" data-name="Trazado 12126" d="M199.536,101.1a.352.352,0,0,1-.037-.7c.163-.016,16.345-1.676,21.744-4.779a.353.353,0,1,1,.353.612c-5.532,3.176-21.355,4.8-22.024,4.867Z" transform="translate(99.792 2.237)" fill="#020202" opacity="0.3"/>
          <path id="Trazado_12127" data-name="Trazado 12127" d="M214.88,147.034a.35.35,0,0,1-.347-.294l-7.765-46.065a.352.352,0,0,1,.694-.116l7.767,46.065a.355.355,0,0,1-.29.406A.577.577,0,0,1,214.88,147.034Z" transform="translate(107.685 7.13)" fill="#020202" opacity="0.3"/>
          <path id="Trazado_12128" data-name="Trazado 12128" d="M156.963,135.887s38.826,2.117,47.3,8.647,11.119,12.177,11.119,12.177h25.062s-9-18.882-15.884-19.589S156.963,135.887,156.963,135.887Z" transform="translate(55.826 44.223)" fill="#ffdf99"/>
          <g id="Grupo_8273" data-name="Grupo 8273" transform="translate(295.827 94.775)">
            <path id="Trazado_12129" data-name="Trazado 12129" d="M200.464,95.5a1.412,1.412,0,1,0-1.411,1.413A1.411,1.411,0,0,0,200.464,95.5Z" transform="translate(-197.641 -94.084)" fill="#4870c1"/>
            <path id="Trazado_12130" data-name="Trazado 12130" d="M199.571,94.92a.705.705,0,1,0-.7.706A.7.7,0,0,0,199.571,94.92Z" transform="translate(-197.101 -93.949)" fill="#fff" opacity="0.47"/>
          </g>
          <g id="Grupo_8274" data-name="Grupo 8274" transform="translate(329.889 91.774)">
            <path id="Trazado_12131" data-name="Trazado 12131" d="M217.152,94.027a1.413,1.413,0,1,0-1.413,1.413A1.413,1.413,0,0,0,217.152,94.027Z" transform="translate(-214.327 -92.614)" fill="#c93939"/>
            <path id="Trazado_12132" data-name="Trazado 12132" d="M216.259,93.45a.706.706,0,1,0-.706.706A.707.707,0,0,0,216.259,93.45Z" transform="translate(-213.787 -92.479)" fill="#fff" opacity="0.47"/>
          </g>
          <g id="Grupo_8275" data-name="Grupo 8275" transform="translate(330.508 124.513)">
            <path id="Trazado_12133" data-name="Trazado 12133" d="M217.453,110.065a1.412,1.412,0,1,0-1.411,1.413A1.411,1.411,0,0,0,217.453,110.065Z" transform="translate(-214.63 -108.652)" fill="#c93939"/>
            <path id="Trazado_12134" data-name="Trazado 12134" d="M216.56,109.488a.705.705,0,1,0-.7.706A.7.7,0,0,0,216.56,109.488Z" transform="translate(-214.09 -108.517)" fill="#fff" opacity="0.47"/>
          </g>
          <g id="Grupo_8276" data-name="Grupo 8276" transform="translate(306.27 56.241)">
            <circle id="Elipse_613" data-name="Elipse 613" cx="1.412" cy="1.412" r="1.412" fill="#b9c60e"/>
            <path id="Trazado_12135" data-name="Trazado 12135" d="M204.688,76.043a.706.706,0,1,0-.706.706A.707.707,0,0,0,204.688,76.043Z" transform="translate(-202.217 -75.073)" fill="#fff" opacity="0.47"/>
          </g>
          <path id="Trazado_12136" data-name="Trazado 12136" d="M82.741,124.56H59.467l1.867,24.768H81.123Z" transform="translate(-45.701 32.428)" fill="#998675"/>
          <path id="Trazado_12137" data-name="Trazado 12137" d="M59.467,124.56l1.867,24.768h6.354L65.821,124.56Z" transform="translate(-45.701 32.428)" fill="#070707" opacity="0.18"/>
          <g id="Grupo_8279" data-name="Grupo 8279" transform="translate(38.625 71.342)">
            <rect id="Rectángulo_2243" data-name="Rectángulo 2243" width="3.978" height="62.119" transform="translate(8.862 44.928) rotate(-0.194)" fill="#999"/>
            <rect id="Rectángulo_2244" data-name="Rectángulo 2244" width="3.978" height="52.633" transform="translate(48.604 4.33) rotate(45.767)" fill="#999"/>
            <g id="Grupo_8278" data-name="Grupo 8278" transform="translate(46.474)">
              <path id="Trazado_12141" data-name="Trazado 12141" d="M96.156,83.34h0a4.08,4.08,0,0,0-1.01,5.681l5.561,7.969,6.692-4.669-5.561-7.969A4.078,4.078,0,0,0,96.156,83.34Z" transform="translate(-94.411 -82.605)" fill="#4392aa"/>
              <path id="Trazado_12142" data-name="Trazado 12142" d="M104.19,87.9l-4.524,3.158c-5.567,3.883-5.44,13.675.28,21.873h0l24.676-17.219h0C118.9,87.515,109.755,84.018,104.19,87.9Z" transform="translate(-93.202 -78.741)" fill="#62c2e8"/>
            </g>
            <path id="Trazado_12143" data-name="Trazado 12143" d="M82.625,105.614a3.672,3.672,0,1,0-3.672,3.672A3.673,3.673,0,0,0,82.625,105.614Z" transform="translate(-67.859 -62.469)" fill="#4d4d4d"/>
            <rect id="Rectángulo_2245" data-name="Rectángulo 2245" width="23.256" height="3.749" transform="translate(0 106.658)" fill="#62c2e8"/>
          </g>
        </g>
        <g id="Grupo_8281" data-name="Grupo 8281" transform="translate(42.925 367.192)">
          <rect id="Rectángulo_2246" data-name="Rectángulo 2246" width="88.951" height="39.063" transform="translate(1.412 2.883)" fill="#ffbc50"/>
          <rect id="Rectángulo_2247" data-name="Rectángulo 2247" width="88.951" height="6.648" transform="translate(1.412 4.942)" fill="#050505" opacity="0.17"/>
          <rect id="Rectángulo_2248" data-name="Rectángulo 2248" width="45.005" height="39.063" transform="translate(45.358 2.883)" fill="#050505" opacity="0.17"/>
          <rect id="Rectángulo_2249" data-name="Rectángulo 2249" width="91.422" height="8.648" fill="#fcc97e"/>
          <rect id="Rectángulo_2250" data-name="Rectángulo 2250" width="44.299" height="8.648" transform="translate(47.123)" fill="#050505" opacity="0.17"/>
          <rect id="Rectángulo_2251" data-name="Rectángulo 2251" width="20.002" height="7.295" transform="translate(9.883 16.531)" fill="#fff" stroke="gray" stroke-miterlimit="10" stroke-width="0.5"/>
        </g>
        <g id="Grupo_8282" data-name="Grupo 8282" transform="translate(45.808 325.246)">
          <rect id="Rectángulo_2252" data-name="Rectángulo 2252" width="88.951" height="39.063" transform="translate(1.412 2.883)" fill="#7db8ea"/>
          <rect id="Rectángulo_2253" data-name="Rectángulo 2253" width="88.951" height="6.648" transform="translate(1.412 4.942)" fill="#050505" opacity="0.17"/>
          <rect id="Rectángulo_2254" data-name="Rectángulo 2254" width="45.005" height="39.063" transform="translate(45.358 2.883)" fill="#050505" opacity="0.17"/>
          <rect id="Rectángulo_2255" data-name="Rectángulo 2255" width="91.422" height="8.648" fill="#a4d5f7"/>
          <rect id="Rectángulo_2256" data-name="Rectángulo 2256" width="44.299" height="8.648" transform="translate(47.123)" fill="#050505" opacity="0.17"/>
          <rect id="Rectángulo_2257" data-name="Rectángulo 2257" width="20.002" height="7.295" transform="translate(9.884 16.531)" fill="#fff" stroke="gray" stroke-miterlimit="10" stroke-width="0.5"/>
        </g>
      </g>
      <path id="Trazado_11793" data-name="Trazado 11793" d="M477.536,148.638a.821.821,0,0,1,1.641,0v1.931h1.929a.82.82,0,0,1,0,1.64h-1.929v1.929a.821.821,0,1,1-1.641,0v-1.929h-1.929a.82.82,0,1,1,0-1.64h1.929Z" transform="translate(-327.554 1529.425)" fill="#f9ad3e" fill-rule="evenodd"/>
      <path id="Trazado_12144" data-name="Trazado 12144" d="M634.13,299.456Zm-2.486-9.469a4.787,4.787,0,1,1-3.384-1.4,4.768,4.768,0,0,1,3.384,1.4Zm-1.259-5.028v-2.564a.551.551,0,0,0-.551-.549h-3.146a.55.55,0,0,0-.551.549v2.564a.3.3,0,0,1-.214.283,8.351,8.351,0,0,0-1.887.8,8.488,8.488,0,0,0-1.639,1.233.292.292,0,0,1-.357.05l-2.223-1.284h0a.555.555,0,0,0-.753.2h0l-1.565,2.71-.008.016a.547.547,0,0,0-.054.417.553.553,0,0,0,.254.335L619.9,291a.293.293,0,0,1,.154.333,8.434,8.434,0,0,0-.185,1.01,8.571,8.571,0,0,0,.185,3.074h0a.292.292,0,0,1-.138.323l-2.222,1.282a.557.557,0,0,0-.254.335.551.551,0,0,0,.054.418h0l1.564,2.709.01.015a.547.547,0,0,0,.334.257.557.557,0,0,0,.418-.054l2.208-1.275a.294.294,0,0,1,.364.033,8.461,8.461,0,0,0,1.645,1.239,8.369,8.369,0,0,0,1.875.8.3.3,0,0,1,.226.286v2.566a.55.55,0,0,0,.551.549h3.146a.551.551,0,0,0,.551-.549v-2.564a.3.3,0,0,1,.214-.284,8.371,8.371,0,0,0,1.887-.8,8.488,8.488,0,0,0,1.645-1.239.293.293,0,0,1,.349-.042l2.208,1.275.016.007a.55.55,0,0,0,.752-.2h0l1.574-2.724a.554.554,0,0,0-.2-.753h0l-2.2-1.272a.3.3,0,0,1-.155-.334,8.454,8.454,0,0,0,.186-1.01,8.609,8.609,0,0,0,0-2.061,8.53,8.53,0,0,0-.186-1.011h0a.293.293,0,0,1,.138-.323l2.205-1.274.015-.009a.554.554,0,0,0,.2-.753l-1.563-2.709-.01-.016a.548.548,0,0,0-.334-.255.555.555,0,0,0-.405.046l-.012.008-2.223,1.284a.293.293,0,0,1-.35-.043,8.523,8.523,0,0,0-1.645-1.239,8.361,8.361,0,0,0-1.875-.8A.294.294,0,0,1,630.384,284.958Z" transform="translate(146.343 1197.742)" fill="#31b7a6" fill-rule="evenodd"/>
      <path id="Trazado_12145" data-name="Trazado 12145" d="M479.232,68.779a1.1,1.1,0,0,0-2.19,0v2.577h-2.575a1.1,1.1,0,1,0,0,2.191h2.575v2.576a1.1,1.1,0,1,0,2.19,0V73.548h2.577a1.1,1.1,0,0,0,0-2.191h-2.577Z" transform="translate(374.468 1257.407)" fill="#00a99a" fill-rule="evenodd"/>
      <path id="Trazado_12146" data-name="Trazado 12146" d="M479.232,68.779a1.1,1.1,0,0,0-2.19,0v2.577h-2.575a1.1,1.1,0,1,0,0,2.191h2.575v2.576a1.1,1.1,0,1,0,2.19,0V73.548h2.577a1.1,1.1,0,0,0,0-2.191h-2.577Z" transform="translate(-221.342 1385.47)" fill="#00a99a" fill-rule="evenodd"/>
      <path id="Trazado_12147" data-name="Trazado 12147" d="M479.232,68.779a1.1,1.1,0,0,0-2.19,0v2.577h-2.575a1.1,1.1,0,1,0,0,2.191h2.575v2.576a1.1,1.1,0,1,0,2.19,0V73.548h2.577a1.1,1.1,0,0,0,0-2.191h-2.577Z" transform="translate(379.468 1480.407)" fill="#fed97b" fill-rule="evenodd"/>
      <path id="Trazado_12148" data-name="Trazado 12148" d="M479.232,68.779a1.1,1.1,0,0,0-2.19,0v2.577h-2.575a1.1,1.1,0,1,0,0,2.191h2.575v2.576a1.1,1.1,0,1,0,2.19,0V73.548h2.577a1.1,1.1,0,0,0,0-2.191h-2.577Z" transform="translate(-68.342 1313.47)" fill="#00a99a" fill-rule="evenodd"/>
      <path id="Trazado_12149" data-name="Trazado 12149" d="M634.13,299.456Zm-2.486-9.469a4.787,4.787,0,1,1-3.384-1.4,4.768,4.768,0,0,1,3.384,1.4Zm-1.259-5.028v-2.564a.551.551,0,0,0-.551-.549h-3.146a.55.55,0,0,0-.551.549v2.564a.3.3,0,0,1-.214.283,8.351,8.351,0,0,0-1.887.8,8.488,8.488,0,0,0-1.639,1.233.292.292,0,0,1-.357.05l-2.223-1.284h0a.555.555,0,0,0-.753.2h0l-1.565,2.71-.008.016a.547.547,0,0,0-.054.417.553.553,0,0,0,.254.335L619.9,291a.293.293,0,0,1,.154.333,8.434,8.434,0,0,0-.185,1.01,8.571,8.571,0,0,0,.185,3.074h0a.292.292,0,0,1-.138.323l-2.222,1.282a.557.557,0,0,0-.254.335.551.551,0,0,0,.054.418h0l1.564,2.709.01.015a.547.547,0,0,0,.334.257.557.557,0,0,0,.418-.054l2.208-1.275a.294.294,0,0,1,.364.033,8.461,8.461,0,0,0,1.645,1.239,8.369,8.369,0,0,0,1.875.8.3.3,0,0,1,.226.286v2.566a.55.55,0,0,0,.551.549h3.146a.551.551,0,0,0,.551-.549v-2.564a.3.3,0,0,1,.214-.284,8.371,8.371,0,0,0,1.887-.8,8.488,8.488,0,0,0,1.645-1.239.293.293,0,0,1,.349-.042l2.208,1.275.016.007a.55.55,0,0,0,.752-.2h0l1.574-2.724a.554.554,0,0,0-.2-.753h0l-2.2-1.272a.3.3,0,0,1-.155-.334,8.454,8.454,0,0,0,.186-1.01,8.609,8.609,0,0,0,0-2.061,8.53,8.53,0,0,0-.186-1.011h0a.293.293,0,0,1,.138-.323l2.205-1.274.015-.009a.554.554,0,0,0,.2-.753l-1.563-2.709-.01-.016a.548.548,0,0,0-.334-.255.555.555,0,0,0-.405.046l-.012.008-2.223,1.284a.293.293,0,0,1-.35-.043,8.523,8.523,0,0,0-1.645-1.239,8.361,8.361,0,0,0-1.875-.8A.294.294,0,0,1,630.384,284.958Z" transform="translate(-371.657 1300.742)" fill="#31b7a6" fill-rule="evenodd"/>
      <path id="Trazado_12150" data-name="Trazado 12150" d="M479.232,68.779a1.1,1.1,0,0,0-2.19,0v2.577h-2.575a1.1,1.1,0,1,0,0,2.191h2.575v2.576a1.1,1.1,0,1,0,2.19,0V73.548h2.577a1.1,1.1,0,0,0,0-2.191h-2.577Z" transform="translate(400.658 1685.47)" fill="#fed97b" fill-rule="evenodd"/>
    </g>
  </g>
</svg>
