<svg xmlns="http://www.w3.org/2000/svg" width="452.713" height="367.638" viewBox="0 0 452.713 367.638">
  <g id="Grupo_8329" data-name="Grupo 8329" transform="translate(-344 -749.802)">
    <path id="Trazado_11946" data-name="Trazado 11946" d="M4795.956-545.2,4785.583-413.13l103.1,20.258h-96.534l-6.57,124.365,108.534,21.581H4781.625v67.367h450.713v-67.367h-58.083V-545.2Z" transform="translate(-4436.625 1296)" fill="#fed97b" stroke="#141414" stroke-width="2"/>
    <path id="Trazado_11947" data-name="Trazado 11947" d="M4765-478.367h214.113" transform="translate(-4305.625 1296)" fill="none" stroke="#2b2b2b" stroke-width="2"/>
    <path id="Trazado_12921" data-name="Trazado 12921" d="M10.5,0,21,18H0Z" transform="translate(446.875 828.5) rotate(-90)" fill="#0b0b0b"/>
    <path id="Trazado_12926" data-name="Trazado 12926" d="M10.5,0,21,18H0Z" transform="translate(688.875 807.5) rotate(90)" fill="#0b0b0b"/>
    <path id="Trazado_11948" data-name="Trazado 11948" d="M4755.951-393.9h286.786" transform="translate(-4305.625 1297)" fill="none" stroke="#1a1a1a" stroke-width="2"/>
    <path id="Trazado_11949" data-name="Trazado 11949" d="M4755.951-393.9h286.786" transform="translate(-4305.625 1443)" fill="none" stroke="#1a1a1a" stroke-width="2"/>
    <path id="Trazado_12922" data-name="Trazado 12922" d="M11.247-4.361A4.06,4.06,0,0,1,9.716-1.01,6.65,6.65,0,0,1,5.457.215,10,10,0,0,1,1.01-.73V-3.824a18.327,18.327,0,0,0,2.691,1,7.963,7.963,0,0,0,2.014.29A2.864,2.864,0,0,0,7.4-2.954,1.433,1.433,0,0,0,7.981-4.2a1.376,1.376,0,0,0-.258-.822,2.885,2.885,0,0,0-.757-.693A19.478,19.478,0,0,0,4.931-6.778a9.649,9.649,0,0,1-2.159-1.3,4.88,4.88,0,0,1-1.149-1.45,4.138,4.138,0,0,1-.43-1.934A4.059,4.059,0,0,1,2.6-14.738a5.87,5.87,0,0,1,3.9-1.192,9.221,9.221,0,0,1,2.336.29,16.06,16.06,0,0,1,2.326.816L10.1-12.235a15.717,15.717,0,0,0-2.079-.72,6.691,6.691,0,0,0-1.617-.2,2.141,2.141,0,0,0-1.45.44,1.453,1.453,0,0,0-.5,1.149,1.423,1.423,0,0,0,.2.768,2.244,2.244,0,0,0,.65.634,20.1,20.1,0,0,0,2.111,1.1,8.4,8.4,0,0,1,3.019,2.111A4.12,4.12,0,0,1,11.247-4.361ZM26.791,0h-3.8L19.336-5.94,15.684,0H12.117l5.21-8.1L12.45-15.705h3.674l3.384,5.65,3.319-5.65h3.588L21.484-7.917Z" transform="translate(539.375 842)" fill="#00223d"/>
    <path id="Trazado_11950" data-name="Trazado 11950" d="M4765-478.367h214.113" transform="translate(-4305.625 1417)" fill="none" stroke="#2b2b2b" stroke-width="2"/>
    <path id="Trazado_12923" data-name="Trazado 12923" d="M10.5,0,21,18H0Z" transform="translate(446.875 949.5) rotate(-90)" fill="#0b0b0b"/>
    <path id="Trazado_12927" data-name="Trazado 12927" d="M10.5,0,21,18H0Z" transform="translate(688.875 928.5) rotate(90)" fill="#0b0b0b"/>
    <path id="Trazado_12924" data-name="Trazado 12924" d="M14.674,0h-3.8L7.219-5.94,3.566,0H0L5.21-8.1.333-15.705H4.007l3.384,5.65,3.319-5.65H14.3L9.367-7.917ZM25.921-4.361A4.06,4.06,0,0,1,24.39-1.01,6.65,6.65,0,0,1,20.131.215,10,10,0,0,1,15.684-.73V-3.824a18.327,18.327,0,0,0,2.691,1,7.963,7.963,0,0,0,2.014.29,2.864,2.864,0,0,0,1.681-.419A1.433,1.433,0,0,0,22.655-4.2a1.376,1.376,0,0,0-.258-.822,2.885,2.885,0,0,0-.757-.693A19.478,19.478,0,0,0,19.6-6.778a9.649,9.649,0,0,1-2.159-1.3A4.88,4.88,0,0,1,16.3-9.528a4.138,4.138,0,0,1-.43-1.934,4.059,4.059,0,0,1,1.413-3.276,5.87,5.87,0,0,1,3.9-1.192,9.221,9.221,0,0,1,2.336.29,16.06,16.06,0,0,1,2.326.816l-1.074,2.589a15.717,15.717,0,0,0-2.079-.72,6.691,6.691,0,0,0-1.617-.2,2.141,2.141,0,0,0-1.45.44,1.453,1.453,0,0,0-.5,1.149,1.423,1.423,0,0,0,.2.768,2.244,2.244,0,0,0,.65.634,20.1,20.1,0,0,0,2.111,1.1A8.4,8.4,0,0,1,25.1-6.956,4.12,4.12,0,0,1,25.921-4.361Z" transform="translate(539.375 933)" fill="#00223d"/>
    <path id="Trazado_11951" data-name="Trazado 11951" d="M4765-478.367h214.113" transform="translate(-4305.625 1556)" fill="none" stroke="#2b2b2b" stroke-width="2"/>
    <path id="Trazado_12928" data-name="Trazado 12928" d="M10.5,0,21,18H0Z" transform="translate(446.875 1088.5) rotate(-90)" fill="#0b0b0b"/>
    <path id="Trazado_12929" data-name="Trazado 12929" d="M10.5,0,21,18H0Z" transform="translate(688.875 1067.5) rotate(90)" fill="#0b0b0b"/>
    <path id="Trazado_12925" data-name="Trazado 12925" d="M14.674,0h-3.8L7.219-5.94,3.566,0H0L5.21-8.1.333-15.705H4.007l3.384,5.65,3.319-5.65H14.3L9.367-7.917ZM25.921-4.361A4.06,4.06,0,0,1,24.39-1.01,6.65,6.65,0,0,1,20.131.215,10,10,0,0,1,15.684-.73V-3.824a18.327,18.327,0,0,0,2.691,1,7.963,7.963,0,0,0,2.014.29,2.864,2.864,0,0,0,1.681-.419A1.433,1.433,0,0,0,22.655-4.2a1.376,1.376,0,0,0-.258-.822,2.885,2.885,0,0,0-.757-.693A19.478,19.478,0,0,0,19.6-6.778a9.649,9.649,0,0,1-2.159-1.3A4.88,4.88,0,0,1,16.3-9.528a4.138,4.138,0,0,1-.43-1.934,4.059,4.059,0,0,1,1.413-3.276,5.87,5.87,0,0,1,3.9-1.192,9.221,9.221,0,0,1,2.336.29,16.06,16.06,0,0,1,2.326.816l-1.074,2.589a15.717,15.717,0,0,0-2.079-.72,6.691,6.691,0,0,0-1.617-.2,2.141,2.141,0,0,0-1.45.44,1.453,1.453,0,0,0-.5,1.149,1.423,1.423,0,0,0,.2.768,2.244,2.244,0,0,0,.65.634,20.1,20.1,0,0,0,2.111,1.1A8.4,8.4,0,0,1,25.1-6.956,4.12,4.12,0,0,1,25.921-4.361Z" transform="translate(539.375 1073)" fill="#00223d"/>
    <path id="Trazado_11952" data-name="Trazado 11952" d="M4725.352-488.5,4714.4-477.546l10.954,10.954" transform="translate(-4305.625 1296)" fill="none" stroke="#000" stroke-width="2"/>
    <path id="Trazado_11953" data-name="Trazado 11953" d="M4725.352-488.5,4714.4-477.546l10.954,10.954" transform="translate(-4305.625 1455)" fill="none" stroke="#000" stroke-width="2"/>
  </g>
</svg>
