<svg xmlns="http://www.w3.org/2000/svg" width="920" height="293" viewBox="0 0 920 293">
  <g id="Grupo_8327" data-name="Grupo 8327" transform="translate(-110 -2932)">
    <g id="Grupo_8236" data-name="Grupo 8236" transform="translate(0 1697)">
      <rect id="Rectángulo_2182" data-name="Rectángulo 2182" width="919" height="293" transform="translate(110 1235)" fill="#fff"/>
      <path id="Trazado_11913" data-name="Trazado 11913" d="M0,0H919.859V5.332H0Z" transform="translate(110.141 1521.594)" fill="#fed97b"/>
    </g>
    <g id="Trazado_12903" data-name="Trazado 12903" transform="translate(156 2981)" fill="none">
      <path d="M0,0H820V178H0Z" stroke="none"/>
      <path d="M 2 2 L 2 176 L 818 176 L 818 2 L 2 2 M 0 0 L 820 0 L 820 178 L 0 178 L 0 0 Z" stroke="none" fill="#00a99a"/>
    </g>
    <g id="Trazado_12904" data-name="Trazado 12904" transform="translate(140 2963)" fill="none" stroke-dasharray="6">
      <path d="M0,0H856V216H0Z" stroke="none"/>
      <path d="M 0 0 L 6 0 L 6 2 L 2 2 L 2 8 L 0 8 L 0 0 Z M 12 0 L 18 0 L 18 2 L 12 2 L 12 0 Z M 24 0 L 30 0 L 30 2 L 24 2 L 24 0 Z M 36 0 L 42 0 L 42 2 L 36 2 L 36 0 Z M 48 0 L 54 0 L 54 2 L 48 2 L 48 0 Z M 60 0 L 66 0 L 66 2 L 60 2 L 60 0 Z M 72 0 L 78 0 L 78 2 L 72 2 L 72 0 Z M 84 0 L 90 0 L 90 2 L 84 2 L 84 0 Z M 96 0 L 102 0 L 102 2 L 96 2 L 96 0 Z M 108 0 L 114 0 L 114 2 L 108 2 L 108 0 Z M 120 0 L 126 0 L 126 2 L 120 2 L 120 0 Z M 132 0 L 138 0 L 138 2 L 132 2 L 132 0 Z M 144 0 L 150 0 L 150 2 L 144 2 L 144 0 Z M 156 0 L 162 0 L 162 2 L 156 2 L 156 0 Z M 168 0 L 174 0 L 174 2 L 168 2 L 168 0 Z M 180 0 L 186 0 L 186 2 L 180 2 L 180 0 Z M 192 0 L 198 0 L 198 2 L 192 2 L 192 0 Z M 204 0 L 210 0 L 210 2 L 204 2 L 204 0 Z M 216 0 L 222 0 L 222 2 L 216 2 L 216 0 Z M 228 0 L 234 0 L 234 2 L 228 2 L 228 0 Z M 240 0 L 246 0 L 246 2 L 240 2 L 240 0 Z M 252 0 L 258 0 L 258 2 L 252 2 L 252 0 Z M 264 0 L 270 0 L 270 2 L 264 2 L 264 0 Z M 276 0 L 282 0 L 282 2 L 276 2 L 276 0 Z M 288 0 L 294 0 L 294 2 L 288 2 L 288 0 Z M 300 0 L 306 0 L 306 2 L 300 2 L 300 0 Z M 312 0 L 318 0 L 318 2 L 312 2 L 312 0 Z M 324 0 L 330 0 L 330 2 L 324 2 L 324 0 Z M 336 0 L 342 0 L 342 2 L 336 2 L 336 0 Z M 348 0 L 354 0 L 354 2 L 348 2 L 348 0 Z M 360 0 L 366 0 L 366 2 L 360 2 L 360 0 Z M 372 0 L 378 0 L 378 2 L 372 2 L 372 0 Z M 384 0 L 390 0 L 390 2 L 384 2 L 384 0 Z M 396 0 L 402 0 L 402 2 L 396 2 L 396 0 Z M 408 0 L 414 0 L 414 2 L 408 2 L 408 0 Z M 420 0 L 426 0 L 426 2 L 420 2 L 420 0 Z M 432 0 L 438 0 L 438 2 L 432 2 L 432 0 Z M 444 0 L 450 0 L 450 2 L 444 2 L 444 0 Z M 456 0 L 462 0 L 462 2 L 456 2 L 456 0 Z M 468 0 L 474 0 L 474 2 L 468 2 L 468 0 Z M 480 0 L 486 0 L 486 2 L 480 2 L 480 0 Z M 492 0 L 498 0 L 498 2 L 492 2 L 492 0 Z M 504 0 L 510 0 L 510 2 L 504 2 L 504 0 Z M 516 0 L 522 0 L 522 2 L 516 2 L 516 0 Z M 528 0 L 534 0 L 534 2 L 528 2 L 528 0 Z M 540 0 L 546 0 L 546 2 L 540 2 L 540 0 Z M 552 0 L 558 0 L 558 2 L 552 2 L 552 0 Z M 564 0 L 570 0 L 570 2 L 564 2 L 564 0 Z M 576 0 L 582 0 L 582 2 L 576 2 L 576 0 Z M 588 0 L 594 0 L 594 2 L 588 2 L 588 0 Z M 600 0 L 606 0 L 606 2 L 600 2 L 600 0 Z M 612 0 L 618 0 L 618 2 L 612 2 L 612 0 Z M 624 0 L 630 0 L 630 2 L 624 2 L 624 0 Z M 636 0 L 642 0 L 642 2 L 636 2 L 636 0 Z M 648 0 L 654 0 L 654 2 L 648 2 L 648 0 Z M 660 0 L 666 0 L 666 2 L 660 2 L 660 0 Z M 672 0 L 678 0 L 678 2 L 672 2 L 672 0 Z M 684 0 L 690 0 L 690 2 L 684 2 L 684 0 Z M 696 0 L 702 0 L 702 2 L 696 2 L 696 0 Z M 708 0 L 714 0 L 714 2 L 708 2 L 708 0 Z M 720 0 L 726 0 L 726 2 L 720 2 L 720 0 Z M 732 0 L 738 0 L 738 2 L 732 2 L 732 0 Z M 744 0 L 750 0 L 750 2 L 744 2 L 744 0 Z M 756 0 L 762 0 L 762 2 L 756 2 L 756 0 Z M 768 0 L 774 0 L 774 2 L 768 2 L 768 0 Z M 780 0 L 786 0 L 786 2 L 780 2 L 780 0 Z M 792 0 L 798 0 L 798 2 L 792 2 L 792 0 Z M 804 0 L 810 0 L 810 2 L 804 2 L 804 0 Z M 816 0 L 822 0 L 822 2 L 816 2 L 816 0 Z M 828 0 L 834 0 L 834 2 L 828 2 L 828 0 Z M 840 0 L 846 0 L 846 2 L 840 2 L 840 0 Z M 852 0 L 856 0 L 856 2 L 852 2 L 852 0 Z M 854 8 L 856 8 C 856 8 856 14 856 14 L 854 14 L 854 8 Z M 854 20 L 856 20 C 856 20 856 26 856 26 L 854 26 L 854 20 Z M 854 32 L 856 32 C 856 32 856 38 856 38 L 854 38 L 854 32 Z M 854 44 L 856 44 C 856 44 856 50 856 50 L 854 50 L 854 44 Z M 854 56 L 856 56 C 856 56 856 62 856 62 L 854 62 L 854 56 Z M 854 68 L 856 68 C 856 68 856 74 856 74 L 854 74 L 854 68 Z M 854 80 L 856 80 C 856 80 856 86 856 86 L 854 86 L 854 80 Z M 854 92 L 856 92 C 856 92 856 98 856 98 L 854 98 L 854 92 Z M 854 104 L 856 104 C 856 104 856 110 856 110 L 854 110 L 854 104 Z M 854 116 L 856 116 C 856 116 856 122 856 122 L 854 122 L 854 116 Z M 854 128 L 856 128 C 856 128 856 134 856 134 L 854 134 L 854 128 Z M 854 140 L 856 140 C 856 140 856 146 856 146 L 854 146 L 854 140 Z M 854 152 L 856 152 C 856 152 856 158 856 158 L 854 158 L 854 152 Z M 854 164 L 856 164 C 856 164 856 170 856 170 L 854 170 L 854 164 Z M 854 176 L 856 176 C 856 176 856 182 856 182 L 854 182 L 854 176 Z M 854 188 L 856 188 C 856 188 856 194 856 194 L 854 194 L 854 188 Z M 854 200 L 856 200 C 856 200 856 206 856 206 L 854 206 L 854 200 Z M 854 212 L 856 212 C 856 212 856 216 856 216 L 854 216 L 854 216 L 854 216 L 854 216 L 854 216 C 854 216 854 216 854 216 L 854 214 L 854 214 L 854 212 Z M 842 214 L 848 214 L 848 216 C 848 216 842 216 842 216 L 842 214 Z M 830 214 L 836 214 L 836 216 C 836 216 830 216 830 216 L 830 214 Z M 818 214 L 824 214 L 824 216 C 824 216 818 216 818 216 L 818 214 Z M 806 214 L 812 214 L 812 216 C 812 216 806 216 806 216 L 806 214 Z M 794 214 L 800 214 L 800 216 C 800 216 794 216 794 216 L 794 214 Z M 782 214 L 788 214 L 788 216 C 788 216 782 216 782 216 L 782 214 Z M 770 214 L 776 214 L 776 216 C 776 216 770 216 770 216 L 770 214 Z M 758 214 L 764 214 L 764 216 C 764 216 758 216 758 216 L 758 214 Z M 746 214 L 752 214 L 752 216 C 752 216 746 216 746 216 L 746 214 Z M 734 214 L 740 214 L 740 216 C 740 216 734 216 734 216 L 734 214 Z M 722 214 L 728 214 L 728 216 C 728 216 722 216 722 216 L 722 214 Z M 710 214 L 716 214 L 716 216 C 716 216 710 216 710 216 L 710 214 Z M 698 214 L 704 214 L 704 216 C 704 216 698 216 698 216 L 698 214 Z M 686 214 L 692 214 L 692 216 C 692 216 686 216 686 216 L 686 214 Z M 674 214 L 680 214 L 680 216 C 680 216 674 216 674 216 L 674 214 Z M 662 214 L 668 214 L 668 216 C 668 216 662 216 662 216 L 662 214 Z M 650 214 L 656 214 L 656 216 C 656 216 650 216 650 216 L 650 214 Z M 638 214 L 644 214 L 644 216 C 644 216 638 216 638 216 L 638 214 Z M 626 214 L 632 214 L 632 216 C 632 216 626 216 626 216 L 626 214 Z M 614 214 L 620 214 L 620 216 C 620 216 614 216 614 216 L 614 214 Z M 602 214 L 608 214 L 608 216 C 608 216 602 216 602 216 L 602 214 Z M 590 214 L 596 214 L 596 216 C 596 216 590 216 590 216 L 590 214 Z M 578 214 L 584 214 L 584 216 C 584 216 578 216 578 216 L 578 214 Z M 566 214 L 572 214 L 572 216 C 572 216 566 216 566 216 L 566 214 Z M 554 214 L 560 214 L 560 216 C 560 216 554 216 554 216 L 554 214 Z M 542 214 L 548 214 L 548 216 C 548 216 542 216 542 216 L 542 214 Z M 530 214 L 536 214 L 536 216 C 536 216 530 216 530 216 L 530 214 Z M 518 214 L 524 214 L 524 216 C 524 216 518 216 518 216 L 518 214 Z M 506 214 L 512 214 L 512 216 C 512 216 506 216 506 216 L 506 214 Z M 494 214 L 500 214 L 500 216 C 500 216 494 216 494 216 L 494 214 Z M 482 214 L 488 214 L 488 216 C 488 216 482 216 482 216 L 482 214 Z M 470 214 L 476 214 L 476 216 C 476 216 470 216 470 216 L 470 214 Z M 458 214 L 464 214 L 464 216 C 464 216 458 216 458 216 L 458 214 Z M 446 214 L 452 214 L 452 216 C 452 216 446 216 446 216 L 446 214 Z M 434 214 L 440 214 L 440 216 C 440 216 434 216 434 216 L 434 214 Z M 422 214 L 428 214 L 428 216 C 428 216 422 216 422 216 L 422 214 Z M 410 214 L 416 214 L 416 216 C 416 216 410 216 410 216 L 410 214 Z M 398 214 L 404 214 L 404 216 C 404 216 398 216 398 216 L 398 214 Z M 386 214 L 392 214 L 392 216 C 392 216 386 216 386 216 L 386 214 Z M 374 214 L 380 214 L 380 216 C 380 216 374 216 374 216 L 374 214 Z M 362 214 L 368 214 L 368 216 C 368 216 362 216 362 216 L 362 214 Z M 350 214 L 356 214 L 356 216 C 356 216 350 216 350 216 L 350 214 Z M 338 214 L 344 214 L 344 216 C 344 216 338 216 338 216 L 338 214 Z M 326 214 L 332 214 L 332 216 C 332 216 326 216 326 216 L 326 214 Z M 314 214 L 320 214 L 320 216 C 320 216 314 216 314 216 L 314 214 Z M 302 214 L 308 214 L 308 216 C 308 216 302 216 302 216 L 302 214 Z M 290 214 L 296 214 L 296 216 C 296 216 290 216 290 216 L 290 214 Z M 278 214 L 284 214 L 284 216 C 284 216 278 216 278 216 L 278 214 Z M 266 214 L 272 214 L 272 216 C 272 216 266 216 266 216 L 266 214 Z M 254 214 L 260 214 L 260 216 C 260 216 254 216 254 216 L 254 214 Z M 242 214 L 248 214 L 248 216 C 248 216 242 216 242 216 L 242 214 Z M 230 214 L 236 214 L 236 216 C 236 216 230 216 230 216 L 230 214 Z M 218 214 L 224 214 L 224 216 C 224 216 218 216 218 216 L 218 214 Z M 206 214 L 212 214 L 212 216 C 212 216 206 216 206 216 L 206 214 Z M 194 214 L 200 214 L 200 216 C 200 216 194 216 194 216 L 194 214 Z M 182 214 L 188 214 L 188 216 C 188 216 182 216 182 216 L 182 214 Z M 170 214 L 176 214 L 176 216 C 176 216 170 216 170 216 L 170 214 Z M 158 214 L 164 214 L 164 216 C 164 216 158 216 158 216 L 158 214 Z M 146 214 L 152 214 L 152 216 C 152 216 146 216 146 216 L 146 214 Z M 134 214 L 140 214 L 140 216 C 140 216 134 216 134 216 L 134 214 Z M 122 214 L 128 214 L 128 216 C 128 216 122 216 122 216 L 122 214 Z M 110 214 L 116 214 L 116 216 C 116 216 110 216 110 216 L 110 214 Z M 98 214 L 104 214 L 104 216 C 104 216 98 216 98 216 L 98 214 Z M 86 214 L 92 214 L 92 216 C 92 216 86 216 86 216 L 86 214 Z M 74 214 L 80 214 L 80 216 C 80 216 74 216 74 216 L 74 214 Z M 62 214 L 68 214 L 68 216 C 68 216 62 216 62 216 L 62 214 Z M 50 214 L 56 214 L 56 216 C 56 216 50 216 50 216 L 50 214 Z M 38 214 L 44 214 L 44 216 C 44 216 38 216 38 216 L 38 214 Z M 26 214 L 32 214 L 32 216 C 32 216 26 216 26 216 L 26 214 Z M 14 214 L 20 214 L 20 216 C 20 216 14 216 14 216 L 14 214 Z M 2 214 L 8 214 L 8 216 C 8 216 2 216 2 216 L 2 214 Z M 0 206 L 2 206 L 2 212 L 0 212 L 0 206 Z M 0 194 L 2 194 L 2 200 L 0 200 L 0 194 Z M 0 182 L 2 182 L 2 188 L 0 188 L 0 182 Z M 0 170 L 2 170 L 2 176 L 0 176 L 0 170 Z M 0 158 L 2 158 L 2 164 L 0 164 L 0 158 Z M 0 146 L 2 146 L 2 152 L 0 152 L 0 146 Z M 0 134 L 2 134 L 2 140 L 0 140 L 0 134 Z M 0 122 L 2 122 L 2 128 L 0 128 L 0 122 Z M 0 110 L 2 110 L 2 116 L 0 116 L 0 110 Z M 0 98 L 2 98 L 2 104 L 0 104 L 0 98 Z M 0 86 L 2 86 L 2 92 L 0 92 L 0 86 Z M 0 74 L 2 74 L 2 80 L 0 80 L 0 74 Z M 0 62 L 2 62 L 2 68 L 0 68 L 0 62 Z M 0 50 L 2 50 L 2 56 L 0 56 L 0 50 Z M 0 38 L 2 38 L 2 44 L 0 44 L 0 38 Z M 0 26 L 2 26 L 2 32 L 0 32 L 0 26 Z M 0 14 L 2 14 L 2 20 L 0 20 L 0 14 Z" stroke="none"/>
    </g>
    <path id="Trazado_11939" data-name="Trazado 11939" d="M2579,1818.688V1705.414l-22.334,22.334" transform="translate(-2013 1306)" fill="none" stroke="#00a99a" stroke-width="3"/>
    <path id="Trazado_12905" data-name="Trazado 12905" d="M5,0A5,5,0,1,1,0,5,5,5,0,0,1,5,0Z" transform="translate(153 2977)" fill="#ed3a3a"/>
    <path id="Trazado_12906" data-name="Trazado 12906" d="M5,0A5,5,0,1,1,0,5,5,5,0,0,1,5,0Z" transform="translate(184 2977)" fill="#ed3a3a"/>
    <path id="Trazado_12907" data-name="Trazado 12907" d="M5,0A5,5,0,1,1,0,5,5,5,0,0,1,5,0Z" transform="translate(242 2977)" fill="#ed3a3a"/>
    <path id="Trazado_12908" data-name="Trazado 12908" d="M5,0A5,5,0,1,1,0,5,5,5,0,0,1,5,0Z" transform="translate(153 3063)" fill="#ed3a3a"/>
    <path id="Trazado_12915" data-name="Trazado 12915" d="M5,0A5,5,0,1,1,0,5,5,5,0,0,1,5,0Z" transform="translate(153 3154)" fill="#ed3a3a"/>
    <path id="Trazado_12916" data-name="Trazado 12916" d="M5,0A5,5,0,1,1,0,5,5,5,0,0,1,5,0Z" transform="translate(189 3154)" fill="#ed3a3a"/>
    <path id="Trazado_12917" data-name="Trazado 12917" d="M5,0A5,5,0,1,1,0,5,5,5,0,0,1,5,0Z" transform="translate(247 3154)" fill="#ed3a3a"/>
    <path id="Trazado_12918" data-name="Trazado 12918" d="M5,0A5,5,0,1,1,0,5,5,5,0,0,1,5,0Z" transform="translate(969 2977)" fill="#ed3a3a"/>
    <path id="Trazado_12920" data-name="Trazado 12920" d="M5,0A5,5,0,1,1,0,5,5,5,0,0,1,5,0Z" transform="translate(971 3154)" fill="#ed3a3a"/>
    <path id="Trazado_12909" data-name="Trazado 12909" d="M3.92-9.12v2.96H9.1v2.08H3.92V0H1.328V-11.2H9.792v2.08ZM18.464-2.4h-5.2L12.272,0H9.616l4.992-11.2h2.56L22.176,0h-2.72Zm-.816-1.968L15.872-8.656,14.1-4.368Zm5.7-6.832h2.592v9.088h5.616V0H23.344Zm9.664,0H38.1a7.151,7.151,0,0,1,3.224.7A5.211,5.211,0,0,1,43.5-8.544,5.513,5.513,0,0,1,44.272-5.6,5.513,5.513,0,0,1,43.5-2.656,5.211,5.211,0,0,1,41.32-.7,7.151,7.151,0,0,1,38.1,0H33.008Zm4.96,9.072a3.764,3.764,0,0,0,2.68-.936,3.306,3.306,0,0,0,1-2.536,3.306,3.306,0,0,0-1-2.536,3.764,3.764,0,0,0-2.68-.936H35.6v6.944ZM53.44-2.4h-5.2L47.248,0H44.592l4.992-11.2h2.56L57.152,0h-2.72Zm-.816-1.968L50.848-8.656,49.072-4.368ZM71.072-5.824a2.953,2.953,0,0,1,1.5,1.016,2.8,2.8,0,0,1,.544,1.752A2.588,2.588,0,0,1,71.976-.792,5.848,5.848,0,0,1,68.64,0H62.848V-11.2H68.32a5.356,5.356,0,0,1,3.144.784,2.482,2.482,0,0,1,1.1,2.128,2.731,2.731,0,0,1-.392,1.456A2.746,2.746,0,0,1,71.072-5.824ZM65.424-9.248v2.64H68a2.6,2.6,0,0,0,1.456-.336,1.121,1.121,0,0,0,.5-.992,1.1,1.1,0,0,0-.5-.984A2.651,2.651,0,0,0,68-9.248Zm3.024,7.3a2.872,2.872,0,0,0,1.544-.336,1.151,1.151,0,0,0,.52-1.04q0-1.392-2.064-1.392H65.424v2.768ZM82.464-2.4h-5.2L76.272,0H73.616l4.992-11.2h2.56L86.176,0h-2.72Zm-.816-1.968L79.872-8.656,78.1-4.368ZM80.592-14.416H83.28l-2.9,2.3H78.432ZM91.024.192a9.164,9.164,0,0,1-2.568-.36A6.023,6.023,0,0,1,86.464-1.1l.88-1.952a5.971,5.971,0,0,0,1.712.848,6.43,6.43,0,0,0,1.984.32,3.17,3.17,0,0,0,1.632-.328.991.991,0,0,0,.528-.872.834.834,0,0,0-.312-.664,2.365,2.365,0,0,0-.8-.424q-.488-.16-1.32-.352a18.247,18.247,0,0,1-2.1-.608,3.405,3.405,0,0,1-1.4-.976A2.636,2.636,0,0,1,86.688-7.9a3.117,3.117,0,0,1,.528-1.768,3.552,3.552,0,0,1,1.592-1.256,6.5,6.5,0,0,1,2.6-.464,8.609,8.609,0,0,1,2.1.256A6.192,6.192,0,0,1,95.3-10.4l-.8,1.968a6.245,6.245,0,0,0-3.1-.88,2.91,2.91,0,0,0-1.608.352,1.074,1.074,0,0,0-.52.928.907.907,0,0,0,.6.856,9.42,9.42,0,0,0,1.832.552,18.247,18.247,0,0,1,2.1.608,3.471,3.471,0,0,1,1.4.96,2.574,2.574,0,0,1,.584,1.776,3.058,3.058,0,0,1-.536,1.752A3.6,3.6,0,0,1,93.632-.272,6.555,6.555,0,0,1,91.024.192ZM97.552-11.2h2.592V0H97.552ZM108.16.192a6.433,6.433,0,0,1-3.1-.744,5.552,5.552,0,0,1-2.176-2.064A5.687,5.687,0,0,1,102.1-5.6a5.687,5.687,0,0,1,.792-2.984,5.552,5.552,0,0,1,2.176-2.064,6.467,6.467,0,0,1,3.112-.744,6.527,6.527,0,0,1,2.632.512,5.272,5.272,0,0,1,1.976,1.472L111.12-7.872A3.578,3.578,0,0,0,108.3-9.184a3.739,3.739,0,0,0-1.856.456,3.242,3.242,0,0,0-1.272,1.272A3.739,3.739,0,0,0,104.72-5.6a3.739,3.739,0,0,0,.456,1.856,3.242,3.242,0,0,0,1.272,1.272,3.739,3.739,0,0,0,1.856.456,3.561,3.561,0,0,0,2.816-1.328l1.664,1.536A5.187,5.187,0,0,1,110.8-.32,6.585,6.585,0,0,1,108.16.192ZM121.68-2.4h-5.2L115.488,0h-2.656l4.992-11.2h2.56L125.392,0h-2.72Zm-.816-1.968-1.776-4.288-1.776,4.288Z" transform="translate(622 3020)" fill="#3b1f10"/>
    <path id="Trazado_12910" data-name="Trazado 12910" d="M3.648-9.088H.064V-11.2h9.76v2.112H6.24V0H3.648ZM18.032-2.4h-5.2L11.84,0H9.184l4.992-11.2h2.56L21.744,0h-2.72Zm-.816-1.968L15.44-8.656,13.664-4.368Zm5.7-6.832H25.5v9.088H31.12V0H22.912Zm9.664,0h2.592v9.088h5.616V0H32.576ZM49.712-2.4h-5.2L43.52,0H40.864l4.992-11.2h2.56L53.424,0H50.7ZM48.9-4.368,47.12-8.656,45.344-4.368ZM66.08-5.888A3.169,3.169,0,0,1,67.352-4.8a2.769,2.769,0,0,1,.44,1.552A2.909,2.909,0,0,1,67.2-1.432a3.78,3.78,0,0,1-1.664,1.2,6.711,6.711,0,0,1-2.48.424,6.648,6.648,0,0,1-2.472-.424,3.728,3.728,0,0,1-1.648-1.2,2.936,2.936,0,0,1-.584-1.816,2.769,2.769,0,0,1,.44-1.552,3.191,3.191,0,0,1,1.256-1.088,2.733,2.733,0,0,1-.96-.968,2.63,2.63,0,0,1-.336-1.336,2.734,2.734,0,0,1,.544-1.7A3.471,3.471,0,0,1,60.816-11a5.975,5.975,0,0,1,2.24-.392A6.084,6.084,0,0,1,65.32-11a3.466,3.466,0,0,1,1.528,1.112,2.734,2.734,0,0,1,.544,1.7,2.63,2.63,0,0,1-.336,1.336A2.7,2.7,0,0,1,66.08-5.888Zm-3.024-3.6a1.958,1.958,0,0,0-1.256.376,1.247,1.247,0,0,0-.472,1.032,1.217,1.217,0,0,0,.464,1.008,1.981,1.981,0,0,0,1.264.368,2.05,2.05,0,0,0,1.28-.368,1.2,1.2,0,0,0,.48-1.008,1.239,1.239,0,0,0-.48-1.032A2.019,2.019,0,0,0,63.056-9.488Zm0,7.776a2.46,2.46,0,0,0,1.544-.44,1.412,1.412,0,0,0,.568-1.176A1.391,1.391,0,0,0,64.6-4.5a2.492,2.492,0,0,0-1.544-.432,2.428,2.428,0,0,0-1.52.432,1.4,1.4,0,0,0-.56,1.168,1.414,1.414,0,0,0,.56,1.184A2.428,2.428,0,0,0,63.056-1.712Z" transform="translate(622 3042)" fill="#3b1f10"/>
    <path id="Trazado_12911" data-name="Trazado 12911" d="M6.176-11.2a6.222,6.222,0,0,1,2.584.5A3.839,3.839,0,0,1,10.448-9.3a3.879,3.879,0,0,1,.592,2.16,3.889,3.889,0,0,1-.592,2.152A3.77,3.77,0,0,1,8.76-3.576a6.311,6.311,0,0,1-2.584.488H3.92V0H1.328V-11.2Zm-.144,6a2.722,2.722,0,0,0,1.776-.5,1.755,1.755,0,0,0,.608-1.432,1.774,1.774,0,0,0-.608-1.448,2.722,2.722,0,0,0-1.776-.5H3.92V-5.2ZM20.016,0l-2.16-3.12H15.472V0H12.88V-11.2h4.848a6.222,6.222,0,0,1,2.584.5A3.839,3.839,0,0,1,22-9.3a3.879,3.879,0,0,1,.592,2.16,3.8,3.8,0,0,1-.6,2.152,3.8,3.8,0,0,1-1.7,1.384L22.8,0Zm-.048-7.136a1.774,1.774,0,0,0-.608-1.448,2.722,2.722,0,0,0-1.776-.5H15.472v3.9h2.112A2.692,2.692,0,0,0,19.36-5.7,1.779,1.779,0,0,0,19.968-7.136ZM33.312-2.08V0H24.64V-11.2H33.1v2.08H27.216v2.432h5.2v2.016h-5.2V-2.08ZM37.7-9.088H34.112V-11.2h9.76v2.112H40.288V0H37.7ZM45.264-11.2h2.592V0H45.264Zm15.52,0V0H58.656L53.072-6.8V0h-2.56V-11.2h2.144l5.568,6.8v-6.8ZM70.816-2.4h-5.2L64.624,0H61.968L66.96-11.2h2.56L74.528,0h-2.72ZM70-4.368,68.224-8.656,66.448-4.368Z" transform="translate(622 3065)" fill="#3b1f10"/>
    <path id="Trazado_12912" data-name="Trazado 12912" d="M8.464,0,6.3-3.12H3.92V0H1.328V-11.2H6.176a6.222,6.222,0,0,1,2.584.5A3.839,3.839,0,0,1,10.448-9.3a3.879,3.879,0,0,1,.592,2.16,3.8,3.8,0,0,1-.6,2.152A3.8,3.8,0,0,1,8.736-3.6L11.248,0ZM8.416-7.136a1.774,1.774,0,0,0-.608-1.448,2.722,2.722,0,0,0-1.776-.5H3.92v3.9H6.032A2.692,2.692,0,0,0,7.808-5.7,1.779,1.779,0,0,0,8.416-7.136ZM21.76-2.08V0H13.088V-11.2h8.464v2.08H15.664v2.432h5.2v2.016h-5.2V-2.08Zm4.656-7.04v2.96H31.6v2.08H26.416V0H23.824V-11.2h8.464v2.08Zm16.3,7.04V0H34.048V-11.2h8.464v2.08H36.624v2.432h5.2v2.016h-5.2V-2.08ZM51.92,0,49.76-3.12H47.376V0H44.784V-11.2h4.848a6.222,6.222,0,0,1,2.584.5A3.839,3.839,0,0,1,53.9-9.3a3.879,3.879,0,0,1,.592,2.16,3.8,3.8,0,0,1-.6,2.152,3.8,3.8,0,0,1-1.7,1.384L54.7,0Zm-.048-7.136a1.774,1.774,0,0,0-.608-1.448,2.722,2.722,0,0,0-1.776-.5H47.376v3.9h2.112A2.692,2.692,0,0,0,51.264-5.7,1.779,1.779,0,0,0,51.872-7.136ZM65.216-2.08V0H56.544V-11.2h8.464v2.08H59.12v2.432h5.2v2.016h-5.2V-2.08ZM77.552-11.2V0H75.424L69.84-6.8V0H67.28V-11.2h2.144l5.568,6.8v-6.8ZM85.568.192a6.433,6.433,0,0,1-3.1-.744A5.552,5.552,0,0,1,80.3-2.616,5.687,5.687,0,0,1,79.5-5.6,5.687,5.687,0,0,1,80.3-8.584a5.552,5.552,0,0,1,2.176-2.064,6.467,6.467,0,0,1,3.112-.744,6.528,6.528,0,0,1,2.632.512,5.272,5.272,0,0,1,1.976,1.472L88.528-7.872a3.578,3.578,0,0,0-2.816-1.312,3.739,3.739,0,0,0-1.856.456,3.242,3.242,0,0,0-1.272,1.272A3.739,3.739,0,0,0,82.128-5.6a3.739,3.739,0,0,0,.456,1.856,3.242,3.242,0,0,0,1.272,1.272,3.739,3.739,0,0,0,1.856.456,3.561,3.561,0,0,0,2.816-1.328l1.664,1.536A5.187,5.187,0,0,1,88.208-.32,6.585,6.585,0,0,1,85.568.192ZM91.936-11.2h2.592V0H91.936ZM104.56-2.4h-5.2L98.368,0H95.712L100.7-11.2h2.56L108.272,0h-2.72Zm-.816-1.968-1.776-4.288-1.776,4.288Z" transform="translate(622 3087)" fill="#3b1f10"/>
    <path id="Trazado_12913" data-name="Trazado 12913" d="M6.688.192a6.433,6.433,0,0,1-3.1-.744A5.552,5.552,0,0,1,1.416-2.616,5.687,5.687,0,0,1,.624-5.6a5.687,5.687,0,0,1,.792-2.984,5.552,5.552,0,0,1,2.176-2.064A6.467,6.467,0,0,1,6.7-11.392a6.528,6.528,0,0,1,2.632.512,5.272,5.272,0,0,1,1.976,1.472L9.648-7.872A3.578,3.578,0,0,0,6.832-9.184a3.739,3.739,0,0,0-1.856.456A3.242,3.242,0,0,0,3.7-7.456,3.739,3.739,0,0,0,3.248-5.6,3.739,3.739,0,0,0,3.7-3.744,3.242,3.242,0,0,0,4.976-2.472a3.739,3.739,0,0,0,1.856.456A3.561,3.561,0,0,0,9.648-3.344l1.664,1.536A5.187,5.187,0,0,1,9.328-.32,6.585,6.585,0,0,1,6.688.192Zm11.552,0A6.537,6.537,0,0,1,15.1-.56,5.581,5.581,0,0,1,12.9-2.632,5.657,5.657,0,0,1,12.112-5.6,5.657,5.657,0,0,1,12.9-8.568,5.581,5.581,0,0,1,15.1-10.64a6.537,6.537,0,0,1,3.144-.752,6.491,6.491,0,0,1,3.136.752,5.654,5.654,0,0,1,2.192,2.072,5.613,5.613,0,0,1,.8,2.968,5.613,5.613,0,0,1-.8,2.968A5.654,5.654,0,0,1,21.376-.56,6.491,6.491,0,0,1,18.24.192Zm0-2.208a3.554,3.554,0,0,0,1.792-.456,3.272,3.272,0,0,0,1.256-1.272A3.739,3.739,0,0,0,21.744-5.6a3.739,3.739,0,0,0-.456-1.856,3.272,3.272,0,0,0-1.256-1.272,3.554,3.554,0,0,0-1.792-.456,3.554,3.554,0,0,0-1.792.456,3.272,3.272,0,0,0-1.256,1.272A3.739,3.739,0,0,0,14.736-5.6a3.739,3.739,0,0,0,.456,1.856,3.272,3.272,0,0,0,1.256,1.272A3.554,3.554,0,0,0,18.24-2.016ZM33.456,0,31.3-3.12H28.912V0H26.32V-11.2h4.848a6.222,6.222,0,0,1,2.584.5A3.839,3.839,0,0,1,35.44-9.3a3.879,3.879,0,0,1,.592,2.16,3.8,3.8,0,0,1-.6,2.152,3.8,3.8,0,0,1-1.7,1.384L36.24,0Zm-.048-7.136A1.774,1.774,0,0,0,32.8-8.584a2.722,2.722,0,0,0-1.776-.5H28.912v3.9h2.112A2.692,2.692,0,0,0,32.8-5.7,1.779,1.779,0,0,0,33.408-7.136ZM40.24-9.088H36.656V-11.2h9.76v2.112H42.832V0H40.24ZM54.624-2.4h-5.2L48.432,0H45.776l4.992-11.2h2.56L58.336,0h-2.72Zm-.816-1.968L52.032-8.656,50.256-4.368ZM66.64,0,64.48-3.12H62.1V0H59.5V-11.2h4.848a6.222,6.222,0,0,1,2.584.5A3.839,3.839,0,0,1,68.624-9.3a3.879,3.879,0,0,1,.592,2.16,3.8,3.8,0,0,1-.6,2.152,3.8,3.8,0,0,1-1.7,1.384L69.424,0Zm-.048-7.136a1.774,1.774,0,0,0-.608-1.448,2.722,2.722,0,0,0-1.776-.5H62.1v3.9h2.112A2.692,2.692,0,0,0,65.984-5.7,1.779,1.779,0,0,0,66.592-7.136ZM77.632,3.1a11.59,11.59,0,0,1-1.48-3.376,15.676,15.676,0,0,1-.52-4.112,15.766,15.766,0,0,1,.52-4.12,11.354,11.354,0,0,1,1.48-3.368h2.384a14.525,14.525,0,0,0-1.472,3.608,15.752,15.752,0,0,0-.464,3.88A15.752,15.752,0,0,0,78.544-.5,14.525,14.525,0,0,0,80.016,3.1ZM88.56,0l-2.7-3.888L83.2,0H80.224l4.144-5.7-3.936-5.5h2.944l2.576,3.632L88.48-11.2h2.8l-3.9,5.408L91.552,0ZM96.7-11.2V0H94.112V-9.12h-2.24V-11.2ZM98.192,3.1A14.763,14.763,0,0,0,99.672-.5a15.5,15.5,0,0,0,.472-3.88,15.5,15.5,0,0,0-.472-3.88,14.763,14.763,0,0,0-1.48-3.608h2.384a10.9,10.9,0,0,1,1.5,3.352,15.831,15.831,0,0,1,.52,4.136,15.881,15.881,0,0,1-.512,4.12,10.966,10.966,0,0,1-1.5,3.368Z" transform="translate(622 3110)" fill="#3b1f10"/>
    <path id="Trazado_12914" data-name="Trazado 12914" d="M6.176-11.2a6.222,6.222,0,0,1,2.584.5A3.839,3.839,0,0,1,10.448-9.3a3.879,3.879,0,0,1,.592,2.16,3.889,3.889,0,0,1-.592,2.152A3.77,3.77,0,0,1,8.76-3.576a6.311,6.311,0,0,1-2.584.488H3.92V0H1.328V-11.2Zm-.144,6a2.722,2.722,0,0,0,1.776-.5,1.755,1.755,0,0,0,.608-1.432,1.774,1.774,0,0,0-.608-1.448,2.722,2.722,0,0,0-1.776-.5H3.92V-5.2Zm6.848-6h2.592V0H12.88ZM26.8-2.08V0H18.128V-11.2h8.464v2.08H20.7v2.432h5.2v2.016H20.7V-2.08Zm11.136-.032V0H28.144V-1.68l6.144-7.408H28.272V-11.2H37.7v1.68L31.568-2.112Zm9.04-.288h-5.2L40.784,0H38.128L43.12-11.2h2.56L50.688,0h-2.72ZM46.16-4.368,44.384-8.656,42.608-4.368ZM64.048-2.112V0H55.584V-1.68L59.9-5.76a4.588,4.588,0,0,0,.928-1.128,2.052,2.052,0,0,0,.24-.936,1.238,1.238,0,0,0-.456-1.032,2.122,2.122,0,0,0-1.336-.36,3.068,3.068,0,0,0-1.328.28,2.543,2.543,0,0,0-.992.84L55.072-9.312A4.429,4.429,0,0,1,56.88-10.84a6.038,6.038,0,0,1,2.64-.552,5.428,5.428,0,0,1,2.184.408A3.366,3.366,0,0,1,63.16-9.832a2.981,2.981,0,0,1,.52,1.752A3.905,3.905,0,0,1,63.3-6.368a6.59,6.59,0,0,1-1.488,1.824L59.232-2.112Zm5.36-11.36h2.224L66.352,1.6H64.128ZM76.784-6.64a3.77,3.77,0,0,1,2.256,1.1,3.021,3.021,0,0,1,.784,2.12,3.346,3.346,0,0,1-.512,1.8A3.566,3.566,0,0,1,77.752-.3a5.976,5.976,0,0,1-2.568.5A8.809,8.809,0,0,1,72.856-.12a6,6,0,0,1-1.944-.888L71.92-2.992a4.884,4.884,0,0,0,1.48.744,5.7,5.7,0,0,0,1.72.264,2.726,2.726,0,0,0,1.536-.376,1.208,1.208,0,0,0,.56-1.064q0-1.376-2.1-1.376H73.936V-6.512l2.3-2.608H71.472V-11.2h7.84v1.68Z" transform="translate(622 3133)" fill="#3b1f10"/>
    <path id="Trazado_11940" data-name="Trazado 11940" d="M2250.648,1676l6.87,15.217,6.913-15.217" transform="translate(-2011 1311)" fill="none" stroke="#00a99a" stroke-width="2"/>
    <path id="Trazado_11941" data-name="Trazado 11941" d="M2250.648,1676l6.87,15.217,6.913-15.217" transform="translate(-2069 1311)" fill="none" stroke="#00a99a" stroke-width="2"/>
    <path id="Trazado_11942" data-name="Trazado 11942" d="M2250.648,1676l6.87,15.217,6.913-15.217" transform="translate(-1513.069 5325.148) rotate(-90)" fill="none" stroke="#00a99a" stroke-width="2"/>
    <path id="Trazado_11943" data-name="Trazado 11943" d="M2250.648,1676l6.87,15.217,6.913-15.217" transform="translate(2452.079 4830.218) rotate(180)" fill="none" stroke="#00a99a" stroke-width="2"/>
    <path id="Trazado_11944" data-name="Trazado 11944" d="M2250.648,1676l6.87,15.217,6.913-15.217" transform="translate(2509.079 4830.218) rotate(180)" fill="none" stroke="#00a99a" stroke-width="2"/>
    <path id="Trazado_11945" data-name="Trazado 11945" d="M2250.648,1676l6.87,15.217,6.913-15.217" transform="translate(2638.148 813.069) rotate(90)" fill="none" stroke="#00a99a" stroke-width="2"/>
    <path id="Trazado_12919" data-name="Trazado 12919" d="M5,0A5,5,0,1,1,0,5,5,5,0,0,1,5,0Z" transform="translate(969 3067)" fill="#ed3a3a"/>
  </g>
</svg>
