<svg xmlns="http://www.w3.org/2000/svg" width="716" height="650" viewBox="0 0 716 650">
  <g id="Grupo_8317" data-name="Grupo 8317" transform="translate(-110 -1775)">
    <path id="Trazado_12784" data-name="Trazado 12784" d="M0,0H716V650H0Z" transform="translate(110 1775)" fill="#fff"/>
    <g id="Trazado_12797" data-name="Trazado 12797" transform="translate(224 1851)" fill="none">
      <path d="M0,0H189V519H0Z" stroke="none"/>
      <path d="M 2 2 L 2 517 L 187 517 L 187 2 L 2 2 M 0 0 L 189 0 L 189 519 L 0 519 L 0 0 Z" stroke="none" fill="#00a99a"/>
    </g>
    <g id="Trazado_12798" data-name="Trazado 12798" transform="translate(224 1851)" fill="none">
      <path d="M0,0H189V134H0Z" stroke="none"/>
      <path d="M 2 2 L 2 132 L 187 132 L 187 2 L 2 2 M 0 0 L 189 0 L 189 134 L 0 134 L 0 0 Z" stroke="none" fill="#00a99a"/>
    </g>
    <path id="Trazado_12806" data-name="Trazado 12806" d="M5,0a5.268,5.268,0,0,1,5,5.5A5.268,5.268,0,0,1,5,11,5.268,5.268,0,0,1,0,5.5,5.268,5.268,0,0,1,5,0Z" transform="translate(221 1847)" fill="#00a99a"/>
    <path id="Trazado_12807" data-name="Trazado 12807" d="M5,0a5.268,5.268,0,0,1,5,5.5A5.268,5.268,0,0,1,5,11,5.268,5.268,0,0,1,0,5.5,5.268,5.268,0,0,1,5,0Z" transform="translate(221 1979)" fill="#00a99a"/>
    <path id="Trazado_12795" data-name="Trazado 12795" d="M5.5,0A5.5,5.5,0,1,1,0,5.5,5.5,5.5,0,0,1,5.5,0Z" transform="translate(407 1979)" fill="#00a99a"/>
    <path id="Trazado_12808" data-name="Trazado 12808" d="M5.5,0A5.5,5.5,0,1,1,0,5.5,5.5,5.5,0,0,1,5.5,0Z" transform="translate(407 2363)" fill="#00a99a"/>
    <path id="Trazado_12809" data-name="Trazado 12809" d="M5,0a5.268,5.268,0,0,1,5,5.5A5.268,5.268,0,0,1,5,11,5.268,5.268,0,0,1,0,5.5,5.268,5.268,0,0,1,5,0Z" transform="translate(221 2363)" fill="#00a99a"/>
    <path id="Trazado_12804" data-name="Trazado 12804" d="M5,0a5.268,5.268,0,0,1,5,5.5A5.268,5.268,0,0,1,5,11,5.268,5.268,0,0,1,0,5.5,5.268,5.268,0,0,1,5,0Z" transform="translate(288 1847)" fill="#00a99a"/>
    <path id="Trazado_12802" data-name="Trazado 12802" d="M5.5,0A5.5,5.5,0,1,1,0,5.5,5.5,5.5,0,0,1,5.5,0Z" transform="translate(314 1847)" fill="#00a99a"/>
    <path id="Trazado_12803" data-name="Trazado 12803" d="M5.5,0A5.5,5.5,0,1,1,0,5.5,5.5,5.5,0,0,1,5.5,0Z" transform="translate(300 1840)" fill="#00a99a"/>
    <path id="Trazado_11907" data-name="Trazado 11907" d="M120.905,283.414l23.071,50.766V281.1" transform="translate(175.361 1578.622)" fill="none" stroke="#00a99a" stroke-width="1" stroke-dasharray="3"/>
    <path id="Trazado_11908" data-name="Trazado 11908" d="M134.089,277.413l87.369-.533-.089,128.089" transform="translate(190.623 1574.773)" fill="none" stroke="#ed3a3a" stroke-width="2"/>
    <path id="Trazado_11909" data-name="Trazado 11909" d="M130.5,281.39l58.661-10.154s35.549,13.239,34.613,139.424" transform="translate(187.956 1571.107)" fill="none" stroke="#00a99a" stroke-width="1"/>
    <path id="Trazado_12800" data-name="Trazado 12800" d="M5.5,0A5.268,5.268,0,0,1,11,5a5.268,5.268,0,0,1-5.5,5A5.268,5.268,0,0,1,0,5,5.268,5.268,0,0,1,5.5,0Z" transform="translate(370 1837)" fill="#00a99a"/>
    <path id="Trazado_11910" data-name="Trazado 11910" d="M464.68,1091.354V577.794h67.948l93.115-17.941s26.826,90.719,21.078,163.637,0,367.863,0,367.863Z" transform="translate(43 1277.146)" fill="none" stroke="#00a99a" stroke-width="2"/>
    <path id="Trazado_12790" data-name="Trazado 12790" d="M5,0a5.268,5.268,0,0,1,5,5.5A5.268,5.268,0,0,1,5,11,5.268,5.268,0,0,1,0,5.5,5.268,5.268,0,0,1,5,0Z" transform="translate(503 1850)" fill="#00a99a"/>
    <path id="Trazado_12810" data-name="Trazado 12810" d="M5,0a5.268,5.268,0,0,1,5,5.5A5.268,5.268,0,0,1,5,11,5.268,5.268,0,0,1,0,5.5,5.268,5.268,0,0,1,5,0Z" transform="translate(503 2363)" fill="#00a99a"/>
    <path id="Trazado_12791" data-name="Trazado 12791" d="M5,0a5.268,5.268,0,0,1,5,5.5A5.268,5.268,0,0,1,5,11,5.268,5.268,0,0,1,0,5.5,5.268,5.268,0,0,1,5,0Z" transform="translate(503 1982)" fill="#00a99a"/>
    <path id="Trazado_12786" data-name="Trazado 12786" d="M5,0a5.268,5.268,0,0,1,5,5.5A5.268,5.268,0,0,1,5,11,5.268,5.268,0,0,1,0,5.5,5.268,5.268,0,0,1,5,0Z" transform="translate(686 1982)" fill="#00a99a"/>
    <path id="Trazado_12785" data-name="Trazado 12785" d="M5,0a5.268,5.268,0,0,1,5,5.5A5.268,5.268,0,0,1,5,11,5.268,5.268,0,0,1,0,5.5,5.268,5.268,0,0,1,5,0Z" transform="translate(662 1831)" fill="#00a99a"/>
    <path id="Trazado_12787" data-name="Trazado 12787" d="M5,0a5.268,5.268,0,0,1,5,5.5A5.268,5.268,0,0,1,5,11,5.268,5.268,0,0,1,0,5.5,5.268,5.268,0,0,1,5,0Z" transform="translate(548 1844)" fill="#00a99a"/>
    <path id="Trazado_12788" data-name="Trazado 12788" d="M5.5,0A5.5,5.5,0,1,1,0,5.5,5.5,5.5,0,0,1,5.5,0Z" transform="translate(574 1844)" fill="#00a99a"/>
    <path id="Trazado_12789" data-name="Trazado 12789" d="M5.5,0A5.5,5.5,0,1,1,0,5.5,5.5,5.5,0,0,1,5.5,0Z" transform="translate(560 1837)" fill="#00a99a"/>
    <path id="Trazado_11911" data-name="Trazado 11911" d="M120.905,284.8l23.071,81.128V281.1" transform="translate(435.361 1575.622)" fill="none" stroke="#00a99a" stroke-width="1" stroke-dasharray="3"/>
    <path id="Trazado_11912" data-name="Trazado 11912" d="M141,771.5V467.836l-25.853,25.853" transform="translate(407 1471)" fill="none" stroke="#00a99a" stroke-width="2"/>
    <path id="Trazado_12792" data-name="Trazado 12792" d="M3.008-10.176v4.4H8.8v1.024H3.008V0H1.824V-11.2H9.5v1.024Zm15.44,7.184h-6.24L10.864,0H9.632l5.12-11.2H15.92L21.04,0H19.792Zm-.432-.96L15.328-9.968,12.64-3.952ZM22.9-11.2H24.08V-1.024h6.272V0H22.9Zm9.424,0h4.56a6.664,6.664,0,0,1,3.136.712A5.2,5.2,0,0,1,42.128-8.5a5.6,5.6,0,0,1,.752,2.9,5.6,5.6,0,0,1-.752,2.9A5.2,5.2,0,0,1,40.016-.712,6.664,6.664,0,0,1,36.88,0H32.32Zm4.5,10.176a5.431,5.431,0,0,0,2.576-.584A4.242,4.242,0,0,0,41.1-3.224,4.592,4.592,0,0,0,41.712-5.6,4.592,4.592,0,0,0,41.1-7.976a4.242,4.242,0,0,0-1.712-1.616,5.431,5.431,0,0,0-2.576-.584H33.5v9.152ZM52.4-2.992H46.16L44.816,0H43.584L48.7-11.2h1.168L54.992,0H53.744Zm-.432-.96L49.28-9.968,46.592-3.952ZM68.1-5.776a2.97,2.97,0,0,1,1.7.952,2.746,2.746,0,0,1,.6,1.832A2.578,2.578,0,0,1,69.336-.776,5.308,5.308,0,0,1,66.192,0H61.04V-11.2h4.832a4.862,4.862,0,0,1,2.9.752A2.478,2.478,0,0,1,69.808-8.32a2.669,2.669,0,0,1-.456,1.576A2.734,2.734,0,0,1,68.1-5.776Zm-5.872-4.448V-6.16h3.568a3.6,3.6,0,0,0,2.1-.52,1.736,1.736,0,0,0,.736-1.512A1.736,1.736,0,0,0,67.888-9.7a3.6,3.6,0,0,0-2.1-.52ZM66.176-.976a4.117,4.117,0,0,0,2.272-.512,1.786,1.786,0,0,0,.768-1.6q0-2.1-3.04-2.1H62.224V-.976ZM80.128-2.992h-6.24L72.544,0H71.312l5.12-11.2H77.6L82.72,0H81.472Zm-.432-.96L77.008-9.968,74.32-3.952ZM78.176-14.1H79.7L77.1-12.112h-1.12ZM87.664.1a7.2,7.2,0,0,1-2.392-.4A4.4,4.4,0,0,1,83.5-1.36l.464-.912a4.442,4.442,0,0,0,1.616.984,5.9,5.9,0,0,0,2.08.376,3.8,3.8,0,0,0,2.256-.552A1.7,1.7,0,0,0,90.672-2.9a1.433,1.433,0,0,0-.408-1.072,2.754,2.754,0,0,0-1-.616,16.173,16.173,0,0,0-1.648-.472A17.314,17.314,0,0,1,85.6-5.672a3.31,3.31,0,0,1-1.288-.9,2.4,2.4,0,0,1-.536-1.648,2.793,2.793,0,0,1,.448-1.544A3.069,3.069,0,0,1,85.6-10.88a5.632,5.632,0,0,1,2.3-.416,6.783,6.783,0,0,1,1.88.264,5.4,5.4,0,0,1,1.592.728l-.4.944a5.505,5.505,0,0,0-1.5-.7,5.613,5.613,0,0,0-1.568-.232,3.619,3.619,0,0,0-2.216.568,1.762,1.762,0,0,0-.744,1.464,1.46,1.46,0,0,0,.408,1.08,2.673,2.673,0,0,0,1.024.624q.616.216,1.656.472a16.661,16.661,0,0,1,1.992.6,3.27,3.27,0,0,1,1.288.9A2.371,2.371,0,0,1,91.84-2.96a2.758,2.758,0,0,1-.456,1.544,3.065,3.065,0,0,1-1.4,1.1A5.848,5.848,0,0,1,87.664.1Zm6.752-11.3H95.6V0H94.416Zm9.7,11.3a6.113,6.113,0,0,1-3-.736,5.39,5.39,0,0,1-2.1-2.04,5.692,5.692,0,0,1-.76-2.92,5.692,5.692,0,0,1,.76-2.92,5.375,5.375,0,0,1,2.1-2.04,6.158,6.158,0,0,1,3.008-.736,6.232,6.232,0,0,1,2.3.416,4.776,4.776,0,0,1,1.792,1.216l-.752.752a4.461,4.461,0,0,0-3.312-1.328,4.867,4.867,0,0,0-2.416.608,4.443,4.443,0,0,0-1.7,1.664A4.612,4.612,0,0,0,99.424-5.6a4.612,4.612,0,0,0,.616,2.368,4.443,4.443,0,0,0,1.7,1.664,4.867,4.867,0,0,0,2.416.608A4.4,4.4,0,0,0,107.472-2.3l.752.752a4.844,4.844,0,0,1-1.8,1.224A6.189,6.189,0,0,1,104.112.1Zm13.376-3.088h-6.24L109.9,0h-1.232l5.12-11.2h1.168L120.08,0h-1.248Zm-.432-.96-2.688-6.016L111.68-3.952Z" transform="translate(558 2072)" fill="#ed3a3a"/>
    <path id="Trazado_12793" data-name="Trazado 12793" d="M4-10.176H.064V-11.2H9.12v1.024H5.184V0H4ZM17.472-2.992h-6.24L9.888,0H8.656l5.12-11.2h1.168L20.064,0H18.816Zm-.432-.96L14.352-9.968,11.664-3.952ZM21.92-11.2H23.1V-1.024h6.272V0H21.92Zm9.424,0h1.184V-1.024H38.8V0H31.344Zm16.48,8.208h-6.24L40.24,0H39.008l5.12-11.2H45.3L50.416,0H49.168Zm-.432-.96L44.7-9.968,42.016-3.952Zm14.5-1.92a3.4,3.4,0,0,1,1.624,1.056,2.616,2.616,0,0,1,.568,1.7,2.825,2.825,0,0,1-.528,1.7A3.331,3.331,0,0,1,62.04-.3,6.228,6.228,0,0,1,59.728.1,5.173,5.173,0,0,1,56.56-.768,2.783,2.783,0,0,1,55.408-3.12a2.657,2.657,0,0,1,.552-1.7,3.328,3.328,0,0,1,1.608-1.048,2.794,2.794,0,0,1-1.312-.968,2.52,2.52,0,0,1-.448-1.5,2.562,2.562,0,0,1,1.064-2.16,4.642,4.642,0,0,1,2.856-.8,5.49,5.49,0,0,1,2.072.36A3.133,3.133,0,0,1,63.184-9.9a2.569,2.569,0,0,1,.5,1.568,2.459,2.459,0,0,1-.464,1.5A2.9,2.9,0,0,1,61.888-5.872ZM56.96-8.3A1.735,1.735,0,0,0,57.7-6.832a3.356,3.356,0,0,0,2.032.544,3.393,3.393,0,0,0,2.04-.544,1.714,1.714,0,0,0,.744-1.456,1.733,1.733,0,0,0-.76-1.488,3.407,3.407,0,0,0-2.024-.544,3.363,3.363,0,0,0-2.024.544A1.729,1.729,0,0,0,56.96-8.3ZM59.728-.88a3.908,3.908,0,0,0,2.328-.608,1.929,1.929,0,0,0,.84-1.648,1.909,1.909,0,0,0-.84-1.64,3.947,3.947,0,0,0-2.328-.6,3.916,3.916,0,0,0-2.312.6,1.909,1.909,0,0,0-.84,1.64,1.93,1.93,0,0,0,.832,1.656A3.909,3.909,0,0,0,59.728-.88Z" transform="translate(558 2094)" fill="#ed3a3a"/>
    <path id="Trazado_12794" data-name="Trazado 12794" d="M6.016-11.2a5.059,5.059,0,0,1,3.36,1.024A3.485,3.485,0,0,1,10.592-7.36,3.461,3.461,0,0,1,9.376-4.552a5.086,5.086,0,0,1-3.36,1.016H3.008V0H1.824V-11.2ZM5.984-4.576A3.9,3.9,0,0,0,8.528-5.3a2.519,2.519,0,0,0,.88-2.056,2.556,2.556,0,0,0-.88-2.088,3.9,3.9,0,0,0-2.544-.728H3.008v5.6ZM18.208.1a6.151,6.151,0,0,1-3.016-.744,5.434,5.434,0,0,1-2.112-2.04A5.649,5.649,0,0,1,12.32-5.6a5.649,5.649,0,0,1,.76-2.912,5.434,5.434,0,0,1,2.112-2.04,6.151,6.151,0,0,1,3.016-.744,6.113,6.113,0,0,1,3,.736,5.447,5.447,0,0,1,2.1,2.04A5.646,5.646,0,0,1,24.08-5.6a5.646,5.646,0,0,1-.768,2.92,5.447,5.447,0,0,1-2.1,2.04A6.113,6.113,0,0,1,18.208.1Zm0-1.056a4.829,4.829,0,0,0,2.4-.6,4.342,4.342,0,0,0,1.68-1.664A4.7,4.7,0,0,0,22.9-5.6a4.7,4.7,0,0,0-.608-2.376,4.342,4.342,0,0,0-1.68-1.664,4.829,4.829,0,0,0-2.4-.6,4.874,4.874,0,0,0-2.408.6,4.384,4.384,0,0,0-1.7,1.664A4.655,4.655,0,0,0,13.488-5.6,4.655,4.655,0,0,0,14.1-3.224,4.384,4.384,0,0,0,15.8-1.56,4.874,4.874,0,0,0,18.208-.96ZM29.824.1a7.2,7.2,0,0,1-2.392-.4A4.4,4.4,0,0,1,25.664-1.36l.464-.912a4.443,4.443,0,0,0,1.616.984,5.9,5.9,0,0,0,2.08.376,3.8,3.8,0,0,0,2.256-.552A1.7,1.7,0,0,0,32.832-2.9a1.433,1.433,0,0,0-.408-1.072,2.754,2.754,0,0,0-1-.616,16.173,16.173,0,0,0-1.648-.472,17.314,17.314,0,0,1-2.016-.616,3.31,3.31,0,0,1-1.288-.9,2.4,2.4,0,0,1-.536-1.648,2.793,2.793,0,0,1,.448-1.544A3.069,3.069,0,0,1,27.76-10.88a5.632,5.632,0,0,1,2.3-.416,6.783,6.783,0,0,1,1.88.264,5.4,5.4,0,0,1,1.592.728l-.4.944a5.505,5.505,0,0,0-1.5-.7,5.613,5.613,0,0,0-1.568-.232,3.619,3.619,0,0,0-2.216.568A1.762,1.762,0,0,0,27.1-8.256a1.46,1.46,0,0,0,.408,1.08,2.673,2.673,0,0,0,1.024.624q.616.216,1.656.472a16.661,16.661,0,0,1,1.992.6,3.27,3.27,0,0,1,1.288.9A2.371,2.371,0,0,1,34-2.96a2.758,2.758,0,0,1-.456,1.544,3.065,3.065,0,0,1-1.4,1.1A5.848,5.848,0,0,1,29.824.1Zm8.768-10.272H34.656V-11.2h9.056v1.024H39.776V0H38.592ZM53.52-1.024V0H45.6V-11.2h7.68v1.024h-6.5v3.984h5.792v1.008H46.784v4.16ZM63.952,0l-2.56-3.6a8.113,8.113,0,0,1-.9.048H57.488V0H56.3V-11.2H60.5a5.059,5.059,0,0,1,3.36,1.024A3.485,3.485,0,0,1,65.072-7.36a3.641,3.641,0,0,1-.664,2.216,3.679,3.679,0,0,1-1.9,1.3L65.248,0ZM60.464-4.56A3.869,3.869,0,0,0,63.008-5.3a2.542,2.542,0,0,0,.88-2.064,2.556,2.556,0,0,0-.88-2.088,3.9,3.9,0,0,0-2.544-.728H57.488V-4.56Zm7.408-6.64h1.184V0H67.872ZM77.6.1a6.151,6.151,0,0,1-3.016-.744,5.434,5.434,0,0,1-2.112-2.04,5.649,5.649,0,0,1-.76-2.912,5.649,5.649,0,0,1,.76-2.912,5.434,5.434,0,0,1,2.112-2.04A6.151,6.151,0,0,1,77.6-11.3a6.113,6.113,0,0,1,3,.736,5.447,5.447,0,0,1,2.1,2.04,5.646,5.646,0,0,1,.768,2.92A5.646,5.646,0,0,1,82.7-2.68,5.447,5.447,0,0,1,80.6-.64,6.113,6.113,0,0,1,77.6.1Zm0-1.056a4.829,4.829,0,0,0,2.4-.6,4.342,4.342,0,0,0,1.68-1.664A4.7,4.7,0,0,0,82.288-5.6a4.7,4.7,0,0,0-.608-2.376A4.342,4.342,0,0,0,80-9.64a4.829,4.829,0,0,0-2.4-.6,4.874,4.874,0,0,0-2.408.6,4.384,4.384,0,0,0-1.7,1.664A4.655,4.655,0,0,0,72.88-5.6,4.655,4.655,0,0,0,73.5-3.224a4.384,4.384,0,0,0,1.7,1.664A4.874,4.874,0,0,0,77.6-.96ZM93.776,0l-2.56-3.6a8.113,8.113,0,0,1-.9.048H87.312V0H86.128V-11.2H90.32a5.059,5.059,0,0,1,3.36,1.024A3.485,3.485,0,0,1,94.9-7.36a3.641,3.641,0,0,1-.664,2.216,3.679,3.679,0,0,1-1.9,1.3L95.072,0ZM90.288-4.56A3.869,3.869,0,0,0,92.832-5.3a2.542,2.542,0,0,0,.88-2.064,2.556,2.556,0,0,0-.88-2.088,3.9,3.9,0,0,0-2.544-.728H87.312V-4.56Z" transform="translate(558 2116)" fill="#ed3a3a"/>
    <path id="Trazado_12796" data-name="Trazado 12796" d="M9.472,0,6.912-3.6a8.113,8.113,0,0,1-.9.048H3.008V0H1.824V-11.2H6.016a5.059,5.059,0,0,1,3.36,1.024A3.485,3.485,0,0,1,10.592-7.36a3.641,3.641,0,0,1-.664,2.216,3.679,3.679,0,0,1-1.9,1.3L10.768,0ZM5.984-4.56A3.869,3.869,0,0,0,8.528-5.3a2.542,2.542,0,0,0,.88-2.064,2.556,2.556,0,0,0-.88-2.088,3.9,3.9,0,0,0-2.544-.728H3.008V-4.56ZM21.312-1.024V0h-7.92V-11.2h7.68v1.024h-6.5v3.984h5.792v1.008H14.576v4.16Zm3.968-9.152v4.4h5.792v1.024H25.28V0H24.1V-11.2h7.68v1.024ZM42.144-1.024V0h-7.92V-11.2H41.9v1.024h-6.5v3.984H41.2v1.008H35.408v4.16ZM52.576,0l-2.56-3.6a8.113,8.113,0,0,1-.9.048H46.112V0H44.928V-11.2H49.12a5.059,5.059,0,0,1,3.36,1.024A3.485,3.485,0,0,1,53.7-7.36a3.641,3.641,0,0,1-.664,2.216,3.679,3.679,0,0,1-1.9,1.3L53.872,0ZM49.088-4.56A3.869,3.869,0,0,0,51.632-5.3a2.542,2.542,0,0,0,.88-2.064,2.556,2.556,0,0,0-.88-2.088,3.9,3.9,0,0,0-2.544-.728H46.112V-4.56ZM64.416-1.024V0H56.5V-11.2h7.68v1.024h-6.5v3.984h5.792v1.008H57.68v4.16ZM76.56-11.2V0h-.976l-7.2-9.088V0H67.2V-11.2h.976l7.216,9.088V-11.2ZM85.072.1a6.113,6.113,0,0,1-3-.736,5.39,5.39,0,0,1-2.1-2.04,5.692,5.692,0,0,1-.76-2.92,5.692,5.692,0,0,1,.76-2.92,5.375,5.375,0,0,1,2.1-2.04,6.158,6.158,0,0,1,3.008-.736,6.232,6.232,0,0,1,2.3.416,4.776,4.776,0,0,1,1.792,1.216l-.752.752A4.461,4.461,0,0,0,85.12-10.24a4.867,4.867,0,0,0-2.416.608A4.443,4.443,0,0,0,81-7.968,4.612,4.612,0,0,0,80.384-5.6,4.612,4.612,0,0,0,81-3.232a4.443,4.443,0,0,0,1.7,1.664A4.867,4.867,0,0,0,85.12-.96,4.4,4.4,0,0,0,88.432-2.3l.752.752a4.844,4.844,0,0,1-1.8,1.224A6.189,6.189,0,0,1,85.072.1Zm6.64-11.3H92.9V0H91.712Zm11.856,8.208h-6.24L95.984,0H94.752l5.12-11.2h1.168L106.16,0h-1.248Zm-.432-.96-2.688-6.016L97.76-3.952Z" transform="translate(558 2138)" fill="#ed3a3a"/>
    <path id="Trazado_12799" data-name="Trazado 12799" d="M6.688.1a6.113,6.113,0,0,1-3-.736,5.39,5.39,0,0,1-2.1-2.04A5.692,5.692,0,0,1,.832-5.6a5.692,5.692,0,0,1,.76-2.92,5.375,5.375,0,0,1,2.1-2.04A6.158,6.158,0,0,1,6.7-11.3a6.232,6.232,0,0,1,2.3.416A4.776,4.776,0,0,1,10.8-9.664l-.752.752A4.461,4.461,0,0,0,6.736-10.24a4.867,4.867,0,0,0-2.416.608,4.443,4.443,0,0,0-1.7,1.664A4.612,4.612,0,0,0,2-5.6a4.612,4.612,0,0,0,.616,2.368,4.443,4.443,0,0,0,1.7,1.664A4.867,4.867,0,0,0,6.736-.96,4.4,4.4,0,0,0,10.048-2.3l.752.752A4.844,4.844,0,0,1,9-.328,6.189,6.189,0,0,1,6.688.1Zm11.3,0a6.151,6.151,0,0,1-3.016-.744,5.434,5.434,0,0,1-2.112-2.04A5.649,5.649,0,0,1,12.1-5.6a5.649,5.649,0,0,1,.76-2.912,5.434,5.434,0,0,1,2.112-2.04,6.151,6.151,0,0,1,3.016-.744,6.113,6.113,0,0,1,3,.736,5.447,5.447,0,0,1,2.1,2.04,5.646,5.646,0,0,1,.768,2.92,5.646,5.646,0,0,1-.768,2.92,5.447,5.447,0,0,1-2.1,2.04A6.113,6.113,0,0,1,17.984.1Zm0-1.056a4.829,4.829,0,0,0,2.4-.6,4.342,4.342,0,0,0,1.68-1.664A4.7,4.7,0,0,0,22.672-5.6a4.7,4.7,0,0,0-.608-2.376,4.342,4.342,0,0,0-1.68-1.664,4.829,4.829,0,0,0-2.4-.6,4.874,4.874,0,0,0-2.408.6,4.384,4.384,0,0,0-1.7,1.664A4.655,4.655,0,0,0,13.264-5.6a4.655,4.655,0,0,0,.616,2.376,4.384,4.384,0,0,0,1.7,1.664A4.874,4.874,0,0,0,17.984-.96ZM34.16,0,31.6-3.6a8.113,8.113,0,0,1-.9.048H27.7V0H26.512V-11.2H30.7a5.059,5.059,0,0,1,3.36,1.024A3.485,3.485,0,0,1,35.28-7.36a3.641,3.641,0,0,1-.664,2.216,3.679,3.679,0,0,1-1.9,1.3L35.456,0ZM30.672-4.56A3.869,3.869,0,0,0,33.216-5.3,2.542,2.542,0,0,0,34.1-7.36a2.556,2.556,0,0,0-.88-2.088,3.9,3.9,0,0,0-2.544-.728H27.7V-4.56ZM40.1-10.176H36.16V-11.2h9.056v1.024H41.28V0H40.1ZM53.568-2.992h-6.24L45.984,0H44.752l5.12-11.2H51.04L56.16,0H54.912Zm-.432-.96L50.448-9.968,47.76-3.952ZM65.664,0,63.1-3.6a8.113,8.113,0,0,1-.9.048H59.2V0H58.016V-11.2h4.192a5.059,5.059,0,0,1,3.36,1.024A3.485,3.485,0,0,1,66.784-7.36a3.641,3.641,0,0,1-.664,2.216,3.679,3.679,0,0,1-1.9,1.3L66.96,0ZM62.176-4.56A3.869,3.869,0,0,0,64.72-5.3,2.542,2.542,0,0,0,65.6-7.36a2.556,2.556,0,0,0-.88-2.088,3.9,3.9,0,0,0-2.544-.728H59.2V-4.56ZM75.472,3.1A12.162,12.162,0,0,1,74.1-.28a16.814,16.814,0,0,1-.48-4.1A17.009,17.009,0,0,1,74.1-8.5a11.671,11.671,0,0,1,1.376-3.368H76.56A12.609,12.609,0,0,0,75.176-8.4a17.387,17.387,0,0,0-.44,4.016,17.387,17.387,0,0,0,.44,4.016A12.609,12.609,0,0,0,76.56,3.1ZM86.064,0,82.448-4.928,78.848,0h-1.36l4.256-5.76L77.76-11.2h1.36L82.5-6.624l3.36-4.576h1.28L83.168-5.792,87.44,0ZM96.192-1.024V0H88.336V-.816l4.656-4.56a6.025,6.025,0,0,0,1.192-1.5A2.849,2.849,0,0,0,94.5-8.144a1.877,1.877,0,0,0-.68-1.544,3.015,3.015,0,0,0-1.944-.552,3.838,3.838,0,0,0-3.056,1.248L88-9.7a4.3,4.3,0,0,1,1.672-1.184,6.013,6.013,0,0,1,2.3-.416,4.193,4.193,0,0,1,2.712.808,2.694,2.694,0,0,1,1,2.216A3.8,3.8,0,0,1,95.3-6.608a6.977,6.977,0,0,1-1.456,1.84L90.032-1.024ZM97.44,3.1A12.814,12.814,0,0,0,98.832-.36a17.062,17.062,0,0,0,.448-4.024,17.062,17.062,0,0,0-.448-4.024,12.814,12.814,0,0,0-1.392-3.464h1.088A11.829,11.829,0,0,1,99.912-8.5a16.744,16.744,0,0,1,.488,4.12,16.911,16.911,0,0,1-.48,4.112A11.627,11.627,0,0,1,98.528,3.1Z" transform="translate(558 2160)" fill="#ed3a3a"/>
    <path id="Trazado_12801" data-name="Trazado 12801" d="M6.016-11.2a5.059,5.059,0,0,1,3.36,1.024A3.485,3.485,0,0,1,10.592-7.36,3.461,3.461,0,0,1,9.376-4.552a5.086,5.086,0,0,1-3.36,1.016H3.008V0H1.824V-11.2ZM5.984-4.576A3.9,3.9,0,0,0,8.528-5.3a2.519,2.519,0,0,0,.88-2.056,2.556,2.556,0,0,0-.88-2.088,3.9,3.9,0,0,0-2.544-.728H3.008v5.6ZM13.152-11.2h1.184V0H13.152ZM25.9-1.024V0h-7.92V-11.2h7.68v1.024h-6.5v3.984H24.96v1.008H19.168v4.16Zm10.864,0V0H27.584V-.816l7.424-9.36H27.7V-11.2h8.88v.816l-7.408,9.36Zm9.36-1.968h-6.24L38.544,0H37.312l5.12-11.2H43.6L48.72,0H47.472Zm-.432-.96L43.008-9.968,40.32-3.952ZM61.424-1.024V0H53.568V-.816l4.656-4.56a6.025,6.025,0,0,0,1.192-1.5,2.849,2.849,0,0,0,.312-1.272,1.877,1.877,0,0,0-.68-1.544A3.015,3.015,0,0,0,57.1-10.24a3.838,3.838,0,0,0-3.056,1.248l-.816-.7A4.3,4.3,0,0,1,54.9-10.88a6.013,6.013,0,0,1,2.3-.416,4.193,4.193,0,0,1,2.712.808,2.694,2.694,0,0,1,1,2.216,3.8,3.8,0,0,1-.384,1.664,6.977,6.977,0,0,1-1.456,1.84L55.264-1.024Zm5.648-12.448h1.04L62.832,1.6h-1.04ZM72.192-6.4a4.146,4.146,0,0,1,2.68.952,2.908,2.908,0,0,1,.92,2.232,3.153,3.153,0,0,1-.464,1.7A3.163,3.163,0,0,1,73.952-.336,5.168,5.168,0,0,1,71.728.1a6.677,6.677,0,0,1-2.3-.392A4.66,4.66,0,0,1,67.7-1.344l.56-.912a4.114,4.114,0,0,0,1.488.936,5.437,5.437,0,0,0,1.984.36,3.336,3.336,0,0,0,2.128-.6,2,2,0,0,0,.752-1.656,1.962,1.962,0,0,0-.752-1.632,3.637,3.637,0,0,0-2.272-.592h-.8v-.848l3.1-3.888H68.16V-11.2h7.2v.816Z" transform="translate(558 2182)" fill="#ed3a3a"/>
    <path id="Trazado_12805" data-name="Trazado 12805" d="M5.264-9.8a4.426,4.426,0,0,1,2.94.9A3.049,3.049,0,0,1,9.268-6.44,3.028,3.028,0,0,1,8.2-3.983a4.45,4.45,0,0,1-2.94.889H2.632V0H1.6V-9.8ZM5.236-4a3.411,3.411,0,0,0,2.226-.637,2.2,2.2,0,0,0,.77-1.8,2.236,2.236,0,0,0-.77-1.827A3.411,3.411,0,0,0,5.236-8.9h-2.6V-4ZM13.8-7.42a3.117,3.117,0,0,1,2.212.721,2.786,2.786,0,0,1,.77,2.135V0h-.952V-1.148a2.279,2.279,0,0,1-.987.9A3.454,3.454,0,0,1,13.3.07a3.029,3.029,0,0,1-1.96-.588,1.9,1.9,0,0,1-.728-1.554,1.883,1.883,0,0,1,.679-1.512,3.323,3.323,0,0,1,2.163-.574h2.338v-.448a1.887,1.887,0,0,0-.532-1.449,2.2,2.2,0,0,0-1.554-.5,3.95,3.95,0,0,0-1.344.231,3.387,3.387,0,0,0-1.106.637l-.448-.742a3.973,3.973,0,0,1,1.344-.735A5.232,5.232,0,0,1,13.8-7.42Zm-.35,6.706A2.62,2.62,0,0,0,14.9-1.1a2.3,2.3,0,0,0,.9-1.113v-1.2h-2.31q-1.89,0-1.89,1.316a1.2,1.2,0,0,0,.49,1.015A2.231,2.231,0,0,0,13.454-.714Zm9.912.266a1.882,1.882,0,0,1-.693.385,2.791,2.791,0,0,1-.861.133,2.159,2.159,0,0,1-1.6-.56,2.139,2.139,0,0,1-.56-1.582V-6.524H18.34v-.84h1.316v-1.61h.994v1.61h2.24v.84H20.65v4.4a1.391,1.391,0,0,0,.329,1,1.248,1.248,0,0,0,.945.343,1.829,1.829,0,0,0,.595-.1,1.479,1.479,0,0,0,.5-.28Zm2.758-5.474a2.409,2.409,0,0,1,1.043-1.12,3.544,3.544,0,0,1,1.715-.378v.966l-.238-.014a2.352,2.352,0,0,0-1.82.714,2.845,2.845,0,0,0-.658,2V0h-.994V-7.364h.952ZM33.614.07A3.827,3.827,0,0,1,31.7-.413,3.522,3.522,0,0,1,30.352-1.75a3.812,3.812,0,0,1-.49-1.932,3.812,3.812,0,0,1,.49-1.932A3.472,3.472,0,0,1,31.7-6.944a3.872,3.872,0,0,1,1.918-.476,3.872,3.872,0,0,1,1.918.476,3.424,3.424,0,0,1,1.337,1.33,3.855,3.855,0,0,1,.483,1.932,3.855,3.855,0,0,1-.483,1.932A3.473,3.473,0,0,1,35.532-.413,3.827,3.827,0,0,1,33.614.07Zm0-.882a2.779,2.779,0,0,0,1.407-.357,2.489,2.489,0,0,0,.973-1.015,3.14,3.14,0,0,0,.35-1.5,3.14,3.14,0,0,0-.35-1.5,2.489,2.489,0,0,0-.973-1.015,2.779,2.779,0,0,0-1.407-.357,2.779,2.779,0,0,0-1.407.357,2.535,2.535,0,0,0-.98,1.015,3.09,3.09,0,0,0-.357,1.5,3.09,3.09,0,0,0,.357,1.5,2.535,2.535,0,0,0,.98,1.015A2.779,2.779,0,0,0,33.614-.812Zm.994-9.436h1.33L33.67-8.512h-.98ZM43.134-7.42a3.009,3.009,0,0,1,2.2.8,3.144,3.144,0,0,1,.819,2.345V0h-.994V-4.172a2.441,2.441,0,0,0-.574-1.75,2.156,2.156,0,0,0-1.638-.6,2.516,2.516,0,0,0-1.883.707,2.67,2.67,0,0,0-.693,1.953V0h-.994V-7.364h.952v1.358a2.765,2.765,0,0,1,1.127-1.043A3.607,3.607,0,0,1,43.134-7.42ZM60.928-9.8V0h-.854l-6.3-7.952V0H52.738V-9.8h.854l6.314,7.952V-9.8ZM66.92.07A3.827,3.827,0,0,1,65-.413,3.522,3.522,0,0,1,63.658-1.75a3.812,3.812,0,0,1-.49-1.932,3.812,3.812,0,0,1,.49-1.932A3.472,3.472,0,0,1,65-6.944,3.872,3.872,0,0,1,66.92-7.42a3.872,3.872,0,0,1,1.918.476,3.424,3.424,0,0,1,1.337,1.33,3.855,3.855,0,0,1,.483,1.932,3.855,3.855,0,0,1-.483,1.932A3.473,3.473,0,0,1,68.838-.413,3.827,3.827,0,0,1,66.92.07Zm0-.882a2.779,2.779,0,0,0,1.407-.357A2.489,2.489,0,0,0,69.3-2.184a3.14,3.14,0,0,0,.35-1.5,3.14,3.14,0,0,0-.35-1.5,2.489,2.489,0,0,0-.973-1.015,2.779,2.779,0,0,0-1.407-.357,2.779,2.779,0,0,0-1.407.357,2.535,2.535,0,0,0-.98,1.015,3.09,3.09,0,0,0-.357,1.5,3.09,3.09,0,0,0,.357,1.5,2.535,2.535,0,0,0,.98,1.015A2.779,2.779,0,0,0,66.92-.812ZM78.414-9.8V0H77.406V-8.9H75.1v-.9ZM9.786,10.2V20H8.932l-6.3-7.952V20H1.6V10.2H2.45l6.314,7.952V10.2Zm5.992,9.87a3.827,3.827,0,0,1-1.918-.483,3.522,3.522,0,0,1-1.344-1.337,4.054,4.054,0,0,1,0-3.864,3.472,3.472,0,0,1,1.344-1.33,4.1,4.1,0,0,1,3.836,0,3.424,3.424,0,0,1,1.337,1.33,4.106,4.106,0,0,1,0,3.864A3.473,3.473,0,0,1,17.7,19.587,3.827,3.827,0,0,1,15.778,20.07Zm0-.882a2.779,2.779,0,0,0,1.407-.357,2.489,2.489,0,0,0,.973-1.015,3.381,3.381,0,0,0,0-3,2.489,2.489,0,0,0-.973-1.015,2.951,2.951,0,0,0-2.814,0,2.535,2.535,0,0,0-.98,1.015,3.321,3.321,0,0,0,0,3,2.535,2.535,0,0,0,.98,1.015A2.779,2.779,0,0,0,15.778,19.188ZM30.73,12.58a2.927,2.927,0,0,1,2.177.8A3.206,3.206,0,0,1,33.7,15.73V20H32.7V15.828a2.5,2.5,0,0,0-.553-1.75,2.013,2.013,0,0,0-1.561-.6,2.346,2.346,0,0,0-1.806.707,2.755,2.755,0,0,0-.658,1.953V20h-.994V15.828a2.5,2.5,0,0,0-.553-1.75,2.031,2.031,0,0,0-1.575-.6,2.351,2.351,0,0,0-1.8.707,2.737,2.737,0,0,0-.665,1.953V20h-.994V12.636H22.5V13.98a2.656,2.656,0,0,1,1.092-1.036,3.44,3.44,0,0,1,1.61-.364,3.151,3.151,0,0,1,1.6.392,2.41,2.41,0,0,1,1.015,1.162,2.869,2.869,0,0,1,1.169-1.141A3.6,3.6,0,0,1,30.73,12.58Zm9.464,0a3.782,3.782,0,0,1,1.876.469,3.354,3.354,0,0,1,1.316,1.323,4.216,4.216,0,0,1,0,3.892,3.4,3.4,0,0,1-1.316,1.33,3.738,3.738,0,0,1-1.876.476,3.47,3.47,0,0,1-1.659-.392,3.032,3.032,0,0,1-1.183-1.134V20H36.4V9.612h.994v4.424a3.064,3.064,0,0,1,1.183-1.085A3.482,3.482,0,0,1,40.194,12.58Zm-.07,6.608a2.79,2.79,0,0,0,1.4-.357,2.522,2.522,0,0,0,.987-1.015,3.321,3.321,0,0,0,0-3,2.522,2.522,0,0,0-.987-1.015,2.937,2.937,0,0,0-2.807,0,2.535,2.535,0,0,0-.98,1.015,3.321,3.321,0,0,0,0,3,2.535,2.535,0,0,0,.98,1.015A2.779,2.779,0,0,0,40.124,19.188Zm6.72-5.11a2.409,2.409,0,0,1,1.043-1.12A3.544,3.544,0,0,1,49.6,12.58v.966l-.238-.014a2.352,2.352,0,0,0-1.82.714,2.845,2.845,0,0,0-.658,2V20h-.994V12.636h.952Zm10.892,2.548h-6.16a2.632,2.632,0,0,0,.882,1.855,2.928,2.928,0,0,0,2.016.707,3.177,3.177,0,0,0,1.26-.245,2.752,2.752,0,0,0,.994-.721l.56.644a3.153,3.153,0,0,1-1.225.9,4.143,4.143,0,0,1-1.617.308,4.088,4.088,0,0,1-2.009-.483,3.482,3.482,0,0,1-1.365-1.337,3.812,3.812,0,0,1-.49-1.932,3.947,3.947,0,0,1,.469-1.932,3.4,3.4,0,0,1,1.288-1.33,3.6,3.6,0,0,1,1.841-.476,3.558,3.558,0,0,1,1.834.476,3.374,3.374,0,0,1,1.274,1.323,3.984,3.984,0,0,1,.462,1.939ZM54.18,13.434a2.5,2.5,0,0,0-1.785.679,2.667,2.667,0,0,0-.819,1.771H56.8a2.667,2.667,0,0,0-.819-1.771A2.522,2.522,0,0,0,54.18,13.434ZM70.168,9.612V20h-.952V18.544a3.032,3.032,0,0,1-1.183,1.134,3.47,3.47,0,0,1-1.659.392,3.738,3.738,0,0,1-1.876-.476,3.4,3.4,0,0,1-1.316-1.33,4.216,4.216,0,0,1,0-3.892A3.354,3.354,0,0,1,64.5,13.049a3.782,3.782,0,0,1,1.876-.469,3.482,3.482,0,0,1,1.617.371,3.064,3.064,0,0,1,1.183,1.085V9.612Zm-3.71,9.576a2.751,2.751,0,0,0,1.393-.357,2.535,2.535,0,0,0,.98-1.015,3.321,3.321,0,0,0,0-3,2.535,2.535,0,0,0-.98-1.015,2.924,2.924,0,0,0-2.8,0,2.535,2.535,0,0,0-.98,1.015,3.321,3.321,0,0,0,0,3,2.535,2.535,0,0,0,.98,1.015A2.779,2.779,0,0,0,66.458,19.188Zm12.894-2.562h-6.16a2.632,2.632,0,0,0,.882,1.855,2.928,2.928,0,0,0,2.016.707,3.177,3.177,0,0,0,1.26-.245,2.752,2.752,0,0,0,.994-.721l.56.644a3.153,3.153,0,0,1-1.225.9,4.143,4.143,0,0,1-1.617.308,4.088,4.088,0,0,1-2.009-.483,3.482,3.482,0,0,1-1.365-1.337,3.812,3.812,0,0,1-.49-1.932,3.947,3.947,0,0,1,.469-1.932,3.4,3.4,0,0,1,1.288-1.33A3.6,3.6,0,0,1,75.8,12.58a3.558,3.558,0,0,1,1.834.476A3.374,3.374,0,0,1,78.9,14.379a3.984,3.984,0,0,1,.462,1.939ZM75.8,13.434a2.5,2.5,0,0,0-1.785.679,2.667,2.667,0,0,0-.819,1.771h5.222a2.667,2.667,0,0,0-.819-1.771A2.522,2.522,0,0,0,75.8,13.434Zm5.6-3.822h.994V20H81.4ZM92.624,12.58a3.782,3.782,0,0,1,1.876.469,3.354,3.354,0,0,1,1.316,1.323,4.244,4.244,0,0,1,0,3.906A3.367,3.367,0,0,1,94.507,19.6a3.771,3.771,0,0,1-1.883.469,3.482,3.482,0,0,1-1.617-.371,3.064,3.064,0,0,1-1.183-1.085v4.1H88.83V12.636h.952v1.456a3.062,3.062,0,0,1,1.183-1.12A3.47,3.47,0,0,1,92.624,12.58Zm-.07,6.608a2.79,2.79,0,0,0,1.4-.357,2.522,2.522,0,0,0,.987-1.015,3.09,3.09,0,0,0,.357-1.5,3.05,3.05,0,0,0-.357-1.491,2.581,2.581,0,0,0-.987-1.015,2.888,2.888,0,0,0-2.807,0,2.6,2.6,0,0,0-.98,1.015,3.05,3.05,0,0,0-.357,1.491,3.09,3.09,0,0,0,.357,1.5,2.535,2.535,0,0,0,.98,1.015A2.779,2.779,0,0,0,92.554,19.188Zm8.3-6.608a3.117,3.117,0,0,1,2.212.721,2.786,2.786,0,0,1,.77,2.135V20h-.952V18.852a2.279,2.279,0,0,1-.987.9,3.454,3.454,0,0,1-1.547.322,3.029,3.029,0,0,1-1.96-.588,2.023,2.023,0,0,1-.049-3.066,3.323,3.323,0,0,1,2.163-.574h2.338v-.448a1.887,1.887,0,0,0-.532-1.449,2.2,2.2,0,0,0-1.554-.5,3.95,3.95,0,0,0-1.344.231,3.387,3.387,0,0,0-1.106.637l-.448-.742a3.973,3.973,0,0,1,1.344-.735A5.232,5.232,0,0,1,100.856,12.58Zm-.35,6.706a2.62,2.62,0,0,0,1.442-.385,2.3,2.3,0,0,0,.9-1.113v-1.2h-2.31q-1.89,0-1.89,1.316a1.2,1.2,0,0,0,.49,1.015A2.231,2.231,0,0,0,100.506,19.286Zm9.912.266a1.882,1.882,0,0,1-.693.385,2.791,2.791,0,0,1-.861.133,1.951,1.951,0,0,1-2.156-2.142V13.476h-1.316v-.84h1.316v-1.61h.994v1.61h2.24v.84H107.7v4.4a1.391,1.391,0,0,0,.329,1,1.248,1.248,0,0,0,.945.343,1.829,1.829,0,0,0,.6-.1,1.479,1.479,0,0,0,.5-.28Zm2.758-5.474a2.409,2.409,0,0,1,1.043-1.12,3.544,3.544,0,0,1,1.715-.378v.966l-.238-.014a2.352,2.352,0,0,0-1.82.714,2.845,2.845,0,0,0-.658,2V20h-.994V12.636h.952Zm7.49,5.992a3.827,3.827,0,0,1-1.918-.483A3.522,3.522,0,0,1,117.4,18.25a4.054,4.054,0,0,1,0-3.864,3.472,3.472,0,0,1,1.344-1.33,4.1,4.1,0,0,1,3.836,0,3.424,3.424,0,0,1,1.337,1.33,4.105,4.105,0,0,1,0,3.864,3.473,3.473,0,0,1-1.337,1.337A3.827,3.827,0,0,1,120.666,20.07Zm0-.882a2.779,2.779,0,0,0,1.407-.357,2.489,2.489,0,0,0,.973-1.015,3.381,3.381,0,0,0,0-3,2.489,2.489,0,0,0-.973-1.015,2.951,2.951,0,0,0-2.814,0,2.535,2.535,0,0,0-.98,1.015,3.321,3.321,0,0,0,0,3,2.535,2.535,0,0,0,.98,1.015A2.779,2.779,0,0,0,120.666,19.188Zm9.52-6.608a3.009,3.009,0,0,1,2.205.805,3.144,3.144,0,0,1,.819,2.345V20h-.994V15.828a2.441,2.441,0,0,0-.574-1.75,2.156,2.156,0,0,0-1.638-.6,2.516,2.516,0,0,0-1.883.707,2.67,2.67,0,0,0-.693,1.953V20h-.994V12.636h.952v1.358a2.765,2.765,0,0,1,1.127-1.043A3.607,3.607,0,0,1,130.186,12.58Zm5.726.056h.994V20h-.994Zm.5-1.61a.7.7,0,0,1-.518-.21.687.687,0,0,1-.21-.5.672.672,0,0,1,.21-.49.7.7,0,0,1,.518-.21.717.717,0,0,1,.518.2.649.649,0,0,1,.21.483.717.717,0,0,1-.728.728Zm5.236,9.044a5.654,5.654,0,0,1-1.715-.259,3.689,3.689,0,0,1-1.281-.651l.448-.784a3.772,3.772,0,0,0,1.162.6,4.616,4.616,0,0,0,1.456.231,2.78,2.78,0,0,0,1.491-.315A1,1,0,0,0,143.7,18a.8.8,0,0,0-.266-.637,1.767,1.767,0,0,0-.672-.35,9.587,9.587,0,0,0-1.078-.231,12.359,12.359,0,0,1-1.442-.343,2.119,2.119,0,0,1-.931-.6,1.655,1.655,0,0,1-.385-1.162,1.821,1.821,0,0,1,.77-1.512,3.458,3.458,0,0,1,2.142-.588,5.56,5.56,0,0,1,1.428.189,3.929,3.929,0,0,1,1.176.5l-.434.8a3.717,3.717,0,0,0-2.17-.63,2.517,2.517,0,0,0-1.435.336,1.029,1.029,0,0,0-.483.882.871.871,0,0,0,.273.672,1.679,1.679,0,0,0,.679.371,10.956,10.956,0,0,0,1.12.245,12.883,12.883,0,0,1,1.414.336,2.077,2.077,0,0,1,.91.574,1.58,1.58,0,0,1,.378,1.12,1.781,1.781,0,0,1-.8,1.533A3.827,3.827,0,0,1,141.652,20.07Zm8.75-.518a1.882,1.882,0,0,1-.693.385,2.791,2.791,0,0,1-.861.133,1.951,1.951,0,0,1-2.156-2.142V13.476h-1.316v-.84h1.316v-1.61h.994v1.61h2.24v.84h-2.24v4.4a1.391,1.391,0,0,0,.329,1,1.248,1.248,0,0,0,.945.343,1.829,1.829,0,0,0,.595-.1,1.479,1.479,0,0,0,.5-.28Zm4.382-6.972A3.117,3.117,0,0,1,157,13.3a2.786,2.786,0,0,1,.77,2.135V20h-.952V18.852a2.279,2.279,0,0,1-.987.9,3.454,3.454,0,0,1-1.547.322,3.029,3.029,0,0,1-1.96-.588,2.023,2.023,0,0,1-.049-3.066,3.323,3.323,0,0,1,2.163-.574h2.338v-.448a1.887,1.887,0,0,0-.532-1.449,2.2,2.2,0,0,0-1.554-.5,3.95,3.95,0,0,0-1.344.231,3.387,3.387,0,0,0-1.106.637l-.448-.742a3.973,3.973,0,0,1,1.344-.735A5.232,5.232,0,0,1,154.784,12.58Zm-.35,6.706a2.62,2.62,0,0,0,1.442-.385,2.3,2.3,0,0,0,.9-1.113v-1.2h-2.31q-1.89,0-1.89,1.316a1.2,1.2,0,0,0,.49,1.015A2.231,2.231,0,0,0,154.434,19.286Z" transform="translate(520 2323)" fill="#00a99a"/>
    <path id="Trazado_11913" data-name="Trazado 11913" d="M0,0H716V5.332H0Z" transform="translate(110 2419.668)" fill="#fed97b"/>
  </g>
</svg>
