<svg xmlns="http://www.w3.org/2000/svg" width="917" height="573.133" viewBox="0 0 917 573.133">
  <g id="Grupo_8320" data-name="Grupo 8320" transform="translate(-112 -1966)">
    <path id="Trazado_12825" data-name="Trazado 12825" d="M0,0H603V573H0Z" transform="translate(112 1966)" fill="#fff"/>
    <path id="Trazado_11913" data-name="Trazado 11913" d="M0,0H602.859V5.332H0Z" transform="translate(112.141 2533.801)" fill="#fed97b"/>
    <path id="Trazado_11925" data-name="Trazado 11925" d="M972.008,1222.313v-486.2h82.955l14.787-12.158,14.946,8.988,83.728-14.136s28.267,72.253,27.567,156.866,0,346.636,0,346.636H972.008" transform="translate(-515.008 1283)" fill="none" stroke="#00a99a" stroke-width="2"/>
    <path id="Trazado_12866" data-name="Trazado 12866" d="M5,0A5,5,0,1,1,0,5,5,5,0,0,1,5,0Z" transform="translate(676 2500)" fill="#00a99a"/>
    <path id="Trazado_12859" data-name="Trazado 12859" d="M5,0A5,5,0,1,1,0,5,5,5,0,0,1,5,0Z" transform="translate(453 2500)" fill="#00a99a"/>
    <path id="Trazado_11927" data-name="Trazado 11927" d="M972.008,1184.5V734.816h71.1l12.674-11.245,12.809,8.313,71.76-13.074s24.227,66.827,23.626,145.085,0,320.6,0,320.6H972.008" transform="translate(-498.998 1304.189)" fill="#99ccfd" stroke="#00a99a" stroke-width="2"/>
    <path id="Trazado_11926" data-name="Trazado 11926" d="M1030.135,787.455l16.754-15.5V1089" transform="translate(-541 1344.693)" fill="none" stroke="#000" stroke-width="2"/>
    <path id="Trazado_11922" data-name="Trazado 11922" d="M972.008,1222.313v-486.2h82.955l14.787-12.158,14.946,8.988,83.728-14.136s28.267,72.253,27.567,156.866,0,346.636,0,346.636H972.008" transform="translate(-812.008 1283)" fill="none" stroke="#00a99a" stroke-width="2"/>
    <path id="Trazado_12827" data-name="Trazado 12827" d="M5,0A5,5,0,1,1,0,5,5,5,0,0,1,5,0Z" transform="translate(156 2013)" fill="#00a99a"/>
    <path id="Trazado_12828" data-name="Trazado 12828" d="M5,0A5,5,0,1,1,0,5,5,5,0,0,1,5,0Z" transform="translate(239 2013)" fill="#00a99a"/>
    <path id="Trazado_12829" data-name="Trazado 12829" d="M5,0A5,5,0,1,1,0,5,5,5,0,0,1,5,0Z" transform="translate(253 2002)" fill="#00a99a"/>
    <path id="Trazado_12830" data-name="Trazado 12830" d="M5,0A5,5,0,1,1,0,5,5,5,0,0,1,5,0Z" transform="translate(267 2012)" fill="#00a99a"/>
    <path id="Trazado_12826" data-name="Trazado 12826" d="M5,0A5,5,0,1,1,0,5,5,5,0,0,1,5,0Z" transform="translate(352 1997)" fill="#00a99a"/>
    <path id="Trazado_12833" data-name="Trazado 12833" d="M5,0A5,5,0,1,1,0,5,5,5,0,0,1,5,0Z" transform="translate(379 2163)" fill="#00a99a"/>
    <path id="Trazado_12834" data-name="Trazado 12834" d="M5,0A5,5,0,1,1,0,5,5,5,0,0,1,5,0Z" transform="translate(156 2163)" fill="#00a99a"/>
    <path id="Trazado_12860" data-name="Trazado 12860" d="M5,0A5,5,0,1,1,0,5,5,5,0,0,1,5,0Z" transform="translate(379 2500)" fill="#00a99a"/>
    <path id="Trazado_12861" data-name="Trazado 12861" d="M5,0A5,5,0,1,1,0,5,5,5,0,0,1,5,0Z" transform="translate(156 2500)" fill="#00a99a"/>
    <path id="Trazado_11923" data-name="Trazado 11923" d="M1030.135,787.455l16.754-15.5V1089" transform="translate(-848 1344.693)" fill="none" stroke="#00a99a" stroke-width="2"/>
    <path id="Trazado_11924" data-name="Trazado 11924" d="M1092,699l28,77.207V699" transform="translate(-848 1319)" fill="none" stroke="#00a99a" stroke-width="1" stroke-dasharray="3"/>
    <path id="Trazado_12838" data-name="Trazado 12838" d="M3.92-9.12v2.96H9.1v2.08H3.92V0H1.328V-11.2H9.792v2.08ZM18.464-2.4h-5.2L12.272,0H9.616l4.992-11.2h2.56L22.176,0h-2.72Zm-.816-1.968L15.872-8.656,14.1-4.368Zm5.7-6.832h2.592v9.088h5.616V0H23.344Zm9.664,0H38.1a7.151,7.151,0,0,1,3.224.7A5.211,5.211,0,0,1,43.5-8.544,5.513,5.513,0,0,1,44.272-5.6,5.513,5.513,0,0,1,43.5-2.656,5.211,5.211,0,0,1,41.32-.7,7.151,7.151,0,0,1,38.1,0H33.008Zm4.96,9.072a3.764,3.764,0,0,0,2.68-.936,3.306,3.306,0,0,0,1-2.536,3.306,3.306,0,0,0-1-2.536,3.764,3.764,0,0,0-2.68-.936H35.6v6.944ZM53.44-2.4h-5.2L47.248,0H44.592l4.992-11.2h2.56L57.152,0h-2.72Zm-.816-1.968L50.848-8.656,49.072-4.368ZM71.072-5.824a2.953,2.953,0,0,1,1.5,1.016,2.8,2.8,0,0,1,.544,1.752A2.588,2.588,0,0,1,71.976-.792,5.848,5.848,0,0,1,68.64,0H62.848V-11.2H68.32a5.356,5.356,0,0,1,3.144.784,2.482,2.482,0,0,1,1.1,2.128,2.731,2.731,0,0,1-.392,1.456A2.746,2.746,0,0,1,71.072-5.824ZM65.424-9.248v2.64H68a2.6,2.6,0,0,0,1.456-.336,1.121,1.121,0,0,0,.5-.992,1.1,1.1,0,0,0-.5-.984A2.651,2.651,0,0,0,68-9.248Zm3.024,7.3a2.872,2.872,0,0,0,1.544-.336,1.151,1.151,0,0,0,.52-1.04q0-1.392-2.064-1.392H65.424v2.768ZM82.464-2.4h-5.2L76.272,0H73.616l4.992-11.2h2.56L86.176,0h-2.72Zm-.816-1.968L79.872-8.656,78.1-4.368ZM80.592-14.416H83.28l-2.9,2.3H78.432ZM91.024.192a9.164,9.164,0,0,1-2.568-.36A6.023,6.023,0,0,1,86.464-1.1l.88-1.952a5.971,5.971,0,0,0,1.712.848,6.43,6.43,0,0,0,1.984.32,3.17,3.17,0,0,0,1.632-.328.991.991,0,0,0,.528-.872.834.834,0,0,0-.312-.664,2.365,2.365,0,0,0-.8-.424q-.488-.16-1.32-.352a18.247,18.247,0,0,1-2.1-.608,3.405,3.405,0,0,1-1.4-.976A2.636,2.636,0,0,1,86.688-7.9a3.117,3.117,0,0,1,.528-1.768,3.552,3.552,0,0,1,1.592-1.256,6.5,6.5,0,0,1,2.6-.464,8.609,8.609,0,0,1,2.1.256A6.192,6.192,0,0,1,95.3-10.4l-.8,1.968a6.245,6.245,0,0,0-3.1-.88,2.91,2.91,0,0,0-1.608.352,1.074,1.074,0,0,0-.52.928.907.907,0,0,0,.6.856,9.42,9.42,0,0,0,1.832.552,18.247,18.247,0,0,1,2.1.608,3.471,3.471,0,0,1,1.4.96,2.574,2.574,0,0,1,.584,1.776,3.058,3.058,0,0,1-.536,1.752A3.6,3.6,0,0,1,93.632-.272,6.555,6.555,0,0,1,91.024.192ZM97.552-11.2h2.592V0H97.552ZM108.16.192a6.433,6.433,0,0,1-3.1-.744,5.552,5.552,0,0,1-2.176-2.064A5.687,5.687,0,0,1,102.1-5.6a5.687,5.687,0,0,1,.792-2.984,5.552,5.552,0,0,1,2.176-2.064,6.467,6.467,0,0,1,3.112-.744,6.527,6.527,0,0,1,2.632.512,5.272,5.272,0,0,1,1.976,1.472L111.12-7.872A3.578,3.578,0,0,0,108.3-9.184a3.739,3.739,0,0,0-1.856.456,3.242,3.242,0,0,0-1.272,1.272A3.739,3.739,0,0,0,104.72-5.6a3.739,3.739,0,0,0,.456,1.856,3.242,3.242,0,0,0,1.272,1.272,3.739,3.739,0,0,0,1.856.456,3.561,3.561,0,0,0,2.816-1.328l1.664,1.536A5.187,5.187,0,0,1,110.8-.32,6.585,6.585,0,0,1,108.16.192ZM121.68-2.4h-5.2L115.488,0h-2.656l4.992-11.2h2.56L125.392,0h-2.72Zm-.816-1.968-1.776-4.288-1.776,4.288Z" transform="translate(218 2229)" fill="#3b1f10"/>
    <path id="Trazado_12841" data-name="Trazado 12841" d="M3.648-9.088H.064V-11.2h9.76v2.112H6.24V0H3.648ZM18.032-2.4h-5.2L11.84,0H9.184l4.992-11.2h2.56L21.744,0h-2.72Zm-.816-1.968L15.44-8.656,13.664-4.368Zm5.7-6.832H25.5v9.088H31.12V0H22.912Zm9.664,0h2.592v9.088h5.616V0H32.576ZM49.712-2.4h-5.2L43.52,0H40.864l4.992-11.2h2.56L53.424,0H50.7ZM48.9-4.368,47.12-8.656,45.344-4.368ZM66.08-5.888A3.169,3.169,0,0,1,67.352-4.8a2.769,2.769,0,0,1,.44,1.552A2.909,2.909,0,0,1,67.2-1.432a3.78,3.78,0,0,1-1.664,1.2,6.711,6.711,0,0,1-2.48.424,6.648,6.648,0,0,1-2.472-.424,3.728,3.728,0,0,1-1.648-1.2,2.936,2.936,0,0,1-.584-1.816,2.769,2.769,0,0,1,.44-1.552,3.191,3.191,0,0,1,1.256-1.088,2.733,2.733,0,0,1-.96-.968,2.63,2.63,0,0,1-.336-1.336,2.734,2.734,0,0,1,.544-1.7A3.471,3.471,0,0,1,60.816-11a5.975,5.975,0,0,1,2.24-.392A6.084,6.084,0,0,1,65.32-11a3.466,3.466,0,0,1,1.528,1.112,2.734,2.734,0,0,1,.544,1.7,2.63,2.63,0,0,1-.336,1.336A2.7,2.7,0,0,1,66.08-5.888Zm-3.024-3.6a1.958,1.958,0,0,0-1.256.376,1.247,1.247,0,0,0-.472,1.032,1.217,1.217,0,0,0,.464,1.008,1.981,1.981,0,0,0,1.264.368,2.05,2.05,0,0,0,1.28-.368,1.2,1.2,0,0,0,.48-1.008,1.239,1.239,0,0,0-.48-1.032A2.019,2.019,0,0,0,63.056-9.488Zm0,7.776a2.46,2.46,0,0,0,1.544-.44,1.412,1.412,0,0,0,.568-1.176A1.391,1.391,0,0,0,64.6-4.5a2.492,2.492,0,0,0-1.544-.432,2.428,2.428,0,0,0-1.52.432,1.4,1.4,0,0,0-.56,1.168,1.414,1.414,0,0,0,.56,1.184A2.428,2.428,0,0,0,63.056-1.712Z" transform="translate(218 2251)" fill="#3b1f10"/>
    <path id="Trazado_12844" data-name="Trazado 12844" d="M6.176-11.2a6.222,6.222,0,0,1,2.584.5A3.839,3.839,0,0,1,10.448-9.3a3.879,3.879,0,0,1,.592,2.16,3.889,3.889,0,0,1-.592,2.152A3.77,3.77,0,0,1,8.76-3.576a6.311,6.311,0,0,1-2.584.488H3.92V0H1.328V-11.2Zm-.144,6a2.722,2.722,0,0,0,1.776-.5,1.755,1.755,0,0,0,.608-1.432,1.774,1.774,0,0,0-.608-1.448,2.722,2.722,0,0,0-1.776-.5H3.92V-5.2ZM18.464.192A6.537,6.537,0,0,1,15.32-.56a5.581,5.581,0,0,1-2.192-2.072A5.657,5.657,0,0,1,12.336-5.6a5.657,5.657,0,0,1,.792-2.968A5.581,5.581,0,0,1,15.32-10.64a6.537,6.537,0,0,1,3.144-.752,6.491,6.491,0,0,1,3.136.752,5.654,5.654,0,0,1,2.192,2.072,5.613,5.613,0,0,1,.8,2.968,5.613,5.613,0,0,1-.8,2.968A5.654,5.654,0,0,1,21.6-.56,6.491,6.491,0,0,1,18.464.192Zm0-2.208a3.554,3.554,0,0,0,1.792-.456,3.272,3.272,0,0,0,1.256-1.272A3.739,3.739,0,0,0,21.968-5.6a3.739,3.739,0,0,0-.456-1.856,3.272,3.272,0,0,0-1.256-1.272,3.554,3.554,0,0,0-1.792-.456,3.554,3.554,0,0,0-1.792.456,3.272,3.272,0,0,0-1.256,1.272A3.739,3.739,0,0,0,14.96-5.6a3.739,3.739,0,0,0,.456,1.856,3.272,3.272,0,0,0,1.256,1.272A3.554,3.554,0,0,0,18.464-2.016ZM30.224.192a9.164,9.164,0,0,1-2.568-.36A6.023,6.023,0,0,1,25.664-1.1l.88-1.952a5.972,5.972,0,0,0,1.712.848,6.43,6.43,0,0,0,1.984.32,3.17,3.17,0,0,0,1.632-.328.991.991,0,0,0,.528-.872.834.834,0,0,0-.312-.664,2.365,2.365,0,0,0-.8-.424q-.488-.16-1.32-.352a18.247,18.247,0,0,1-2.1-.608,3.405,3.405,0,0,1-1.4-.976A2.636,2.636,0,0,1,25.888-7.9a3.117,3.117,0,0,1,.528-1.768,3.552,3.552,0,0,1,1.592-1.256,6.5,6.5,0,0,1,2.6-.464,8.609,8.609,0,0,1,2.1.256A6.192,6.192,0,0,1,34.5-10.4l-.8,1.968a6.245,6.245,0,0,0-3.1-.88,2.91,2.91,0,0,0-1.608.352,1.074,1.074,0,0,0-.52.928.907.907,0,0,0,.6.856,9.42,9.42,0,0,0,1.832.552,18.247,18.247,0,0,1,2.1.608,3.471,3.471,0,0,1,1.4.96,2.574,2.574,0,0,1,.584,1.776,3.058,3.058,0,0,1-.536,1.752A3.6,3.6,0,0,1,32.832-.272,6.555,6.555,0,0,1,30.224.192Zm8.688-9.28H35.328V-11.2h9.76v2.112H41.5V0H38.912ZM55.152-2.08V0H46.48V-11.2h8.464v2.08H49.056v2.432h5.2v2.016h-5.2V-2.08ZM64.352,0l-2.16-3.12H59.808V0H57.216V-11.2h4.848a6.222,6.222,0,0,1,2.584.5A3.839,3.839,0,0,1,66.336-9.3a3.879,3.879,0,0,1,.592,2.16,3.8,3.8,0,0,1-.6,2.152,3.8,3.8,0,0,1-1.7,1.384L67.136,0ZM64.3-7.136A1.774,1.774,0,0,0,63.7-8.584a2.722,2.722,0,0,0-1.776-.5H59.808v3.9H61.92A2.692,2.692,0,0,0,63.7-5.7,1.779,1.779,0,0,0,64.3-7.136ZM68.976-11.2h2.592V0H68.976ZM79.648.192A6.537,6.537,0,0,1,76.5-.56a5.581,5.581,0,0,1-2.192-2.072A5.657,5.657,0,0,1,73.52-5.6a5.657,5.657,0,0,1,.792-2.968A5.581,5.581,0,0,1,76.5-10.64a6.537,6.537,0,0,1,3.144-.752,6.491,6.491,0,0,1,3.136.752,5.654,5.654,0,0,1,2.192,2.072,5.613,5.613,0,0,1,.8,2.968,5.613,5.613,0,0,1-.8,2.968A5.654,5.654,0,0,1,82.784-.56,6.491,6.491,0,0,1,79.648.192Zm0-2.208a3.554,3.554,0,0,0,1.792-.456A3.272,3.272,0,0,0,82.7-3.744,3.739,3.739,0,0,0,83.152-5.6,3.739,3.739,0,0,0,82.7-7.456,3.272,3.272,0,0,0,81.44-8.728a3.554,3.554,0,0,0-1.792-.456,3.554,3.554,0,0,0-1.792.456A3.272,3.272,0,0,0,76.6-7.456,3.739,3.739,0,0,0,76.144-5.6,3.739,3.739,0,0,0,76.6-3.744a3.272,3.272,0,0,0,1.256,1.272A3.554,3.554,0,0,0,79.648-2.016ZM94.864,0,92.7-3.12H90.32V0H87.728V-11.2h4.848a6.222,6.222,0,0,1,2.584.5A3.839,3.839,0,0,1,96.848-9.3a3.879,3.879,0,0,1,.592,2.16,3.8,3.8,0,0,1-.6,2.152,3.8,3.8,0,0,1-1.7,1.384L97.648,0Zm-.048-7.136a1.774,1.774,0,0,0-.608-1.448,2.722,2.722,0,0,0-1.776-.5H90.32v3.9h2.112A2.692,2.692,0,0,0,94.208-5.7,1.779,1.779,0,0,0,94.816-7.136Z" transform="translate(218 2274)" fill="#3b1f10"/>
    <path id="Trazado_12850" data-name="Trazado 12850" d="M8.464,0,6.3-3.12H3.92V0H1.328V-11.2H6.176a6.222,6.222,0,0,1,2.584.5A3.839,3.839,0,0,1,10.448-9.3a3.879,3.879,0,0,1,.592,2.16,3.8,3.8,0,0,1-.6,2.152A3.8,3.8,0,0,1,8.736-3.6L11.248,0ZM8.416-7.136a1.774,1.774,0,0,0-.608-1.448,2.722,2.722,0,0,0-1.776-.5H3.92v3.9H6.032A2.692,2.692,0,0,0,7.808-5.7,1.779,1.779,0,0,0,8.416-7.136ZM21.76-2.08V0H13.088V-11.2h8.464v2.08H15.664v2.432h5.2v2.016h-5.2V-2.08Zm4.656-7.04v2.96H31.6v2.08H26.416V0H23.824V-11.2h8.464v2.08Zm16.3,7.04V0H34.048V-11.2h8.464v2.08H36.624v2.432h5.2v2.016h-5.2V-2.08ZM51.92,0,49.76-3.12H47.376V0H44.784V-11.2h4.848a6.222,6.222,0,0,1,2.584.5A3.839,3.839,0,0,1,53.9-9.3a3.879,3.879,0,0,1,.592,2.16,3.8,3.8,0,0,1-.6,2.152,3.8,3.8,0,0,1-1.7,1.384L54.7,0Zm-.048-7.136a1.774,1.774,0,0,0-.608-1.448,2.722,2.722,0,0,0-1.776-.5H47.376v3.9h2.112A2.692,2.692,0,0,0,51.264-5.7,1.779,1.779,0,0,0,51.872-7.136ZM65.216-2.08V0H56.544V-11.2h8.464v2.08H59.12v2.432h5.2v2.016h-5.2V-2.08ZM77.552-11.2V0H75.424L69.84-6.8V0H67.28V-11.2h2.144l5.568,6.8v-6.8ZM85.568.192a6.433,6.433,0,0,1-3.1-.744A5.552,5.552,0,0,1,80.3-2.616,5.687,5.687,0,0,1,79.5-5.6,5.687,5.687,0,0,1,80.3-8.584a5.552,5.552,0,0,1,2.176-2.064,6.467,6.467,0,0,1,3.112-.744,6.528,6.528,0,0,1,2.632.512,5.272,5.272,0,0,1,1.976,1.472L88.528-7.872a3.578,3.578,0,0,0-2.816-1.312,3.739,3.739,0,0,0-1.856.456,3.242,3.242,0,0,0-1.272,1.272A3.739,3.739,0,0,0,82.128-5.6a3.739,3.739,0,0,0,.456,1.856,3.242,3.242,0,0,0,1.272,1.272,3.739,3.739,0,0,0,1.856.456,3.561,3.561,0,0,0,2.816-1.328l1.664,1.536A5.187,5.187,0,0,1,88.208-.32,6.585,6.585,0,0,1,85.568.192ZM91.936-11.2h2.592V0H91.936ZM104.56-2.4h-5.2L98.368,0H95.712L100.7-11.2h2.56L108.272,0h-2.72Zm-.816-1.968-1.776-4.288-1.776,4.288Z" transform="translate(218 2296)" fill="#3b1f10"/>
    <path id="Trazado_12852" data-name="Trazado 12852" d="M6.688.192a6.433,6.433,0,0,1-3.1-.744A5.552,5.552,0,0,1,1.416-2.616,5.687,5.687,0,0,1,.624-5.6a5.687,5.687,0,0,1,.792-2.984,5.552,5.552,0,0,1,2.176-2.064A6.467,6.467,0,0,1,6.7-11.392a6.528,6.528,0,0,1,2.632.512,5.272,5.272,0,0,1,1.976,1.472L9.648-7.872A3.578,3.578,0,0,0,6.832-9.184a3.739,3.739,0,0,0-1.856.456A3.242,3.242,0,0,0,3.7-7.456,3.739,3.739,0,0,0,3.248-5.6,3.739,3.739,0,0,0,3.7-3.744,3.242,3.242,0,0,0,4.976-2.472a3.739,3.739,0,0,0,1.856.456A3.561,3.561,0,0,0,9.648-3.344l1.664,1.536A5.187,5.187,0,0,1,9.328-.32,6.585,6.585,0,0,1,6.688.192Zm11.552,0A6.537,6.537,0,0,1,15.1-.56,5.581,5.581,0,0,1,12.9-2.632,5.657,5.657,0,0,1,12.112-5.6,5.657,5.657,0,0,1,12.9-8.568,5.581,5.581,0,0,1,15.1-10.64a6.537,6.537,0,0,1,3.144-.752,6.491,6.491,0,0,1,3.136.752,5.654,5.654,0,0,1,2.192,2.072,5.613,5.613,0,0,1,.8,2.968,5.613,5.613,0,0,1-.8,2.968A5.654,5.654,0,0,1,21.376-.56,6.491,6.491,0,0,1,18.24.192Zm0-2.208a3.554,3.554,0,0,0,1.792-.456,3.272,3.272,0,0,0,1.256-1.272A3.739,3.739,0,0,0,21.744-5.6a3.739,3.739,0,0,0-.456-1.856,3.272,3.272,0,0,0-1.256-1.272,3.554,3.554,0,0,0-1.792-.456,3.554,3.554,0,0,0-1.792.456,3.272,3.272,0,0,0-1.256,1.272A3.739,3.739,0,0,0,14.736-5.6a3.739,3.739,0,0,0,.456,1.856,3.272,3.272,0,0,0,1.256,1.272A3.554,3.554,0,0,0,18.24-2.016ZM33.456,0,31.3-3.12H28.912V0H26.32V-11.2h4.848a6.222,6.222,0,0,1,2.584.5A3.839,3.839,0,0,1,35.44-9.3a3.879,3.879,0,0,1,.592,2.16,3.8,3.8,0,0,1-.6,2.152,3.8,3.8,0,0,1-1.7,1.384L36.24,0Zm-.048-7.136A1.774,1.774,0,0,0,32.8-8.584a2.722,2.722,0,0,0-1.776-.5H28.912v3.9h2.112A2.692,2.692,0,0,0,32.8-5.7,1.779,1.779,0,0,0,33.408-7.136ZM40.24-9.088H36.656V-11.2h9.76v2.112H42.832V0H40.24ZM54.624-2.4h-5.2L48.432,0H45.776l4.992-11.2h2.56L58.336,0h-2.72Zm-.816-1.968L52.032-8.656,50.256-4.368ZM66.64,0,64.48-3.12H62.1V0H59.5V-11.2h4.848a6.222,6.222,0,0,1,2.584.5A3.839,3.839,0,0,1,68.624-9.3a3.879,3.879,0,0,1,.592,2.16,3.8,3.8,0,0,1-.6,2.152,3.8,3.8,0,0,1-1.7,1.384L69.424,0Zm-.048-7.136a1.774,1.774,0,0,0-.608-1.448,2.722,2.722,0,0,0-1.776-.5H62.1v3.9h2.112A2.692,2.692,0,0,0,65.984-5.7,1.779,1.779,0,0,0,66.592-7.136ZM77.632,3.1a11.59,11.59,0,0,1-1.48-3.376,15.676,15.676,0,0,1-.52-4.112,15.766,15.766,0,0,1,.52-4.12,11.354,11.354,0,0,1,1.48-3.368h2.384a14.525,14.525,0,0,0-1.472,3.608,15.752,15.752,0,0,0-.464,3.88A15.752,15.752,0,0,0,78.544-.5,14.525,14.525,0,0,0,80.016,3.1ZM88.56,0l-2.7-3.888L83.2,0H80.224l4.144-5.7-3.936-5.5h2.944l2.576,3.632L88.48-11.2h2.8l-3.9,5.408L91.552,0Zm12.032-2.112V0H92.128V-1.68l4.32-4.08a4.587,4.587,0,0,0,.928-1.128,2.052,2.052,0,0,0,.24-.936,1.238,1.238,0,0,0-.456-1.032,2.122,2.122,0,0,0-1.336-.36,3.068,3.068,0,0,0-1.328.28,2.543,2.543,0,0,0-.992.84L91.616-9.312a4.429,4.429,0,0,1,1.808-1.528,6.038,6.038,0,0,1,2.64-.552,5.428,5.428,0,0,1,2.184.408A3.366,3.366,0,0,1,99.7-9.832a2.981,2.981,0,0,1,.52,1.752,3.905,3.905,0,0,1-.384,1.712,6.59,6.59,0,0,1-1.488,1.824L95.776-2.112ZM101.2,3.1A14.763,14.763,0,0,0,102.68-.5a15.5,15.5,0,0,0,.472-3.88,15.5,15.5,0,0,0-.472-3.88,14.763,14.763,0,0,0-1.48-3.608h2.384a10.9,10.9,0,0,1,1.5,3.352,15.831,15.831,0,0,1,.52,4.136,15.881,15.881,0,0,1-.512,4.12,10.966,10.966,0,0,1-1.5,3.368Z" transform="translate(218 2319)" fill="#3b1f10"/>
    <path id="Trazado_12854" data-name="Trazado 12854" d="M6.176-11.2a6.222,6.222,0,0,1,2.584.5A3.839,3.839,0,0,1,10.448-9.3a3.879,3.879,0,0,1,.592,2.16,3.889,3.889,0,0,1-.592,2.152A3.77,3.77,0,0,1,8.76-3.576a6.311,6.311,0,0,1-2.584.488H3.92V0H1.328V-11.2Zm-.144,6a2.722,2.722,0,0,0,1.776-.5,1.755,1.755,0,0,0,.608-1.432,1.774,1.774,0,0,0-.608-1.448,2.722,2.722,0,0,0-1.776-.5H3.92V-5.2Zm6.848-6h2.592V0H12.88ZM26.8-2.08V0H18.128V-11.2h8.464v2.08H20.7v2.432h5.2v2.016H20.7V-2.08Zm11.136-.032V0H28.144V-1.68l6.144-7.408H28.272V-11.2H37.7v1.68L31.568-2.112Zm9.04-.288h-5.2L40.784,0H38.128L43.12-11.2h2.56L50.688,0h-2.72ZM46.16-4.368,44.384-8.656,42.608-4.368ZM64.048-2.112V0H55.584V-1.68L59.9-5.76a4.588,4.588,0,0,0,.928-1.128,2.052,2.052,0,0,0,.24-.936,1.238,1.238,0,0,0-.456-1.032,2.122,2.122,0,0,0-1.336-.36,3.068,3.068,0,0,0-1.328.28,2.543,2.543,0,0,0-.992.84L55.072-9.312A4.429,4.429,0,0,1,56.88-10.84a6.038,6.038,0,0,1,2.64-.552,5.428,5.428,0,0,1,2.184.408A3.366,3.366,0,0,1,63.16-9.832a2.981,2.981,0,0,1,.52,1.752A3.905,3.905,0,0,1,63.3-6.368a6.59,6.59,0,0,1-1.488,1.824L59.232-2.112Zm5.36-11.36h2.224L66.352,1.6H64.128ZM76.784-6.64a3.77,3.77,0,0,1,2.256,1.1,3.021,3.021,0,0,1,.784,2.12,3.346,3.346,0,0,1-.512,1.8A3.566,3.566,0,0,1,77.752-.3a5.976,5.976,0,0,1-2.568.5A8.809,8.809,0,0,1,72.856-.12a6,6,0,0,1-1.944-.888L71.92-2.992a4.884,4.884,0,0,0,1.48.744,5.7,5.7,0,0,0,1.72.264,2.726,2.726,0,0,0,1.536-.376,1.208,1.208,0,0,0,.56-1.064q0-1.376-2.1-1.376H73.936V-6.512l2.3-2.608H71.472V-11.2h7.84v1.68Z" transform="translate(218 2342)" fill="#3b1f10"/>
    <path id="Trazado_12845" data-name="Trazado 12845" d="M0,0H49V12H0Z" transform="translate(364 2261)" fill="#ed3a3a"/>
    <path id="Trazado_12846" data-name="Trazado 12846" d="M14.5,0,29,25H0Z" transform="translate(436 2252) rotate(90)" fill="#ed3a3a"/>
    <path id="Trazado_12831" data-name="Trazado 12831" d="M5,0A5,5,0,1,1,0,5,5,5,0,0,1,5,0Z" transform="translate(453 2013)" fill="#00a99a"/>
    <path id="Trazado_12836" data-name="Trazado 12836" d="M5,0A5,5,0,1,1,0,5,5,5,0,0,1,5,0Z" transform="translate(536 2013)" fill="#00a99a"/>
    <path id="Trazado_12839" data-name="Trazado 12839" d="M5,0A5,5,0,1,1,0,5,5,5,0,0,1,5,0Z" transform="translate(550 2002)" fill="#00a99a"/>
    <path id="Trazado_12847" data-name="Trazado 12847" d="M5,0A5,5,0,1,1,0,5,5,5,0,0,1,5,0Z" transform="translate(564 2012)" fill="#00a99a"/>
    <path id="Trazado_12863" data-name="Trazado 12863" d="M5,0A5,5,0,1,1,0,5,5,5,0,0,1,5,0Z" transform="translate(649 1997)" fill="#00a99a"/>
    <path id="Trazado_12867" data-name="Trazado 12867" d="M5,0A5,5,0,1,1,0,5,5,5,0,0,1,5,0Z" transform="translate(676 2163)" fill="#00a99a"/>
    <path id="Trazado_12835" data-name="Trazado 12835" d="M5,0A5,5,0,1,1,0,5,5,5,0,0,1,5,0Z" transform="translate(453 2163)" fill="#00a99a"/>
    <path id="Trazado_12840" data-name="Trazado 12840" d="M3.92-9.12v2.96H9.1v2.08H3.92V0H1.328V-11.2H9.792v2.08ZM18.464-2.4h-5.2L12.272,0H9.616l4.992-11.2h2.56L22.176,0h-2.72Zm-.816-1.968L15.872-8.656,14.1-4.368Zm5.7-6.832h2.592v9.088h5.616V0H23.344Zm9.664,0H38.1a7.151,7.151,0,0,1,3.224.7A5.211,5.211,0,0,1,43.5-8.544,5.513,5.513,0,0,1,44.272-5.6,5.513,5.513,0,0,1,43.5-2.656,5.211,5.211,0,0,1,41.32-.7,7.151,7.151,0,0,1,38.1,0H33.008Zm4.96,9.072a3.764,3.764,0,0,0,2.68-.936,3.306,3.306,0,0,0,1-2.536,3.306,3.306,0,0,0-1-2.536,3.764,3.764,0,0,0-2.68-.936H35.6v6.944ZM53.44-2.4h-5.2L47.248,0H44.592l4.992-11.2h2.56L57.152,0h-2.72Zm-.816-1.968L50.848-8.656,49.072-4.368ZM71.072-5.824a2.953,2.953,0,0,1,1.5,1.016,2.8,2.8,0,0,1,.544,1.752A2.588,2.588,0,0,1,71.976-.792,5.848,5.848,0,0,1,68.64,0H62.848V-11.2H68.32a5.356,5.356,0,0,1,3.144.784,2.482,2.482,0,0,1,1.1,2.128,2.731,2.731,0,0,1-.392,1.456A2.746,2.746,0,0,1,71.072-5.824ZM65.424-9.248v2.64H68a2.6,2.6,0,0,0,1.456-.336,1.121,1.121,0,0,0,.5-.992,1.1,1.1,0,0,0-.5-.984A2.651,2.651,0,0,0,68-9.248Zm3.024,7.3a2.872,2.872,0,0,0,1.544-.336,1.151,1.151,0,0,0,.52-1.04q0-1.392-2.064-1.392H65.424v2.768ZM82.464-2.4h-5.2L76.272,0H73.616l4.992-11.2h2.56L86.176,0h-2.72Zm-.816-1.968L79.872-8.656,78.1-4.368ZM80.592-14.416H83.28l-2.9,2.3H78.432ZM91.024.192a9.164,9.164,0,0,1-2.568-.36A6.023,6.023,0,0,1,86.464-1.1l.88-1.952a5.971,5.971,0,0,0,1.712.848,6.43,6.43,0,0,0,1.984.32,3.17,3.17,0,0,0,1.632-.328.991.991,0,0,0,.528-.872.834.834,0,0,0-.312-.664,2.365,2.365,0,0,0-.8-.424q-.488-.16-1.32-.352a18.247,18.247,0,0,1-2.1-.608,3.405,3.405,0,0,1-1.4-.976A2.636,2.636,0,0,1,86.688-7.9a3.117,3.117,0,0,1,.528-1.768,3.552,3.552,0,0,1,1.592-1.256,6.5,6.5,0,0,1,2.6-.464,8.609,8.609,0,0,1,2.1.256A6.192,6.192,0,0,1,95.3-10.4l-.8,1.968a6.245,6.245,0,0,0-3.1-.88,2.91,2.91,0,0,0-1.608.352,1.074,1.074,0,0,0-.52.928.907.907,0,0,0,.6.856,9.42,9.42,0,0,0,1.832.552,18.247,18.247,0,0,1,2.1.608,3.471,3.471,0,0,1,1.4.96,2.574,2.574,0,0,1,.584,1.776,3.058,3.058,0,0,1-.536,1.752A3.6,3.6,0,0,1,93.632-.272,6.555,6.555,0,0,1,91.024.192ZM97.552-11.2h2.592V0H97.552ZM108.16.192a6.433,6.433,0,0,1-3.1-.744,5.552,5.552,0,0,1-2.176-2.064A5.687,5.687,0,0,1,102.1-5.6a5.687,5.687,0,0,1,.792-2.984,5.552,5.552,0,0,1,2.176-2.064,6.467,6.467,0,0,1,3.112-.744,6.527,6.527,0,0,1,2.632.512,5.272,5.272,0,0,1,1.976,1.472L111.12-7.872A3.578,3.578,0,0,0,108.3-9.184a3.739,3.739,0,0,0-1.856.456,3.242,3.242,0,0,0-1.272,1.272A3.739,3.739,0,0,0,104.72-5.6a3.739,3.739,0,0,0,.456,1.856,3.242,3.242,0,0,0,1.272,1.272,3.739,3.739,0,0,0,1.856.456,3.561,3.561,0,0,0,2.816-1.328l1.664,1.536A5.187,5.187,0,0,1,110.8-.32,6.585,6.585,0,0,1,108.16.192ZM121.68-2.4h-5.2L115.488,0h-2.656l4.992-11.2h2.56L125.392,0h-2.72Zm-.816-1.968-1.776-4.288-1.776,4.288Z" transform="translate(524 2229)" fill="#3b1f10"/>
    <path id="Trazado_12842" data-name="Trazado 12842" d="M3.648-9.088H.064V-11.2h9.76v2.112H6.24V0H3.648ZM18.032-2.4h-5.2L11.84,0H9.184l4.992-11.2h2.56L21.744,0h-2.72Zm-.816-1.968L15.44-8.656,13.664-4.368Zm5.7-6.832H25.5v9.088H31.12V0H22.912Zm9.664,0h2.592v9.088h5.616V0H32.576ZM49.712-2.4h-5.2L43.52,0H40.864l4.992-11.2h2.56L53.424,0H50.7ZM48.9-4.368,47.12-8.656,45.344-4.368ZM66.08-5.888A3.169,3.169,0,0,1,67.352-4.8a2.769,2.769,0,0,1,.44,1.552A2.909,2.909,0,0,1,67.2-1.432a3.78,3.78,0,0,1-1.664,1.2,6.711,6.711,0,0,1-2.48.424,6.648,6.648,0,0,1-2.472-.424,3.728,3.728,0,0,1-1.648-1.2,2.936,2.936,0,0,1-.584-1.816,2.769,2.769,0,0,1,.44-1.552,3.191,3.191,0,0,1,1.256-1.088,2.733,2.733,0,0,1-.96-.968,2.63,2.63,0,0,1-.336-1.336,2.734,2.734,0,0,1,.544-1.7A3.471,3.471,0,0,1,60.816-11a5.975,5.975,0,0,1,2.24-.392A6.084,6.084,0,0,1,65.32-11a3.466,3.466,0,0,1,1.528,1.112,2.734,2.734,0,0,1,.544,1.7,2.63,2.63,0,0,1-.336,1.336A2.7,2.7,0,0,1,66.08-5.888Zm-3.024-3.6a1.958,1.958,0,0,0-1.256.376,1.247,1.247,0,0,0-.472,1.032,1.217,1.217,0,0,0,.464,1.008,1.981,1.981,0,0,0,1.264.368,2.05,2.05,0,0,0,1.28-.368,1.2,1.2,0,0,0,.48-1.008,1.239,1.239,0,0,0-.48-1.032A2.019,2.019,0,0,0,63.056-9.488Zm0,7.776a2.46,2.46,0,0,0,1.544-.44,1.412,1.412,0,0,0,.568-1.176A1.391,1.391,0,0,0,64.6-4.5a2.492,2.492,0,0,0-1.544-.432,2.428,2.428,0,0,0-1.52.432,1.4,1.4,0,0,0-.56,1.168,1.414,1.414,0,0,0,.56,1.184A2.428,2.428,0,0,0,63.056-1.712Z" transform="translate(524 2251)" fill="#3b1f10"/>
    <path id="Trazado_12848" data-name="Trazado 12848" d="M6.176-11.2a6.222,6.222,0,0,1,2.584.5A3.839,3.839,0,0,1,10.448-9.3a3.879,3.879,0,0,1,.592,2.16,3.889,3.889,0,0,1-.592,2.152A3.77,3.77,0,0,1,8.76-3.576a6.311,6.311,0,0,1-2.584.488H3.92V0H1.328V-11.2Zm-.144,6a2.722,2.722,0,0,0,1.776-.5,1.755,1.755,0,0,0,.608-1.432,1.774,1.774,0,0,0-.608-1.448,2.722,2.722,0,0,0-1.776-.5H3.92V-5.2ZM18.464.192A6.537,6.537,0,0,1,15.32-.56a5.581,5.581,0,0,1-2.192-2.072A5.657,5.657,0,0,1,12.336-5.6a5.657,5.657,0,0,1,.792-2.968A5.581,5.581,0,0,1,15.32-10.64a6.537,6.537,0,0,1,3.144-.752,6.491,6.491,0,0,1,3.136.752,5.654,5.654,0,0,1,2.192,2.072,5.613,5.613,0,0,1,.8,2.968,5.613,5.613,0,0,1-.8,2.968A5.654,5.654,0,0,1,21.6-.56,6.491,6.491,0,0,1,18.464.192Zm0-2.208a3.554,3.554,0,0,0,1.792-.456,3.272,3.272,0,0,0,1.256-1.272A3.739,3.739,0,0,0,21.968-5.6a3.739,3.739,0,0,0-.456-1.856,3.272,3.272,0,0,0-1.256-1.272,3.554,3.554,0,0,0-1.792-.456,3.554,3.554,0,0,0-1.792.456,3.272,3.272,0,0,0-1.256,1.272A3.739,3.739,0,0,0,14.96-5.6a3.739,3.739,0,0,0,.456,1.856,3.272,3.272,0,0,0,1.256,1.272A3.554,3.554,0,0,0,18.464-2.016ZM30.224.192a9.164,9.164,0,0,1-2.568-.36A6.023,6.023,0,0,1,25.664-1.1l.88-1.952a5.972,5.972,0,0,0,1.712.848,6.43,6.43,0,0,0,1.984.32,3.17,3.17,0,0,0,1.632-.328.991.991,0,0,0,.528-.872.834.834,0,0,0-.312-.664,2.365,2.365,0,0,0-.8-.424q-.488-.16-1.32-.352a18.247,18.247,0,0,1-2.1-.608,3.405,3.405,0,0,1-1.4-.976A2.636,2.636,0,0,1,25.888-7.9a3.117,3.117,0,0,1,.528-1.768,3.552,3.552,0,0,1,1.592-1.256,6.5,6.5,0,0,1,2.6-.464,8.609,8.609,0,0,1,2.1.256A6.192,6.192,0,0,1,34.5-10.4l-.8,1.968a6.245,6.245,0,0,0-3.1-.88,2.91,2.91,0,0,0-1.608.352,1.074,1.074,0,0,0-.52.928.907.907,0,0,0,.6.856,9.42,9.42,0,0,0,1.832.552,18.247,18.247,0,0,1,2.1.608,3.471,3.471,0,0,1,1.4.96,2.574,2.574,0,0,1,.584,1.776,3.058,3.058,0,0,1-.536,1.752A3.6,3.6,0,0,1,32.832-.272,6.555,6.555,0,0,1,30.224.192Zm8.688-9.28H35.328V-11.2h9.76v2.112H41.5V0H38.912ZM55.152-2.08V0H46.48V-11.2h8.464v2.08H49.056v2.432h5.2v2.016h-5.2V-2.08ZM64.352,0l-2.16-3.12H59.808V0H57.216V-11.2h4.848a6.222,6.222,0,0,1,2.584.5A3.839,3.839,0,0,1,66.336-9.3a3.879,3.879,0,0,1,.592,2.16,3.8,3.8,0,0,1-.6,2.152,3.8,3.8,0,0,1-1.7,1.384L67.136,0ZM64.3-7.136A1.774,1.774,0,0,0,63.7-8.584a2.722,2.722,0,0,0-1.776-.5H59.808v3.9H61.92A2.692,2.692,0,0,0,63.7-5.7,1.779,1.779,0,0,0,64.3-7.136ZM68.976-11.2h2.592V0H68.976ZM79.648.192A6.537,6.537,0,0,1,76.5-.56a5.581,5.581,0,0,1-2.192-2.072A5.657,5.657,0,0,1,73.52-5.6a5.657,5.657,0,0,1,.792-2.968A5.581,5.581,0,0,1,76.5-10.64a6.537,6.537,0,0,1,3.144-.752,6.491,6.491,0,0,1,3.136.752,5.654,5.654,0,0,1,2.192,2.072,5.613,5.613,0,0,1,.8,2.968,5.613,5.613,0,0,1-.8,2.968A5.654,5.654,0,0,1,82.784-.56,6.491,6.491,0,0,1,79.648.192Zm0-2.208a3.554,3.554,0,0,0,1.792-.456A3.272,3.272,0,0,0,82.7-3.744,3.739,3.739,0,0,0,83.152-5.6,3.739,3.739,0,0,0,82.7-7.456,3.272,3.272,0,0,0,81.44-8.728a3.554,3.554,0,0,0-1.792-.456,3.554,3.554,0,0,0-1.792.456A3.272,3.272,0,0,0,76.6-7.456,3.739,3.739,0,0,0,76.144-5.6,3.739,3.739,0,0,0,76.6-3.744a3.272,3.272,0,0,0,1.256,1.272A3.554,3.554,0,0,0,79.648-2.016ZM94.864,0,92.7-3.12H90.32V0H87.728V-11.2h4.848a6.222,6.222,0,0,1,2.584.5A3.839,3.839,0,0,1,96.848-9.3a3.879,3.879,0,0,1,.592,2.16,3.8,3.8,0,0,1-.6,2.152,3.8,3.8,0,0,1-1.7,1.384L97.648,0Zm-.048-7.136a1.774,1.774,0,0,0-.608-1.448,2.722,2.722,0,0,0-1.776-.5H90.32v3.9h2.112A2.692,2.692,0,0,0,94.208-5.7,1.779,1.779,0,0,0,94.816-7.136Z" transform="translate(524 2274)" fill="#3b1f10"/>
    <path id="Trazado_12851" data-name="Trazado 12851" d="M8.464,0,6.3-3.12H3.92V0H1.328V-11.2H6.176a6.222,6.222,0,0,1,2.584.5A3.839,3.839,0,0,1,10.448-9.3a3.879,3.879,0,0,1,.592,2.16,3.8,3.8,0,0,1-.6,2.152A3.8,3.8,0,0,1,8.736-3.6L11.248,0ZM8.416-7.136a1.774,1.774,0,0,0-.608-1.448,2.722,2.722,0,0,0-1.776-.5H3.92v3.9H6.032A2.692,2.692,0,0,0,7.808-5.7,1.779,1.779,0,0,0,8.416-7.136ZM21.76-2.08V0H13.088V-11.2h8.464v2.08H15.664v2.432h5.2v2.016h-5.2V-2.08Zm4.656-7.04v2.96H31.6v2.08H26.416V0H23.824V-11.2h8.464v2.08Zm16.3,7.04V0H34.048V-11.2h8.464v2.08H36.624v2.432h5.2v2.016h-5.2V-2.08ZM51.92,0,49.76-3.12H47.376V0H44.784V-11.2h4.848a6.222,6.222,0,0,1,2.584.5A3.839,3.839,0,0,1,53.9-9.3a3.879,3.879,0,0,1,.592,2.16,3.8,3.8,0,0,1-.6,2.152,3.8,3.8,0,0,1-1.7,1.384L54.7,0Zm-.048-7.136a1.774,1.774,0,0,0-.608-1.448,2.722,2.722,0,0,0-1.776-.5H47.376v3.9h2.112A2.692,2.692,0,0,0,51.264-5.7,1.779,1.779,0,0,0,51.872-7.136ZM65.216-2.08V0H56.544V-11.2h8.464v2.08H59.12v2.432h5.2v2.016h-5.2V-2.08ZM77.552-11.2V0H75.424L69.84-6.8V0H67.28V-11.2h2.144l5.568,6.8v-6.8ZM85.568.192a6.433,6.433,0,0,1-3.1-.744A5.552,5.552,0,0,1,80.3-2.616,5.687,5.687,0,0,1,79.5-5.6,5.687,5.687,0,0,1,80.3-8.584a5.552,5.552,0,0,1,2.176-2.064,6.467,6.467,0,0,1,3.112-.744,6.528,6.528,0,0,1,2.632.512,5.272,5.272,0,0,1,1.976,1.472L88.528-7.872a3.578,3.578,0,0,0-2.816-1.312,3.739,3.739,0,0,0-1.856.456,3.242,3.242,0,0,0-1.272,1.272A3.739,3.739,0,0,0,82.128-5.6a3.739,3.739,0,0,0,.456,1.856,3.242,3.242,0,0,0,1.272,1.272,3.739,3.739,0,0,0,1.856.456,3.561,3.561,0,0,0,2.816-1.328l1.664,1.536A5.187,5.187,0,0,1,88.208-.32,6.585,6.585,0,0,1,85.568.192ZM91.936-11.2h2.592V0H91.936ZM104.56-2.4h-5.2L98.368,0H95.712L100.7-11.2h2.56L108.272,0h-2.72Zm-.816-1.968-1.776-4.288-1.776,4.288Z" transform="translate(524 2296)" fill="#3b1f10"/>
    <path id="Trazado_12853" data-name="Trazado 12853" d="M6.688.192a6.433,6.433,0,0,1-3.1-.744A5.552,5.552,0,0,1,1.416-2.616,5.687,5.687,0,0,1,.624-5.6a5.687,5.687,0,0,1,.792-2.984,5.552,5.552,0,0,1,2.176-2.064A6.467,6.467,0,0,1,6.7-11.392a6.528,6.528,0,0,1,2.632.512,5.272,5.272,0,0,1,1.976,1.472L9.648-7.872A3.578,3.578,0,0,0,6.832-9.184a3.739,3.739,0,0,0-1.856.456A3.242,3.242,0,0,0,3.7-7.456,3.739,3.739,0,0,0,3.248-5.6,3.739,3.739,0,0,0,3.7-3.744,3.242,3.242,0,0,0,4.976-2.472a3.739,3.739,0,0,0,1.856.456A3.561,3.561,0,0,0,9.648-3.344l1.664,1.536A5.187,5.187,0,0,1,9.328-.32,6.585,6.585,0,0,1,6.688.192Zm11.552,0A6.537,6.537,0,0,1,15.1-.56,5.581,5.581,0,0,1,12.9-2.632,5.657,5.657,0,0,1,12.112-5.6,5.657,5.657,0,0,1,12.9-8.568,5.581,5.581,0,0,1,15.1-10.64a6.537,6.537,0,0,1,3.144-.752,6.491,6.491,0,0,1,3.136.752,5.654,5.654,0,0,1,2.192,2.072,5.613,5.613,0,0,1,.8,2.968,5.613,5.613,0,0,1-.8,2.968A5.654,5.654,0,0,1,21.376-.56,6.491,6.491,0,0,1,18.24.192Zm0-2.208a3.554,3.554,0,0,0,1.792-.456,3.272,3.272,0,0,0,1.256-1.272A3.739,3.739,0,0,0,21.744-5.6a3.739,3.739,0,0,0-.456-1.856,3.272,3.272,0,0,0-1.256-1.272,3.554,3.554,0,0,0-1.792-.456,3.554,3.554,0,0,0-1.792.456,3.272,3.272,0,0,0-1.256,1.272A3.739,3.739,0,0,0,14.736-5.6a3.739,3.739,0,0,0,.456,1.856,3.272,3.272,0,0,0,1.256,1.272A3.554,3.554,0,0,0,18.24-2.016ZM33.456,0,31.3-3.12H28.912V0H26.32V-11.2h4.848a6.222,6.222,0,0,1,2.584.5A3.839,3.839,0,0,1,35.44-9.3a3.879,3.879,0,0,1,.592,2.16,3.8,3.8,0,0,1-.6,2.152,3.8,3.8,0,0,1-1.7,1.384L36.24,0Zm-.048-7.136A1.774,1.774,0,0,0,32.8-8.584a2.722,2.722,0,0,0-1.776-.5H28.912v3.9h2.112A2.692,2.692,0,0,0,32.8-5.7,1.779,1.779,0,0,0,33.408-7.136ZM40.24-9.088H36.656V-11.2h9.76v2.112H42.832V0H40.24ZM54.624-2.4h-5.2L48.432,0H45.776l4.992-11.2h2.56L58.336,0h-2.72Zm-.816-1.968L52.032-8.656,50.256-4.368ZM66.64,0,64.48-3.12H62.1V0H59.5V-11.2h4.848a6.222,6.222,0,0,1,2.584.5A3.839,3.839,0,0,1,68.624-9.3a3.879,3.879,0,0,1,.592,2.16,3.8,3.8,0,0,1-.6,2.152,3.8,3.8,0,0,1-1.7,1.384L69.424,0Zm-.048-7.136a1.774,1.774,0,0,0-.608-1.448,2.722,2.722,0,0,0-1.776-.5H62.1v3.9h2.112A2.692,2.692,0,0,0,65.984-5.7,1.779,1.779,0,0,0,66.592-7.136ZM77.632,3.1a11.59,11.59,0,0,1-1.48-3.376,15.676,15.676,0,0,1-.52-4.112,15.766,15.766,0,0,1,.52-4.12,11.354,11.354,0,0,1,1.48-3.368h2.384a14.525,14.525,0,0,0-1.472,3.608,15.752,15.752,0,0,0-.464,3.88A15.752,15.752,0,0,0,78.544-.5,14.525,14.525,0,0,0,80.016,3.1ZM88.56,0l-2.7-3.888L83.2,0H80.224l4.144-5.7-3.936-5.5h2.944l2.576,3.632L88.48-11.2h2.8l-3.9,5.408L91.552,0Zm12.032-2.112V0H92.128V-1.68l4.32-4.08a4.587,4.587,0,0,0,.928-1.128,2.052,2.052,0,0,0,.24-.936,1.238,1.238,0,0,0-.456-1.032,2.122,2.122,0,0,0-1.336-.36,3.068,3.068,0,0,0-1.328.28,2.543,2.543,0,0,0-.992.84L91.616-9.312a4.429,4.429,0,0,1,1.808-1.528,6.038,6.038,0,0,1,2.64-.552,5.428,5.428,0,0,1,2.184.408A3.366,3.366,0,0,1,99.7-9.832a2.981,2.981,0,0,1,.52,1.752,3.905,3.905,0,0,1-.384,1.712,6.59,6.59,0,0,1-1.488,1.824L95.776-2.112ZM101.2,3.1A14.763,14.763,0,0,0,102.68-.5a15.5,15.5,0,0,0,.472-3.88,15.5,15.5,0,0,0-.472-3.88,14.763,14.763,0,0,0-1.48-3.608h2.384a10.9,10.9,0,0,1,1.5,3.352,15.831,15.831,0,0,1,.52,4.136,15.881,15.881,0,0,1-.512,4.12,10.966,10.966,0,0,1-1.5,3.368Z" transform="translate(524 2319)" fill="#3b1f10"/>
    <path id="Trazado_12855" data-name="Trazado 12855" d="M6.176-11.2a6.222,6.222,0,0,1,2.584.5A3.839,3.839,0,0,1,10.448-9.3a3.879,3.879,0,0,1,.592,2.16,3.889,3.889,0,0,1-.592,2.152A3.77,3.77,0,0,1,8.76-3.576a6.311,6.311,0,0,1-2.584.488H3.92V0H1.328V-11.2Zm-.144,6a2.722,2.722,0,0,0,1.776-.5,1.755,1.755,0,0,0,.608-1.432,1.774,1.774,0,0,0-.608-1.448,2.722,2.722,0,0,0-1.776-.5H3.92V-5.2Zm6.848-6h2.592V0H12.88ZM26.8-2.08V0H18.128V-11.2h8.464v2.08H20.7v2.432h5.2v2.016H20.7V-2.08Zm11.136-.032V0H28.144V-1.68l6.144-7.408H28.272V-11.2H37.7v1.68L31.568-2.112Zm9.04-.288h-5.2L40.784,0H38.128L43.12-11.2h2.56L50.688,0h-2.72ZM46.16-4.368,44.384-8.656,42.608-4.368ZM64.048-2.112V0H55.584V-1.68L59.9-5.76a4.588,4.588,0,0,0,.928-1.128,2.052,2.052,0,0,0,.24-.936,1.238,1.238,0,0,0-.456-1.032,2.122,2.122,0,0,0-1.336-.36,3.068,3.068,0,0,0-1.328.28,2.543,2.543,0,0,0-.992.84L55.072-9.312A4.429,4.429,0,0,1,56.88-10.84a6.038,6.038,0,0,1,2.64-.552,5.428,5.428,0,0,1,2.184.408A3.366,3.366,0,0,1,63.16-9.832a2.981,2.981,0,0,1,.52,1.752A3.905,3.905,0,0,1,63.3-6.368a6.59,6.59,0,0,1-1.488,1.824L59.232-2.112Zm5.36-11.36h2.224L66.352,1.6H64.128ZM76.784-6.64a3.77,3.77,0,0,1,2.256,1.1,3.021,3.021,0,0,1,.784,2.12,3.346,3.346,0,0,1-.512,1.8A3.566,3.566,0,0,1,77.752-.3a5.976,5.976,0,0,1-2.568.5A8.809,8.809,0,0,1,72.856-.12a6,6,0,0,1-1.944-.888L71.92-2.992a4.884,4.884,0,0,0,1.48.744,5.7,5.7,0,0,0,1.72.264,2.726,2.726,0,0,0,1.536-.376,1.208,1.208,0,0,0,.56-1.064q0-1.376-2.1-1.376H73.936V-6.512l2.3-2.608H71.472V-11.2h7.84v1.68Z" transform="translate(524 2342)" fill="#3b1f10"/>
    <path id="Trazado_12869" data-name="Trazado 12869" d="M9.844,19l-1.6-4.087H3.094L1.512,19H0L5.08,6.1H6.337L11.391,19ZM7.778,13.568,6.284,9.587q-.29-.756-.6-1.854a16.653,16.653,0,0,1-.554,1.854L3.621,13.568Zm6.53-4.2v6.249a2.514,2.514,0,0,0,.536,1.758,2.184,2.184,0,0,0,1.679.58,2.739,2.739,0,0,0,2.21-.826,4.168,4.168,0,0,0,.7-2.7V9.367h1.459V19h-1.2l-.211-1.292H19.4a2.908,2.908,0,0,1-1.244,1.09,4.18,4.18,0,0,1-1.815.378,3.682,3.682,0,0,1-2.632-.835,3.554,3.554,0,0,1-.875-2.672v-6.3ZM36.264,19V12.733a2.6,2.6,0,0,0-.492-1.727,1.9,1.9,0,0,0-1.529-.576,2.469,2.469,0,0,0-2.013.782,3.718,3.718,0,0,0-.65,2.408V19H30.12V12.733a2.6,2.6,0,0,0-.492-1.727,1.915,1.915,0,0,0-1.538-.576,2.382,2.382,0,0,0-2.008.822,4.447,4.447,0,0,0-.637,2.694V19H23.985V9.367h1.187l.237,1.318h.07a2.867,2.867,0,0,1,1.165-1.1,3.558,3.558,0,0,1,1.683-.4,2.862,2.862,0,0,1,2.953,1.635h.07a3.072,3.072,0,0,1,1.248-1.2,3.873,3.873,0,0,1,1.863-.439,3.262,3.262,0,0,1,2.448.839,3.755,3.755,0,0,1,.813,2.685V19Zm8.534.176a4.426,4.426,0,0,1-3.371-1.3,5.036,5.036,0,0,1-1.235-3.612,5.585,5.585,0,0,1,1.147-3.7A3.81,3.81,0,0,1,44.42,9.191a3.633,3.633,0,0,1,2.865,1.191,4.564,4.564,0,0,1,1.055,3.142v.923H41.7a3.818,3.818,0,0,0,.857,2.575,2.964,2.964,0,0,0,2.29.879,7.759,7.759,0,0,0,3.076-.65v1.3a7.721,7.721,0,0,1-1.463.479A8.224,8.224,0,0,1,44.8,19.176Zm-.4-8.763a2.383,2.383,0,0,0-1.85.756,3.484,3.484,0,0,0-.813,2.092h5.036a3.208,3.208,0,0,0-.615-2.114A2.165,2.165,0,0,0,44.4,10.413ZM57.419,19V12.769a2.514,2.514,0,0,0-.536-1.758,2.184,2.184,0,0,0-1.679-.58,2.769,2.769,0,0,0-2.215.817,4.127,4.127,0,0,0-.7,2.7V19H50.827V9.367h1.187l.237,1.318h.07a2.979,2.979,0,0,1,1.257-1.1,4.084,4.084,0,0,1,1.8-.391A3.659,3.659,0,0,1,58,10.031a3.572,3.572,0,0,1,.879,2.685V19Zm7.567-1.028a4.766,4.766,0,0,0,.747-.057A4.836,4.836,0,0,0,66.3,17.8v1.116a2.667,2.667,0,0,1-.7.189,5.247,5.247,0,0,1-.831.075q-2.795,0-2.795-2.944V10.5H60.6V9.8l1.38-.606L62.6,7.135h.844V9.367h2.795V10.5H63.439V16.17a1.95,1.95,0,0,0,.413,1.336A1.438,1.438,0,0,0,64.986,17.972Zm11.558-3.8a5.314,5.314,0,0,1-1.187,3.678,4.179,4.179,0,0,1-3.278,1.323,4.342,4.342,0,0,1-2.294-.606,4,4,0,0,1-1.547-1.74,6.065,6.065,0,0,1-.545-2.654,5.306,5.306,0,0,1,1.178-3.669,4.165,4.165,0,0,1,3.27-1.314,4.075,4.075,0,0,1,3.212,1.345A5.291,5.291,0,0,1,76.544,14.175Zm-7.339,0a4.572,4.572,0,0,0,.738,2.813,2.93,2.93,0,0,0,4.346,0,4.549,4.549,0,0,0,.743-2.817,4.476,4.476,0,0,0-.743-2.791,2.609,2.609,0,0,0-2.193-.954,2.568,2.568,0,0,0-2.162.94A4.526,4.526,0,0,0,69.205,14.175Zm21.129,3.533h-.079a3.428,3.428,0,0,1-3.023,1.468,3.577,3.577,0,0,1-2.94-1.292,5.687,5.687,0,0,1-1.05-3.674,5.783,5.783,0,0,1,1.055-3.7,3.549,3.549,0,0,1,2.936-1.318,3.5,3.5,0,0,1,3.006,1.424h.114l-.062-.694-.035-.677V5.324h1.459V19H90.527Zm-2.918.246a2.656,2.656,0,0,0,2.167-.813,4.108,4.108,0,0,0,.672-2.624V14.21a4.834,4.834,0,0,0-.681-2.922,2.587,2.587,0,0,0-2.175-.875,2.233,2.233,0,0,0-1.964,1,4.96,4.96,0,0,0-.681,2.817,4.755,4.755,0,0,0,.677,2.786A2.292,2.292,0,0,0,87.416,17.954Zm11.461,1.222a4.426,4.426,0,0,1-3.371-1.3,5.036,5.036,0,0,1-1.235-3.612,5.585,5.585,0,0,1,1.147-3.7A3.81,3.81,0,0,1,98.5,9.191a3.633,3.633,0,0,1,2.865,1.191,4.564,4.564,0,0,1,1.055,3.142v.923H95.783a3.818,3.818,0,0,0,.857,2.575,2.964,2.964,0,0,0,2.29.879,7.759,7.759,0,0,0,3.076-.65v1.3a7.721,7.721,0,0,1-1.463.479A8.224,8.224,0,0,1,98.877,19.176Zm-.4-8.763a2.383,2.383,0,0,0-1.85.756,3.484,3.484,0,0,0-.813,2.092h5.036a3.208,3.208,0,0,0-.615-2.114A2.165,2.165,0,0,0,98.481,10.413Zm14.95,8.763a4.111,4.111,0,0,1-3.239-1.288,5.3,5.3,0,0,1-1.147-3.643,5.46,5.46,0,0,1,1.165-3.735,4.193,4.193,0,0,1,3.318-1.318,6.584,6.584,0,0,1,1.389.149,4.575,4.575,0,0,1,1.09.352l-.448,1.239a6.86,6.86,0,0,0-1.055-.321,4.709,4.709,0,0,0-1.011-.127q-2.936,0-2.936,3.744a4.458,4.458,0,0,0,.716,2.725,2.492,2.492,0,0,0,2.123.949,6.49,6.49,0,0,0,2.47-.519v1.292A5.264,5.264,0,0,1,113.432,19.176Zm13.034-5a5.314,5.314,0,0,1-1.187,3.678A4.179,4.179,0,0,1,122,19.176a4.342,4.342,0,0,1-2.294-.606,4,4,0,0,1-1.547-1.74,6.065,6.065,0,0,1-.545-2.654,5.306,5.306,0,0,1,1.178-3.669,4.165,4.165,0,0,1,3.27-1.314,4.075,4.075,0,0,1,3.212,1.345A5.291,5.291,0,0,1,126.466,14.175Zm-7.339,0a4.572,4.572,0,0,0,.738,2.813,2.93,2.93,0,0,0,4.346,0,4.549,4.549,0,0,0,.743-2.817,4.476,4.476,0,0,0-.743-2.791,2.609,2.609,0,0,0-2.193-.954,2.568,2.568,0,0,0-2.162.94A4.526,4.526,0,0,0,119.127,14.175Zm16.11,2.2a2.413,2.413,0,0,1-1,2.074,4.71,4.71,0,0,1-2.812.729,6.116,6.116,0,0,1-2.988-.606V17.216a7.227,7.227,0,0,0,1.49.554,6.221,6.221,0,0,0,1.534.2,3.478,3.478,0,0,0,1.758-.365,1.256,1.256,0,0,0,.127-2.074,7.673,7.673,0,0,0-1.9-.945,10.318,10.318,0,0,1-1.912-.875,2.611,2.611,0,0,1-.844-.848,2.212,2.212,0,0,1-.277-1.134,2.161,2.161,0,0,1,.958-1.859,4.464,4.464,0,0,1,2.628-.681,7.689,7.689,0,0,1,3.041.633l-.519,1.187a6.98,6.98,0,0,0-2.628-.6,3.023,3.023,0,0,0-1.564.325,1.006,1.006,0,0,0-.527.9,1.092,1.092,0,0,0,.2.659,1.952,1.952,0,0,0,.637.519,14.24,14.24,0,0,0,1.688.712,6.3,6.3,0,0,1,2.316,1.257A2.216,2.216,0,0,1,135.237,16.372Zm5.484,1.6a4.766,4.766,0,0,0,.747-.057,4.836,4.836,0,0,0,.571-.119v1.116a2.667,2.667,0,0,1-.7.189,5.247,5.247,0,0,1-.831.075q-2.795,0-2.795-2.944V10.5h-1.38V9.8l1.38-.606.615-2.057h.844V9.367h2.795V10.5h-2.795V16.17a1.95,1.95,0,0,0,.413,1.336A1.438,1.438,0,0,0,140.722,17.972Zm4.614-8.6v6.249a2.514,2.514,0,0,0,.536,1.758,2.184,2.184,0,0,0,1.679.58,2.739,2.739,0,0,0,2.21-.826,4.168,4.168,0,0,0,.7-2.7V9.367h1.459V19h-1.2l-.211-1.292h-.079a2.908,2.908,0,0,1-1.244,1.09,4.18,4.18,0,0,1-1.815.378,3.682,3.682,0,0,1-2.632-.835,3.554,3.554,0,0,1-.875-2.672v-6.3Zm14.071-.176a5.709,5.709,0,0,1,1.151.105l-.2,1.354a4.97,4.97,0,0,0-1.055-.132,2.567,2.567,0,0,0-2,.949,3.461,3.461,0,0,0-.831,2.364V19h-1.459V9.367h1.2l.167,1.784h.07a4.234,4.234,0,0,1,1.292-1.45A2.908,2.908,0,0,1,159.407,9.191ZM167.924,19l-.29-1.371h-.07a4.053,4.053,0,0,1-1.437,1.226,4.38,4.38,0,0,1-1.789.321,3.217,3.217,0,0,1-2.246-.738,2.693,2.693,0,0,1-.813-2.1q0-2.918,4.667-3.059l1.635-.053v-.6a2.442,2.442,0,0,0-.488-1.674,2.006,2.006,0,0,0-1.56-.541,6.357,6.357,0,0,0-2.725.738l-.448-1.116a6.856,6.856,0,0,1,1.56-.606,6.757,6.757,0,0,1,1.7-.22,3.669,3.669,0,0,1,2.553.765A3.192,3.192,0,0,1,169,12.426V19Zm-3.3-1.028a2.961,2.961,0,0,0,2.14-.747,2.764,2.764,0,0,0,.778-2.092v-.87l-1.459.062a5.307,5.307,0,0,0-2.509.541,1.63,1.63,0,0,0-.769,1.49,1.5,1.5,0,0,0,.479,1.2A1.988,1.988,0,0,0,164.628,17.972Zm7.172.1a1.309,1.309,0,0,1,.268-.892.972.972,0,0,1,.769-.3,1.04,1.04,0,0,1,.8.3,1.255,1.255,0,0,1,.286.892,1.233,1.233,0,0,1-.29.879,1.153,1.153,0,0,1-1.534.031A1.2,1.2,0,0,1,171.8,18.068Zm0-7.761q0-1.187,1.037-1.187,1.081,0,1.081,1.187a1.233,1.233,0,0,1-.29.879,1.153,1.153,0,0,1-1.534.031A1.2,1.2,0,0,1,171.8,10.308ZM6.284,49H4.86V39.842q0-1.143.07-2.162-.185.185-.413.387T2.426,39.78l-.773-1,3.4-2.628h1.23Zm14.08.176a4.111,4.111,0,0,1-3.239-1.288,5.3,5.3,0,0,1-1.147-3.643,5.46,5.46,0,0,1,1.165-3.735,4.193,4.193,0,0,1,3.318-1.318,6.584,6.584,0,0,1,1.389.149,4.575,4.575,0,0,1,1.09.352l-.448,1.239a6.86,6.86,0,0,0-1.055-.321,4.709,4.709,0,0,0-1.011-.127q-2.936,0-2.936,3.744a4.458,4.458,0,0,0,.716,2.725,2.492,2.492,0,0,0,2.123.949,6.49,6.49,0,0,0,2.47-.519v1.292A5.264,5.264,0,0,1,20.364,49.176Zm17-.176V42.733a2.6,2.6,0,0,0-.492-1.727,1.9,1.9,0,0,0-1.529-.576,2.469,2.469,0,0,0-2.013.782,3.718,3.718,0,0,0-.65,2.408V49H31.219V42.733a2.6,2.6,0,0,0-.492-1.727,1.915,1.915,0,0,0-1.538-.576,2.382,2.382,0,0,0-2.008.822,4.447,4.447,0,0,0-.637,2.694V49H25.084V39.367h1.187l.237,1.318h.07a2.867,2.867,0,0,1,1.165-1.1,3.558,3.558,0,0,1,1.683-.4,2.862,2.862,0,0,1,2.953,1.635h.07a3.072,3.072,0,0,1,1.248-1.2,3.873,3.873,0,0,1,1.863-.439,3.262,3.262,0,0,1,2.448.839,3.755,3.755,0,0,1,.813,2.685V49Zm13.21.176a4.426,4.426,0,0,1-3.371-1.3,5.036,5.036,0,0,1-1.235-3.612,5.585,5.585,0,0,1,1.147-3.7,3.81,3.81,0,0,1,3.081-1.371,3.633,3.633,0,0,1,2.865,1.191,4.564,4.564,0,0,1,1.055,3.142v.923H47.479a3.818,3.818,0,0,0,.857,2.575,2.964,2.964,0,0,0,2.29.879,7.759,7.759,0,0,0,3.076-.65v1.3a7.721,7.721,0,0,1-1.463.479A8.224,8.224,0,0,1,50.572,49.176Zm-.4-8.763a2.383,2.383,0,0,0-1.85.756,3.484,3.484,0,0,0-.813,2.092H52.55a3.208,3.208,0,0,0-.615-2.114A2.165,2.165,0,0,0,50.177,40.413ZM63.193,49V42.769a2.514,2.514,0,0,0-.536-1.758,2.184,2.184,0,0,0-1.679-.58,2.769,2.769,0,0,0-2.215.817,4.127,4.127,0,0,0-.7,2.7V49H56.6V39.367h1.187l.237,1.318h.07a2.979,2.979,0,0,1,1.257-1.1,4.084,4.084,0,0,1,1.8-.391,3.659,3.659,0,0,1,2.619.839,3.572,3.572,0,0,1,.879,2.685V49Zm12.981.176a4.111,4.111,0,0,1-3.239-1.288,5.3,5.3,0,0,1-1.147-3.643,5.46,5.46,0,0,1,1.165-3.735,4.193,4.193,0,0,1,3.318-1.318,6.584,6.584,0,0,1,1.389.149,4.575,4.575,0,0,1,1.09.352L78.3,40.932a6.86,6.86,0,0,0-1.055-.321,4.709,4.709,0,0,0-1.011-.127q-2.936,0-2.936,3.744a4.458,4.458,0,0,0,.716,2.725,2.492,2.492,0,0,0,2.123.949,6.49,6.49,0,0,0,2.47-.519v1.292A5.264,5.264,0,0,1,76.175,49.176Zm13.034-5a5.314,5.314,0,0,1-1.187,3.678,4.179,4.179,0,0,1-3.278,1.323,4.342,4.342,0,0,1-2.294-.606,4,4,0,0,1-1.547-1.74,6.065,6.065,0,0,1-.545-2.654,5.306,5.306,0,0,1,1.178-3.669,4.165,4.165,0,0,1,3.27-1.314,4.075,4.075,0,0,1,3.212,1.345A5.291,5.291,0,0,1,89.209,44.175Zm-7.339,0a4.572,4.572,0,0,0,.738,2.813,2.93,2.93,0,0,0,4.346,0,4.549,4.549,0,0,0,.743-2.817,4.476,4.476,0,0,0-.743-2.791,2.609,2.609,0,0,0-2.193-.954,2.568,2.568,0,0,0-2.162.94A4.526,4.526,0,0,0,81.87,44.175ZM98.358,49V42.769a2.514,2.514,0,0,0-.536-1.758,2.184,2.184,0,0,0-1.679-.58,2.769,2.769,0,0,0-2.215.817,4.127,4.127,0,0,0-.7,2.7V49H91.767V39.367h1.187l.237,1.318h.07a2.979,2.979,0,0,1,1.257-1.1,4.084,4.084,0,0,1,1.8-.391,3.659,3.659,0,0,1,2.619.839,3.572,3.572,0,0,1,.879,2.685V49Zm7.567-1.028a4.766,4.766,0,0,0,.747-.057,4.836,4.836,0,0,0,.571-.119v1.116a2.667,2.667,0,0,1-.7.189,5.247,5.247,0,0,1-.831.075q-2.795,0-2.795-2.944V40.5h-1.38v-.7l1.38-.606.615-2.057h.844v2.232h2.795V40.5h-2.795V46.17a1.95,1.95,0,0,0,.413,1.336A1.438,1.438,0,0,0,105.926,47.972Zm11.558-3.8a5.314,5.314,0,0,1-1.187,3.678,4.179,4.179,0,0,1-3.278,1.323,4.342,4.342,0,0,1-2.294-.606,4,4,0,0,1-1.547-1.74,6.065,6.065,0,0,1-.545-2.654,5.306,5.306,0,0,1,1.178-3.669,4.165,4.165,0,0,1,3.27-1.314,4.075,4.075,0,0,1,3.212,1.345A5.291,5.291,0,0,1,117.483,44.175Zm-7.339,0a4.572,4.572,0,0,0,.738,2.813,2.93,2.93,0,0,0,4.346,0,4.549,4.549,0,0,0,.743-2.817,4.476,4.476,0,0,0-.743-2.791,2.609,2.609,0,0,0-2.193-.954,2.568,2.568,0,0,0-2.162.94A4.526,4.526,0,0,0,110.145,44.175Zm14.291-4.983a5.709,5.709,0,0,1,1.151.105l-.2,1.354a4.97,4.97,0,0,0-1.055-.132,2.567,2.567,0,0,0-2,.949,3.461,3.461,0,0,0-.831,2.364V49h-1.459V39.367h1.2l.167,1.784h.07a4.234,4.234,0,0,1,1.292-1.45A2.908,2.908,0,0,1,124.436,39.191ZM133.98,49V42.769a2.514,2.514,0,0,0-.536-1.758,2.184,2.184,0,0,0-1.679-.58,2.769,2.769,0,0,0-2.215.817,4.127,4.127,0,0,0-.7,2.7V49h-1.459V39.367h1.187l.237,1.318h.07a2.979,2.979,0,0,1,1.257-1.1,4.084,4.084,0,0,1,1.8-.391,3.659,3.659,0,0,1,2.619.839,3.572,3.572,0,0,1,.879,2.685V49Zm12.771-4.825a5.314,5.314,0,0,1-1.187,3.678,4.179,4.179,0,0,1-3.278,1.323,4.342,4.342,0,0,1-2.294-.606,4,4,0,0,1-1.547-1.74,6.065,6.065,0,0,1-.545-2.654,5.306,5.306,0,0,1,1.178-3.669,4.165,4.165,0,0,1,3.27-1.314,4.075,4.075,0,0,1,3.212,1.345A5.291,5.291,0,0,1,146.751,44.175Zm-7.339,0a4.572,4.572,0,0,0,.738,2.813,2.93,2.93,0,0,0,4.346,0,4.549,4.549,0,0,0,.743-2.817,4.476,4.476,0,0,0-.743-2.791,2.609,2.609,0,0,0-2.193-.954,2.568,2.568,0,0,0-2.162.94A4.526,4.526,0,0,0,139.412,44.175ZM12.023,72.452A6.487,6.487,0,0,1,10.3,77.317,6.833,6.833,0,0,1,5.326,79H1.767V66.15H5.7a6.3,6.3,0,0,1,4.658,1.661A6.273,6.273,0,0,1,12.023,72.452Zm-1.582.053A5.173,5.173,0,0,0,9.18,68.717a5.054,5.054,0,0,0-3.749-1.274H3.261V77.708H5.08A5.532,5.532,0,0,0,9.1,76.394,5.2,5.2,0,0,0,10.441,72.5Zm12.542,1.67A5.314,5.314,0,0,1,21.8,77.853a4.179,4.179,0,0,1-3.278,1.323,4.342,4.342,0,0,1-2.294-.606,4,4,0,0,1-1.547-1.74,6.065,6.065,0,0,1-.545-2.654,5.306,5.306,0,0,1,1.178-3.669,4.165,4.165,0,0,1,3.27-1.314,4.075,4.075,0,0,1,3.212,1.345A5.291,5.291,0,0,1,22.983,74.175Zm-7.339,0a4.572,4.572,0,0,0,.738,2.813,2.563,2.563,0,0,0,2.171.967,2.58,2.58,0,0,0,2.175-.962,4.549,4.549,0,0,0,.743-2.817,4.476,4.476,0,0,0-.743-2.791,2.609,2.609,0,0,0-2.193-.954,2.568,2.568,0,0,0-2.162.94A4.526,4.526,0,0,0,15.645,74.175Zm14.379-4.966a3.581,3.581,0,0,1,2.949,1.3,6.941,6.941,0,0,1-.009,7.356,3.566,3.566,0,0,1-2.94,1.314,4.169,4.169,0,0,1-1.718-.347A3.231,3.231,0,0,1,27,77.761h-.105L26.587,79H25.541V65.324H27v3.322q0,1.116-.07,2H27A3.463,3.463,0,0,1,30.023,69.209Zm-.211,1.222a2.547,2.547,0,0,0-2.153.857A4.834,4.834,0,0,0,27,74.175a4.821,4.821,0,0,0,.677,2.9,2.574,2.574,0,0,0,2.171.875,2.25,2.25,0,0,0,2-.98,5.037,5.037,0,0,0,.659-2.817,4.84,4.84,0,0,0-.659-2.8A2.336,2.336,0,0,0,29.813,70.431ZM38.03,79H36.571V65.324H38.03Zm9.018,0-.29-1.371h-.07a4.053,4.053,0,0,1-1.437,1.226,4.38,4.38,0,0,1-1.789.321,3.217,3.217,0,0,1-2.246-.738,2.693,2.693,0,0,1-.813-2.1q0-2.918,4.667-3.059l1.635-.053v-.6a2.442,2.442,0,0,0-.488-1.674,2.006,2.006,0,0,0-1.56-.541,6.357,6.357,0,0,0-2.725.738l-.448-1.116a6.856,6.856,0,0,1,1.56-.606,6.757,6.757,0,0,1,1.7-.22,3.669,3.669,0,0,1,2.553.765,3.192,3.192,0,0,1,.831,2.452V79Zm-3.3-1.028a2.961,2.961,0,0,0,2.14-.747,2.764,2.764,0,0,0,.778-2.092v-.87l-1.459.062a5.307,5.307,0,0,0-2.509.541,1.63,1.63,0,0,0-.769,1.49,1.5,1.5,0,0,0,.479,1.2A1.988,1.988,0,0,0,43.752,77.972Zm13.939-.264h-.079a3.428,3.428,0,0,1-3.023,1.468,3.577,3.577,0,0,1-2.94-1.292A5.687,5.687,0,0,1,50.6,74.21a5.783,5.783,0,0,1,1.055-3.7,3.549,3.549,0,0,1,2.936-1.318,3.5,3.5,0,0,1,3.006,1.424h.114l-.062-.694-.035-.677v-3.92h1.459V79H57.885Zm-2.918.246a2.656,2.656,0,0,0,2.167-.813,4.108,4.108,0,0,0,.672-2.624V74.21a4.834,4.834,0,0,0-.681-2.922,2.587,2.587,0,0,0-2.175-.875,2.233,2.233,0,0,0-1.964,1,4.96,4.96,0,0,0-.681,2.817,4.755,4.755,0,0,0,.677,2.786A2.292,2.292,0,0,0,54.773,77.954ZM63.624,79H62.165V69.367h1.459ZM62.042,66.757a.969.969,0,0,1,.246-.734.911.911,0,0,1,1.222,0,.951.951,0,0,1,.255.729.966.966,0,0,1-.255.734.893.893,0,0,1-1.222,0A.987.987,0,0,1,62.042,66.757ZM68.177,79H66.718V65.324h1.459Zm4.553,0H71.271V65.324h1.459Zm11.408-4.825a5.314,5.314,0,0,1-1.187,3.678,4.179,4.179,0,0,1-3.278,1.323,4.342,4.342,0,0,1-2.294-.606,4,4,0,0,1-1.547-1.74,6.065,6.065,0,0,1-.545-2.654,5.306,5.306,0,0,1,1.178-3.669,4.165,4.165,0,0,1,3.27-1.314,4.075,4.075,0,0,1,3.212,1.345A5.291,5.291,0,0,1,84.138,74.175Zm-7.339,0a4.572,4.572,0,0,0,.738,2.813,2.93,2.93,0,0,0,4.346,0,4.549,4.549,0,0,0,.743-2.817,4.476,4.476,0,0,0-.743-2.791,2.609,2.609,0,0,0-2.193-.954,2.568,2.568,0,0,0-2.162.94A4.526,4.526,0,0,0,76.8,74.175Zm9.686,3.894a1.309,1.309,0,0,1,.268-.892.972.972,0,0,1,.769-.3,1.04,1.04,0,0,1,.8.3,1.255,1.255,0,0,1,.286.892,1.233,1.233,0,0,1-.29.879,1.153,1.153,0,0,1-1.534.031A1.2,1.2,0,0,1,86.484,78.068Zm0-7.761q0-1.187,1.037-1.187,1.081,0,1.081,1.187a1.233,1.233,0,0,1-.29.879,1.153,1.153,0,0,1-1.534.031A1.2,1.2,0,0,1,86.484,70.308Zm16.972-1.134a2.93,2.93,0,0,1-.69,2.013,3.454,3.454,0,0,1-1.956,1.046v.07a3.678,3.678,0,0,1,2.294.984,2.9,2.9,0,0,1,.747,2.074,3.365,3.365,0,0,1-1.274,2.826,5.8,5.8,0,0,1-3.621.989,10.5,10.5,0,0,1-1.868-.154,6.392,6.392,0,0,1-1.648-.541V77.093a8.416,8.416,0,0,0,3.568.844q3.331,0,3.331-2.61,0-2.338-3.674-2.338H97.4V71.731h1.283a3.864,3.864,0,0,0,2.382-.664,2.177,2.177,0,0,0,.879-1.841,1.815,1.815,0,0,0-.646-1.477,2.662,2.662,0,0,0-1.753-.536,5.41,5.41,0,0,0-1.591.229,7.119,7.119,0,0,0-1.705.844l-.738-.984a6.155,6.155,0,0,1,1.824-.98,6.628,6.628,0,0,1,2.175-.356,4.445,4.445,0,0,1,2.909.857A2.886,2.886,0,0,1,103.456,69.174Zm11.522,10a4.111,4.111,0,0,1-3.239-1.288,5.3,5.3,0,0,1-1.147-3.643,5.46,5.46,0,0,1,1.165-3.735,4.193,4.193,0,0,1,3.318-1.318,6.584,6.584,0,0,1,1.389.149,4.575,4.575,0,0,1,1.09.352l-.448,1.239a6.86,6.86,0,0,0-1.055-.321,4.709,4.709,0,0,0-1.011-.127q-2.936,0-2.936,3.744a4.458,4.458,0,0,0,.716,2.725,2.492,2.492,0,0,0,2.123.949,6.49,6.49,0,0,0,2.47-.519v1.292A5.264,5.264,0,0,1,114.979,79.176Zm17-.176V72.733a2.6,2.6,0,0,0-.492-1.727,1.9,1.9,0,0,0-1.529-.576,2.469,2.469,0,0,0-2.013.782,3.718,3.718,0,0,0-.65,2.408V79h-1.459V72.733a2.6,2.6,0,0,0-.492-1.727,1.915,1.915,0,0,0-1.538-.576,2.382,2.382,0,0,0-2.008.822,4.447,4.447,0,0,0-.637,2.694V79H119.7V69.367h1.187l.237,1.318h.07a2.867,2.867,0,0,1,1.165-1.1,3.558,3.558,0,0,1,1.683-.4,2.862,2.862,0,0,1,2.953,1.635h.07a3.072,3.072,0,0,1,1.248-1.2,3.873,3.873,0,0,1,1.863-.439,3.262,3.262,0,0,1,2.448.839,3.755,3.755,0,0,1,.813,2.685V79Zm10.679-2.628a2.413,2.413,0,0,1-1,2.074,4.71,4.71,0,0,1-2.812.729,6.116,6.116,0,0,1-2.988-.606V77.216a7.227,7.227,0,0,0,1.49.554,6.221,6.221,0,0,0,1.534.2,3.478,3.478,0,0,0,1.758-.365,1.256,1.256,0,0,0,.127-2.074,7.673,7.673,0,0,0-1.9-.945,10.318,10.318,0,0,1-1.912-.875,2.611,2.611,0,0,1-.844-.848,2.212,2.212,0,0,1-.277-1.134,2.161,2.161,0,0,1,.958-1.859,4.464,4.464,0,0,1,2.628-.681,7.689,7.689,0,0,1,3.041.633l-.519,1.187a6.98,6.98,0,0,0-2.628-.6,3.023,3.023,0,0,0-1.564.325,1.006,1.006,0,0,0-.527.9,1.092,1.092,0,0,0,.2.659,1.952,1.952,0,0,0,.637.519,14.24,14.24,0,0,0,1.688.712,6.3,6.3,0,0,1,2.316,1.257A2.216,2.216,0,0,1,142.655,76.372Z" transform="translate(775 2200)" fill="#00223d"/>
    <path id="Trazado_11928" data-name="Trazado 11928" d="M1092,699l28,77.207V699" transform="translate(-550 1344)" fill="none" stroke="#000" stroke-width="1" stroke-dasharray="3"/>
    <path id="Trazado_12862" data-name="Trazado 12862" d="M5,0A5,5,0,1,1,0,5,5,5,0,0,1,5,0Z" transform="translate(489 2500)" fill="#00a99a"/>
    <path id="Trazado_12832" data-name="Trazado 12832" d="M5,0A5,5,0,1,1,0,5,5,5,0,0,1,5,0Z" transform="translate(469 2034)" fill="#ed3a3a"/>
    <path id="Trazado_12837" data-name="Trazado 12837" d="M5,0A5,5,0,1,1,0,5,5,5,0,0,1,5,0Z" transform="translate(537 2034)" fill="#ed3a3a"/>
    <path id="Trazado_12843" data-name="Trazado 12843" d="M5,0A5,5,0,1,1,0,5,5,5,0,0,1,5,0Z" transform="translate(551 2023)" fill="#ed3a3a"/>
    <path id="Trazado_12849" data-name="Trazado 12849" d="M5,0A5,5,0,1,1,0,5,5,5,0,0,1,5,0Z" transform="translate(565 2030)" fill="#ed3a3a"/>
    <path id="Trazado_12857" data-name="Trazado 12857" d="M5,0A5,5,0,1,1,0,5,5,5,0,0,1,5,0Z" transform="translate(635 2018)" fill="#ed3a3a"/>
    <path id="Trazado_12864" data-name="Trazado 12864" d="M5,0A5,5,0,1,1,0,5,5,5,0,0,1,5,0Z" transform="translate(659 2163)" fill="#ed3a3a"/>
    <path id="Trazado_12865" data-name="Trazado 12865" d="M5,0A5,5,0,1,1,0,5,5,5,0,0,1,5,0Z" transform="translate(659 2484)" fill="#ed3a3a"/>
    <path id="Trazado_12858" data-name="Trazado 12858" d="M5,0A5,5,0,1,1,0,5,5,5,0,0,1,5,0Z" transform="translate(470 2484)" fill="#ed3a3a"/>
    <path id="Trazado_12856" data-name="Trazado 12856" d="M5.4-9.8a5.444,5.444,0,0,1,2.261.434A3.359,3.359,0,0,1,9.142-8.134a3.394,3.394,0,0,1,.518,1.89,3.4,3.4,0,0,1-.518,1.883A3.3,3.3,0,0,1,7.665-3.129,5.522,5.522,0,0,1,5.4-2.7H3.43V0H1.162V-9.8ZM5.278-4.55a2.382,2.382,0,0,0,1.554-.441,1.536,1.536,0,0,0,.532-1.253,1.552,1.552,0,0,0-.532-1.267,2.382,2.382,0,0,0-1.554-.441H3.43v3.4Zm8.806-3.094a3.92,3.92,0,0,1,2.688.833A3.188,3.188,0,0,1,17.71-4.3V0H15.666V-.938a2.434,2.434,0,0,1-2.3,1.05,3.563,3.563,0,0,1-1.505-.294,2.244,2.244,0,0,1-.973-.812,2.113,2.113,0,0,1-.336-1.176,1.962,1.962,0,0,1,.791-1.652,4.031,4.031,0,0,1,2.443-.6h1.736a1.392,1.392,0,0,0-.434-1.1,1.912,1.912,0,0,0-1.3-.385,3.8,3.8,0,0,0-1.183.189,3.13,3.13,0,0,0-.987.511l-.784-1.526a4.73,4.73,0,0,1,1.477-.672A6.616,6.616,0,0,1,14.084-7.644Zm-.168,6.286a1.9,1.9,0,0,0,.994-.259,1.417,1.417,0,0,0,.616-.763v-.77h-1.5q-1.344,0-1.344.882a.785.785,0,0,0,.329.665A1.482,1.482,0,0,0,13.916-1.358Zm10.626.994a2.245,2.245,0,0,1-.791.357,4,4,0,0,1-.987.119,2.932,2.932,0,0,1-2.079-.686A2.625,2.625,0,0,1,19.95-2.59V-5.684H18.788v-1.68H19.95V-9.2h2.184v1.834H24.01v1.68H22.134v3.066a1.028,1.028,0,0,0,.245.735.908.908,0,0,0,.693.259,1.4,1.4,0,0,0,.882-.28ZM27.86-6.538a2.429,2.429,0,0,1,1.057-.826,3.923,3.923,0,0,1,1.533-.28v2.016q-.364-.028-.49-.028a2,2,0,0,0-1.47.525,2.122,2.122,0,0,0-.532,1.575V0H25.774V-7.532H27.86ZM35.266.112a4.516,4.516,0,0,1-2.135-.5,3.7,3.7,0,0,1-1.477-1.379,3.8,3.8,0,0,1-.532-2,3.8,3.8,0,0,1,.532-2,3.7,3.7,0,0,1,1.477-1.379,4.516,4.516,0,0,1,2.135-.5,4.475,4.475,0,0,1,2.128.5,3.706,3.706,0,0,1,1.47,1.379,3.8,3.8,0,0,1,.532,2,3.8,3.8,0,0,1-.532,2,3.706,3.706,0,0,1-1.47,1.379A4.475,4.475,0,0,1,35.266.112Zm0-1.792a1.819,1.819,0,0,0,1.379-.567,2.114,2.114,0,0,0,.539-1.519,2.114,2.114,0,0,0-.539-1.519,1.819,1.819,0,0,0-1.379-.567,1.842,1.842,0,0,0-1.386.567,2.1,2.1,0,0,0-.546,1.519,2.1,2.1,0,0,0,.546,1.519A1.842,1.842,0,0,0,35.266-1.68Zm.588-8.834h2.352L35.672-8.5H33.964Zm9.576,2.87a3.1,3.1,0,0,1,2.261.84,3.331,3.331,0,0,1,.861,2.492V0H46.368V-3.976a1.963,1.963,0,0,0-.392-1.337,1.438,1.438,0,0,0-1.134-.441,1.738,1.738,0,0,0-1.316.511,2.116,2.116,0,0,0-.49,1.519V0H40.852V-7.532h2.086v.882a2.9,2.9,0,0,1,1.078-.735A3.756,3.756,0,0,1,45.43-7.644ZM63.63-9.8V0H61.768L56.882-5.95V0h-2.24V-9.8h1.876L61.39-3.85V-9.8ZM69.384.112a4.516,4.516,0,0,1-2.135-.5,3.7,3.7,0,0,1-1.477-1.379,3.8,3.8,0,0,1-.532-2,3.8,3.8,0,0,1,.532-2,3.7,3.7,0,0,1,1.477-1.379,4.516,4.516,0,0,1,2.135-.5,4.475,4.475,0,0,1,2.128.5,3.706,3.706,0,0,1,1.47,1.379,3.8,3.8,0,0,1,.532,2,3.8,3.8,0,0,1-.532,2,3.706,3.706,0,0,1-1.47,1.379A4.475,4.475,0,0,1,69.384.112Zm0-1.792a1.819,1.819,0,0,0,1.379-.567A2.114,2.114,0,0,0,71.3-3.766a2.114,2.114,0,0,0-.539-1.519,1.819,1.819,0,0,0-1.379-.567A1.842,1.842,0,0,0,68-5.285a2.1,2.1,0,0,0-.546,1.519A2.1,2.1,0,0,0,68-2.247,1.842,1.842,0,0,0,69.384-1.68ZM82.25-9.8V0H79.982V-7.98h-1.96V-9.8Zm-72.1,20V20H8.288L3.4,14.05V20H1.162V10.2H3.038L7.91,16.15V10.2ZM15.9,20.112a4.516,4.516,0,0,1-2.135-.5,3.7,3.7,0,0,1-1.477-1.379,4.033,4.033,0,0,1,0-4,3.7,3.7,0,0,1,1.477-1.379,4.819,4.819,0,0,1,4.263,0,3.706,3.706,0,0,1,1.47,1.379,4.033,4.033,0,0,1,0,4,3.706,3.706,0,0,1-1.47,1.379A4.475,4.475,0,0,1,15.9,20.112Zm0-1.792a1.819,1.819,0,0,0,1.379-.567,2.114,2.114,0,0,0,.539-1.519,2.114,2.114,0,0,0-.539-1.519,1.819,1.819,0,0,0-1.379-.567,1.842,1.842,0,0,0-1.386.567,2.1,2.1,0,0,0-.546,1.519,2.1,2.1,0,0,0,.546,1.519A1.842,1.842,0,0,0,15.9,18.32Zm15.232-5.964a3.036,3.036,0,0,1,2.247.833,3.394,3.394,0,0,1,.833,2.5V20H32.032V16.024a2.041,2.041,0,0,0-.371-1.337,1.3,1.3,0,0,0-1.057-.441,1.558,1.558,0,0,0-1.218.5,2.142,2.142,0,0,0-.448,1.477V20H26.754V16.024q0-1.778-1.428-1.778a1.541,1.541,0,0,0-1.2.5,2.142,2.142,0,0,0-.448,1.477V20H21.49V12.468h2.086v.868a2.757,2.757,0,0,1,1.029-.728,3.463,3.463,0,0,1,1.337-.252,3.238,3.238,0,0,1,1.442.315,2.554,2.554,0,0,1,1.036.917,3.09,3.09,0,0,1,1.169-.91A3.688,3.688,0,0,1,31.136,12.356Zm9.492,0a3.838,3.838,0,0,1,1.911.483A3.468,3.468,0,0,1,43.89,14.2a4.1,4.1,0,0,1,.49,2.037,4.1,4.1,0,0,1-.49,2.037,3.468,3.468,0,0,1-1.351,1.358,3.838,3.838,0,0,1-1.911.483,2.9,2.9,0,0,1-2.366-.98V20H36.176V9.612H38.36v3.654A2.909,2.909,0,0,1,40.628,12.356ZM40.25,18.32a1.819,1.819,0,0,0,1.379-.567,2.114,2.114,0,0,0,.539-1.519,2.114,2.114,0,0,0-.539-1.519,1.96,1.96,0,0,0-2.758,0,2.114,2.114,0,0,0-.539,1.519,2.114,2.114,0,0,0,.539,1.519A1.819,1.819,0,0,0,40.25,18.32Zm7.672-4.858a2.429,2.429,0,0,1,1.057-.826,3.923,3.923,0,0,1,1.533-.28v2.016q-.364-.028-.49-.028a2,2,0,0,0-1.47.525,2.122,2.122,0,0,0-.532,1.575V20H45.836V12.468h2.086Zm11.2,2.8q0,.042-.042.588h-5.7a1.775,1.775,0,0,0,.728,1.106,2.411,2.411,0,0,0,1.428.406,2.892,2.892,0,0,0,1.043-.175,2.526,2.526,0,0,0,.847-.553l1.162,1.26a3.905,3.905,0,0,1-3.108,1.218,4.917,4.917,0,0,1-2.254-.5,3.643,3.643,0,0,1-1.512-1.379,3.8,3.8,0,0,1-.532-2,3.849,3.849,0,0,1,.525-2,3.678,3.678,0,0,1,1.442-1.386,4.464,4.464,0,0,1,4.053-.021A3.474,3.474,0,0,1,58.611,14.2,4.07,4.07,0,0,1,59.122,16.262Zm-3.906-2.254a1.881,1.881,0,0,0-1.246.42,1.788,1.788,0,0,0-.616,1.148h3.71a1.806,1.806,0,0,0-.616-1.141A1.841,1.841,0,0,0,55.216,14.008Zm17-4.4V20H70.126v-.868a2.88,2.88,0,0,1-2.352.98,3.911,3.911,0,0,1-1.925-.476A3.408,3.408,0,0,1,64.5,18.278a4.14,4.14,0,0,1-.49-2.044,4.14,4.14,0,0,1,.49-2.044,3.408,3.408,0,0,1,1.351-1.358,3.911,3.911,0,0,1,1.925-.476,2.865,2.865,0,0,1,2.254.91V9.612Zm-4.06,8.708a1.825,1.825,0,0,0,1.372-.567,2.1,2.1,0,0,0,.546-1.519,2.1,2.1,0,0,0-.546-1.519,1.96,1.96,0,0,0-2.758,0,2.1,2.1,0,0,0-.546,1.519,2.1,2.1,0,0,0,.546,1.519A1.842,1.842,0,0,0,68.152,18.32Zm13.454-2.058q0,.042-.042.588h-5.7a1.775,1.775,0,0,0,.728,1.106,2.411,2.411,0,0,0,1.428.406,2.892,2.892,0,0,0,1.043-.175,2.526,2.526,0,0,0,.847-.553l1.162,1.26a3.905,3.905,0,0,1-3.108,1.218,4.917,4.917,0,0,1-2.254-.5A3.643,3.643,0,0,1,74.2,18.236a3.8,3.8,0,0,1-.532-2,3.849,3.849,0,0,1,.525-2,3.678,3.678,0,0,1,1.442-1.386,4.464,4.464,0,0,1,4.053-.021A3.474,3.474,0,0,1,81.1,14.2,4.07,4.07,0,0,1,81.606,16.262ZM77.7,14.008a1.881,1.881,0,0,0-1.246.42,1.788,1.788,0,0,0-.616,1.148h3.71a1.806,1.806,0,0,0-.616-1.141A1.841,1.841,0,0,0,77.7,14.008Zm5.362-4.4h2.184V20H83.062ZM95.69,12.356a3.838,3.838,0,0,1,1.911.483A3.468,3.468,0,0,1,98.952,14.2a4.1,4.1,0,0,1,.49,2.037,4.1,4.1,0,0,1-.49,2.037A3.468,3.468,0,0,1,97.6,19.629a3.838,3.838,0,0,1-1.911.483,2.909,2.909,0,0,1-2.268-.91v3.514H91.238V12.468h2.086v.868A2.9,2.9,0,0,1,95.69,12.356Zm-.378,5.964a1.819,1.819,0,0,0,1.379-.567,2.114,2.114,0,0,0,.539-1.519,2.114,2.114,0,0,0-.539-1.519,1.96,1.96,0,0,0-2.758,0,2.114,2.114,0,0,0-.539,1.519,2.114,2.114,0,0,0,.539,1.519A1.819,1.819,0,0,0,95.312,18.32Zm8.5-5.964a3.92,3.92,0,0,1,2.688.833,3.188,3.188,0,0,1,.938,2.513V20h-2.044v-.938a2.434,2.434,0,0,1-2.3,1.05,3.563,3.563,0,0,1-1.5-.294,2.244,2.244,0,0,1-.973-.812,2.113,2.113,0,0,1-.336-1.176,1.962,1.962,0,0,1,.791-1.652,4.031,4.031,0,0,1,2.443-.6h1.736a1.392,1.392,0,0,0-.434-1.1,1.912,1.912,0,0,0-1.3-.385,3.8,3.8,0,0,0-1.183.189,3.13,3.13,0,0,0-.987.511l-.784-1.526a4.73,4.73,0,0,1,1.477-.672A6.616,6.616,0,0,1,103.81,12.356Zm-.168,6.286a1.9,1.9,0,0,0,.994-.259,1.417,1.417,0,0,0,.616-.763v-.77h-1.5q-1.344,0-1.344.882a.785.785,0,0,0,.329.665A1.482,1.482,0,0,0,103.642,18.642Zm10.626.994a2.245,2.245,0,0,1-.791.357,4,4,0,0,1-.987.119,2.932,2.932,0,0,1-2.079-.686,2.625,2.625,0,0,1-.735-2.016V14.316h-1.162v-1.68h1.162V10.8h2.184v1.834h1.876v1.68H111.86v3.066a1.028,1.028,0,0,0,.245.735.908.908,0,0,0,.693.259,1.4,1.4,0,0,0,.882-.28Zm3.318-6.174a2.429,2.429,0,0,1,1.057-.826,3.923,3.923,0,0,1,1.533-.28v2.016q-.364-.028-.49-.028a2,2,0,0,0-1.47.525,2.122,2.122,0,0,0-.532,1.575V20H115.5V12.468h2.086Zm7.406,6.65a4.516,4.516,0,0,1-2.135-.5,3.7,3.7,0,0,1-1.477-1.379,4.033,4.033,0,0,1,0-4,3.7,3.7,0,0,1,1.477-1.379,4.819,4.819,0,0,1,4.263,0,3.706,3.706,0,0,1,1.47,1.379,4.033,4.033,0,0,1,0,4,3.706,3.706,0,0,1-1.47,1.379A4.475,4.475,0,0,1,124.992,20.112Zm0-1.792a1.819,1.819,0,0,0,1.379-.567,2.114,2.114,0,0,0,.539-1.519,2.114,2.114,0,0,0-.539-1.519,1.819,1.819,0,0,0-1.379-.567,1.842,1.842,0,0,0-1.386.567,2.1,2.1,0,0,0-.546,1.519,2.1,2.1,0,0,0,.546,1.519A1.842,1.842,0,0,0,124.992,18.32Zm10.164-5.964a3.1,3.1,0,0,1,2.261.84,3.331,3.331,0,0,1,.861,2.492V20h-2.184V16.024a1.963,1.963,0,0,0-.392-1.337,1.438,1.438,0,0,0-1.134-.441,1.738,1.738,0,0,0-1.316.511,2.116,2.116,0,0,0-.49,1.519V20h-2.184V12.468h2.086v.882a2.9,2.9,0,0,1,1.078-.735A3.756,3.756,0,0,1,135.156,12.356Zm5.1.112h2.184V20h-2.184Zm1.092-1.05a1.385,1.385,0,0,1-.98-.35,1.186,1.186,0,0,1,0-1.736,1.385,1.385,0,0,1,.98-.35,1.42,1.42,0,0,1,.98.336,1.077,1.077,0,0,1,.378.84,1.189,1.189,0,0,1-.378.9A1.369,1.369,0,0,1,141.344,11.418ZM147,20.112a7.317,7.317,0,0,1-1.834-.231,4.792,4.792,0,0,1-1.428-.581l.728-1.568a4.582,4.582,0,0,0,1.218.525,5.1,5.1,0,0,0,1.4.2q1.386,0,1.386-.686a.486.486,0,0,0-.378-.462,5.6,5.6,0,0,0-1.162-.238,11.21,11.21,0,0,1-1.526-.322,2.367,2.367,0,0,1-1.043-.644,1.831,1.831,0,0,1-.441-1.316,2.062,2.062,0,0,1,.413-1.267,2.658,2.658,0,0,1,1.2-.861,5.142,5.142,0,0,1,1.869-.308,7.335,7.335,0,0,1,1.589.175,4.441,4.441,0,0,1,1.309.483l-.728,1.554a4.346,4.346,0,0,0-2.17-.56,2.208,2.208,0,0,0-1.05.2.576.576,0,0,0-.35.5.5.5,0,0,0,.378.49,6.692,6.692,0,0,0,1.2.266,12.888,12.888,0,0,1,1.512.329,2.272,2.272,0,0,1,1.022.637,1.808,1.808,0,0,1,.434,1.288,1.989,1.989,0,0,1-.42,1.246,2.681,2.681,0,0,1-1.225.847A5.458,5.458,0,0,1,147,20.112Zm9.758-.476a2.245,2.245,0,0,1-.791.357,4,4,0,0,1-.987.119,2.932,2.932,0,0,1-2.079-.686,2.625,2.625,0,0,1-.735-2.016V14.316H151v-1.68h1.162V10.8h2.184v1.834h1.876v1.68H154.35v3.066a1.028,1.028,0,0,0,.245.735.908.908,0,0,0,.693.259,1.4,1.4,0,0,0,.882-.28Zm4.27-7.28a3.92,3.92,0,0,1,2.688.833,3.188,3.188,0,0,1,.938,2.513V20H162.61v-.938a2.434,2.434,0,0,1-2.3,1.05,3.564,3.564,0,0,1-1.505-.294,2.244,2.244,0,0,1-.973-.812,2.113,2.113,0,0,1-.336-1.176,1.962,1.962,0,0,1,.791-1.652,4.031,4.031,0,0,1,2.443-.6h1.736a1.392,1.392,0,0,0-.434-1.1,1.912,1.912,0,0,0-1.3-.385,3.8,3.8,0,0,0-1.183.189,3.13,3.13,0,0,0-.987.511l-.784-1.526a4.73,4.73,0,0,1,1.477-.672A6.616,6.616,0,0,1,161.028,12.356Zm-.168,6.286a1.9,1.9,0,0,0,.994-.259,1.417,1.417,0,0,0,.616-.763v-.77h-1.5q-1.344,0-1.344.882a.785.785,0,0,0,.329.665A1.482,1.482,0,0,0,160.86,18.642Z" transform="translate(201 2465)" fill="#00a99a"/>
    <g id="Trazado_12868" data-name="Trazado 12868" transform="translate(750 2158)" fill="none">
      <path d="M0,0H279V179H0Z" stroke="none"/>
      <path d="M 1 1 L 1 178 L 278 178 L 278 1 L 1 1 M 0 0 L 279 0 L 279 179 L 0 179 L 0 0 Z" stroke="none" fill="#2b4e6a"/>
    </g>
  </g>
</svg>
