<svg xmlns="http://www.w3.org/2000/svg" width="425.568" height="601" viewBox="0 0 425.568 601">
  <g id="Grupo_8326" data-name="Grupo 8326" transform="translate(-110 -2074)">
    <g id="Grupo_8233" data-name="Grupo 8233" transform="translate(0 839)">
      <rect id="Rectángulo_2182" data-name="Rectángulo 2182" width="425" height="601" transform="translate(110 1235)" fill="#fff"/>
      <path id="Trazado_11913" data-name="Trazado 11913" d="M0,0H425.427V5.332H0Z" transform="translate(110.141 1830.184)" fill="#fed97b"/>
    </g>
    <path id="Trazado_11922" data-name="Trazado 11922" d="M972.008,1222.313v-486.2h82.955l14.787-12.158,14.946,8.988,83.728-14.136s28.267,72.253,27.567,156.866,0,346.636,0,346.636H972.008" transform="translate(-795.008 1389)" fill="none" stroke="#00a99a" stroke-width="2"/>
    <path id="Trazado_12886" data-name="Trazado 12886" d="M5,0A5,5,0,1,1,0,5,5,5,0,0,1,5,0Z" transform="translate(173 2119)" fill="#ed3a3a"/>
    <path id="Trazado_12888" data-name="Trazado 12888" d="M5,0A5,5,0,1,1,0,5,5,5,0,0,1,5,0Z" transform="translate(256 2119)" fill="#ed3a3a"/>
    <path id="Trazado_12892" data-name="Trazado 12892" d="M5,0A5,5,0,1,1,0,5,5,5,0,0,1,5,0Z" transform="translate(270 2108)" fill="#ed3a3a"/>
    <path id="Trazado_12894" data-name="Trazado 12894" d="M5,0A5,5,0,1,1,0,5,5,5,0,0,1,5,0Z" transform="translate(284 2118)" fill="#ed3a3a"/>
    <path id="Trazado_12897" data-name="Trazado 12897" d="M5,0A5,5,0,1,1,0,5,5,5,0,0,1,5,0Z" transform="translate(369 2103)" fill="#ed3a3a"/>
    <path id="Trazado_12898" data-name="Trazado 12898" d="M5,0A5,5,0,1,1,0,5,5,5,0,0,1,5,0Z" transform="translate(396 2269)" fill="#ed3a3a"/>
    <path id="Trazado_12887" data-name="Trazado 12887" d="M5,0A5,5,0,1,1,0,5,5,5,0,0,1,5,0Z" transform="translate(173 2269)" fill="#ed3a3a"/>
    <path id="Trazado_12900" data-name="Trazado 12900" d="M5,0A5,5,0,1,1,0,5,5,5,0,0,1,5,0Z" transform="translate(396 2606)" fill="#ed3a3a"/>
    <path id="Trazado_12901" data-name="Trazado 12901" d="M5,0A5,5,0,1,1,0,5,5,5,0,0,1,5,0Z" transform="translate(173 2606)" fill="#ed3a3a"/>
    <path id="Trazado_11923" data-name="Trazado 11923" d="M1030.135,787.455l16.754-15.5V1089" transform="translate(-831 1450.693)" fill="none" stroke="#00a99a" stroke-width="2"/>
    <path id="Trazado_11924" data-name="Trazado 11924" d="M1092,699l28,77.207V699" transform="translate(-831 1425)" fill="none" stroke="#00a99a" stroke-width="1" stroke-dasharray="3"/>
    <path id="Trazado_12889" data-name="Trazado 12889" d="M3.92-9.12v2.96H9.1v2.08H3.92V0H1.328V-11.2H9.792v2.08ZM18.464-2.4h-5.2L12.272,0H9.616l4.992-11.2h2.56L22.176,0h-2.72Zm-.816-1.968L15.872-8.656,14.1-4.368Zm5.7-6.832h2.592v9.088h5.616V0H23.344Zm9.664,0H38.1a7.151,7.151,0,0,1,3.224.7A5.211,5.211,0,0,1,43.5-8.544,5.513,5.513,0,0,1,44.272-5.6,5.513,5.513,0,0,1,43.5-2.656,5.211,5.211,0,0,1,41.32-.7,7.151,7.151,0,0,1,38.1,0H33.008Zm4.96,9.072a3.764,3.764,0,0,0,2.68-.936,3.306,3.306,0,0,0,1-2.536,3.306,3.306,0,0,0-1-2.536,3.764,3.764,0,0,0-2.68-.936H35.6v6.944ZM53.44-2.4h-5.2L47.248,0H44.592l4.992-11.2h2.56L57.152,0h-2.72Zm-.816-1.968L50.848-8.656,49.072-4.368ZM71.072-5.824a2.953,2.953,0,0,1,1.5,1.016,2.8,2.8,0,0,1,.544,1.752A2.588,2.588,0,0,1,71.976-.792,5.848,5.848,0,0,1,68.64,0H62.848V-11.2H68.32a5.356,5.356,0,0,1,3.144.784,2.482,2.482,0,0,1,1.1,2.128,2.731,2.731,0,0,1-.392,1.456A2.746,2.746,0,0,1,71.072-5.824ZM65.424-9.248v2.64H68a2.6,2.6,0,0,0,1.456-.336,1.121,1.121,0,0,0,.5-.992,1.1,1.1,0,0,0-.5-.984A2.651,2.651,0,0,0,68-9.248Zm3.024,7.3a2.872,2.872,0,0,0,1.544-.336,1.151,1.151,0,0,0,.52-1.04q0-1.392-2.064-1.392H65.424v2.768ZM82.464-2.4h-5.2L76.272,0H73.616l4.992-11.2h2.56L86.176,0h-2.72Zm-.816-1.968L79.872-8.656,78.1-4.368ZM80.592-14.416H83.28l-2.9,2.3H78.432ZM91.024.192a9.164,9.164,0,0,1-2.568-.36A6.023,6.023,0,0,1,86.464-1.1l.88-1.952a5.971,5.971,0,0,0,1.712.848,6.43,6.43,0,0,0,1.984.32,3.17,3.17,0,0,0,1.632-.328.991.991,0,0,0,.528-.872.834.834,0,0,0-.312-.664,2.365,2.365,0,0,0-.8-.424q-.488-.16-1.32-.352a18.247,18.247,0,0,1-2.1-.608,3.405,3.405,0,0,1-1.4-.976A2.636,2.636,0,0,1,86.688-7.9a3.117,3.117,0,0,1,.528-1.768,3.552,3.552,0,0,1,1.592-1.256,6.5,6.5,0,0,1,2.6-.464,8.609,8.609,0,0,1,2.1.256A6.192,6.192,0,0,1,95.3-10.4l-.8,1.968a6.245,6.245,0,0,0-3.1-.88,2.91,2.91,0,0,0-1.608.352,1.074,1.074,0,0,0-.52.928.907.907,0,0,0,.6.856,9.42,9.42,0,0,0,1.832.552,18.247,18.247,0,0,1,2.1.608,3.471,3.471,0,0,1,1.4.96,2.574,2.574,0,0,1,.584,1.776,3.058,3.058,0,0,1-.536,1.752A3.6,3.6,0,0,1,93.632-.272,6.555,6.555,0,0,1,91.024.192ZM97.552-11.2h2.592V0H97.552ZM108.16.192a6.433,6.433,0,0,1-3.1-.744,5.552,5.552,0,0,1-2.176-2.064A5.687,5.687,0,0,1,102.1-5.6a5.687,5.687,0,0,1,.792-2.984,5.552,5.552,0,0,1,2.176-2.064,6.467,6.467,0,0,1,3.112-.744,6.527,6.527,0,0,1,2.632.512,5.272,5.272,0,0,1,1.976,1.472L111.12-7.872A3.578,3.578,0,0,0,108.3-9.184a3.739,3.739,0,0,0-1.856.456,3.242,3.242,0,0,0-1.272,1.272A3.739,3.739,0,0,0,104.72-5.6a3.739,3.739,0,0,0,.456,1.856,3.242,3.242,0,0,0,1.272,1.272,3.739,3.739,0,0,0,1.856.456,3.561,3.561,0,0,0,2.816-1.328l1.664,1.536A5.187,5.187,0,0,1,110.8-.32,6.585,6.585,0,0,1,108.16.192ZM121.68-2.4h-5.2L115.488,0h-2.656l4.992-11.2h2.56L125.392,0h-2.72Zm-.816-1.968-1.776-4.288-1.776,4.288Z" transform="translate(235 2335)" fill="#3b1f10"/>
    <path id="Trazado_12890" data-name="Trazado 12890" d="M3.648-9.088H.064V-11.2h9.76v2.112H6.24V0H3.648ZM18.032-2.4h-5.2L11.84,0H9.184l4.992-11.2h2.56L21.744,0h-2.72Zm-.816-1.968L15.44-8.656,13.664-4.368Zm5.7-6.832H25.5v9.088H31.12V0H22.912Zm9.664,0h2.592v9.088h5.616V0H32.576ZM49.712-2.4h-5.2L43.52,0H40.864l4.992-11.2h2.56L53.424,0H50.7ZM48.9-4.368,47.12-8.656,45.344-4.368ZM66.08-5.888A3.169,3.169,0,0,1,67.352-4.8a2.769,2.769,0,0,1,.44,1.552A2.909,2.909,0,0,1,67.2-1.432a3.78,3.78,0,0,1-1.664,1.2,6.711,6.711,0,0,1-2.48.424,6.648,6.648,0,0,1-2.472-.424,3.728,3.728,0,0,1-1.648-1.2,2.936,2.936,0,0,1-.584-1.816,2.769,2.769,0,0,1,.44-1.552,3.191,3.191,0,0,1,1.256-1.088,2.733,2.733,0,0,1-.96-.968,2.63,2.63,0,0,1-.336-1.336,2.734,2.734,0,0,1,.544-1.7A3.471,3.471,0,0,1,60.816-11a5.975,5.975,0,0,1,2.24-.392A6.084,6.084,0,0,1,65.32-11a3.466,3.466,0,0,1,1.528,1.112,2.734,2.734,0,0,1,.544,1.7,2.63,2.63,0,0,1-.336,1.336A2.7,2.7,0,0,1,66.08-5.888Zm-3.024-3.6a1.958,1.958,0,0,0-1.256.376,1.247,1.247,0,0,0-.472,1.032,1.217,1.217,0,0,0,.464,1.008,1.981,1.981,0,0,0,1.264.368,2.05,2.05,0,0,0,1.28-.368,1.2,1.2,0,0,0,.48-1.008,1.239,1.239,0,0,0-.48-1.032A2.019,2.019,0,0,0,63.056-9.488Zm0,7.776a2.46,2.46,0,0,0,1.544-.44,1.412,1.412,0,0,0,.568-1.176A1.391,1.391,0,0,0,64.6-4.5a2.492,2.492,0,0,0-1.544-.432,2.428,2.428,0,0,0-1.52.432,1.4,1.4,0,0,0-.56,1.168,1.414,1.414,0,0,0,.56,1.184A2.428,2.428,0,0,0,63.056-1.712Z" transform="translate(235 2357)" fill="#3b1f10"/>
    <path id="Trazado_12891" data-name="Trazado 12891" d="M6.176-11.2a6.222,6.222,0,0,1,2.584.5A3.839,3.839,0,0,1,10.448-9.3a3.879,3.879,0,0,1,.592,2.16,3.889,3.889,0,0,1-.592,2.152A3.77,3.77,0,0,1,8.76-3.576a6.311,6.311,0,0,1-2.584.488H3.92V0H1.328V-11.2Zm-.144,6a2.722,2.722,0,0,0,1.776-.5,1.755,1.755,0,0,0,.608-1.432,1.774,1.774,0,0,0-.608-1.448,2.722,2.722,0,0,0-1.776-.5H3.92V-5.2ZM18.464.192A6.537,6.537,0,0,1,15.32-.56a5.581,5.581,0,0,1-2.192-2.072A5.657,5.657,0,0,1,12.336-5.6a5.657,5.657,0,0,1,.792-2.968A5.581,5.581,0,0,1,15.32-10.64a6.537,6.537,0,0,1,3.144-.752,6.491,6.491,0,0,1,3.136.752,5.654,5.654,0,0,1,2.192,2.072,5.613,5.613,0,0,1,.8,2.968,5.613,5.613,0,0,1-.8,2.968A5.654,5.654,0,0,1,21.6-.56,6.491,6.491,0,0,1,18.464.192Zm0-2.208a3.554,3.554,0,0,0,1.792-.456,3.272,3.272,0,0,0,1.256-1.272A3.739,3.739,0,0,0,21.968-5.6a3.739,3.739,0,0,0-.456-1.856,3.272,3.272,0,0,0-1.256-1.272,3.554,3.554,0,0,0-1.792-.456,3.554,3.554,0,0,0-1.792.456,3.272,3.272,0,0,0-1.256,1.272A3.739,3.739,0,0,0,14.96-5.6a3.739,3.739,0,0,0,.456,1.856,3.272,3.272,0,0,0,1.256,1.272A3.554,3.554,0,0,0,18.464-2.016ZM30.224.192a9.164,9.164,0,0,1-2.568-.36A6.023,6.023,0,0,1,25.664-1.1l.88-1.952a5.972,5.972,0,0,0,1.712.848,6.43,6.43,0,0,0,1.984.32,3.17,3.17,0,0,0,1.632-.328.991.991,0,0,0,.528-.872.834.834,0,0,0-.312-.664,2.365,2.365,0,0,0-.8-.424q-.488-.16-1.32-.352a18.247,18.247,0,0,1-2.1-.608,3.405,3.405,0,0,1-1.4-.976A2.636,2.636,0,0,1,25.888-7.9a3.117,3.117,0,0,1,.528-1.768,3.552,3.552,0,0,1,1.592-1.256,6.5,6.5,0,0,1,2.6-.464,8.609,8.609,0,0,1,2.1.256A6.192,6.192,0,0,1,34.5-10.4l-.8,1.968a6.245,6.245,0,0,0-3.1-.88,2.91,2.91,0,0,0-1.608.352,1.074,1.074,0,0,0-.52.928.907.907,0,0,0,.6.856,9.42,9.42,0,0,0,1.832.552,18.247,18.247,0,0,1,2.1.608,3.471,3.471,0,0,1,1.4.96,2.574,2.574,0,0,1,.584,1.776,3.058,3.058,0,0,1-.536,1.752A3.6,3.6,0,0,1,32.832-.272,6.555,6.555,0,0,1,30.224.192Zm8.688-9.28H35.328V-11.2h9.76v2.112H41.5V0H38.912ZM55.152-2.08V0H46.48V-11.2h8.464v2.08H49.056v2.432h5.2v2.016h-5.2V-2.08ZM64.352,0l-2.16-3.12H59.808V0H57.216V-11.2h4.848a6.222,6.222,0,0,1,2.584.5A3.839,3.839,0,0,1,66.336-9.3a3.879,3.879,0,0,1,.592,2.16,3.8,3.8,0,0,1-.6,2.152,3.8,3.8,0,0,1-1.7,1.384L67.136,0ZM64.3-7.136A1.774,1.774,0,0,0,63.7-8.584a2.722,2.722,0,0,0-1.776-.5H59.808v3.9H61.92A2.692,2.692,0,0,0,63.7-5.7,1.779,1.779,0,0,0,64.3-7.136ZM68.976-11.2h2.592V0H68.976ZM79.648.192A6.537,6.537,0,0,1,76.5-.56a5.581,5.581,0,0,1-2.192-2.072A5.657,5.657,0,0,1,73.52-5.6a5.657,5.657,0,0,1,.792-2.968A5.581,5.581,0,0,1,76.5-10.64a6.537,6.537,0,0,1,3.144-.752,6.491,6.491,0,0,1,3.136.752,5.654,5.654,0,0,1,2.192,2.072,5.613,5.613,0,0,1,.8,2.968,5.613,5.613,0,0,1-.8,2.968A5.654,5.654,0,0,1,82.784-.56,6.491,6.491,0,0,1,79.648.192Zm0-2.208a3.554,3.554,0,0,0,1.792-.456A3.272,3.272,0,0,0,82.7-3.744,3.739,3.739,0,0,0,83.152-5.6,3.739,3.739,0,0,0,82.7-7.456,3.272,3.272,0,0,0,81.44-8.728a3.554,3.554,0,0,0-1.792-.456,3.554,3.554,0,0,0-1.792.456A3.272,3.272,0,0,0,76.6-7.456,3.739,3.739,0,0,0,76.144-5.6,3.739,3.739,0,0,0,76.6-3.744a3.272,3.272,0,0,0,1.256,1.272A3.554,3.554,0,0,0,79.648-2.016ZM94.864,0,92.7-3.12H90.32V0H87.728V-11.2h4.848a6.222,6.222,0,0,1,2.584.5A3.839,3.839,0,0,1,96.848-9.3a3.879,3.879,0,0,1,.592,2.16,3.8,3.8,0,0,1-.6,2.152,3.8,3.8,0,0,1-1.7,1.384L97.648,0Zm-.048-7.136a1.774,1.774,0,0,0-.608-1.448,2.722,2.722,0,0,0-1.776-.5H90.32v3.9h2.112A2.692,2.692,0,0,0,94.208-5.7,1.779,1.779,0,0,0,94.816-7.136Z" transform="translate(235 2380)" fill="#3b1f10"/>
    <path id="Trazado_12893" data-name="Trazado 12893" d="M8.464,0,6.3-3.12H3.92V0H1.328V-11.2H6.176a6.222,6.222,0,0,1,2.584.5A3.839,3.839,0,0,1,10.448-9.3a3.879,3.879,0,0,1,.592,2.16,3.8,3.8,0,0,1-.6,2.152A3.8,3.8,0,0,1,8.736-3.6L11.248,0ZM8.416-7.136a1.774,1.774,0,0,0-.608-1.448,2.722,2.722,0,0,0-1.776-.5H3.92v3.9H6.032A2.692,2.692,0,0,0,7.808-5.7,1.779,1.779,0,0,0,8.416-7.136ZM21.76-2.08V0H13.088V-11.2h8.464v2.08H15.664v2.432h5.2v2.016h-5.2V-2.08Zm4.656-7.04v2.96H31.6v2.08H26.416V0H23.824V-11.2h8.464v2.08Zm16.3,7.04V0H34.048V-11.2h8.464v2.08H36.624v2.432h5.2v2.016h-5.2V-2.08ZM51.92,0,49.76-3.12H47.376V0H44.784V-11.2h4.848a6.222,6.222,0,0,1,2.584.5A3.839,3.839,0,0,1,53.9-9.3a3.879,3.879,0,0,1,.592,2.16,3.8,3.8,0,0,1-.6,2.152,3.8,3.8,0,0,1-1.7,1.384L54.7,0Zm-.048-7.136a1.774,1.774,0,0,0-.608-1.448,2.722,2.722,0,0,0-1.776-.5H47.376v3.9h2.112A2.692,2.692,0,0,0,51.264-5.7,1.779,1.779,0,0,0,51.872-7.136ZM65.216-2.08V0H56.544V-11.2h8.464v2.08H59.12v2.432h5.2v2.016h-5.2V-2.08ZM77.552-11.2V0H75.424L69.84-6.8V0H67.28V-11.2h2.144l5.568,6.8v-6.8ZM85.568.192a6.433,6.433,0,0,1-3.1-.744A5.552,5.552,0,0,1,80.3-2.616,5.687,5.687,0,0,1,79.5-5.6,5.687,5.687,0,0,1,80.3-8.584a5.552,5.552,0,0,1,2.176-2.064,6.467,6.467,0,0,1,3.112-.744,6.528,6.528,0,0,1,2.632.512,5.272,5.272,0,0,1,1.976,1.472L88.528-7.872a3.578,3.578,0,0,0-2.816-1.312,3.739,3.739,0,0,0-1.856.456,3.242,3.242,0,0,0-1.272,1.272A3.739,3.739,0,0,0,82.128-5.6a3.739,3.739,0,0,0,.456,1.856,3.242,3.242,0,0,0,1.272,1.272,3.739,3.739,0,0,0,1.856.456,3.561,3.561,0,0,0,2.816-1.328l1.664,1.536A5.187,5.187,0,0,1,88.208-.32,6.585,6.585,0,0,1,85.568.192ZM91.936-11.2h2.592V0H91.936ZM104.56-2.4h-5.2L98.368,0H95.712L100.7-11.2h2.56L108.272,0h-2.72Zm-.816-1.968-1.776-4.288-1.776,4.288Z" transform="translate(235 2402)" fill="#3b1f10"/>
    <path id="Trazado_12895" data-name="Trazado 12895" d="M6.688.192a6.433,6.433,0,0,1-3.1-.744A5.552,5.552,0,0,1,1.416-2.616,5.687,5.687,0,0,1,.624-5.6a5.687,5.687,0,0,1,.792-2.984,5.552,5.552,0,0,1,2.176-2.064A6.467,6.467,0,0,1,6.7-11.392a6.528,6.528,0,0,1,2.632.512,5.272,5.272,0,0,1,1.976,1.472L9.648-7.872A3.578,3.578,0,0,0,6.832-9.184a3.739,3.739,0,0,0-1.856.456A3.242,3.242,0,0,0,3.7-7.456,3.739,3.739,0,0,0,3.248-5.6,3.739,3.739,0,0,0,3.7-3.744,3.242,3.242,0,0,0,4.976-2.472a3.739,3.739,0,0,0,1.856.456A3.561,3.561,0,0,0,9.648-3.344l1.664,1.536A5.187,5.187,0,0,1,9.328-.32,6.585,6.585,0,0,1,6.688.192Zm11.552,0A6.537,6.537,0,0,1,15.1-.56,5.581,5.581,0,0,1,12.9-2.632,5.657,5.657,0,0,1,12.112-5.6,5.657,5.657,0,0,1,12.9-8.568,5.581,5.581,0,0,1,15.1-10.64a6.537,6.537,0,0,1,3.144-.752,6.491,6.491,0,0,1,3.136.752,5.654,5.654,0,0,1,2.192,2.072,5.613,5.613,0,0,1,.8,2.968,5.613,5.613,0,0,1-.8,2.968A5.654,5.654,0,0,1,21.376-.56,6.491,6.491,0,0,1,18.24.192Zm0-2.208a3.554,3.554,0,0,0,1.792-.456,3.272,3.272,0,0,0,1.256-1.272A3.739,3.739,0,0,0,21.744-5.6a3.739,3.739,0,0,0-.456-1.856,3.272,3.272,0,0,0-1.256-1.272,3.554,3.554,0,0,0-1.792-.456,3.554,3.554,0,0,0-1.792.456,3.272,3.272,0,0,0-1.256,1.272A3.739,3.739,0,0,0,14.736-5.6a3.739,3.739,0,0,0,.456,1.856,3.272,3.272,0,0,0,1.256,1.272A3.554,3.554,0,0,0,18.24-2.016ZM33.456,0,31.3-3.12H28.912V0H26.32V-11.2h4.848a6.222,6.222,0,0,1,2.584.5A3.839,3.839,0,0,1,35.44-9.3a3.879,3.879,0,0,1,.592,2.16,3.8,3.8,0,0,1-.6,2.152,3.8,3.8,0,0,1-1.7,1.384L36.24,0Zm-.048-7.136A1.774,1.774,0,0,0,32.8-8.584a2.722,2.722,0,0,0-1.776-.5H28.912v3.9h2.112A2.692,2.692,0,0,0,32.8-5.7,1.779,1.779,0,0,0,33.408-7.136ZM40.24-9.088H36.656V-11.2h9.76v2.112H42.832V0H40.24ZM54.624-2.4h-5.2L48.432,0H45.776l4.992-11.2h2.56L58.336,0h-2.72Zm-.816-1.968L52.032-8.656,50.256-4.368ZM66.64,0,64.48-3.12H62.1V0H59.5V-11.2h4.848a6.222,6.222,0,0,1,2.584.5A3.839,3.839,0,0,1,68.624-9.3a3.879,3.879,0,0,1,.592,2.16,3.8,3.8,0,0,1-.6,2.152,3.8,3.8,0,0,1-1.7,1.384L69.424,0Zm-.048-7.136a1.774,1.774,0,0,0-.608-1.448,2.722,2.722,0,0,0-1.776-.5H62.1v3.9h2.112A2.692,2.692,0,0,0,65.984-5.7,1.779,1.779,0,0,0,66.592-7.136ZM77.632,3.1a11.59,11.59,0,0,1-1.48-3.376,15.676,15.676,0,0,1-.52-4.112,15.766,15.766,0,0,1,.52-4.12,11.354,11.354,0,0,1,1.48-3.368h2.384a14.525,14.525,0,0,0-1.472,3.608,15.752,15.752,0,0,0-.464,3.88A15.752,15.752,0,0,0,78.544-.5,14.525,14.525,0,0,0,80.016,3.1ZM88.56,0l-2.7-3.888L83.2,0H80.224l4.144-5.7-3.936-5.5h2.944l2.576,3.632L88.48-11.2h2.8l-3.9,5.408L91.552,0Zm12.032-2.112V0H92.128V-1.68l4.32-4.08a4.587,4.587,0,0,0,.928-1.128,2.052,2.052,0,0,0,.24-.936,1.238,1.238,0,0,0-.456-1.032,2.122,2.122,0,0,0-1.336-.36,3.068,3.068,0,0,0-1.328.28,2.543,2.543,0,0,0-.992.84L91.616-9.312a4.429,4.429,0,0,1,1.808-1.528,6.038,6.038,0,0,1,2.64-.552,5.428,5.428,0,0,1,2.184.408A3.366,3.366,0,0,1,99.7-9.832a2.981,2.981,0,0,1,.52,1.752,3.905,3.905,0,0,1-.384,1.712,6.59,6.59,0,0,1-1.488,1.824L95.776-2.112ZM101.2,3.1A14.763,14.763,0,0,0,102.68-.5a15.5,15.5,0,0,0,.472-3.88,15.5,15.5,0,0,0-.472-3.88,14.763,14.763,0,0,0-1.48-3.608h2.384a10.9,10.9,0,0,1,1.5,3.352,15.831,15.831,0,0,1,.52,4.136,15.881,15.881,0,0,1-.512,4.12,10.966,10.966,0,0,1-1.5,3.368Z" transform="translate(235 2425)" fill="#3b1f10"/>
    <path id="Trazado_12896" data-name="Trazado 12896" d="M6.176-11.2a6.222,6.222,0,0,1,2.584.5A3.839,3.839,0,0,1,10.448-9.3a3.879,3.879,0,0,1,.592,2.16,3.889,3.889,0,0,1-.592,2.152A3.77,3.77,0,0,1,8.76-3.576a6.311,6.311,0,0,1-2.584.488H3.92V0H1.328V-11.2Zm-.144,6a2.722,2.722,0,0,0,1.776-.5,1.755,1.755,0,0,0,.608-1.432,1.774,1.774,0,0,0-.608-1.448,2.722,2.722,0,0,0-1.776-.5H3.92V-5.2Zm6.848-6h2.592V0H12.88ZM26.8-2.08V0H18.128V-11.2h8.464v2.08H20.7v2.432h5.2v2.016H20.7V-2.08Zm11.136-.032V0H28.144V-1.68l6.144-7.408H28.272V-11.2H37.7v1.68L31.568-2.112Zm9.04-.288h-5.2L40.784,0H38.128L43.12-11.2h2.56L50.688,0h-2.72ZM46.16-4.368,44.384-8.656,42.608-4.368ZM64.048-2.112V0H55.584V-1.68L59.9-5.76a4.588,4.588,0,0,0,.928-1.128,2.052,2.052,0,0,0,.24-.936,1.238,1.238,0,0,0-.456-1.032,2.122,2.122,0,0,0-1.336-.36,3.068,3.068,0,0,0-1.328.28,2.543,2.543,0,0,0-.992.84L55.072-9.312A4.429,4.429,0,0,1,56.88-10.84a6.038,6.038,0,0,1,2.64-.552,5.428,5.428,0,0,1,2.184.408A3.366,3.366,0,0,1,63.16-9.832a2.981,2.981,0,0,1,.52,1.752A3.905,3.905,0,0,1,63.3-6.368a6.59,6.59,0,0,1-1.488,1.824L59.232-2.112Zm5.36-11.36h2.224L66.352,1.6H64.128ZM76.784-6.64a3.77,3.77,0,0,1,2.256,1.1,3.021,3.021,0,0,1,.784,2.12,3.346,3.346,0,0,1-.512,1.8A3.566,3.566,0,0,1,77.752-.3a5.976,5.976,0,0,1-2.568.5A8.809,8.809,0,0,1,72.856-.12a6,6,0,0,1-1.944-.888L71.92-2.992a4.884,4.884,0,0,0,1.48.744,5.7,5.7,0,0,0,1.72.264,2.726,2.726,0,0,0,1.536-.376,1.208,1.208,0,0,0,.56-1.064q0-1.376-2.1-1.376H73.936V-6.512l2.3-2.608H71.472V-11.2h7.84v1.68Z" transform="translate(235 2448)" fill="#3b1f10"/>
    <path id="Trazado_12899" data-name="Trazado 12899" d="M5.4-9.8a5.444,5.444,0,0,1,2.261.434A3.359,3.359,0,0,1,9.142-8.134a3.394,3.394,0,0,1,.518,1.89,3.4,3.4,0,0,1-.518,1.883A3.3,3.3,0,0,1,7.665-3.129,5.522,5.522,0,0,1,5.4-2.7H3.43V0H1.162V-9.8ZM5.278-4.55a2.382,2.382,0,0,0,1.554-.441,1.536,1.536,0,0,0,.532-1.253,1.552,1.552,0,0,0-.532-1.267,2.382,2.382,0,0,0-1.554-.441H3.43v3.4Zm8.806-3.094a3.92,3.92,0,0,1,2.688.833A3.188,3.188,0,0,1,17.71-4.3V0H15.666V-.938a2.434,2.434,0,0,1-2.3,1.05,3.563,3.563,0,0,1-1.505-.294,2.244,2.244,0,0,1-.973-.812,2.113,2.113,0,0,1-.336-1.176,1.962,1.962,0,0,1,.791-1.652,4.031,4.031,0,0,1,2.443-.6h1.736a1.392,1.392,0,0,0-.434-1.1,1.912,1.912,0,0,0-1.3-.385,3.8,3.8,0,0,0-1.183.189,3.13,3.13,0,0,0-.987.511l-.784-1.526a4.73,4.73,0,0,1,1.477-.672A6.616,6.616,0,0,1,14.084-7.644Zm-.168,6.286a1.9,1.9,0,0,0,.994-.259,1.417,1.417,0,0,0,.616-.763v-.77h-1.5q-1.344,0-1.344.882a.785.785,0,0,0,.329.665A1.482,1.482,0,0,0,13.916-1.358Zm10.626.994a2.245,2.245,0,0,1-.791.357,4,4,0,0,1-.987.119,2.932,2.932,0,0,1-2.079-.686A2.625,2.625,0,0,1,19.95-2.59V-5.684H18.788v-1.68H19.95V-9.2h2.184v1.834H24.01v1.68H22.134v3.066a1.028,1.028,0,0,0,.245.735.908.908,0,0,0,.693.259,1.4,1.4,0,0,0,.882-.28ZM27.86-6.538a2.429,2.429,0,0,1,1.057-.826,3.923,3.923,0,0,1,1.533-.28v2.016q-.364-.028-.49-.028a2,2,0,0,0-1.47.525,2.122,2.122,0,0,0-.532,1.575V0H25.774V-7.532H27.86ZM35.266.112a4.516,4.516,0,0,1-2.135-.5,3.7,3.7,0,0,1-1.477-1.379,3.8,3.8,0,0,1-.532-2,3.8,3.8,0,0,1,.532-2,3.7,3.7,0,0,1,1.477-1.379,4.516,4.516,0,0,1,2.135-.5,4.475,4.475,0,0,1,2.128.5,3.706,3.706,0,0,1,1.47,1.379,3.8,3.8,0,0,1,.532,2,3.8,3.8,0,0,1-.532,2,3.706,3.706,0,0,1-1.47,1.379A4.475,4.475,0,0,1,35.266.112Zm0-1.792a1.819,1.819,0,0,0,1.379-.567,2.114,2.114,0,0,0,.539-1.519,2.114,2.114,0,0,0-.539-1.519,1.819,1.819,0,0,0-1.379-.567,1.842,1.842,0,0,0-1.386.567,2.1,2.1,0,0,0-.546,1.519,2.1,2.1,0,0,0,.546,1.519A1.842,1.842,0,0,0,35.266-1.68Zm.588-8.834h2.352L35.672-8.5H33.964Zm9.576,2.87a3.1,3.1,0,0,1,2.261.84,3.331,3.331,0,0,1,.861,2.492V0H46.368V-3.976a1.963,1.963,0,0,0-.392-1.337,1.438,1.438,0,0,0-1.134-.441,1.738,1.738,0,0,0-1.316.511,2.116,2.116,0,0,0-.49,1.519V0H40.852V-7.532h2.086v.882a2.9,2.9,0,0,1,1.078-.735A3.756,3.756,0,0,1,45.43-7.644ZM63.63-9.8V0H61.768L56.882-5.95V0h-2.24V-9.8h1.876L61.39-3.85V-9.8ZM69.384.112a4.516,4.516,0,0,1-2.135-.5,3.7,3.7,0,0,1-1.477-1.379,3.8,3.8,0,0,1-.532-2,3.8,3.8,0,0,1,.532-2,3.7,3.7,0,0,1,1.477-1.379,4.516,4.516,0,0,1,2.135-.5,4.475,4.475,0,0,1,2.128.5,3.706,3.706,0,0,1,1.47,1.379,3.8,3.8,0,0,1,.532,2,3.8,3.8,0,0,1-.532,2,3.706,3.706,0,0,1-1.47,1.379A4.475,4.475,0,0,1,69.384.112Zm0-1.792a1.819,1.819,0,0,0,1.379-.567A2.114,2.114,0,0,0,71.3-3.766a2.114,2.114,0,0,0-.539-1.519,1.819,1.819,0,0,0-1.379-.567A1.842,1.842,0,0,0,68-5.285a2.1,2.1,0,0,0-.546,1.519A2.1,2.1,0,0,0,68-2.247,1.842,1.842,0,0,0,69.384-1.68ZM82.25-9.8V0H79.982V-7.98h-1.96V-9.8Zm-72.1,20V20H8.288L3.4,14.05V20H1.162V10.2H3.038L7.91,16.15V10.2ZM15.9,20.112a4.516,4.516,0,0,1-2.135-.5,3.7,3.7,0,0,1-1.477-1.379,4.033,4.033,0,0,1,0-4,3.7,3.7,0,0,1,1.477-1.379,4.819,4.819,0,0,1,4.263,0,3.706,3.706,0,0,1,1.47,1.379,4.033,4.033,0,0,1,0,4,3.706,3.706,0,0,1-1.47,1.379A4.475,4.475,0,0,1,15.9,20.112Zm0-1.792a1.819,1.819,0,0,0,1.379-.567,2.114,2.114,0,0,0,.539-1.519,2.114,2.114,0,0,0-.539-1.519,1.819,1.819,0,0,0-1.379-.567,1.842,1.842,0,0,0-1.386.567,2.1,2.1,0,0,0-.546,1.519,2.1,2.1,0,0,0,.546,1.519A1.842,1.842,0,0,0,15.9,18.32Zm15.232-5.964a3.036,3.036,0,0,1,2.247.833,3.394,3.394,0,0,1,.833,2.5V20H32.032V16.024a2.041,2.041,0,0,0-.371-1.337,1.3,1.3,0,0,0-1.057-.441,1.558,1.558,0,0,0-1.218.5,2.142,2.142,0,0,0-.448,1.477V20H26.754V16.024q0-1.778-1.428-1.778a1.541,1.541,0,0,0-1.2.5,2.142,2.142,0,0,0-.448,1.477V20H21.49V12.468h2.086v.868a2.757,2.757,0,0,1,1.029-.728,3.463,3.463,0,0,1,1.337-.252,3.238,3.238,0,0,1,1.442.315,2.554,2.554,0,0,1,1.036.917,3.09,3.09,0,0,1,1.169-.91A3.688,3.688,0,0,1,31.136,12.356Zm9.492,0a3.838,3.838,0,0,1,1.911.483A3.468,3.468,0,0,1,43.89,14.2a4.1,4.1,0,0,1,.49,2.037,4.1,4.1,0,0,1-.49,2.037,3.468,3.468,0,0,1-1.351,1.358,3.838,3.838,0,0,1-1.911.483,2.9,2.9,0,0,1-2.366-.98V20H36.176V9.612H38.36v3.654A2.909,2.909,0,0,1,40.628,12.356ZM40.25,18.32a1.819,1.819,0,0,0,1.379-.567,2.114,2.114,0,0,0,.539-1.519,2.114,2.114,0,0,0-.539-1.519,1.96,1.96,0,0,0-2.758,0,2.114,2.114,0,0,0-.539,1.519,2.114,2.114,0,0,0,.539,1.519A1.819,1.819,0,0,0,40.25,18.32Zm7.672-4.858a2.429,2.429,0,0,1,1.057-.826,3.923,3.923,0,0,1,1.533-.28v2.016q-.364-.028-.49-.028a2,2,0,0,0-1.47.525,2.122,2.122,0,0,0-.532,1.575V20H45.836V12.468h2.086Zm11.2,2.8q0,.042-.042.588h-5.7a1.775,1.775,0,0,0,.728,1.106,2.411,2.411,0,0,0,1.428.406,2.892,2.892,0,0,0,1.043-.175,2.526,2.526,0,0,0,.847-.553l1.162,1.26a3.905,3.905,0,0,1-3.108,1.218,4.917,4.917,0,0,1-2.254-.5,3.643,3.643,0,0,1-1.512-1.379,3.8,3.8,0,0,1-.532-2,3.849,3.849,0,0,1,.525-2,3.678,3.678,0,0,1,1.442-1.386,4.464,4.464,0,0,1,4.053-.021A3.474,3.474,0,0,1,58.611,14.2,4.07,4.07,0,0,1,59.122,16.262Zm-3.906-2.254a1.881,1.881,0,0,0-1.246.42,1.788,1.788,0,0,0-.616,1.148h3.71a1.806,1.806,0,0,0-.616-1.141A1.841,1.841,0,0,0,55.216,14.008Zm17-4.4V20H70.126v-.868a2.88,2.88,0,0,1-2.352.98,3.911,3.911,0,0,1-1.925-.476A3.408,3.408,0,0,1,64.5,18.278a4.14,4.14,0,0,1-.49-2.044,4.14,4.14,0,0,1,.49-2.044,3.408,3.408,0,0,1,1.351-1.358,3.911,3.911,0,0,1,1.925-.476,2.865,2.865,0,0,1,2.254.91V9.612Zm-4.06,8.708a1.825,1.825,0,0,0,1.372-.567,2.1,2.1,0,0,0,.546-1.519,2.1,2.1,0,0,0-.546-1.519,1.96,1.96,0,0,0-2.758,0,2.1,2.1,0,0,0-.546,1.519,2.1,2.1,0,0,0,.546,1.519A1.842,1.842,0,0,0,68.152,18.32Zm13.454-2.058q0,.042-.042.588h-5.7a1.775,1.775,0,0,0,.728,1.106,2.411,2.411,0,0,0,1.428.406,2.892,2.892,0,0,0,1.043-.175,2.526,2.526,0,0,0,.847-.553l1.162,1.26a3.905,3.905,0,0,1-3.108,1.218,4.917,4.917,0,0,1-2.254-.5A3.643,3.643,0,0,1,74.2,18.236a3.8,3.8,0,0,1-.532-2,3.849,3.849,0,0,1,.525-2,3.678,3.678,0,0,1,1.442-1.386,4.464,4.464,0,0,1,4.053-.021A3.474,3.474,0,0,1,81.1,14.2,4.07,4.07,0,0,1,81.606,16.262ZM77.7,14.008a1.881,1.881,0,0,0-1.246.42,1.788,1.788,0,0,0-.616,1.148h3.71a1.806,1.806,0,0,0-.616-1.141A1.841,1.841,0,0,0,77.7,14.008Zm5.362-4.4h2.184V20H83.062ZM95.69,12.356a3.838,3.838,0,0,1,1.911.483A3.468,3.468,0,0,1,98.952,14.2a4.1,4.1,0,0,1,.49,2.037,4.1,4.1,0,0,1-.49,2.037A3.468,3.468,0,0,1,97.6,19.629a3.838,3.838,0,0,1-1.911.483,2.909,2.909,0,0,1-2.268-.91v3.514H91.238V12.468h2.086v.868A2.9,2.9,0,0,1,95.69,12.356Zm-.378,5.964a1.819,1.819,0,0,0,1.379-.567,2.114,2.114,0,0,0,.539-1.519,2.114,2.114,0,0,0-.539-1.519,1.96,1.96,0,0,0-2.758,0,2.114,2.114,0,0,0-.539,1.519,2.114,2.114,0,0,0,.539,1.519A1.819,1.819,0,0,0,95.312,18.32Zm8.5-5.964a3.92,3.92,0,0,1,2.688.833,3.188,3.188,0,0,1,.938,2.513V20h-2.044v-.938a2.434,2.434,0,0,1-2.3,1.05,3.563,3.563,0,0,1-1.5-.294,2.244,2.244,0,0,1-.973-.812,2.113,2.113,0,0,1-.336-1.176,1.962,1.962,0,0,1,.791-1.652,4.031,4.031,0,0,1,2.443-.6h1.736a1.392,1.392,0,0,0-.434-1.1,1.912,1.912,0,0,0-1.3-.385,3.8,3.8,0,0,0-1.183.189,3.13,3.13,0,0,0-.987.511l-.784-1.526a4.73,4.73,0,0,1,1.477-.672A6.616,6.616,0,0,1,103.81,12.356Zm-.168,6.286a1.9,1.9,0,0,0,.994-.259,1.417,1.417,0,0,0,.616-.763v-.77h-1.5q-1.344,0-1.344.882a.785.785,0,0,0,.329.665A1.482,1.482,0,0,0,103.642,18.642Zm10.626.994a2.245,2.245,0,0,1-.791.357,4,4,0,0,1-.987.119,2.932,2.932,0,0,1-2.079-.686,2.625,2.625,0,0,1-.735-2.016V14.316h-1.162v-1.68h1.162V10.8h2.184v1.834h1.876v1.68H111.86v3.066a1.028,1.028,0,0,0,.245.735.908.908,0,0,0,.693.259,1.4,1.4,0,0,0,.882-.28Zm3.318-6.174a2.429,2.429,0,0,1,1.057-.826,3.923,3.923,0,0,1,1.533-.28v2.016q-.364-.028-.49-.028a2,2,0,0,0-1.47.525,2.122,2.122,0,0,0-.532,1.575V20H115.5V12.468h2.086Zm7.406,6.65a4.516,4.516,0,0,1-2.135-.5,3.7,3.7,0,0,1-1.477-1.379,4.033,4.033,0,0,1,0-4,3.7,3.7,0,0,1,1.477-1.379,4.819,4.819,0,0,1,4.263,0,3.706,3.706,0,0,1,1.47,1.379,4.033,4.033,0,0,1,0,4,3.706,3.706,0,0,1-1.47,1.379A4.475,4.475,0,0,1,124.992,20.112Zm0-1.792a1.819,1.819,0,0,0,1.379-.567,2.114,2.114,0,0,0,.539-1.519,2.114,2.114,0,0,0-.539-1.519,1.819,1.819,0,0,0-1.379-.567,1.842,1.842,0,0,0-1.386.567,2.1,2.1,0,0,0-.546,1.519,2.1,2.1,0,0,0,.546,1.519A1.842,1.842,0,0,0,124.992,18.32Zm10.164-5.964a3.1,3.1,0,0,1,2.261.84,3.331,3.331,0,0,1,.861,2.492V20h-2.184V16.024a1.963,1.963,0,0,0-.392-1.337,1.438,1.438,0,0,0-1.134-.441,1.738,1.738,0,0,0-1.316.511,2.116,2.116,0,0,0-.49,1.519V20h-2.184V12.468h2.086v.882a2.9,2.9,0,0,1,1.078-.735A3.756,3.756,0,0,1,135.156,12.356Zm5.1.112h2.184V20h-2.184Zm1.092-1.05a1.385,1.385,0,0,1-.98-.35,1.186,1.186,0,0,1,0-1.736,1.385,1.385,0,0,1,.98-.35,1.42,1.42,0,0,1,.98.336,1.077,1.077,0,0,1,.378.84,1.189,1.189,0,0,1-.378.9A1.369,1.369,0,0,1,141.344,11.418ZM147,20.112a7.317,7.317,0,0,1-1.834-.231,4.792,4.792,0,0,1-1.428-.581l.728-1.568a4.582,4.582,0,0,0,1.218.525,5.1,5.1,0,0,0,1.4.2q1.386,0,1.386-.686a.486.486,0,0,0-.378-.462,5.6,5.6,0,0,0-1.162-.238,11.21,11.21,0,0,1-1.526-.322,2.367,2.367,0,0,1-1.043-.644,1.831,1.831,0,0,1-.441-1.316,2.062,2.062,0,0,1,.413-1.267,2.658,2.658,0,0,1,1.2-.861,5.142,5.142,0,0,1,1.869-.308,7.335,7.335,0,0,1,1.589.175,4.441,4.441,0,0,1,1.309.483l-.728,1.554a4.346,4.346,0,0,0-2.17-.56,2.208,2.208,0,0,0-1.05.2.576.576,0,0,0-.35.5.5.5,0,0,0,.378.49,6.692,6.692,0,0,0,1.2.266,12.888,12.888,0,0,1,1.512.329,2.272,2.272,0,0,1,1.022.637,1.808,1.808,0,0,1,.434,1.288,1.989,1.989,0,0,1-.42,1.246,2.681,2.681,0,0,1-1.225.847A5.458,5.458,0,0,1,147,20.112Zm9.758-.476a2.245,2.245,0,0,1-.791.357,4,4,0,0,1-.987.119,2.932,2.932,0,0,1-2.079-.686,2.625,2.625,0,0,1-.735-2.016V14.316H151v-1.68h1.162V10.8h2.184v1.834h1.876v1.68H154.35v3.066a1.028,1.028,0,0,0,.245.735.908.908,0,0,0,.693.259,1.4,1.4,0,0,0,.882-.28Zm4.27-7.28a3.92,3.92,0,0,1,2.688.833,3.188,3.188,0,0,1,.938,2.513V20H162.61v-.938a2.434,2.434,0,0,1-2.3,1.05,3.564,3.564,0,0,1-1.505-.294,2.244,2.244,0,0,1-.973-.812,2.113,2.113,0,0,1-.336-1.176,1.962,1.962,0,0,1,.791-1.652,4.031,4.031,0,0,1,2.443-.6h1.736a1.392,1.392,0,0,0-.434-1.1,1.912,1.912,0,0,0-1.3-.385,3.8,3.8,0,0,0-1.183.189,3.13,3.13,0,0,0-.987.511l-.784-1.526a4.73,4.73,0,0,1,1.477-.672A6.616,6.616,0,0,1,161.028,12.356Zm-.168,6.286a1.9,1.9,0,0,0,.994-.259,1.417,1.417,0,0,0,.616-.763v-.77h-1.5q-1.344,0-1.344.882a.785.785,0,0,0,.329.665A1.482,1.482,0,0,0,160.86,18.642Z" transform="translate(218 2571)" fill="#00a99a"/>
    <path id="Trazado_12902" data-name="Trazado 12902" d="M5,0A5,5,0,1,1,0,5,5,5,0,0,1,5,0Z" transform="translate(173 2606)" fill="#ed3a3a"/>
  </g>
</svg>
