<svg xmlns="http://www.w3.org/2000/svg" width="475.281" height="318.307" viewBox="0 0 475.281 318.307">
  <g id="Grupo_8201" data-name="Grupo 8201" transform="translate(-664 -33.484)">
    <path id="Trazado_11789" data-name="Trazado 11789" d="M439.7,253.669a22.189,22.189,0,0,1-22.124-22.124h0A22.189,22.189,0,0,1,439.7,209.422h2.632a23.069,23.069,0,0,0,23-23h0a23.069,23.069,0,0,0-23-23H391.2s-37.4-1.723-44.6-23.092-13.008-32.113-54.12-32.113H262.038a15.309,15.309,0,0,1-15.264-15.262h0a15.309,15.309,0,0,1,15.264-15.262h10.116a10.565,10.565,0,0,0,10.534-10.535h0A10.565,10.565,0,0,0,272.155,56.62H209.4c-27.063,0-28.257-12.657-38.97-12.657H119.558a8.1,8.1,0,0,0-8.073,8.073h0a8.1,8.1,0,0,0,8.073,8.073h7.753a11.731,11.731,0,0,1,11.7,11.7h0a11.731,11.731,0,0,1-11.7,11.7H83.329a30.133,30.133,0,0,0-30.044,30.045h0a30.132,30.132,0,0,0,30.044,30.046H118.11a28.983,28.983,0,0,1,28.9,28.9h0a28.983,28.983,0,0,1-28.9,28.9h0a68.549,68.549,0,0,0-68.347,68.348h0a68.548,68.548,0,0,0,68.347,68.346H482.836a42.332,42.332,0,0,0,42.209-42.208h0a42.332,42.332,0,0,0-42.209-42.209H439.7ZM88.83,52.036A8.074,8.074,0,1,1,96.9,60.109,8.073,8.073,0,0,1,88.83,52.036Z" transform="translate(614.237 5.599)" fill="#feeec6" fill-rule="evenodd"/>
    <path id="Trazado_11790" data-name="Trazado 11790" d="M634.13,299.456Zm-2.486-9.469a4.787,4.787,0,1,1-3.384-1.4,4.768,4.768,0,0,1,3.384,1.4Zm-1.259-5.028v-2.564a.551.551,0,0,0-.551-.549h-3.146a.55.55,0,0,0-.551.549v2.564a.3.3,0,0,1-.214.283,8.351,8.351,0,0,0-1.887.8,8.488,8.488,0,0,0-1.639,1.233.292.292,0,0,1-.357.05l-2.223-1.284h0a.555.555,0,0,0-.753.2h0l-1.565,2.71-.008.016a.547.547,0,0,0-.054.417.553.553,0,0,0,.254.335L619.9,291a.293.293,0,0,1,.154.333,8.434,8.434,0,0,0-.185,1.01,8.571,8.571,0,0,0,.185,3.074h0a.292.292,0,0,1-.138.323l-2.222,1.282a.557.557,0,0,0-.254.335.551.551,0,0,0,.054.418h0l1.564,2.709.01.015a.547.547,0,0,0,.334.257.557.557,0,0,0,.418-.054l2.208-1.275a.294.294,0,0,1,.364.033,8.461,8.461,0,0,0,1.645,1.239,8.369,8.369,0,0,0,1.875.8.3.3,0,0,1,.226.286v2.566a.55.55,0,0,0,.551.549h3.146a.551.551,0,0,0,.551-.549v-2.564a.3.3,0,0,1,.214-.284,8.371,8.371,0,0,0,1.887-.8,8.488,8.488,0,0,0,1.645-1.239.293.293,0,0,1,.349-.042l2.208,1.275.016.007a.55.55,0,0,0,.752-.2h0l1.574-2.724a.554.554,0,0,0-.2-.753h0l-2.2-1.272a.3.3,0,0,1-.155-.334,8.454,8.454,0,0,0,.186-1.01,8.609,8.609,0,0,0,0-2.061,8.53,8.53,0,0,0-.186-1.011h0a.293.293,0,0,1,.138-.323l2.205-1.274.015-.009a.554.554,0,0,0,.2-.753l-1.563-2.709-.01-.016a.548.548,0,0,0-.334-.255.555.555,0,0,0-.405.046l-.012.008-2.223,1.284a.293.293,0,0,1-.35-.043,8.523,8.523,0,0,0-1.645-1.239,8.361,8.361,0,0,0-1.875-.8A.294.294,0,0,1,630.384,284.958Z" transform="translate(454.633 -61.284)" fill="#31b7a6" fill-rule="evenodd"/>
    <path id="Trazado_11791" data-name="Trazado 11791" d="M573.041,125.922Zm-2.487-9.469a4.784,4.784,0,1,1-3.383-1.4,4.769,4.769,0,0,1,3.383,1.4Zm-1.26-5.028v-2.566a.551.551,0,0,0-.55-.549H565.6a.554.554,0,0,0-.55.549v2.566a.294.294,0,0,1-.213.282,8.39,8.39,0,0,0-1.888.8,8.493,8.493,0,0,0-1.64,1.234.292.292,0,0,1-.356.049l-2.224-1.283h0a.552.552,0,0,0-.417-.053.544.544,0,0,0-.334.256h0l-1.564,2.709-.009.017a.553.553,0,0,0,.2.753l2.205,1.273a.293.293,0,0,1,.155.334,7.95,7.95,0,0,0-.185,1.01,8.423,8.423,0,0,0,0,2.062,8.008,8.008,0,0,0,.185,1.011h0a.3.3,0,0,1-.139.324l-2.221,1.282a.556.556,0,0,0-.255.335.55.55,0,0,0,.055.417h0l1.566,2.71.009.015a.552.552,0,0,0,.753.2l2.208-1.275a.293.293,0,0,1,.364.034,8.514,8.514,0,0,0,1.645,1.239,8.411,8.411,0,0,0,1.875.8.294.294,0,0,1,.226.285v2.565a.542.542,0,0,0,.163.388.549.549,0,0,0,.387.162h3.147a.551.551,0,0,0,.55-.55v-2.565a.294.294,0,0,1,.214-.282,8.46,8.46,0,0,0,3.532-2.042.293.293,0,0,1,.349-.043l2.208,1.275.017.009a.551.551,0,0,0,.752-.2h0l1.573-2.724a.554.554,0,0,0-.2-.753h0l-2.2-1.272a.3.3,0,0,1-.155-.334,8.422,8.422,0,0,0,.185-1.011,8.556,8.556,0,0,0-.185-3.072h0a.294.294,0,0,1,.138-.323l2.205-1.273.015-.009a.554.554,0,0,0,.2-.753l-1.564-2.709-.009-.014a.543.543,0,0,0-.335-.256.556.556,0,0,0-.405.046l-.011.008-2.223,1.283a.292.292,0,0,1-.35-.043,8.511,8.511,0,0,0-1.645-1.239,8.4,8.4,0,0,0-1.875-.8A.293.293,0,0,1,569.294,111.425Z" transform="translate(471.809 -12.493)" fill="#31b7a6" fill-rule="evenodd"/>
    <path id="Trazado_11792" data-name="Trazado 11792" d="M588.69,295.982a.821.821,0,0,1,1.642,0v1.929h1.929a.821.821,0,0,1,0,1.643h-1.929v1.929a.821.821,0,0,1-1.642,0v-1.929H586.76a.821.821,0,0,1,0-1.643h1.929Z" transform="translate(463.484 -65.028)" fill="#f9ad3e" fill-rule="evenodd"/>
    <path id="Trazado_11793" data-name="Trazado 11793" d="M477.536,148.638a.821.821,0,0,1,1.641,0v1.931h1.929a.82.82,0,0,1,0,1.64h-1.929v1.929a.821.821,0,1,1-1.641,0v-1.929h-1.929a.82.82,0,1,1,0-1.64h1.929Z" transform="translate(494.736 -23.601)" fill="#f9ad3e" fill-rule="evenodd"/>
    <path id="Trazado_11794" data-name="Trazado 11794" d="M608.077,404.551a.82.82,0,0,1,1.64,0v1.929h1.93a.821.821,0,0,1,0,1.642h-1.93v1.929a.82.82,0,0,1-1.64,0v-1.929h-1.929a.821.821,0,0,1,0-1.642h1.929Z" transform="translate(458.033 -95.554)" fill="#f9ad3e" fill-rule="evenodd"/>
    <path id="Trazado_11795" data-name="Trazado 11795" d="M710.183,321.832a.821.821,0,0,1,1.641,0v1.93h1.929a.821.821,0,0,1,0,1.641h-1.929v1.929a.821.821,0,0,1-1.641,0V325.4h-1.929a.821.821,0,1,1,0-1.641h1.929Z" transform="translate(379.35 -132.904)" fill="#8590a8" fill-rule="evenodd"/>
    <path id="Trazado_11803" data-name="Trazado 11803" d="M693.32,469.192h3.915c1.635,0,2.971-2.286,2.971-5.08h0c0-2.8-1.336-5.083-2.971-5.083H693.32c-1.635,0-2.971,2.288-2.971,5.083h0C690.349,466.906,691.685,469.192,693.32,469.192Z" transform="translate(-23.087 -117.448)" fill="#e2c784" fill-rule="evenodd"/>
    <g id="Grupo_8200" data-name="Grupo 8200" transform="translate(740.485 33.484)">
      <rect id="Rectángulo_2167" data-name="Rectángulo 2167" width="2.767" height="153.585" transform="translate(12.518 160.728)" fill="#4d1b73"/>
      <rect id="Rectángulo_2168" data-name="Rectángulo 2168" width="7.285" height="153.585" transform="translate(22.577 314.313) rotate(180)" fill="#2c0050"/>
      <g id="Grupo_8199" data-name="Grupo 8199">
        <path id="Trazado_11846" data-name="Trazado 11846" d="M496.137,194.859c-1.481-2.885-10.426-6.189-10.426-6.189l-.891.571a45.576,45.576,0,0,1,1.254,5.618c.469,3.04,6.333,5.9,7.357,3.983S497.619,197.745,496.137,194.859Zm-2.707,1.24c-1.829.275-.091,1.55-2.5,1.55s-5.059-7.322-4.852-7.53C486.074,190.119,495.26,195.825,493.43,196.1Z" transform="translate(-248.57 -68.571)" fill="#5d5ba3"/>
        <path id="Trazado_11847" data-name="Trazado 11847" d="M483.741,315.643c-1.5-7.643-2.721-8.6-2.354-17.607.09-2.215,4.931-77.233,2.957-84.634-1.563-9.254-12.069-27.425-12.069-27.425l-23.682-.06-2.583,24.321L458.666,221c.507,5.536,7.958,86.725,9.842,91.859,1.061,2.891-2.969,24.563-4.806,44.7,3.257.326,12.605,1.914,15.85,2.4C483.344,343.337,484.672,320.408,483.741,315.643Z" transform="translate(-237.657 -67.797)" fill="#4195c2"/>
        <g id="Grupo_8193" data-name="Grupo 8193" transform="translate(234.093 129.078)">
          <g id="Grupo_8190" data-name="Grupo 8190">
            <path id="Trazado_11848" data-name="Trazado 11848" d="M483.4,204.1a.534.534,0,0,0,.469-.792c-.641-1.165-1.048-1.876-1.048-1.876a.535.535,0,0,0-.928.533s.4.706,1.038,1.859A.534.534,0,0,0,483.4,204.1Z" transform="translate(-481.819 -201.161)" fill="#3e3e6e"/>
          </g>
          <g id="Grupo_8191" data-name="Grupo 8191" transform="translate(3.049 5.612)">
            <path id="Trazado_11849" data-name="Trazado 11849" d="M490.272,357a.536.536,0,0,1-.48-.584c.124-1.276.263-2.7.408-4.226a.535.535,0,0,1,1.065.1c-.145,1.524-.283,2.951-.408,4.227a.534.534,0,0,1-.531.483Zm.805-8.454a.535.535,0,0,1-.485-.582c.126-1.386.254-2.806.378-4.226a.535.535,0,0,1,1.066.092c-.124,1.423-.252,2.844-.379,4.232a.535.535,0,0,1-.532.486Zm.741-8.46a.535.535,0,0,1-.49-.577c.119-1.456.229-2.879.327-4.228a.535.535,0,0,1,1.067.077c-.1,1.354-.209,2.778-.329,4.238a.535.535,0,0,1-.533.492Zm.617-8.469a.535.535,0,0,1-.5-.564c.1-1.793.153-3.212.156-4.217a.535.535,0,0,1,.535-.534h0a.536.536,0,0,1,.533.536c0,1.024-.055,2.463-.159,4.275a.534.534,0,0,1-.533.5Zm-.647-8.937c-.177-1.3-.434-2.684-.765-4.125a.535.535,0,0,1,1.043-.238c.338,1.471.6,2.891.781,4.22a.534.534,0,0,1-.458.6.494.494,0,0,1-.073.006A.535.535,0,0,1,491.789,322.683Zm-1.85-8.19c-.605-2-1.147-3.454-1.352-3.986a.535.535,0,1,1,1-.385c.209.543.763,2.026,1.377,4.06a.533.533,0,0,1-.357.667.549.549,0,0,1-.155.023A.534.534,0,0,1,489.938,314.493Zm-.768-7.908a.536.536,0,0,1-.511-.559l.183-4.256a.535.535,0,0,1,1.069.046l-.183,4.257a.537.537,0,0,1-.536.512Zm.365-8.512a.535.535,0,0,1-.511-.557l.182-4.252a.535.535,0,1,1,1.069.046l-.183,4.252a.535.535,0,0,1-.534.513Zm.364-8.5a.535.535,0,0,1-.512-.558l.181-4.249a.535.535,0,1,1,1.069.046l-.181,4.249a.535.535,0,0,1-.534.513Zm.362-8.5a.535.535,0,0,1-.512-.558l.18-4.249a.535.535,0,0,1,1.069.046l-.18,4.249a.534.534,0,0,1-.534.512Zm.36-8.5a.535.535,0,0,1-.513-.557l.179-4.248a.535.535,0,0,1,1.069.044l-.179,4.249a.534.534,0,0,1-.534.513Zm.356-8.5a.535.535,0,0,1-.512-.556l.177-4.248a.526.526,0,0,1,.556-.512.535.535,0,0,1,.512.556l-.178,4.248a.534.534,0,0,1-.533.512Zm.354-8.5a.536.536,0,0,1-.513-.557l.175-4.249a.535.535,0,1,1,1.07.045l-.175,4.248a.535.535,0,0,1-.534.513Zm.348-8.5a.534.534,0,0,1-.512-.556l.172-4.251a.535.535,0,0,1,1.068.043l-.173,4.251a.534.534,0,0,1-.533.513Zm.343-8.5a.535.535,0,0,1-.514-.555c.06-1.515.115-2.938.166-4.254a.535.535,0,1,1,1.069.042c-.051,1.316-.106,2.739-.165,4.253a.535.535,0,0,1-.535.515Zm.326-8.511a.534.534,0,0,1-.515-.553c.068-1.88.116-3.334.14-4.259a.534.534,0,0,1,.534-.52h.01a.535.535,0,0,1,.525.548c-.024.927-.072,2.386-.139,4.271a.536.536,0,0,1-.535.515Zm-1.021-8.8c-.362-1.1-.875-2.415-1.523-3.906a.534.534,0,1,1,.98-.427c.663,1.521,1.188,2.867,1.559,4a.535.535,0,0,1-.341.674.523.523,0,0,1-.167.027A.535.535,0,0,1,491.326,221.262Zm-3.3-7.735c-.579-1.193-1.221-2.462-1.906-3.776a.535.535,0,0,1,.948-.495c.689,1.322,1.335,2.6,1.92,3.8a.535.535,0,0,1-.963.469Z" transform="translate(-486.06 -208.968)" fill="#3e3e6e"/>
          </g>
          <g id="Grupo_8192" data-name="Grupo 8192" transform="translate(6.183 156.409)">
            <path id="Trazado_11850" data-name="Trazado 11850" d="M490.956,421.944a.535.535,0,0,0,.53-.479s.081-.785.216-2.128a.535.535,0,0,0-1.065-.106c-.134,1.341-.216,2.124-.216,2.124a.536.536,0,0,0,.477.588Z" transform="translate(-490.42 -418.747)" fill="#3e3e6e"/>
          </g>
        </g>
        <g id="Grupo_8194" data-name="Grupo 8194" transform="translate(179.234 19.028)">
          <path id="Trazado_11851" data-name="Trazado 11851" d="M433.587,58.143c-1.22,2.019-5.6,4.653-5.6,4.653-2.095,4.133-12.307,27.338-11.456,29.932.121.371,1.083.679,2.645.949a26.372,26.372,0,0,1-5.063,7.8c-4.663-1.1-8.206-2.494-8.56-4.636-1.043-6.3,12.848-28.218,16.52-33.381a7.979,7.979,0,0,0,1.44-3.051c.882-2.465,4.525-5.723,7.753-7.137,1.2-.527,2.214.589,2.527.738.525.249-.031.526-.023,1.145C433.785,55.892,434.251,57.042,433.587,58.143Z" transform="translate(-405.502 -49.49)" fill="#fd9292"/>
          <path id="Trazado_11852" data-name="Trazado 11852" d="M447.51,56.952s-1.611,3-2.959,3.238a53.192,53.192,0,0,0-5.2,1.653l1.757-2.769,1.291-1.214a7.312,7.312,0,0,0,2.061.155C445.184,57.886,447.291,55.715,447.51,56.952Z" transform="translate(-415.019 -50.459)" fill="#fd9292"/>
          <path id="Trazado_11853" data-name="Trazado 11853" d="M447.465,55.423s-2.242-1.625-2.716-1.54a16.35,16.35,0,0,0-2.521,2.657c-.638.768-.75,1.254-1.425,1.052-1.621-.487.341-2.8,1.791-4.061s1.99-1.361,3.328-.9S448.885,55.171,447.465,55.423Z" transform="translate(-415.256 -49.279)" fill="#fd9292"/>
          <path id="Trazado_11854" data-name="Trazado 11854" d="M448.878,51.2a39.452,39.452,0,0,0-4.931-1.7c-1.51-.29-5.461,4.418-4.289,4.878s2.986-.779,4.277-2.627C443.935,51.748,450.857,52.582,448.878,51.2Z" transform="translate(-415.046 -48.466)" fill="#fd9292"/>
          <path id="Trazado_11855" data-name="Trazado 11855" d="M442.71,48.1a3.808,3.808,0,0,0-3.608,1.285c-.995,1.424-7.014,8.039-7.014,8.039a25.254,25.254,0,0,0,6.633-4.679,21.765,21.765,0,0,0,2.525-3.059s4.518-.693,3.8-1.194A4.759,4.759,0,0,0,442.71,48.1Z" transform="translate(-412.977 -48.067)" fill="#fd9292"/>
        </g>
        <path id="Trazado_11856" data-name="Trazado 11856" d="M419.409,101.938c2.307-.472,11.406-6.1,13.3-7.122,9.016-4.884,15.111-8.931,15.111-8.931s8.689,11.294,2.941,13.333c-3.793,1.345-13.973,12.6-35.03,11.464C415.468,109.218,421.8,103.958,419.409,101.938Z" transform="translate(-229.142 -39.672)" fill="#f6861f"/>
        <path id="Trazado_11857" data-name="Trazado 11857" d="M456.476,85.5s4.578-2.256,23.444.051c.956.116,2.74,21.949,2.74,21.949s-9.312,40.762-7.365,49.907c0,0-11.309,8.166-27.465.559,0,0,2.818-31.285,1.249-37.69s-4.578-12.186-.569-18.933A169.77,169.77,0,0,0,456.476,85.5Z" transform="translate(-237.799 -39.285)" fill="#ffaf00"/>
        <path id="Trazado_11858" data-name="Trazado 11858" d="M492.616,85.471a7.613,7.613,0,0,1,6.513-.853c3.368,1.125,13.253,32.286,18.232,38.526-2.64,2.374-8.723,2.754-10.929,5.574-2.379-3.795-3.208-6.641-4.943-11.1-3.571-9.187-4.848-9.309-7.39-11.013C489.7,103.651,492.616,85.471,492.616,85.471Z" transform="translate(-250.495 -39.207)" fill="#ffd09f"/>
        <g id="Grupo_8196" data-name="Grupo 8196" transform="translate(215.532)">
          <path id="Trazado_11859" data-name="Trazado 11859" d="M470.837,22.356s-8.115-.765-10.338,6.838,1.31,16.429.663,19.937-5.176,3.082-4.366,1.336c0,0-2.327,2.9.968,4.74s5.215.307,5.215.307.482,5.23,7.544,5.055,8.347-3.351,8.347-3.351,10.474,5.979,13.841-3.9c-3.227.693-5.273-1.868-5.344-4.688a82.326,82.326,0,0,1,.619-8.561c.3-4.445.242-10.656-3.143-14.146-3.048-3.142-7.334-5.155-12.115-3.7A12.111,12.111,0,0,1,470.837,22.356Z" transform="translate(-455.999 -21.636)" fill="#540049"/>
          <path id="Trazado_11860" data-name="Trazado 11860" d="M471.106,22.578a10.3,10.3,0,0,0-8.676,3.939c-4.163,5.9-1.376,16.524-.72,21.982.341,2.845-2.775,4.258-4.332,3.308a.8.8,0,0,1-.313-1.118c-.8,1.959,4.89,1.809,4.234-2.2-1.085-6.629-6.254-24.093,7.288-25.862A10.781,10.781,0,0,1,471.106,22.578Z" transform="translate(-456.267 -21.857)" fill="#91007e"/>
          <path id="Trazado_11861" data-name="Trazado 11861" d="M493.026,52.451a4.2,4.2,0,0,1-2.205-3.46c-.326-5.378,2.109-13.6-.853-20.332a10.464,10.464,0,0,0-2.039-3.027c-.232-.142-5.18-5.836-12.4-3.453,7.226-1.821,11.63,3.879,11.854,3.979a9.853,9.853,0,0,1,1.766,2.852c2.817,6.943-.354,17.078.559,20.877A4.868,4.868,0,0,0,494.577,54C491,62.184,481.5,56.523,481.433,56.53a3.815,3.815,0,0,1-2.048,2.228l-.484.261a15.97,15.97,0,0,1-7.74,1.144,6.08,6.08,0,0,1-5.194-3.875,5.663,5.663,0,0,0,2.886,3.541c3.611,1.728,10.642,1.185,12.987-2.033a13.282,13.282,0,0,0,8.034,1.588c5.163-.836,6.309-6.421,6.574-6.921C495.789,52.544,494.393,53.109,493.026,52.451Z" transform="translate(-458.802 -21.596)" fill="#3f0037"/>
          <path id="Trazado_11862" data-name="Trazado 11862" d="M465.588,44.62s-.865-1.884-2-1.213.071,8.152,2.2,6.618C467.1,49.081,465.588,44.62,465.588,44.62Z" transform="translate(-458.011 -27.688)" fill="#dd5757"/>
          <path id="Trazado_11863" data-name="Trazado 11863" d="M471.131,64.652s-1.043,9.768-2.316,12.37-3.128,13.863-1.257,13.817S477.926,81.855,478.4,78.31s2.842-18.19,2.842-18.19Z" transform="translate(-459.025 -32.428)" fill="#ff9292"/>
          <path id="Trazado_11864" data-name="Trazado 11864" d="M472.832,63.557c-.07.035-.236,2.059-.245,2.138-.256,2.177-.35,2.045-.25,2.331.781,2.252,3.746,3.6,7.968-.365a21.116,21.116,0,0,0,1.543-1.614c.527-3.3.952-5.927.952-5.927S472.918,63.519,472.832,63.557Z" transform="translate(-460.581 -32.428)" fill="#f15f5c"/>
          <path id="Trazado_11865" data-name="Trazado 11865" d="M471.889,23.6s-6.409,2.9-6.582,7.741.536,6.7.093,9.834,1.109,11.458,6.062,13.446,11.276-6.258,12.329-9.918a29.111,29.111,0,0,0-.058-14.515C482.353,24.535,475.466,22.509,471.889,23.6Z" transform="translate(-458.608 -22.079)" fill="#f37575"/>
          <path id="Trazado_11866" data-name="Trazado 11866" d="M471.889,23.6s-6.409,2.9-6.582,7.741.536,6.7.093,9.834,1.109,11.458,6.062,13.446,11.276-6.258,12.329-9.918a29.111,29.111,0,0,0-.058-14.515C482.353,24.535,475.466,22.509,471.889,23.6Z" transform="translate(-458.608 -22.079)" fill="#ff9292"/>
          <path id="Trazado_11867" data-name="Trazado 11867" d="M471.912,51.63c.785-1.012.914-3.072.729-4.37-.244,1.234-.555,3.45-1.167,4.243l-.129.167a2.927,2.927,0,0,0,2.005.826A4.415,4.415,0,0,1,471.912,51.63Z" transform="translate(-460.314 -28.812)" fill="#45003b"/>
          <path id="Trazado_11868" data-name="Trazado 11868" d="M474.723,64.287h0Z" transform="translate(-461.263 -33.599)" fill="#fff"/>
          <path id="Trazado_11869" data-name="Trazado 11869" d="M477.617,40.728a3.684,3.684,0,0,1,1.824-.979c1.236-.3,3.927,1.072,3.927,1.072a22.535,22.535,0,0,0-3.4-.589,5.368,5.368,0,0,0-1.878.793Z" transform="translate(-462.077 -26.688)" fill="#5c004f"/>
          <path id="Trazado_11870" data-name="Trazado 11870" d="M470.072,40.719a3.029,3.029,0,0,0-1.425-.762c-.961-.249-3.034.725-3.034.725a17.925,17.925,0,0,1,2.634-.376,4.445,4.445,0,0,1,1.464.625Z" transform="translate(-458.702 -26.747)" fill="#5c004f"/>
          <path id="Trazado_11871" data-name="Trazado 11871" d="M476.962,44.956a3.419,3.419,0,0,1,2.651-1.177c1.19.063,1.98.915,2.722.956-1.046.422-1.589-.741-4.068-.256A4.592,4.592,0,0,0,476.962,44.956Z" transform="translate(-461.893 -27.833)" fill="#2e0028"/>
          <path id="Trazado_11872" data-name="Trazado 11872" d="M470.178,45.038a3.059,3.059,0,0,0-2.454-.846c-1.056.147-1.694.967-2.353,1.061.964.3,1.359-.784,3.606-.539A4.1,4.1,0,0,1,470.178,45.038Z" transform="translate(-458.634 -27.944)" fill="#2e0028"/>
          <path id="Trazado_11873" data-name="Trazado 11873" d="M481.742,30.247s2.756,1.285,3.851,7.431,3.622,3.819,3.57,1.669C489.068,35.52,485.358,29.5,481.742,30.247Z" transform="translate(-463.237 -24.011)" fill="#552e5d"/>
          <g id="Grupo_8195" data-name="Grupo 8195" transform="translate(6.676 1.256)">
            <path id="Trazado_11874" data-name="Trazado 11874" d="M484.489,30.008c-1.38-5.649-8.993-7.391-12.6-6.4-3.285.9-6.409,2.9-6.582,7.741-.014.372-.019,3.478-.024,3.816.743-4.631,1.912-7.312,7.027-7.438,7.748-.192,10.307,3.891,12.363,10.218C484.68,35.544,485.156,32.737,484.489,30.008Z" transform="translate(-465.285 -23.343)" fill="#39c08a"/>
            <path id="Trazado_11875" data-name="Trazado 11875" d="M465.285,36.673c.271-3.565,1.082-6.511,4.524-7.549a12.733,12.733,0,0,1,5.619-.177c5.635,1.016,7.95,4.931,9.246,10.507-1.372-3.266-2.921-6.864-6.1-8.5a14.035,14.035,0,0,0-6.827-1.3C466.957,29.932,466.2,33.043,465.285,36.673Z" transform="translate(-465.285 -24.855)" fill="#1d6045"/>
            <path id="Trazado_11876" data-name="Trazado 11876" d="M486.541,35.006A11.3,11.3,0,0,0,471.833,27.8a.315.315,0,1,1-.214-.592A11.62,11.62,0,0,1,486.541,35.006Z" transform="translate(-467.005 -24.253)" fill="#1d6045"/>
            <path id="Trazado_11877" data-name="Trazado 11877" d="M486.5,28.722a9.76,9.76,0,0,0-7.17-3.757h-.014a.315.315,0,0,1,.055-.627C480.205,24.409,484.442,25.322,486.5,28.722Z" transform="translate(-469.149 -23.622)" fill="#1d6045"/>
          </g>
          <path id="Trazado_11878" data-name="Trazado 11878" d="M490.655,44.331s.646-2.48,1.962-1.228-.341,7.023-1.86,7.06S490.655,44.331,490.655,44.331Z" transform="translate(-465.574 -27.544)" fill="#f37575"/>
          <path id="Trazado_11879" data-name="Trazado 11879" d="M491.173,45.637s.152-.864.715-.877.189,4.038-.54,3.939S491.173,45.637,491.173,45.637Z" transform="translate(-465.831 -28.109)" fill="#f15f5c"/>
          <path id="Trazado_11880" data-name="Trazado 11880" d="M482.977,49.516c.168.709-.7,1.523-1.942,1.817s-2.382-.041-2.55-.75.7-1.523,1.94-1.818S482.807,48.806,482.977,49.516Z" transform="translate(-462.315 -29.205)" fill="#ff8383"/>
          <path id="Trazado_11881" data-name="Trazado 11881" d="M466.584,49.082a3.3,3.3,0,0,0-1.222-.071,13.776,13.776,0,0,0,.088,2.235,3.548,3.548,0,0,0,.571.188c1.136.272,2.182-.034,2.338-.683S467.719,49.354,466.584,49.082Z" transform="translate(-458.627 -29.296)" fill="#ff8383"/>
        </g>
        <path id="Trazado_11882" data-name="Trazado 11882" d="M472.45,57.261c.446,0,4.872.428,5.867-1.426a5.507,5.507,0,0,1-5.237,3.807Z" transform="translate(-245.092 -31.223)" fill="#2e0028"/>
        <g id="Grupo_8198" data-name="Grupo 8198" transform="translate(193.453 96.848)">
          <path id="Trazado_11883" data-name="Trazado 11883" d="M432.679,156.333c1.983-.4,10.55,12.723,10.55,12.723a12.808,12.808,0,0,0,.382,5.976l-1.084.219a18.478,18.478,0,0,0-2.084-5.411C438.771,166.877,432.679,156.333,432.679,156.333Z" transform="translate(-427.363 -156.324)" fill="#006e82"/>
          <path id="Trazado_11884" data-name="Trazado 11884" d="M445.685,182.4a2.334,2.334,0,0,0-.579.293,3.01,3.01,0,1,0,3.919.931,3.086,3.086,0,0,0-2.246-1.353A2.512,2.512,0,0,0,445.685,182.4Zm2.54,1.775a1.748,1.748,0,1,1-2.568-.681A1.894,1.894,0,0,1,448.226,184.172Z" transform="translate(-430.549 -163.615)" fill="#006e82"/>
          <path id="Trazado_11885" data-name="Trazado 11885" d="M425.283,165.517c-.014,2.022,14.5,7.924,14.5,7.924a12.81,12.81,0,0,1,5.938-.766l.008-1.106a18.5,18.5,0,0,1-5.71-1.012C436.8,169.483,425.283,165.517,425.283,165.517Z" transform="translate(-425.283 -158.909)" fill="#008296"/>
          <path id="Trazado_11886" data-name="Trazado 11886" d="M453.7,172.461a2.45,2.45,0,0,0-.179.627,2.593,2.593,0,0,0,.08,1.1,3.105,3.105,0,0,0,1.759,1.944,2.858,2.858,0,0,0,3.824-1.27,2.555,2.555,0,0,0-.027-2.068,2.9,2.9,0,0,0-.294-.52,3.2,3.2,0,0,0-1.342-1.084A2.856,2.856,0,0,0,453.7,172.461Zm3.433-.38a1.747,1.747,0,1,1-2.545.771A1.891,1.891,0,0,1,457.129,172.082Z" transform="translate(-433.214 -160.427)" fill="#008296"/>
          <g id="Grupo_8197" data-name="Grupo 8197" transform="translate(25.582 10.518)">
            <path id="Trazado_11887" data-name="Trazado 11887" d="M462.34,170.956l.7.827a7.62,7.62,0,0,1-1.865,1.045l-.306-.5A7.165,7.165,0,0,0,462.34,170.956Z" transform="translate(-460.871 -170.956)" fill="#008296"/>
          </g>
          <circle id="Elipse_506" data-name="Elipse 506" cx="0.623" cy="0.623" r="0.623" transform="translate(13.523 12.208)" fill="#003c50"/>
        </g>
        <path id="Trazado_11888" data-name="Trazado 11888" d="M496.34,186.626a36.764,36.764,0,0,1-4.064-6.573c-1.372-3.138-8.119,5.531-8.119,5.531l.477,1.042a13.038,13.038,0,0,0,8.849,3.73C498.858,190.356,496.34,186.626,496.34,186.626Zm-2.638,1.251c-2.249.812-8.177-2.4-8.177-2.4,1.753-.658,4.961-3.4,4.961-3.4C492.757,181.579,495.951,187.065,493.7,187.877Z" transform="translate(-248.383 -65.956)" fill="#2a3090"/>
        <path id="Trazado_11889" data-name="Trazado 11889" d="M460.752,435.178c4.344-.978,7.442-3.99,7.739-7.533q.095-1.119.209-2.3c.295-3.028.84-10.2,1.306-18.325a86.842,86.842,0,0,1,12.607-.181c-3.238,9.382-6.386,18.556-6.083,21.186a23.639,23.639,0,0,0,1.252,4.773l.2,5.033c-2.674,1.261-8.378.233-14.023,1.214s-13.548-1.589-13.548-1.589S455.852,436.28,460.752,435.178Z" transform="translate(-238.895 -129.871)" fill="#f15f5c"/>
        <path id="Trazado_11890" data-name="Trazado 11890" d="M463.96,445.664c1.514.439,10.38-1.507,13.832-2.3l.191,4.772c-2.674,1.261-8.378.233-14.023,1.214s-13.548-1.589-13.548-1.589,5.44-1.173,10.34-2.276A6.421,6.421,0,0,1,463.96,445.664Z" transform="translate(-238.895 -140.183)" fill="#52003b"/>
        <path id="Trazado_11891" data-name="Trazado 11891" d="M446.009,219.751l24.052,8.088s-3.844,54.205,5.974,69.079c10.362,15.7,14.519,63.36,14.519,63.36l-15.285,4.071-12.854-50.1c-.867-3.091-1.957-6.988-3.309-11.834C445.6,254.029,446.009,219.751,446.009,219.751Z" transform="translate(-237.657 -77.31)" fill="#3e3e6e"/>
        <path id="Trazado_11892" data-name="Trazado 11892" d="M475.768,418.22c3.243-.351,6.5-.63,9.768-.858.229,14.4-.058,16.287,1.593,18.015,0,0,6.721,9.243,6.721,11.36s-4.558,3.549-6.281,3.549c-1.591,0-4.758-10.985-5.89-14.229C481.678,436.053,477.181,425.791,475.768,418.22Z" transform="translate(-246.025 -132.871)" fill="#f37575"/>
        <path id="Trazado_11893" data-name="Trazado 11893" d="M485.609,422.252a58.128,58.128,0,0,1-9.249-.814q-.288-1.6-.592-3.218c3.243-.351,6.5-.63,9.768-.858C485.564,419.074,485.587,420.715,485.609,422.252Z" transform="translate(-246.025 -132.871)" fill="#f15f5c"/>
        <path id="Trazado_11894" data-name="Trazado 11894" d="M443.534,186.925c-1.257,3.368-15.246,119.745-15.246,119.745h48.627L463.072,188.054Z" transform="translate(-232.675 -68.081)" fill="#b0b3e6"/>
        <path id="Trazado_11895" data-name="Trazado 11895" d="M469.368,193.35l-.618-5.3-19.538-1.129a40.694,40.694,0,0,0-.73,4.157h0C457.124,195.292,464.462,194.744,469.368,193.35Z" transform="translate(-238.352 -68.081)" fill="#5d5ba3" opacity="0.46"/>
        <path id="Trazado_11896" data-name="Trazado 11896" d="M477.017,191.793l6.4-3.931-6.745.456Z" transform="translate(-246.28 -68.344)" fill="#5d5ba3"/>
        <path id="Trazado_11897" data-name="Trazado 11897" d="M493.922,449.747c1.54,1.684,3.115,4.874,3.115,6.095,0,2.116-4.558,3.549-6.281,3.549-1.047,0-2.457-3.165-3.652-7.426C491.7,451.811,493.042,451.747,493.922,449.747Z" transform="translate(-249.212 -141.976)" fill="#6f004f"/>
        <path id="Trazado_11898" data-name="Trazado 11898" d="M502.819,139.191a26.34,26.34,0,0,0-8.876,2.756c1.029,1.205,1.571,2.058,1.428,2.421-1.006,2.538-23.694,13.85-27.947,15.69,0,0-5.049-.773-7.277,0a8,8,0,0,0-1.736.821v-.011s-10.332,5.561-9.4,6.49,7.431-5.155,8.331-4.255c.019.042.032.079.051.119.09,1.1-9.209,5-8,6.2.96.96,6.41-2.707,8.686-3.814.033.15.07.307.112.479.024.093.056.171.086.254-1.9,1.363-6.436,2.987-5.588,3.835.772.771,4.493-1.464,6.311-2.633.023.029.045.058.065.086-1.395,1.136-3.765,3.165-2.873,3.165.63,0,2.44-1.046,4.062-2.07,2.29-.285,8.654-2.617,9.086-3.97a7.984,7.984,0,0,1,3.058-1.425c6.124-1.622,30.819-9.593,34.045-15.1C507.536,146.354,505.7,143.017,502.819,139.191Z" transform="translate(-238.484 -54.66)" fill="#ff9292"/>
        <path id="Trazado_11899" data-name="Trazado 11899" d="M485.583,188.179a1.254,1.254,0,1,1-1.254-1.254A1.254,1.254,0,0,1,485.583,188.179Z" transform="translate(-248.079 -68.081)" fill="#5d5ba3"/>
        <path id="Trazado_11900" data-name="Trazado 11900" d="M470.67,226.409c.382.119.593.188.593.188s-.08-.066-.236-.188Z" transform="translate(-244.591 -79.182)" fill="#c44246"/>
        <path id="Trazado_11901" data-name="Trazado 11901" d="M465.262,226.409c.275.1.447.165.494.182-.04-.019-.173-.083-.387-.182Z" transform="translate(-243.071 -79.182)" fill="#c44246"/>
        <rect id="Rectángulo_2169" data-name="Rectángulo 2169" width="266.47" height="4.147" transform="translate(295.815 157.085) rotate(180)" fill="#6f2100"/>
        <rect id="Rectángulo_2170" data-name="Rectángulo 2170" width="123.768" height="4.147" transform="translate(136.325 157.085) rotate(180)" fill="#b2484c"/>
        <rect id="Rectángulo_2171" data-name="Rectángulo 2171" width="266.47" height="3.643" transform="translate(295.815 160.728) rotate(180)" fill="#2c0050"/>
        <rect id="Rectángulo_2172" data-name="Rectángulo 2172" width="124.761" height="3.643" transform="translate(137.318 160.728) rotate(180)" fill="#4d1b73"/>
        <rect id="Rectángulo_2173" data-name="Rectángulo 2173" width="7.285" height="153.585" transform="translate(143.61 314.313) rotate(180)" fill="#2c0050"/>
        <rect id="Rectángulo_2174" data-name="Rectángulo 2174" width="2.538" height="153.585" transform="translate(134.78 160.728)" fill="#4d1b73"/>
        <rect id="Rectángulo_2175" data-name="Rectángulo 2175" width="4.704" height="156.005" transform="translate(293.394 316.732) rotate(180)" fill="#2c0050"/>
        <rect id="Rectángulo_2176" data-name="Rectángulo 2176" width="2.539" height="156.005" transform="translate(287.144 160.728)" fill="#4d1b73"/>
        <rect id="Rectángulo_2177" data-name="Rectángulo 2177" width="283.614" height="5.71" transform="translate(304.366 152.939) rotate(180)" fill="#942c00"/>
        <rect id="Rectángulo_2178" data-name="Rectángulo 2178" width="140.464" height="5.71" transform="translate(140.464 152.939) rotate(180)" fill="#942c00"/>
        <path id="Trazado_11902" data-name="Trazado 11902" d="M332.473,221.583s-38.835-17.156-61.583-11.008-76,9.925-76,9.925l-3.619,67.857,102.884,6.479s-5.193-69.624.98-73.253,37.336,0,37.336,0Z" transform="translate(-132.01 -72.229)" fill="#31b7a6"/>
      </g>
    </g>
    <path id="Trazado_11906" data-name="Trazado 11906" d="M608.077,404.551a.82.82,0,0,1,1.64,0v1.929h1.93a.821.821,0,0,1,0,1.642h-1.93v1.929a.82.82,0,0,1-1.64,0v-1.929h-1.929a.821.821,0,0,1,0-1.642h1.929Z" transform="translate(101.831 -117.883)" fill="#f9ad3e" fill-rule="evenodd"/>
    <path id="Trazado_11903" data-name="Trazado 11903" d="M479.232,68.779a1.1,1.1,0,0,0-2.19,0v2.577h-2.575a1.1,1.1,0,1,0,0,2.191h2.575v2.576a1.1,1.1,0,1,0,2.19,0V73.548h2.577a1.1,1.1,0,0,0,0-2.191h-2.577Z" transform="translate(282.758 45.381)" fill="#00a99a" fill-rule="evenodd"/>
    <path id="Trazado_11904" data-name="Trazado 11904" d="M479.232,68.779a1.1,1.1,0,0,0-2.19,0v2.577h-2.575a1.1,1.1,0,1,0,0,2.191h2.575v2.576a1.1,1.1,0,1,0,2.19,0V73.548h2.577a1.1,1.1,0,0,0,0-2.191h-2.577Z" transform="translate(201.948 130.444)" fill="#00a99a" fill-rule="evenodd"/>
    <path id="Trazado_11905" data-name="Trazado 11905" d="M479.232,68.779a1.1,1.1,0,0,0-2.19,0v2.577h-2.575a1.1,1.1,0,1,0,0,2.191h2.575v2.576a1.1,1.1,0,1,0,2.19,0V73.548h2.577a1.1,1.1,0,0,0,0-2.191h-2.577Z" transform="translate(441.189 226.14)" fill="#00a99a" fill-rule="evenodd"/>
    <path id="Trazado_11804" data-name="Trazado 11804" d="M511.554,460.411H80.783c-1.636,0-2.972-2.3-2.972-5.1h0c0-2.809,1.336-5.107,2.972-5.107H511.554c1.635,0,2.971,2.3,2.971,5.107h0C514.525,458.114,513.189,460.411,511.554,460.411Z" transform="translate(606.351 -108.619)" fill="#e2c784" fill-rule="evenodd"/>
  </g>
</svg>
